<svg width="145" height="45" viewBox="0 0 145 45" fill="none" xmlns="http://www.w3.org/2000/svg">
<rect width="3" height="45" fill="#2E31CA"/>
<rect x="7" width="5" height="45" fill="#2E31CA"/>
<rect width="129" height="45" transform="translate(16)" fill="#2E31CA"/>
<path d="M33.3203 16.625H37.0859C37.9401 16.625 38.6615 16.7552 39.25 17.0156C39.8438 17.276 40.2943 17.6615 40.6016 18.1719C40.9141 18.6771 41.0703 19.2995 41.0703 20.0391C41.0703 20.5599 40.9635 21.0365 40.75 21.4688C40.5417 21.8958 40.2396 22.2604 39.8438 22.5625C39.4531 22.8594 38.9844 23.0807 38.4375 23.2266L38.0156 23.3906H34.4766L34.4609 22.1641H37.1328C37.6745 22.1641 38.125 22.0703 38.4844 21.8828C38.8438 21.6901 39.1146 21.4323 39.2969 21.1094C39.4792 20.7865 39.5703 20.4297 39.5703 20.0391C39.5703 19.6016 39.4844 19.2188 39.3125 18.8906C39.1406 18.5625 38.8698 18.3099 38.5 18.1328C38.1354 17.9505 37.6641 17.8594 37.0859 17.8594H34.8281V28H33.3203V16.625ZM39.9688 28L37.2031 22.8438L38.7734 22.8359L41.5781 27.9062V28H39.9688ZM46.4688 28.1562C45.8802 28.1562 45.3464 28.0573 44.8672 27.8594C44.3932 27.6562 43.9844 27.3724 43.6406 27.0078C43.3021 26.6432 43.0417 26.2109 42.8594 25.7109C42.6771 25.2109 42.5859 24.6641 42.5859 24.0703V23.7422C42.5859 23.0547 42.6875 22.4427 42.8906 21.9062C43.0938 21.3646 43.3698 20.9062 43.7188 20.5312C44.0677 20.1562 44.4635 19.8724 44.9062 19.6797C45.349 19.487 45.8073 19.3906 46.2812 19.3906C46.8854 19.3906 47.4062 19.4948 47.8438 19.7031C48.2865 19.9115 48.6484 20.2031 48.9297 20.5781C49.2109 20.9479 49.4193 21.3854 49.5547 21.8906C49.6901 22.3906 49.7578 22.9375 49.7578 23.5312V24.1797H43.4453V23H48.3125V22.8906C48.2917 22.5156 48.2135 22.151 48.0781 21.7969C47.9479 21.4427 47.7396 21.151 47.4531 20.9219C47.1667 20.6927 46.776 20.5781 46.2812 20.5781C45.9531 20.5781 45.651 20.6484 45.375 20.7891C45.099 20.9245 44.862 21.1276 44.6641 21.3984C44.4661 21.6693 44.3125 22 44.2031 22.3906C44.0938 22.7812 44.0391 23.2318 44.0391 23.7422V24.0703C44.0391 24.4714 44.0938 24.849 44.2031 25.2031C44.3177 25.5521 44.4818 25.8594 44.6953 26.125C44.9141 26.3906 45.1771 26.599 45.4844 26.75C45.7969 26.901 46.151 26.9766 46.5469 26.9766C47.0573 26.9766 47.4896 26.8724 47.8438 26.6641C48.1979 26.4557 48.5078 26.1771 48.7734 25.8281L49.6484 26.5234C49.4661 26.7995 49.2344 27.0625 48.9531 27.3125C48.6719 27.5625 48.3255 27.7656 47.9141 27.9219C47.5078 28.0781 47.026 28.1562 46.4688 28.1562ZM56.4297 26.5547V22.2031C56.4297 21.8698 56.362 21.5807 56.2266 21.3359C56.0964 21.0859 55.8984 20.8932 55.6328 20.7578C55.3672 20.6224 55.0391 20.5547 54.6484 20.5547C54.2839 20.5547 53.9635 20.6172 53.6875 20.7422C53.4167 20.8672 53.2031 21.0312 53.0469 21.2344C52.8958 21.4375 52.8203 21.6562 52.8203 21.8906H51.375C51.375 21.5885 51.4531 21.2891 51.6094 20.9922C51.7656 20.6953 51.9896 20.4271 52.2812 20.1875C52.5781 19.9427 52.9323 19.75 53.3438 19.6094C53.7604 19.4635 54.224 19.3906 54.7344 19.3906C55.349 19.3906 55.8906 19.4948 56.3594 19.7031C56.8333 19.9115 57.2031 20.2266 57.4688 20.6484C57.7396 21.0651 57.875 21.5885 57.875 22.2188V26.1562C57.875 26.4375 57.8984 26.737 57.9453 27.0547C57.9974 27.3724 58.0729 27.6458 58.1719 27.875V28H56.6641C56.5911 27.8333 56.5339 27.612 56.4922 27.3359C56.4505 27.0547 56.4297 26.7943 56.4297 26.5547ZM56.6797 22.875L56.6953 23.8906H55.2344C54.8229 23.8906 54.4557 23.9245 54.1328 23.9922C53.8099 24.0547 53.5391 24.151 53.3203 24.2812C53.1016 24.4115 52.9349 24.5755 52.8203 24.7734C52.7057 24.9661 52.6484 25.1927 52.6484 25.4531C52.6484 25.7188 52.7083 25.9609 52.8281 26.1797C52.9479 26.3984 53.1276 26.5729 53.3672 26.7031C53.612 26.8281 53.9115 26.8906 54.2656 26.8906C54.7083 26.8906 55.099 26.7969 55.4375 26.6094C55.776 26.4219 56.0443 26.1927 56.2422 25.9219C56.4453 25.651 56.5547 25.388 56.5703 25.1328L57.1875 25.8281C57.151 26.0469 57.0521 26.2891 56.8906 26.5547C56.7292 26.8203 56.513 27.0755 56.2422 27.3203C55.9766 27.5599 55.6589 27.7604 55.2891 27.9219C54.9245 28.0781 54.513 28.1562 54.0547 28.1562C53.4818 28.1562 52.9792 28.0443 52.5469 27.8203C52.1198 27.5964 51.7865 27.2969 51.5469 26.9219C51.3125 26.5417 51.1953 26.1172 51.1953 25.6484C51.1953 25.1953 51.2839 24.7969 51.4609 24.4531C51.638 24.1042 51.8932 23.8151 52.2266 23.5859C52.5599 23.3516 52.9609 23.1745 53.4297 23.0547C53.8984 22.9349 54.4219 22.875 55 22.875H56.6797ZM65.4766 26.3594V16H66.9297V28H65.6016L65.4766 26.3594ZM59.7891 23.8672V23.7031C59.7891 23.0573 59.8672 22.4714 60.0234 21.9453C60.1849 21.4141 60.4115 20.9583 60.7031 20.5781C61 20.1979 61.3516 19.9062 61.7578 19.7031C62.1693 19.4948 62.6276 19.3906 63.1328 19.3906C63.6641 19.3906 64.1276 19.4844 64.5234 19.6719C64.9245 19.8542 65.263 20.1224 65.5391 20.4766C65.8203 20.8255 66.0417 21.2474 66.2031 21.7422C66.3646 22.237 66.4766 22.7969 66.5391 23.4219V24.1406C66.4818 24.7604 66.3698 25.3177 66.2031 25.8125C66.0417 26.3073 65.8203 26.7292 65.5391 27.0781C65.263 27.4271 64.9245 27.6953 64.5234 27.8828C64.1224 28.0651 63.6536 28.1562 63.1172 28.1562C62.6224 28.1562 62.1693 28.0495 61.7578 27.8359C61.3516 27.6224 61 27.3229 60.7031 26.9375C60.4115 26.5521 60.1849 26.099 60.0234 25.5781C59.8672 25.0521 59.7891 24.4818 59.7891 23.8672ZM61.2422 23.7031V23.8672C61.2422 24.2891 61.2839 24.6849 61.3672 25.0547C61.4557 25.4245 61.5911 25.75 61.7734 26.0312C61.9557 26.3125 62.1875 26.5339 62.4688 26.6953C62.75 26.8516 63.0859 26.9297 63.4766 26.9297C63.9557 26.9297 64.349 26.8281 64.6562 26.625C64.9688 26.4219 65.2188 26.1536 65.4062 25.8203C65.5938 25.487 65.7396 25.125 65.8438 24.7344V22.8516C65.7812 22.5651 65.6901 22.2891 65.5703 22.0234C65.4557 21.7526 65.3047 21.513 65.1172 21.3047C64.9349 21.0911 64.7083 20.9219 64.4375 20.7969C64.1719 20.6719 63.8568 20.6094 63.4922 20.6094C63.0964 20.6094 62.7552 20.6927 62.4688 20.8594C62.1875 21.0208 61.9557 21.2448 61.7734 21.5312C61.5911 21.8125 61.4557 22.1406 61.3672 22.5156C61.2839 22.8854 61.2422 23.2812 61.2422 23.7031ZM73.8438 16.625H75.3047L79.0312 25.8984L82.75 16.625H84.2188L79.5938 28H78.4531L73.8438 16.625ZM73.3672 16.625H74.6562L74.8672 23.5625V28H73.3672V16.625ZM83.3984 16.625H84.6875V28H83.1875V23.5625L83.3984 16.625ZM86.7344 23.8672V23.6875C86.7344 23.0781 86.8229 22.513 87 21.9922C87.1771 21.4661 87.4323 21.0104 87.7656 20.625C88.099 20.2344 88.5026 19.9323 88.9766 19.7188C89.4505 19.5 89.9818 19.3906 90.5703 19.3906C91.1641 19.3906 91.6979 19.5 92.1719 19.7188C92.651 19.9323 93.0573 20.2344 93.3906 20.625C93.7292 21.0104 93.987 21.4661 94.1641 21.9922C94.3411 22.513 94.4297 23.0781 94.4297 23.6875V23.8672C94.4297 24.4766 94.3411 25.0417 94.1641 25.5625C93.987 26.0833 93.7292 26.5391 93.3906 26.9297C93.0573 27.3151 92.6536 27.6172 92.1797 27.8359C91.7109 28.0495 91.1797 28.1562 90.5859 28.1562C89.9922 28.1562 89.4583 28.0495 88.9844 27.8359C88.5104 27.6172 88.1042 27.3151 87.7656 26.9297C87.4323 26.5391 87.1771 26.0833 87 25.5625C86.8229 25.0417 86.7344 24.4766 86.7344 23.8672ZM88.1797 23.6875V23.8672C88.1797 24.2891 88.2292 24.6875 88.3281 25.0625C88.4271 25.4323 88.5755 25.7604 88.7734 26.0469C88.9766 26.3333 89.2292 26.5599 89.5312 26.7266C89.8333 26.888 90.1849 26.9688 90.5859 26.9688C90.9818 26.9688 91.3281 26.888 91.625 26.7266C91.9271 26.5599 92.1771 26.3333 92.375 26.0469C92.5729 25.7604 92.7214 25.4323 92.8203 25.0625C92.9245 24.6875 92.9766 24.2891 92.9766 23.8672V23.6875C92.9766 23.2708 92.9245 22.8776 92.8203 22.5078C92.7214 22.1328 92.5703 21.8021 92.3672 21.5156C92.1693 21.224 91.9193 20.9948 91.6172 20.8281C91.3203 20.6615 90.9714 20.5781 90.5703 20.5781C90.1745 20.5781 89.8255 20.6615 89.5234 20.8281C89.2266 20.9948 88.9766 21.224 88.7734 21.5156C88.5755 21.8021 88.4271 22.1328 88.3281 22.5078C88.2292 22.8776 88.1797 23.2708 88.1797 23.6875ZM97.6875 20.875V28H96.2422V19.5469H97.6484L97.6875 20.875ZM100.328 19.5L100.32 20.8438C100.201 20.8177 100.086 20.8021 99.9766 20.7969C99.8724 20.7865 99.7526 20.7812 99.6172 20.7812C99.2839 20.7812 98.9896 20.8333 98.7344 20.9375C98.4792 21.0417 98.263 21.1875 98.0859 21.375C97.9089 21.5625 97.7682 21.7865 97.6641 22.0469C97.5651 22.3021 97.5 22.5833 97.4688 22.8906L97.0625 23.125C97.0625 22.6146 97.112 22.1354 97.2109 21.6875C97.3151 21.2396 97.474 20.8438 97.6875 20.5C97.901 20.151 98.1719 19.8802 98.5 19.6875C98.8333 19.4896 99.2292 19.3906 99.6875 19.3906C99.7917 19.3906 99.9115 19.4036 100.047 19.4297C100.182 19.4505 100.276 19.474 100.328 19.5ZM105.016 28.1562C104.427 28.1562 103.893 28.0573 103.414 27.8594C102.94 27.6562 102.531 27.3724 102.188 27.0078C101.849 26.6432 101.589 26.2109 101.406 25.7109C101.224 25.2109 101.133 24.6641 101.133 24.0703V23.7422C101.133 23.0547 101.234 22.4427 101.438 21.9062C101.641 21.3646 101.917 20.9062 102.266 20.5312C102.615 20.1562 103.01 19.8724 103.453 19.6797C103.896 19.487 104.354 19.3906 104.828 19.3906C105.432 19.3906 105.953 19.4948 106.391 19.7031C106.833 19.9115 107.195 20.2031 107.477 20.5781C107.758 20.9479 107.966 21.3854 108.102 21.8906C108.237 22.3906 108.305 22.9375 108.305 23.5312V24.1797H101.992V23H106.859V22.8906C106.839 22.5156 106.76 22.151 106.625 21.7969C106.495 21.4427 106.286 21.151 106 20.9219C105.714 20.6927 105.323 20.5781 104.828 20.5781C104.5 20.5781 104.198 20.6484 103.922 20.7891C103.646 20.9245 103.409 21.1276 103.211 21.3984C103.013 21.6693 102.859 22 102.75 22.3906C102.641 22.7812 102.586 23.2318 102.586 23.7422V24.0703C102.586 24.4714 102.641 24.849 102.75 25.2031C102.865 25.5521 103.029 25.8594 103.242 26.125C103.461 26.3906 103.724 26.599 104.031 26.75C104.344 26.901 104.698 26.9766 105.094 26.9766C105.604 26.9766 106.036 26.8724 106.391 26.6641C106.745 26.4557 107.055 26.1771 107.32 25.8281L108.195 26.5234C108.013 26.7995 107.781 27.0625 107.5 27.3125C107.219 27.5625 106.872 27.7656 106.461 27.9219C106.055 28.0781 105.573 28.1562 105.016 28.1562Z" fill="white"/>
<path d="M125.5 20.1428V26.6428C125.5 26.7754 125.448 26.9026 125.354 26.9964C125.26 27.0901 125.133 27.1428 125 27.1428C124.868 27.1428 124.74 27.0901 124.647 26.9964C124.553 26.9026 124.5 26.7754 124.5 26.6428V21.3497L117.354 28.4966C117.26 28.5904 117.133 28.6431 117 28.6431C116.868 28.6431 116.74 28.5904 116.647 28.4966C116.553 28.4028 116.5 28.2755 116.5 28.1428C116.5 28.0101 116.553 27.8829 116.647 27.7891L123.793 20.6428H118.5C118.368 20.6428 118.24 20.5901 118.147 20.4964C118.053 20.4026 118 20.2754 118 20.1428C118 20.0102 118.053 19.883 118.147 19.7893C118.24 19.6955 118.368 19.6428 118.5 19.6428H125C125.133 19.6428 125.26 19.6955 125.354 19.7893C125.448 19.883 125.5 20.0102 125.5 20.1428Z" fill="white"/>
</svg>
