<svg width="158" height="165" viewBox="0 0 158 165" fill="none" xmlns="http://www.w3.org/2000/svg">
<path d="M56.9221 164.418V155.925H57.8296V163.641H62.6364V164.418H56.9221Z" fill="#0C0D50"/>
<path d="M65.8598 164.418V155.925H71.7458V156.701H66.7672V163.641H71.9297V164.418H65.8598ZM66.6691 160.487V159.722H71.2063V160.487H66.6691Z" fill="#0C0D50"/>
<path d="M79.5201 164.49C78.8661 164.49 78.2611 164.385 77.7052 164.175C77.1575 163.957 76.6793 163.653 76.2705 163.265C75.87 162.877 75.5552 162.42 75.3263 161.894C75.1056 161.368 74.9952 160.794 74.9952 160.171C74.9952 159.549 75.1056 158.974 75.3263 158.449C75.5552 157.923 75.8741 157.466 76.2828 157.078C76.6916 156.689 77.1698 156.39 77.7175 156.18C78.2734 155.961 78.8783 155.852 79.5323 155.852C80.1863 155.852 80.7831 155.953 81.3227 156.155C81.8704 156.358 82.3364 156.665 82.7206 157.078L82.1565 157.648C81.7968 157.292 81.4003 157.037 80.9671 156.883C80.5338 156.73 80.0678 156.653 79.5691 156.653C79.0378 156.653 78.5473 156.742 78.0976 156.92C77.6562 157.09 77.2679 157.336 76.9327 157.66C76.6057 157.975 76.3482 158.347 76.1602 158.776C75.9803 159.197 75.8904 159.662 75.8904 160.171C75.8904 160.673 75.9803 161.138 76.1602 161.567C76.3482 161.995 76.6057 162.371 76.9327 162.695C77.2679 163.01 77.6562 163.257 78.0976 163.435C78.5473 163.605 79.0337 163.69 79.5569 163.69C80.0474 163.69 80.5093 163.617 80.9425 163.471C81.384 163.326 81.7886 163.079 82.1565 162.731L82.6715 163.411C82.2628 163.767 81.7845 164.037 81.2368 164.224C80.6891 164.401 80.1169 164.49 79.5201 164.49ZM82.6715 163.411L81.8009 163.301V160.171H82.6715V163.411Z" fill="#0C0D50"/>
<path d="M85.5831 164.418L89.5071 155.925H90.4022L94.3262 164.418H93.3697L89.7646 156.447H90.1325L86.5273 164.418H85.5831ZM87.1282 162.149L87.3979 161.421H92.3887L92.6585 162.149H87.1282Z" fill="#0C0D50"/>
<path d="M97.4629 164.418V155.925H98.3703V163.641H103.177V164.418H97.4629Z" fill="#0C0D50"/>
<path fill-rule="evenodd" clip-rule="evenodd" d="M78.6261 0L79.8705 3.58807H83.8974L80.6396 5.80557L81.884 9.39355L78.6261 7.17604L75.3682 9.39355L76.6126 5.80557L73.3547 3.58807H77.3817L78.6261 0Z" fill="#0C0D50"/>
<path fill-rule="evenodd" clip-rule="evenodd" d="M46.8678 69.8474H21.9972C21.9816 70.0044 21.9739 70.1618 21.9739 70.3192C21.9739 74.5778 27.5564 78.0353 34.4325 78.0353C41.3086 78.0353 46.8911 74.5778 46.8911 70.3192C46.8911 70.1618 46.8834 70.0044 46.8678 69.8474Z" fill="#0C0D50"/>
<path fill-rule="evenodd" clip-rule="evenodd" d="M111.562 69.9445H136.433C136.448 70.1015 136.456 70.2588 136.456 70.4162C136.456 74.6749 130.873 78.1324 123.997 78.1324C117.121 78.1324 111.539 74.6749 111.539 70.4162C111.539 70.2588 111.546 70.1015 111.562 69.9445Z" fill="#0C0D50"/>
<path fill-rule="evenodd" clip-rule="evenodd" d="M99.2764 34.3588L97.8049 36.9794C99.0167 37.01 103.495 37.6588 103.495 37.6588C103.495 37.6588 98.5761 37.5373 97.4125 37.7559L95.5487 39.5029C97.351 39.3167 102.548 37.587 116.282 40.4554C117.133 40.6332 117.943 40.9859 118.798 41.144C126.332 42.5361 129.573 39.8697 129.413 37.8691C129.116 34.1589 124.654 34.7875 124.171 37.5015C124.007 38.422 123.016 38.9206 123.016 38.9206C123.016 38.9206 120.081 39.1053 118.504 38.7265C118.116 38.6333 117.457 38.0956 117.327 37.7559C117.221 37.4821 117.037 37.0454 117.13 36.6882C117.261 36.1867 118.181 35.4369 118.013 34.5529C117.567 32.2061 112.596 33.8424 114.384 37.4647C112.1 36.9749 109.342 35.8762 102.861 34.5551C100.731 34.1208 99.3902 34.3556 99.2764 34.3588Z" fill="#0C0D50"/>
<path d="M123.213 42.2206H124.684V68.0382H123.213V42.2206Z" fill="#0C0D50"/>
<path d="M123.343 42.8198L124.684 42.2206L136.442 67.9827L135.101 68.5819L123.343 42.8198Z" fill="#0C0D50"/>
<path d="M124.556 42.8223L123.215 42.2231L111.457 67.9853L112.798 68.5844L124.556 42.8223Z" fill="#0C0D50"/>
<path d="M110.362 67.8441H138.026V69.3H110.362V67.8441Z" fill="#0C0D50"/>
<path fill-rule="evenodd" clip-rule="evenodd" d="M65.53 33.9706V37.7559C62.6057 37.2571 59.533 37.1572 56.3087 37.4647C59.4976 37.6935 62.6007 38.2167 65.4319 39.0176V41.5412C63.7276 40.7726 55.6855 37.1017 42.1482 40.3583C41.3025 40.5616 40.4873 40.8888 39.6319 41.0469C32.0983 42.4391 28.8573 39.7727 29.0172 37.7721C29.3137 34.0618 33.7758 34.6905 34.2588 37.4044C34.4226 38.3249 35.4135 38.8235 35.4135 38.8235C35.4135 38.8235 38.3487 39.0082 39.9261 38.6294C40.314 38.5362 40.9725 37.9985 41.1033 37.6588C41.2088 37.385 41.3927 36.9483 41.2995 36.5912C41.1687 36.0897 40.2486 35.3399 40.4166 34.4559C40.8628 32.1091 45.834 33.7453 44.0463 37.3676C46.2961 36.7753 48.8854 35.005 55.569 34.458C58.3742 34.2284 65.53 33.9706 65.53 33.9706Z" fill="#0C0D50"/>
<path d="M35.2173 42.1235H33.7458V67.9412H35.2173V42.1235Z" fill="#0C0D50"/>
<path d="M35.0869 42.7227L33.7458 42.1235L21.9875 67.8856L23.3286 68.4848L35.0869 42.7227Z" fill="#0C0D50"/>
<path d="M33.8733 42.7253L34.5439 42.4257L35.2144 42.1261L46.9727 67.8882L45.6316 68.4874L33.8733 42.7253Z" fill="#0C0D50"/>
<path d="M48.0683 67.7471H20.4043V69.2029H48.0683V67.7471Z" fill="#0C0D50"/>
<path fill-rule="evenodd" clip-rule="evenodd" d="M44.7329 121.517C39.3701 121.452 36.4926 123.458 36.4926 123.458C36.4926 123.458 39.1843 117.411 45.7139 115.499C52.2435 113.587 64.6471 114.528 64.6471 114.528C64.6471 114.528 57.8981 118.72 57.8782 121.517" fill="#0C0D50"/>
<path fill-rule="evenodd" clip-rule="evenodd" d="M113.868 121.487C119.231 121.422 122.108 123.428 122.108 123.428C121.523 123.008 119.545 116.446 110.199 114.878C104.177 113.868 92.9739 114.475 93.9537 114.498C93.9537 114.498 100.703 118.69 100.722 121.487" fill="#0C0D50"/>
<path fill-rule="evenodd" clip-rule="evenodd" d="M57.5839 125.303C57.5839 125.303 60.7928 122.169 66.609 121.518C72.4253 120.866 86.9112 121.012 88.5833 121.032C90.2554 121.053 97.3178 122.844 100.846 125.303C101.101 125.481 98.1359 116.648 91.9187 115.306C85.7014 113.964 67.061 115.01 66.7072 115.015C66.3533 115.02 57.7477 118.38 57.5839 125.303Z" fill="#0C0D50"/>
<path fill-rule="evenodd" clip-rule="evenodd" d="M63.5386 84.7539H70.9284C70.9829 85.0382 71.0103 85.3278 71.0103 85.6183C71.0103 87.9217 69.3179 89.7919 67.2335 89.7919C65.1491 89.7919 63.4566 87.9217 63.4566 85.6183C63.4566 85.3278 63.4841 85.0382 63.5386 84.7539Z" fill="#0C0D50"/>
<path fill-rule="evenodd" clip-rule="evenodd" d="M71.1903 84.7539H78.5801C78.6346 85.0382 78.662 85.3278 78.662 85.6183C78.662 87.9217 76.9696 89.7919 74.8852 89.7919C72.8008 89.7919 71.1084 87.9217 71.1084 85.6183C71.1084 85.3278 71.1358 85.0382 71.1903 84.7539Z" fill="#0C0D50"/>
<path fill-rule="evenodd" clip-rule="evenodd" d="M78.8421 84.7539H86.2318C86.2864 85.0382 86.3138 85.3278 86.3138 85.6183C86.3138 87.9217 84.6214 89.7919 82.537 89.7919C80.4525 89.7919 78.7601 87.9217 78.7601 85.6183C78.7601 85.3278 78.7875 85.0382 78.8421 84.7539Z" fill="#0C0D50"/>
<path fill-rule="evenodd" clip-rule="evenodd" d="M86.5919 84.7539H93.9817C94.0362 85.0382 94.0636 85.3278 94.0636 85.6183C94.0636 87.9217 92.3712 89.7919 90.2868 89.7919C88.2024 89.7919 86.51 87.9217 86.51 85.6183C86.51 85.3278 86.5374 85.0382 86.5919 84.7539Z" fill="#0C0D50"/>
<path d="M80.5393 45.8118H78.2831V72.0177H80.5393V45.8118Z" fill="#0C0D50"/>
<path fill-rule="evenodd" clip-rule="evenodd" d="M90.1311 84.3029H67.8383C66.7892 84.3029 65.9375 83.4602 65.9375 82.4223V81.913C65.9375 80.8751 66.7892 80.0323 67.8383 80.0323H90.1311C91.1802 80.0323 92.0319 80.8751 92.0319 81.913V82.4223C92.0319 83.4602 91.1802 84.3029 90.1311 84.3029Z" fill="#0C0D50"/>
<path fill-rule="evenodd" clip-rule="evenodd" d="M90.1357 114.196H67.8429C66.7938 114.196 65.9421 113.353 65.9421 112.315V111.806C65.9421 110.768 66.7938 109.925 67.8429 109.925H90.1357C91.1848 109.925 92.0365 110.768 92.0365 111.806V112.315C92.0365 113.353 91.1848 114.196 90.1357 114.196Z" fill="#0C0D50"/>
<path fill-rule="evenodd" clip-rule="evenodd" d="M88.2122 91.575V109.444H83.111V91.575C83.111 90.3483 84.1176 89.3524 85.3574 89.3524H85.9657C87.2055 89.3524 88.2122 90.3483 88.2122 91.575Z" fill="#0C0D50"/>
<path fill-rule="evenodd" clip-rule="evenodd" d="M81.2471 91.5714V109.44H76.146V91.5714C76.146 90.3448 77.1526 89.3488 78.3924 89.3488H79.0007C80.2405 89.3488 81.2471 90.3448 81.2471 91.5714Z" fill="#0C0D50"/>
<path fill-rule="evenodd" clip-rule="evenodd" d="M74.3802 91.5714V109.44H69.279V91.5714C69.279 90.3448 70.2856 89.3488 71.5254 89.3488H72.1337C73.3735 89.3488 74.3802 90.3448 74.3802 91.5714Z" fill="#0C0D50"/>
<path fill-rule="evenodd" clip-rule="evenodd" d="M94.9599 79.3941C94.9122 80.2878 98.0374 69.2678 98.3934 64.6412C98.4137 64.3767 107.713 59.7882 107.713 59.7882C107.713 59.7882 109.738 78.7738 106.634 88.3235C103.187 98.9293 89.776 107.868 89.7607 106.959C89.7607 106.959 89.6654 99.7882 89.6626 99.3882C92.3617 97.3765 94.7057 94.6093 96.5295 91.1382C97.9457 86.2099 97.7709 82.4338 94.9599 79.3941Z" fill="#0C0D50"/>
<path fill-rule="evenodd" clip-rule="evenodd" d="M61.9986 12.1324L87.4063 12.2294C87.4063 12.2294 100.371 14.2077 100.257 27.2735C100.144 40.3394 86.1882 42.7444 84.5614 42.9C82.9346 43.0556 78.2831 43.1912 78.2831 43.1912L78.0869 18.0529L80.4412 18.15L80.5393 33.2912L86.7196 33C86.7196 33 86.9726 37.4051 79.8526 37.6588C72.7327 37.9125 79.5583 37.6588 79.5583 37.6588V39.4059C79.5583 39.4059 90.2534 41.5948 89.9569 26.8853C89.6603 12.1757 76.223 15.9176 76.223 15.9176L76.3211 73.2794L88.2892 73.4735C88.2892 73.4735 92.4495 74.5299 94.7637 63.8647C94.7862 63.7612 94.8304 63.5602 94.8304 63.5602L97.02 63.6706L94.1751 78.2294L61.9005 78.4235L61.9986 76.2882C61.9986 76.2882 66.7013 76.8725 66.9035 73.0853C67.1058 69.298 67.0016 16.9853 67.0016 16.9853C67.0016 16.9853 67.204 15.0372 65.2358 14.5588C63.2677 14.0804 61.9986 14.3647 61.9986 14.3647V12.1324Z" fill="#0C0D50"/>
<path fill-rule="evenodd" clip-rule="evenodd" d="M50.3246 59.8853C50.3246 59.8853 52.8787 61.1727 54.1504 61.8265C55.8181 62.6838 59.7928 64.7446 60.3307 65.0294C60.8686 65.3142 63.895 67.7923 64.1566 68.1353C64.4181 68.4783 65.8161 70.276 65.7262 71.3382C65.6372 72.388 65.4063 73.4128 64.7452 73.8618C64.0841 74.3108 62.8219 74.5581 61.606 75.4147C60.39 76.2713 60.8371 77.2317 60.8212 77.4529C60.8053 77.6742 61.6056 78.8403 61.9003 79.2C62.15 79.5049 62.6567 80.0363 62.3908 80.4618C62.1248 80.8873 61.6567 81.4521 61.4098 81.7235C61.1264 82.0351 60.517 82.5219 60.2326 82.9853C59.9487 83.4479 60.0216 85.0865 60.3307 87.2559C60.6382 89.414 62.3854 93.0994 62.6851 93.7588C63.0175 94.4903 64.804 97.2315 66.8069 98.5293C66.9029 98.5914 67.0004 98.6514 67.0995 98.7088C67.3106 98.8312 68.4502 98.6063 68.4502 98.6063L68.4729 106.668C61.7888 104.635 55.3336 98.3892 52.1709 90.0277C50.5042 85.6212 49.7628 80.9131 49.742 76.0776C49.7159 70.0167 50.2079 62.8492 50.3246 59.8853Z" fill="#0C0D50"/>
<path fill-rule="evenodd" clip-rule="evenodd" d="M31.7838 82.6941L48.4607 82.3059C48.4607 82.3059 47.9593 95.7442 65.7262 108.026C65.8867 108.137 64.1566 108.221 64.1566 108.221C64.1566 108.221 41.866 110.308 31.7838 82.6941Z" fill="#0C0D50"/>
<path fill-rule="evenodd" clip-rule="evenodd" d="M126.52 82.4869L109.843 82.0987C109.843 82.0987 110.344 95.5369 92.5776 107.819C92.4171 107.93 94.1472 108.013 94.1472 108.013C94.1472 108.013 116.438 110.1 126.52 82.4869Z" fill="#0C0D50"/>
<path fill-rule="evenodd" clip-rule="evenodd" d="M20.9929 90.6529L33.0591 90.2647C33.0591 90.2647 39.6978 105.672 56.3086 108.997C56.5385 109.043 56.7965 109.039 56.7965 109.039C56.3026 110.312 30.0223 118.033 20.9929 90.6529Z" fill="#0C0D50"/>
<path fill-rule="evenodd" clip-rule="evenodd" d="M137.311 90.4457L125.245 90.0575C125.245 90.0575 118.606 105.465 101.995 108.79C101.765 108.836 101.507 108.832 101.507 108.832C102.001 110.105 128.281 117.825 137.311 90.4457Z" fill="#0C0D50"/>
<path d="M12.9473 159.904L51.206 159.37V160.632L12.9473 160.098V159.904Z" fill="#0C0D50"/>
<path d="M145.086 159.904L106.827 159.37V160.632L145.086 160.098V159.904Z" fill="#0C0D50"/>
<path d="M33.6504 42.1235H34.8276V45.7147H33.6504V42.1235Z" fill="#0C0D50"/>
<path d="M122.82 42.2207H123.998V45.8119H122.82V42.2207Z" fill="#0C0D50"/>
<path d="M9.41596 129.143H12.4913C13.9606 129.143 15.148 129.368 16.0535 129.82C16.9761 130.272 17.6595 130.895 18.1037 131.69C18.565 132.467 18.8128 133.352 18.8469 134.346C18.8811 135.267 18.7359 136.107 18.4113 136.866C18.0867 137.625 17.6424 138.257 17.0786 138.763C16.5148 139.269 15.8656 139.639 15.1309 139.874C14.4134 140.091 13.6616 140.145 12.8757 140.036C12.1069 139.91 11.3551 139.594 10.6205 139.088V138.817C10.6205 138.817 10.723 138.817 10.928 138.817C11.1501 138.817 11.4235 138.781 11.7481 138.709C12.0898 138.636 12.44 138.501 12.7988 138.302C13.1747 138.103 13.5249 137.796 13.8496 137.381C14.1742 136.965 14.4219 136.414 14.5928 135.728C14.6611 135.493 14.7038 135.231 14.7209 134.942C14.7551 134.635 14.7636 134.355 14.7465 134.102C14.7294 132.945 14.4304 132.024 13.8496 131.338C13.2857 130.633 12.4827 130.281 11.4405 130.281H9.67224C9.67224 130.281 9.64661 130.19 9.59536 130.01C9.56119 129.811 9.51847 129.621 9.46722 129.441C9.43305 129.242 9.41596 129.143 9.41596 129.143ZM9.74912 129.143V148.112H5.90497V129.143H9.74912ZM5.98185 146.134V148.112H3.93164V147.841C3.94873 147.841 3.99998 147.841 4.08541 147.841C4.18792 147.841 4.24772 147.841 4.2648 147.841C4.70901 147.841 5.08489 147.678 5.39242 147.353C5.71704 147.01 5.88789 146.603 5.90497 146.134H5.98185ZM5.98185 131.121H5.90497C5.90497 130.651 5.74266 130.254 5.41805 129.928C5.09343 129.585 4.70901 129.414 4.2648 129.414C4.24772 129.414 4.19646 129.414 4.11103 129.414C4.02561 129.414 3.97435 129.414 3.95727 129.414L3.93164 129.143H5.98185V131.121ZM9.67224 146.134H9.74912C9.76621 146.603 9.92852 147.01 10.236 147.353C10.5607 147.678 10.9451 147.841 11.3893 147.841C11.4064 147.841 11.4576 147.841 11.5431 147.841C11.6456 147.841 11.7054 147.841 11.7225 147.841V148.112H9.67224V146.134Z" fill="#0C0D50"/>
<path d="M25.6727 131.852H28.4405C29.141 131.852 29.8244 131.934 30.4907 132.096C31.157 132.241 31.755 132.485 32.2847 132.828C32.8143 133.153 33.2329 133.605 33.5404 134.183C33.865 134.743 34.0273 135.448 34.0273 136.297C34.0273 136.929 33.8992 137.561 33.6429 138.194C33.4037 138.808 33.0193 139.341 32.4897 139.793C31.9771 140.244 31.3023 140.542 30.4651 140.687C30.9606 140.849 31.4304 141.166 31.8746 141.635C32.3359 142.105 32.6947 142.548 32.951 142.963C33.0193 143.108 33.1389 143.343 33.3098 143.668C33.4806 143.975 33.6942 144.336 33.9505 144.752C34.2238 145.149 34.5057 145.565 34.7962 145.998C35.1379 146.486 35.4369 146.865 35.6931 147.136C35.9494 147.389 36.2142 147.57 36.4876 147.678C36.761 147.787 37.077 147.841 37.4358 147.841V148.112H35.2831C34.3605 148.112 33.5746 148.04 32.9253 147.895C32.2932 147.751 31.7379 147.489 31.2595 147.109C30.7983 146.712 30.3711 146.179 29.9782 145.51C29.8244 145.276 29.6621 144.996 29.4912 144.67C29.3204 144.327 29.1495 143.984 28.9787 143.641C28.8078 143.297 28.6541 142.963 28.5174 142.638C28.3978 142.313 28.3124 142.042 28.2611 141.825C28.039 141.247 27.7827 140.831 27.4923 140.578C27.2189 140.307 26.9626 140.172 26.7235 140.172V139.928C26.7235 139.928 26.7832 139.928 26.9028 139.928C27.0224 139.928 27.1762 139.928 27.3641 139.928C27.7229 139.928 28.0732 139.865 28.4149 139.738C28.7737 139.594 29.0983 139.332 29.3887 138.952C29.6792 138.555 29.8927 137.977 30.0294 137.218C30.0636 137.11 30.0892 136.956 30.1063 136.757C30.1405 136.559 30.149 136.333 30.1319 136.08C30.0978 135.412 29.9782 134.879 29.7731 134.481C29.5852 134.066 29.346 133.758 29.0556 133.56C28.7651 133.343 28.4661 133.198 28.1586 133.126C27.8682 133.036 27.6119 132.991 27.3898 132.991C27.0652 132.973 26.7662 132.973 26.4928 132.991C26.2365 132.991 26.04 132.982 25.9034 132.964C25.8863 132.964 25.8607 132.873 25.8265 132.693C25.7923 132.494 25.7581 132.304 25.724 132.123C25.6898 131.943 25.6727 131.852 25.6727 131.852ZM25.929 131.852V148.112H22.213V131.852H25.929ZM22.2899 146.405L22.3924 148.112H20.5472V147.841C20.5643 147.841 20.607 147.841 20.6753 147.841C20.7607 147.841 20.8205 147.841 20.8547 147.841C21.2306 147.841 21.5467 147.706 21.8029 147.435C22.0763 147.145 22.2215 146.802 22.2386 146.405H22.2899ZM22.2899 133.533H22.2386C22.2215 133.117 22.0763 132.783 21.8029 132.53C21.5467 132.259 21.2391 132.123 20.8803 132.123C20.8291 132.123 20.7607 132.123 20.6753 132.123C20.607 132.123 20.5643 132.123 20.5472 132.123V131.852H22.3924L22.2899 133.533ZM25.8777 146.405H25.929C25.929 146.856 26.0742 147.209 26.3647 147.462C26.6722 147.715 26.9968 147.841 27.3385 147.841C27.3385 147.841 27.3727 147.841 27.441 147.841C27.5094 147.841 27.5606 147.841 27.5948 147.841V148.112H25.7496L25.8777 146.405Z" fill="#0C0D50"/>
<path d="M45.0154 131.121L52.6012 147.977H48.2701L43.5034 136.08L45.0154 131.121ZM40.1974 146.323C40.0095 146.811 40.0351 147.191 40.2743 147.462C40.5135 147.715 40.7783 147.841 41.0687 147.841H41.2738V148.112H36.1482V147.841C36.1482 147.841 36.1824 147.841 36.2507 147.841C36.3191 147.841 36.3532 147.841 36.3532 147.841C36.695 147.841 37.0537 147.733 37.4296 147.516C37.8055 147.281 38.113 146.884 38.3522 146.323H40.1974ZM45.0154 131.121L45.0667 134.373L39.5055 148.031H37.609L43.6059 134.4C43.64 134.291 43.7169 134.102 43.8365 133.831C43.9561 133.542 44.0843 133.226 44.2209 132.882C44.3576 132.521 44.4858 132.187 44.6054 131.88C44.725 131.554 44.7933 131.301 44.8104 131.121H45.0154ZM47.245 142.801V143.857H40.71V142.801H47.245ZM47.6294 146.323H51.858C52.1143 146.884 52.4303 147.281 52.8062 147.516C53.1821 147.733 53.5409 147.841 53.8826 147.841C53.8826 147.841 53.9167 147.841 53.9851 147.841C54.0534 147.841 54.0876 147.841 54.0876 147.841V148.112H46.5531V147.841H46.7581C47.0485 147.841 47.3133 147.715 47.5525 147.462C47.7917 147.191 47.8174 146.811 47.6294 146.323Z" fill="#0C0D50"/>
<path d="M71.4005 131.5L71.6055 134.291L64.7117 145.863C64.7117 145.863 64.6348 146.016 64.481 146.323C64.3273 146.613 64.1735 146.965 64.0197 147.38C63.883 147.796 63.8062 148.211 63.7891 148.627H63.5584L62.5589 146.405L71.4005 131.5ZM55.6395 146.378V148.112H53.128V147.841C53.128 147.841 53.1878 147.841 53.3074 147.841C53.4099 147.841 53.4611 147.841 53.4611 147.841C53.8883 147.841 54.2556 147.715 54.5631 147.462C54.8877 147.209 55.0842 146.847 55.1525 146.378H55.6395ZM56.7415 146.757C56.7244 146.956 56.7842 147.191 56.9209 147.462C57.0575 147.715 57.2967 147.841 57.6384 147.841H57.9972V148.112H56.4596L56.6133 146.757H56.7415ZM57.1515 131.5H57.3565L58.2279 134.102L56.6133 148.112H54.9475L57.1515 131.5ZM57.3565 131.5L64.9423 143.505L63.5584 148.627L56.7415 137.706L57.3565 131.5ZM71.6311 131.5L73.8864 148.112H69.9654L68.7096 138.221L71.4005 131.5H71.6311ZM73.1688 146.378H73.6557C73.7412 146.847 73.9376 147.209 74.2452 147.462C74.5698 147.715 74.9286 147.841 75.3215 147.841C75.3215 147.841 75.3813 147.841 75.5009 147.841C75.6205 147.841 75.6803 147.841 75.6803 147.841V148.112H73.1688V146.378ZM69.786 146.757H69.9397L70.0935 148.112H68.5558V147.841H68.9146C69.2905 147.841 69.5382 147.715 69.6578 147.462C69.7774 147.191 69.8201 146.956 69.786 146.757Z" fill="#0C0D50"/>
<path d="M83.6321 131.121L91.2179 147.977H86.8868L82.1201 136.08L83.6321 131.121ZM78.8141 146.323C78.6262 146.811 78.6518 147.191 78.891 147.462C79.1302 147.715 79.395 147.841 79.6854 147.841H79.8905V148.112H74.7649V147.841C74.7649 147.841 74.7991 147.841 74.8674 147.841C74.9358 147.841 74.9699 147.841 74.9699 147.841C75.3116 147.841 75.6704 147.733 76.0463 147.516C76.4222 147.281 76.7297 146.884 76.9689 146.323H78.8141ZM83.6321 131.121L83.6834 134.373L78.1222 148.031H76.2257L82.2226 134.4C82.2568 134.291 82.3336 134.102 82.4532 133.831C82.5728 133.542 82.701 133.226 82.8376 132.882C82.9743 132.521 83.1025 132.187 83.2221 131.88C83.3417 131.554 83.41 131.301 83.4271 131.121H83.6321ZM85.8617 142.801V143.857H79.3267V142.801H85.8617ZM86.2461 146.323H90.4747C90.731 146.884 91.047 147.281 91.4229 147.516C91.7988 147.733 92.1576 147.841 92.4993 147.841C92.4993 147.841 92.5334 147.841 92.6018 147.841C92.6701 147.841 92.7043 147.841 92.7043 147.841V148.112H85.1698V147.841H85.3748C85.6652 147.841 85.93 147.715 86.1692 147.462C86.4084 147.191 86.4341 146.811 86.2461 146.323Z" fill="#0C0D50"/>
<path d="M94.2818 131.473L109.325 145.456L109.582 148.464L94.5637 134.481L94.2818 131.473ZM94.3843 146.459V148.112H92.4879V147.841C92.4879 147.841 92.5562 147.841 92.6929 147.841C92.8296 147.841 92.8979 147.841 92.8979 147.841C93.2909 147.841 93.624 147.715 93.8974 147.462C94.1708 147.191 94.3074 146.856 94.3074 146.459H94.3843ZM97.8184 146.459C97.8355 146.856 97.9807 147.191 98.2541 147.462C98.5275 147.715 98.8521 147.841 99.2279 147.841C99.2279 147.841 99.2963 147.841 99.433 147.841C99.5867 147.841 99.6636 147.841 99.6636 147.841V148.112H97.7672V146.459H97.8184ZM94.2818 131.473L97.8184 135.538V148.112H94.3074V134.562C94.3074 133.641 94.2647 132.9 94.1793 132.34C94.0939 131.762 94.0512 131.473 94.0512 131.473H94.2818ZM109.556 131.852V145.294C109.556 145.926 109.573 146.486 109.607 146.974C109.658 147.444 109.701 147.814 109.735 148.085C109.787 148.338 109.812 148.464 109.812 148.464H109.582L106.045 144.156V131.852H109.556ZM109.479 133.506V131.852H111.401V132.123C111.401 132.123 111.324 132.123 111.17 132.123C111.034 132.123 110.965 132.123 110.965 132.123C110.59 132.123 110.256 132.259 109.966 132.53C109.693 132.783 109.556 133.108 109.556 133.506H109.479ZM106.045 133.506C106.028 133.108 105.883 132.783 105.609 132.53C105.353 132.259 105.028 132.123 104.635 132.123C104.635 132.123 104.559 132.123 104.405 132.123C104.268 132.123 104.2 132.123 104.2 132.123V131.852H106.096V133.506H106.045Z" fill="#0C0D50"/>
<path d="M118.277 131.852V148.112H114.587V131.852H118.277ZM114.663 146.405V148.112H112.793V147.841C112.793 147.841 112.844 147.841 112.946 147.841C113.049 147.841 113.109 147.841 113.126 147.841C113.519 147.841 113.86 147.706 114.151 147.435C114.441 147.145 114.587 146.802 114.587 146.405H114.663ZM118.226 146.405H118.277C118.294 146.802 118.439 147.145 118.713 147.435C119.003 147.706 119.353 147.841 119.763 147.841C119.763 147.841 119.806 147.841 119.891 147.841C119.994 147.841 120.054 147.841 120.071 147.841V148.112H118.226V146.405ZM118.226 133.56V131.852H120.071L120.045 132.123C120.045 132.123 120.003 132.123 119.917 132.123C119.832 132.123 119.78 132.123 119.763 132.123C119.353 132.123 119.003 132.259 118.713 132.53C118.439 132.801 118.294 133.144 118.277 133.56H118.226ZM114.663 133.56H114.587C114.587 133.144 114.441 132.801 114.151 132.53C113.86 132.259 113.51 132.123 113.1 132.123C113.1 132.123 113.049 132.123 112.946 132.123C112.844 132.123 112.793 132.123 112.793 132.123V131.852H114.663V133.56Z" fill="#0C0D50"/>
<path d="M130.571 137.869L136.311 146.296C136.636 146.802 136.978 147.191 137.336 147.462C137.695 147.715 138.114 147.85 138.592 147.868V148.112H136.619C136.448 148.112 136.166 148.103 135.773 148.085C135.38 148.067 134.927 148.004 134.415 147.895C133.919 147.769 133.415 147.561 132.903 147.272C132.39 146.983 131.937 146.567 131.544 146.025C131.459 145.899 131.314 145.682 131.109 145.375C130.904 145.068 130.656 144.707 130.366 144.291C130.092 143.876 129.802 143.451 129.494 143.017C129.204 142.584 128.93 142.177 128.674 141.798C128.418 141.419 128.213 141.111 128.059 140.877C127.905 140.642 127.828 140.524 127.828 140.524L130.571 137.869ZM136.004 132.015L129.315 140.362L127.828 140.524L133.902 132.015H136.004ZM137.593 131.825V132.096H137.49C136.995 132.096 136.533 132.196 136.106 132.394C135.679 132.593 135.329 132.864 135.055 133.207L133.082 133.153C133.27 132.9 133.304 132.665 133.185 132.449C133.065 132.214 132.86 132.096 132.57 132.096H132.365V131.825H137.593ZM127.085 131.825V148.112H123.395V131.825H127.085ZM123.446 146.405V148.112H121.703V147.841C121.703 147.841 121.738 147.841 121.806 147.841C121.891 147.841 121.943 147.841 121.96 147.841C122.353 147.841 122.686 147.706 122.959 147.435C123.233 147.145 123.378 146.802 123.395 146.405H123.446ZM127.008 146.405H127.085C127.085 146.802 127.222 147.145 127.495 147.435C127.769 147.706 128.102 147.841 128.495 147.841C128.512 147.841 128.563 147.841 128.649 147.841C128.734 147.841 128.777 147.841 128.777 147.841V148.112H127.008V146.405ZM127.008 133.56V131.825H128.777V132.096C128.76 132.096 128.708 132.096 128.623 132.096C128.555 132.096 128.512 132.096 128.495 132.096C128.102 132.096 127.769 132.241 127.495 132.53C127.222 132.801 127.085 133.144 127.085 133.56H127.008ZM123.446 133.56H123.395C123.378 133.144 123.233 132.801 122.959 132.53C122.686 132.241 122.353 132.096 121.96 132.096C121.96 132.096 121.917 132.096 121.832 132.096C121.746 132.096 121.695 132.096 121.678 132.096V131.825H123.446V133.56Z" fill="#0C0D50"/>
<path d="M146.2 131.121L153.785 147.977H149.454L144.688 136.08L146.2 131.121ZM141.382 146.323C141.194 146.811 141.219 147.191 141.459 147.462C141.698 147.715 141.963 147.841 142.253 147.841H142.458V148.112H137.332V147.841C137.332 147.841 137.367 147.841 137.435 147.841C137.503 147.841 137.538 147.841 137.538 147.841C137.879 147.841 138.238 147.733 138.614 147.516C138.99 147.281 139.297 146.884 139.536 146.323H141.382ZM146.2 131.121L146.251 134.373L140.69 148.031H138.793L144.79 134.4C144.824 134.291 144.901 134.102 145.021 133.831C145.14 133.542 145.269 133.226 145.405 132.882C145.542 132.521 145.67 132.187 145.79 131.88C145.909 131.554 145.978 131.301 145.995 131.121H146.2ZM148.429 142.801V143.857H141.894V142.801H148.429ZM148.814 146.323H153.042C153.299 146.884 153.615 147.281 153.99 147.516C154.366 147.733 154.725 147.841 155.067 147.841C155.067 147.841 155.101 147.841 155.169 147.841C155.238 147.841 155.272 147.841 155.272 147.841V148.112H147.737V147.841H147.942C148.233 147.841 148.498 147.715 148.737 147.462C148.976 147.191 149.002 146.811 148.814 146.323Z" fill="#0C0D50"/>
</svg>
