<svg width="22" height="22" viewBox="0 0 22 22" fill="none" xmlns="http://www.w3.org/2000/svg">
<path d="M12.6847 1.46897C12.7134 1.36189 12.7628 1.2615 12.8303 1.17354C12.8977 1.08558 12.9819 1.01177 13.0778 0.956336C13.1738 0.900899 13.2798 0.864919 13.3897 0.85045C13.4996 0.835982 13.6113 0.843309 13.7183 0.872013C15.2825 1.28012 16.7096 2.09782 17.8527 3.24088C18.9957 4.38394 19.8134 5.81105 20.2215 7.37522C20.2502 7.48228 20.2576 7.59395 20.2431 7.70385C20.2286 7.81374 20.1926 7.91971 20.1372 8.0157C20.0818 8.11168 20.008 8.19581 19.92 8.26326C19.832 8.33071 19.7317 8.38017 19.6246 8.40881C19.5533 8.42753 19.4799 8.4371 19.4063 8.43729C19.2203 8.43728 19.0396 8.37586 18.8922 8.26257C18.7447 8.14928 18.6389 7.99046 18.591 7.8108C18.2581 6.53391 17.5908 5.36889 16.6577 4.43583C15.7247 3.50276 14.5596 2.83541 13.2827 2.50256C13.1756 2.47403 13.0751 2.42465 12.987 2.35725C12.8989 2.28985 12.825 2.20574 12.7695 2.10974C12.7139 2.01375 12.6778 1.90774 12.6633 1.79779C12.6488 1.68784 12.6561 1.5761 12.6847 1.46897ZM12.439 5.87756C13.8934 6.26569 14.8279 7.20014 15.216 8.65455C15.2639 8.83421 15.3697 8.99303 15.5172 9.10632C15.6646 9.21961 15.8453 9.28103 16.0313 9.28104C16.1049 9.28085 16.1783 9.27128 16.2496 9.25256C16.3567 9.22392 16.457 9.17446 16.545 9.10701C16.633 9.03956 16.7068 8.95543 16.7622 8.85945C16.8176 8.76346 16.8536 8.65749 16.8681 8.5476C16.8826 8.4377 16.8752 8.32603 16.8465 8.21897C16.3065 6.19819 14.8954 4.78701 12.8746 4.24701C12.6584 4.18925 12.428 4.21975 12.2343 4.3318C12.0406 4.44385 11.8993 4.62827 11.8415 4.84449C11.7838 5.06072 11.8142 5.29103 11.9263 5.48477C12.0383 5.67851 12.2228 5.8198 12.439 5.87756ZM21.0811 15.934C20.893 17.3631 20.1912 18.6749 19.1066 19.6244C18.0221 20.5739 16.629 21.0961 15.1875 21.0935C6.81329 21.0935 9.54349e-06 14.2803 9.54349e-06 5.90604C-0.00257442 4.46459 0.519641 3.07148 1.46912 1.98692C2.4186 0.902355 3.73041 0.200501 5.15954 0.0124428C5.52093 -0.0316843 5.8869 0.0422505 6.20282 0.22321C6.51874 0.40417 6.76766 0.682449 6.91243 1.01651L9.13993 5.98936V6.00201C9.25077 6.25773 9.29654 6.53691 9.27317 6.81462C9.24979 7.09234 9.158 7.35995 9.00599 7.59354C8.987 7.62201 8.96696 7.64838 8.94587 7.67475L6.75001 10.2777C7.53997 11.883 9.21903 13.5472 10.8454 14.3393L13.4125 12.1551C13.4377 12.1339 13.4641 12.1141 13.4916 12.096C13.725 11.9403 13.9935 11.8453 14.2729 11.8195C14.5522 11.7937 14.8336 11.838 15.0915 11.9483L15.1052 11.9547L20.0739 14.1811C20.4085 14.3254 20.6875 14.5741 20.869 14.89C21.0506 15.206 21.125 15.5722 21.0811 15.934ZM19.4063 15.7231C19.4063 15.7231 19.3989 15.7231 19.3947 15.7231L14.4376 13.5029L11.8695 15.6872C11.8445 15.7083 11.8185 15.728 11.7914 15.7463C11.5486 15.9083 11.2679 16.0045 10.9767 16.0256C10.6856 16.0467 10.3939 15.9919 10.1303 15.8665C8.15485 14.912 6.18575 12.9577 5.2302 11.0033C5.10367 10.7416 5.04689 10.4517 5.06537 10.1616C5.08385 9.87144 5.17696 9.59103 5.33567 9.34748C5.35356 9.31888 5.37366 9.29173 5.39579 9.26627L7.59376 6.66014L5.37892 1.70311C5.3785 1.6989 5.3785 1.69466 5.37892 1.69045C4.35614 1.82387 3.41707 2.32555 2.73757 3.10153C2.05807 3.87752 1.68475 4.8746 1.68751 5.90604C1.69142 9.48526 3.11499 12.9168 5.64588 15.4477C8.17678 17.9786 11.6083 19.4021 15.1875 19.406C16.2183 19.4096 17.2151 19.0376 17.9916 18.3595C18.768 17.6815 19.2709 16.7439 19.4063 15.722V15.7231Z" fill="#A17755"/>
</svg>
