<svg width="474" height="541" viewBox="0 0 474 541" fill="none" xmlns="http://www.w3.org/2000/svg">
<g clip-path="url(#clip0_79_121)">
<path fill-rule="evenodd" clip-rule="evenodd" d="M-93.5448 0L243.741 1.288C270.115 1.38872 296.654 2.97553 321.509 11.7972C377.491 31.6666 475.193 86.1868 473.989 224.529C472.302 418.283 265.286 453.947 241.155 456.254C217.023 458.561 148.021 460.572 148.021 460.572L145.11 87.7965L180.036 89.2358L181.491 313.765L273.169 309.447C273.169 309.447 276.936 375.176 171.304 378.533C167.615 378.65 167.615 378.65 167.615 378.65L166.939 404.44C166.939 404.44 325.591 436.9 321.191 218.772C316.792 0.643372 117.461 56.1322 117.461 56.1322L118.917 906.751L296.453 909.63C296.453 909.63 358.167 925.295 392.497 767.14C392.83 765.606 393.487 762.625 393.487 762.625L425.967 764.262L383.766 980.155L-95 983.034L-93.5448 951.369C-93.5448 951.369 -23.7847 960.034 -20.784 903.873C-17.7834 847.712 -19.3288 71.9644 -19.3288 71.9644C-19.3288 71.9644 -16.3268 43.0764 -45.5227 35.9822C-74.7187 28.8879 -93.5448 33.1036 -93.5448 33.1036V0Z" fill="#EEEEEE"/>
</g>
<defs>
<clipPath id="clip0_79_121">
<rect width="569" height="541" fill="white" transform="translate(-95)"/>
</clipPath>
</defs>
</svg>
