<svg width="575" height="45" viewBox="0 0 575 45" fill="none" xmlns="http://www.w3.org/2000/svg">
<rect width="575" height="45" fill="#2E31CA"/>
<path d="M199.383 25.125C199.383 24.8594 199.341 24.625 199.258 24.4219C199.18 24.2135 199.039 24.026 198.836 23.8594C198.638 23.6927 198.362 23.5339 198.008 23.3828C197.659 23.2318 197.216 23.0781 196.68 22.9219C196.117 22.7552 195.609 22.5703 195.156 22.3672C194.703 22.1589 194.315 21.9219 193.992 21.6562C193.669 21.3906 193.422 21.0859 193.25 20.7422C193.078 20.3984 192.992 20.0052 192.992 19.5625C192.992 19.1198 193.083 18.7109 193.266 18.3359C193.448 17.9609 193.708 17.6354 194.047 17.3594C194.391 17.0781 194.799 16.8594 195.273 16.7031C195.747 16.5469 196.276 16.4688 196.859 16.4688C197.714 16.4688 198.438 16.6328 199.031 16.9609C199.63 17.2839 200.086 17.7083 200.398 18.2344C200.711 18.7552 200.867 19.3125 200.867 19.9062H199.367C199.367 19.4792 199.276 19.1016 199.094 18.7734C198.911 18.4401 198.635 18.1797 198.266 17.9922C197.896 17.7995 197.427 17.7031 196.859 17.7031C196.323 17.7031 195.88 17.7839 195.531 17.9453C195.182 18.1068 194.922 18.3255 194.75 18.6016C194.583 18.8776 194.5 19.1927 194.5 19.5469C194.5 19.7865 194.549 20.0052 194.648 20.2031C194.753 20.3958 194.911 20.5755 195.125 20.7422C195.344 20.9089 195.62 21.0625 195.953 21.2031C196.292 21.3438 196.695 21.4792 197.164 21.6094C197.81 21.7917 198.367 21.9948 198.836 22.2188C199.305 22.4427 199.69 22.6953 199.992 22.9766C200.299 23.2526 200.526 23.5677 200.672 23.9219C200.823 24.2708 200.898 24.6667 200.898 25.1094C200.898 25.5729 200.805 25.9922 200.617 26.3672C200.43 26.7422 200.161 27.0625 199.812 27.3281C199.464 27.5938 199.044 27.7995 198.555 27.9453C198.07 28.0859 197.529 28.1562 196.93 28.1562C196.404 28.1562 195.885 28.0833 195.375 27.9375C194.87 27.7917 194.409 27.5729 193.992 27.2812C193.581 26.9896 193.25 26.6302 193 26.2031C192.755 25.7708 192.633 25.2708 192.633 24.7031H194.133C194.133 25.0938 194.208 25.4297 194.359 25.7109C194.51 25.987 194.716 26.2161 194.977 26.3984C195.242 26.5807 195.542 26.7161 195.875 26.8047C196.214 26.888 196.565 26.9297 196.93 26.9297C197.456 26.9297 197.901 26.8568 198.266 26.7109C198.63 26.5651 198.906 26.3568 199.094 26.0859C199.286 25.8151 199.383 25.4948 199.383 25.125ZM204.047 21.1719V31.25H202.594V19.5469H203.922L204.047 21.1719ZM209.742 23.7031V23.8672C209.742 24.4818 209.669 25.0521 209.523 25.5781C209.378 26.099 209.164 26.5521 208.883 26.9375C208.607 27.3229 208.266 27.6224 207.859 27.8359C207.453 28.0495 206.987 28.1562 206.461 28.1562C205.924 28.1562 205.451 28.0677 205.039 27.8906C204.628 27.7135 204.279 27.4557 203.992 27.1172C203.706 26.7786 203.477 26.3724 203.305 25.8984C203.138 25.4245 203.023 24.8906 202.961 24.2969V23.4219C203.023 22.7969 203.141 22.237 203.312 21.7422C203.484 21.2474 203.711 20.8255 203.992 20.4766C204.279 20.1224 204.625 19.8542 205.031 19.6719C205.438 19.4844 205.906 19.3906 206.438 19.3906C206.969 19.3906 207.44 19.4948 207.852 19.7031C208.263 19.9062 208.609 20.1979 208.891 20.5781C209.172 20.9583 209.383 21.4141 209.523 21.9453C209.669 22.4714 209.742 23.0573 209.742 23.7031ZM208.289 23.8672V23.7031C208.289 23.2812 208.245 22.8854 208.156 22.5156C208.068 22.1406 207.93 21.8125 207.742 21.5312C207.56 21.2448 207.326 21.0208 207.039 20.8594C206.753 20.6927 206.411 20.6094 206.016 20.6094C205.651 20.6094 205.333 20.6719 205.062 20.7969C204.797 20.9219 204.57 21.0911 204.383 21.3047C204.195 21.513 204.042 21.7526 203.922 22.0234C203.807 22.2891 203.721 22.5651 203.664 22.8516V24.875C203.768 25.2396 203.914 25.5833 204.102 25.9062C204.289 26.224 204.539 26.4818 204.852 26.6797C205.164 26.8724 205.557 26.9688 206.031 26.9688C206.422 26.9688 206.758 26.888 207.039 26.7266C207.326 26.5599 207.56 26.3333 207.742 26.0469C207.93 25.7604 208.068 25.4323 208.156 25.0625C208.245 24.6875 208.289 24.2891 208.289 23.8672ZM215.094 28.1562C214.505 28.1562 213.971 28.0573 213.492 27.8594C213.018 27.6562 212.609 27.3724 212.266 27.0078C211.927 26.6432 211.667 26.2109 211.484 25.7109C211.302 25.2109 211.211 24.6641 211.211 24.0703V23.7422C211.211 23.0547 211.312 22.4427 211.516 21.9062C211.719 21.3646 211.995 20.9062 212.344 20.5312C212.693 20.1562 213.089 19.8724 213.531 19.6797C213.974 19.487 214.432 19.3906 214.906 19.3906C215.51 19.3906 216.031 19.4948 216.469 19.7031C216.911 19.9115 217.273 20.2031 217.555 20.5781C217.836 20.9479 218.044 21.3854 218.18 21.8906C218.315 22.3906 218.383 22.9375 218.383 23.5312V24.1797H212.07V23H216.938V22.8906C216.917 22.5156 216.839 22.151 216.703 21.7969C216.573 21.4427 216.365 21.151 216.078 20.9219C215.792 20.6927 215.401 20.5781 214.906 20.5781C214.578 20.5781 214.276 20.6484 214 20.7891C213.724 20.9245 213.487 21.1276 213.289 21.3984C213.091 21.6693 212.938 22 212.828 22.3906C212.719 22.7812 212.664 23.2318 212.664 23.7422V24.0703C212.664 24.4714 212.719 24.849 212.828 25.2031C212.943 25.5521 213.107 25.8594 213.32 26.125C213.539 26.3906 213.802 26.599 214.109 26.75C214.422 26.901 214.776 26.9766 215.172 26.9766C215.682 26.9766 216.115 26.8724 216.469 26.6641C216.823 26.4557 217.133 26.1771 217.398 25.8281L218.273 26.5234C218.091 26.7995 217.859 27.0625 217.578 27.3125C217.297 27.5625 216.951 27.7656 216.539 27.9219C216.133 28.0781 215.651 28.1562 215.094 28.1562ZM225.055 26.5547V22.2031C225.055 21.8698 224.987 21.5807 224.852 21.3359C224.721 21.0859 224.523 20.8932 224.258 20.7578C223.992 20.6224 223.664 20.5547 223.273 20.5547C222.909 20.5547 222.589 20.6172 222.312 20.7422C222.042 20.8672 221.828 21.0312 221.672 21.2344C221.521 21.4375 221.445 21.6562 221.445 21.8906H220C220 21.5885 220.078 21.2891 220.234 20.9922C220.391 20.6953 220.615 20.4271 220.906 20.1875C221.203 19.9427 221.557 19.75 221.969 19.6094C222.385 19.4635 222.849 19.3906 223.359 19.3906C223.974 19.3906 224.516 19.4948 224.984 19.7031C225.458 19.9115 225.828 20.2266 226.094 20.6484C226.365 21.0651 226.5 21.5885 226.5 22.2188V26.1562C226.5 26.4375 226.523 26.737 226.57 27.0547C226.622 27.3724 226.698 27.6458 226.797 27.875V28H225.289C225.216 27.8333 225.159 27.612 225.117 27.3359C225.076 27.0547 225.055 26.7943 225.055 26.5547ZM225.305 22.875L225.32 23.8906H223.859C223.448 23.8906 223.081 23.9245 222.758 23.9922C222.435 24.0547 222.164 24.151 221.945 24.2812C221.727 24.4115 221.56 24.5755 221.445 24.7734C221.331 24.9661 221.273 25.1927 221.273 25.4531C221.273 25.7188 221.333 25.9609 221.453 26.1797C221.573 26.3984 221.753 26.5729 221.992 26.7031C222.237 26.8281 222.536 26.8906 222.891 26.8906C223.333 26.8906 223.724 26.7969 224.062 26.6094C224.401 26.4219 224.669 26.1927 224.867 25.9219C225.07 25.651 225.18 25.388 225.195 25.1328L225.812 25.8281C225.776 26.0469 225.677 26.2891 225.516 26.5547C225.354 26.8203 225.138 27.0755 224.867 27.3203C224.602 27.5599 224.284 27.7604 223.914 27.9219C223.549 28.0781 223.138 28.1562 222.68 28.1562C222.107 28.1562 221.604 28.0443 221.172 27.8203C220.745 27.5964 220.411 27.2969 220.172 26.9219C219.938 26.5417 219.82 26.1172 219.82 25.6484C219.82 25.1953 219.909 24.7969 220.086 24.4531C220.263 24.1042 220.518 23.8151 220.852 23.5859C221.185 23.3516 221.586 23.1745 222.055 23.0547C222.523 22.9349 223.047 22.875 223.625 22.875H225.305ZM230.227 16V28H228.773V16H230.227ZM235.391 19.5469L231.703 23.4922L229.641 25.6328L229.523 24.0938L231 22.3281L233.625 19.5469H235.391ZM234.07 28L231.055 23.9688L231.805 22.6797L235.773 28H234.07ZM242.992 26.5L245.164 19.5469H246.117L245.93 20.9297L243.719 28H242.789L242.992 26.5ZM241.531 19.5469L243.383 26.5781L243.516 28H242.539L240.086 19.5469H241.531ZM248.195 26.5234L249.961 19.5469H251.398L248.945 28H247.977L248.195 26.5234ZM246.328 19.5469L248.453 26.3828L248.695 28H247.773L245.5 20.9141L245.312 19.5469H246.328ZM254.453 19.5469V28H253V19.5469H254.453ZM252.891 17.3047C252.891 17.0703 252.961 16.8724 253.102 16.7109C253.247 16.5495 253.461 16.4688 253.742 16.4688C254.018 16.4688 254.229 16.5495 254.375 16.7109C254.526 16.8724 254.602 17.0703 254.602 17.3047C254.602 17.5286 254.526 17.7214 254.375 17.8828C254.229 18.0391 254.018 18.1172 253.742 18.1172C253.461 18.1172 253.247 18.0391 253.102 17.8828C252.961 17.7214 252.891 17.5286 252.891 17.3047ZM260.312 19.5469V20.6562H255.742V19.5469H260.312ZM257.289 17.4922H258.734V25.9062C258.734 26.1927 258.779 26.4089 258.867 26.5547C258.956 26.7005 259.07 26.7969 259.211 26.8438C259.352 26.8906 259.503 26.9141 259.664 26.9141C259.784 26.9141 259.909 26.9036 260.039 26.8828C260.174 26.8568 260.276 26.8359 260.344 26.8203L260.352 28C260.237 28.0365 260.086 28.0703 259.898 28.1016C259.716 28.138 259.495 28.1562 259.234 28.1562C258.88 28.1562 258.555 28.0859 258.258 27.9453C257.961 27.8047 257.724 27.5703 257.547 27.2422C257.375 26.9089 257.289 26.4609 257.289 25.8984V17.4922ZM263.453 16V28H262.008V16H263.453ZM263.109 23.4531L262.508 23.4297C262.513 22.8516 262.599 22.3177 262.766 21.8281C262.932 21.3333 263.167 20.9036 263.469 20.5391C263.771 20.1745 264.13 19.8932 264.547 19.6953C264.969 19.4922 265.435 19.3906 265.945 19.3906C266.362 19.3906 266.737 19.4479 267.07 19.5625C267.404 19.6719 267.688 19.849 267.922 20.0938C268.161 20.3385 268.344 20.6562 268.469 21.0469C268.594 21.4323 268.656 21.9036 268.656 22.4609V28H267.203V22.4453C267.203 22.0026 267.138 21.6484 267.008 21.3828C266.878 21.112 266.688 20.9167 266.438 20.7969C266.188 20.6719 265.88 20.6094 265.516 20.6094C265.156 20.6094 264.828 20.6849 264.531 20.8359C264.24 20.987 263.987 21.1953 263.773 21.4609C263.565 21.7266 263.401 22.0312 263.281 22.375C263.167 22.7135 263.109 23.0729 263.109 23.4531ZM279.773 26.5547V22.2031C279.773 21.8698 279.706 21.5807 279.57 21.3359C279.44 21.0859 279.242 20.8932 278.977 20.7578C278.711 20.6224 278.383 20.5547 277.992 20.5547C277.628 20.5547 277.307 20.6172 277.031 20.7422C276.76 20.8672 276.547 21.0312 276.391 21.2344C276.24 21.4375 276.164 21.6562 276.164 21.8906H274.719C274.719 21.5885 274.797 21.2891 274.953 20.9922C275.109 20.6953 275.333 20.4271 275.625 20.1875C275.922 19.9427 276.276 19.75 276.688 19.6094C277.104 19.4635 277.568 19.3906 278.078 19.3906C278.693 19.3906 279.234 19.4948 279.703 19.7031C280.177 19.9115 280.547 20.2266 280.812 20.6484C281.083 21.0651 281.219 21.5885 281.219 22.2188V26.1562C281.219 26.4375 281.242 26.737 281.289 27.0547C281.341 27.3724 281.417 27.6458 281.516 27.875V28H280.008C279.935 27.8333 279.878 27.612 279.836 27.3359C279.794 27.0547 279.773 26.7943 279.773 26.5547ZM280.023 22.875L280.039 23.8906H278.578C278.167 23.8906 277.799 23.9245 277.477 23.9922C277.154 24.0547 276.883 24.151 276.664 24.2812C276.445 24.4115 276.279 24.5755 276.164 24.7734C276.049 24.9661 275.992 25.1927 275.992 25.4531C275.992 25.7188 276.052 25.9609 276.172 26.1797C276.292 26.3984 276.471 26.5729 276.711 26.7031C276.956 26.8281 277.255 26.8906 277.609 26.8906C278.052 26.8906 278.443 26.7969 278.781 26.6094C279.12 26.4219 279.388 26.1927 279.586 25.9219C279.789 25.651 279.898 25.388 279.914 25.1328L280.531 25.8281C280.495 26.0469 280.396 26.2891 280.234 26.5547C280.073 26.8203 279.857 27.0755 279.586 27.3203C279.32 27.5599 279.003 27.7604 278.633 27.9219C278.268 28.0781 277.857 28.1562 277.398 28.1562C276.826 28.1562 276.323 28.0443 275.891 27.8203C275.464 27.5964 275.13 27.2969 274.891 26.9219C274.656 26.5417 274.539 26.1172 274.539 25.6484C274.539 25.1953 274.628 24.7969 274.805 24.4531C274.982 24.1042 275.237 23.8151 275.57 23.5859C275.904 23.3516 276.305 23.1745 276.773 23.0547C277.242 22.9349 277.766 22.875 278.344 22.875H280.023ZM284.938 21.3516V28H283.492V19.5469H284.859L284.938 21.3516ZM284.594 23.4531L283.992 23.4297C283.997 22.8516 284.083 22.3177 284.25 21.8281C284.417 21.3333 284.651 20.9036 284.953 20.5391C285.255 20.1745 285.615 19.8932 286.031 19.6953C286.453 19.4922 286.919 19.3906 287.43 19.3906C287.846 19.3906 288.221 19.4479 288.555 19.5625C288.888 19.6719 289.172 19.849 289.406 20.0938C289.646 20.3385 289.828 20.6562 289.953 21.0469C290.078 21.4323 290.141 21.9036 290.141 22.4609V28H288.688V22.4453C288.688 22.0026 288.622 21.6484 288.492 21.3828C288.362 21.112 288.172 20.9167 287.922 20.7969C287.672 20.6719 287.365 20.6094 287 20.6094C286.641 20.6094 286.312 20.6849 286.016 20.8359C285.724 20.987 285.471 21.1953 285.258 21.4609C285.049 21.7266 284.885 22.0312 284.766 22.375C284.651 22.7135 284.594 23.0729 284.594 23.4531ZM300.734 17.6328L296.969 28H295.43L299.766 16.625H300.758L300.734 17.6328ZM303.891 28L300.117 17.6328L300.094 16.625H301.086L305.438 28H303.891ZM303.695 23.7891V25.0234H297.305V23.7891H303.695ZM312.07 26.3594V16H313.523V28H312.195L312.07 26.3594ZM306.383 23.8672V23.7031C306.383 23.0573 306.461 22.4714 306.617 21.9453C306.779 21.4141 307.005 20.9583 307.297 20.5781C307.594 20.1979 307.945 19.9062 308.352 19.7031C308.763 19.4948 309.221 19.3906 309.727 19.3906C310.258 19.3906 310.721 19.4844 311.117 19.6719C311.518 19.8542 311.857 20.1224 312.133 20.4766C312.414 20.8255 312.635 21.2474 312.797 21.7422C312.958 22.237 313.07 22.7969 313.133 23.4219V24.1406C313.076 24.7604 312.964 25.3177 312.797 25.8125C312.635 26.3073 312.414 26.7292 312.133 27.0781C311.857 27.4271 311.518 27.6953 311.117 27.8828C310.716 28.0651 310.247 28.1562 309.711 28.1562C309.216 28.1562 308.763 28.0495 308.352 27.8359C307.945 27.6224 307.594 27.3229 307.297 26.9375C307.005 26.5521 306.779 26.099 306.617 25.5781C306.461 25.0521 306.383 24.4818 306.383 23.8672ZM307.836 23.7031V23.8672C307.836 24.2891 307.878 24.6849 307.961 25.0547C308.049 25.4245 308.185 25.75 308.367 26.0312C308.549 26.3125 308.781 26.5339 309.062 26.6953C309.344 26.8516 309.68 26.9297 310.07 26.9297C310.549 26.9297 310.943 26.8281 311.25 26.625C311.562 26.4219 311.812 26.1536 312 25.8203C312.188 25.487 312.333 25.125 312.438 24.7344V22.8516C312.375 22.5651 312.284 22.2891 312.164 22.0234C312.049 21.7526 311.898 21.513 311.711 21.3047C311.529 21.0911 311.302 20.9219 311.031 20.7969C310.766 20.6719 310.451 20.6094 310.086 20.6094C309.69 20.6094 309.349 20.6927 309.062 20.8594C308.781 21.0208 308.549 21.2448 308.367 21.5312C308.185 21.8125 308.049 22.1406 307.961 22.5156C307.878 22.8854 307.836 23.2812 307.836 23.7031ZM318.344 26.6953L320.656 19.5469H322.133L319.094 28H318.125L318.344 26.6953ZM316.414 19.5469L318.797 26.7344L318.961 28H317.992L314.93 19.5469H316.414ZM323.016 23.8672V23.6875C323.016 23.0781 323.104 22.513 323.281 21.9922C323.458 21.4661 323.714 21.0104 324.047 20.625C324.38 20.2344 324.784 19.9323 325.258 19.7188C325.732 19.5 326.263 19.3906 326.852 19.3906C327.445 19.3906 327.979 19.5 328.453 19.7188C328.932 19.9323 329.339 20.2344 329.672 20.625C330.01 21.0104 330.268 21.4661 330.445 21.9922C330.622 22.513 330.711 23.0781 330.711 23.6875V23.8672C330.711 24.4766 330.622 25.0417 330.445 25.5625C330.268 26.0833 330.01 26.5391 329.672 26.9297C329.339 27.3151 328.935 27.6172 328.461 27.8359C327.992 28.0495 327.461 28.1562 326.867 28.1562C326.273 28.1562 325.74 28.0495 325.266 27.8359C324.792 27.6172 324.385 27.3151 324.047 26.9297C323.714 26.5391 323.458 26.0833 323.281 25.5625C323.104 25.0417 323.016 24.4766 323.016 23.8672ZM324.461 23.6875V23.8672C324.461 24.2891 324.51 24.6875 324.609 25.0625C324.708 25.4323 324.857 25.7604 325.055 26.0469C325.258 26.3333 325.51 26.5599 325.812 26.7266C326.115 26.888 326.466 26.9688 326.867 26.9688C327.263 26.9688 327.609 26.888 327.906 26.7266C328.208 26.5599 328.458 26.3333 328.656 26.0469C328.854 25.7604 329.003 25.4323 329.102 25.0625C329.206 24.6875 329.258 24.2891 329.258 23.8672V23.6875C329.258 23.2708 329.206 22.8776 329.102 22.5078C329.003 22.1328 328.852 21.8021 328.648 21.5156C328.451 21.224 328.201 20.9948 327.898 20.8281C327.602 20.6615 327.253 20.5781 326.852 20.5781C326.456 20.5781 326.107 20.6615 325.805 20.8281C325.508 20.9948 325.258 21.224 325.055 21.5156C324.857 21.8021 324.708 22.1328 324.609 22.5078C324.51 22.8776 324.461 23.2708 324.461 23.6875ZM335.906 26.9688C336.25 26.9688 336.568 26.8984 336.859 26.7578C337.151 26.6172 337.391 26.4245 337.578 26.1797C337.766 25.9297 337.872 25.6458 337.898 25.3281H339.273C339.247 25.8281 339.078 26.2943 338.766 26.7266C338.458 27.1536 338.055 27.5 337.555 27.7656C337.055 28.026 336.505 28.1562 335.906 28.1562C335.271 28.1562 334.716 28.0443 334.242 27.8203C333.773 27.5964 333.383 27.2891 333.07 26.8984C332.763 26.5078 332.531 26.0599 332.375 25.5547C332.224 25.0443 332.148 24.5052 332.148 23.9375V23.6094C332.148 23.0417 332.224 22.5052 332.375 22C332.531 21.4896 332.763 21.0391 333.07 20.6484C333.383 20.2578 333.773 19.9505 334.242 19.7266C334.716 19.5026 335.271 19.3906 335.906 19.3906C336.568 19.3906 337.146 19.526 337.641 19.7969C338.135 20.0625 338.523 20.4271 338.805 20.8906C339.091 21.349 339.247 21.8698 339.273 22.4531H337.898C337.872 22.1042 337.773 21.7891 337.602 21.5078C337.435 21.2266 337.206 21.0026 336.914 20.8359C336.628 20.6641 336.292 20.5781 335.906 20.5781C335.464 20.5781 335.091 20.6667 334.789 20.8438C334.492 21.0156 334.255 21.25 334.078 21.5469C333.906 21.8385 333.781 22.1641 333.703 22.5234C333.63 22.8776 333.594 23.2396 333.594 23.6094V23.9375C333.594 24.3073 333.63 24.6719 333.703 25.0312C333.776 25.3906 333.898 25.7161 334.07 26.0078C334.247 26.2995 334.484 26.5339 334.781 26.7109C335.083 26.8828 335.458 26.9688 335.906 26.9688ZM345.883 26.5547V22.2031C345.883 21.8698 345.815 21.5807 345.68 21.3359C345.549 21.0859 345.352 20.8932 345.086 20.7578C344.82 20.6224 344.492 20.5547 344.102 20.5547C343.737 20.5547 343.417 20.6172 343.141 20.7422C342.87 20.8672 342.656 21.0312 342.5 21.2344C342.349 21.4375 342.273 21.6562 342.273 21.8906H340.828C340.828 21.5885 340.906 21.2891 341.062 20.9922C341.219 20.6953 341.443 20.4271 341.734 20.1875C342.031 19.9427 342.385 19.75 342.797 19.6094C343.214 19.4635 343.677 19.3906 344.188 19.3906C344.802 19.3906 345.344 19.4948 345.812 19.7031C346.286 19.9115 346.656 20.2266 346.922 20.6484C347.193 21.0651 347.328 21.5885 347.328 22.2188V26.1562C347.328 26.4375 347.352 26.737 347.398 27.0547C347.451 27.3724 347.526 27.6458 347.625 27.875V28H346.117C346.044 27.8333 345.987 27.612 345.945 27.3359C345.904 27.0547 345.883 26.7943 345.883 26.5547ZM346.133 22.875L346.148 23.8906H344.688C344.276 23.8906 343.909 23.9245 343.586 23.9922C343.263 24.0547 342.992 24.151 342.773 24.2812C342.555 24.4115 342.388 24.5755 342.273 24.7734C342.159 24.9661 342.102 25.1927 342.102 25.4531C342.102 25.7188 342.161 25.9609 342.281 26.1797C342.401 26.3984 342.581 26.5729 342.82 26.7031C343.065 26.8281 343.365 26.8906 343.719 26.8906C344.161 26.8906 344.552 26.7969 344.891 26.6094C345.229 26.4219 345.497 26.1927 345.695 25.9219C345.898 25.651 346.008 25.388 346.023 25.1328L346.641 25.8281C346.604 26.0469 346.505 26.2891 346.344 26.5547C346.182 26.8203 345.966 27.0755 345.695 27.3203C345.43 27.5599 345.112 27.7604 344.742 27.9219C344.378 28.0781 343.966 28.1562 343.508 28.1562C342.935 28.1562 342.432 28.0443 342 27.8203C341.573 27.5964 341.24 27.2969 341 26.9219C340.766 26.5417 340.648 26.1172 340.648 25.6484C340.648 25.1953 340.737 24.7969 340.914 24.4531C341.091 24.1042 341.346 23.8151 341.68 23.5859C342.013 23.3516 342.414 23.1745 342.883 23.0547C343.352 22.9349 343.875 22.875 344.453 22.875H346.133ZM353.141 19.5469V20.6562H348.57V19.5469H353.141ZM350.117 17.4922H351.562V25.9062C351.562 26.1927 351.607 26.4089 351.695 26.5547C351.784 26.7005 351.898 26.7969 352.039 26.8438C352.18 26.8906 352.331 26.9141 352.492 26.9141C352.612 26.9141 352.737 26.9036 352.867 26.8828C353.003 26.8568 353.104 26.8359 353.172 26.8203L353.18 28C353.065 28.0365 352.914 28.0703 352.727 28.1016C352.544 28.138 352.323 28.1562 352.062 28.1562C351.708 28.1562 351.383 28.0859 351.086 27.9453C350.789 27.8047 350.552 27.5703 350.375 27.2422C350.203 26.9089 350.117 26.4609 350.117 25.8984V17.4922ZM358.344 28.1562C357.755 28.1562 357.221 28.0573 356.742 27.8594C356.268 27.6562 355.859 27.3724 355.516 27.0078C355.177 26.6432 354.917 26.2109 354.734 25.7109C354.552 25.2109 354.461 24.6641 354.461 24.0703V23.7422C354.461 23.0547 354.562 22.4427 354.766 21.9062C354.969 21.3646 355.245 20.9062 355.594 20.5312C355.943 20.1562 356.339 19.8724 356.781 19.6797C357.224 19.487 357.682 19.3906 358.156 19.3906C358.76 19.3906 359.281 19.4948 359.719 19.7031C360.161 19.9115 360.523 20.2031 360.805 20.5781C361.086 20.9479 361.294 21.3854 361.43 21.8906C361.565 22.3906 361.633 22.9375 361.633 23.5312V24.1797H355.32V23H360.188V22.8906C360.167 22.5156 360.089 22.151 359.953 21.7969C359.823 21.4427 359.615 21.151 359.328 20.9219C359.042 20.6927 358.651 20.5781 358.156 20.5781C357.828 20.5781 357.526 20.6484 357.25 20.7891C356.974 20.9245 356.737 21.1276 356.539 21.3984C356.341 21.6693 356.188 22 356.078 22.3906C355.969 22.7812 355.914 23.2318 355.914 23.7422V24.0703C355.914 24.4714 355.969 24.849 356.078 25.2031C356.193 25.5521 356.357 25.8594 356.57 26.125C356.789 26.3906 357.052 26.599 357.359 26.75C357.672 26.901 358.026 26.9766 358.422 26.9766C358.932 26.9766 359.365 26.8724 359.719 26.6641C360.073 26.4557 360.383 26.1771 360.648 25.8281L361.523 26.5234C361.341 26.7995 361.109 27.0625 360.828 27.3125C360.547 27.5625 360.201 27.7656 359.789 27.9219C359.383 28.0781 358.901 28.1562 358.344 28.1562Z" fill="white"/>
<path d="M379.5 20.1428V26.6428C379.5 26.7754 379.448 26.9026 379.354 26.9964C379.26 27.0901 379.133 27.1428 379 27.1428C378.868 27.1428 378.74 27.0901 378.647 26.9964C378.553 26.9026 378.5 26.7754 378.5 26.6428V21.3497L371.354 28.4966C371.26 28.5904 371.133 28.6431 371 28.6431C370.868 28.6431 370.74 28.5904 370.647 28.4966C370.553 28.4028 370.5 28.2755 370.5 28.1428C370.5 28.0101 370.553 27.8829 370.647 27.7891L377.793 20.6428H372.5C372.368 20.6428 372.24 20.5901 372.147 20.4964C372.053 20.4026 372 20.2754 372 20.1428C372 20.0102 372.053 19.883 372.147 19.7893C372.24 19.6955 372.368 19.6428 372.5 19.6428H379C379.133 19.6428 379.26 19.6955 379.354 19.7893C379.448 19.883 379.5 20.0102 379.5 20.1428Z" fill="white"/>
</svg>
