<svg width="637" height="45" viewBox="0 0 637 45" fill="none" xmlns="http://www.w3.org/2000/svg">
<rect width="3" height="45" fill="white"/>
<rect x="7" width="5" height="45" fill="white"/>
<rect width="621" height="45" transform="translate(16)" fill="white"/>
<path d="M234.883 25.125C234.883 24.8594 234.841 24.625 234.758 24.4219C234.68 24.2135 234.539 24.026 234.336 23.8594C234.138 23.6927 233.862 23.5339 233.508 23.3828C233.159 23.2318 232.716 23.0781 232.18 22.9219C231.617 22.7552 231.109 22.5703 230.656 22.3672C230.203 22.1589 229.815 21.9219 229.492 21.6562C229.169 21.3906 228.922 21.0859 228.75 20.7422C228.578 20.3984 228.492 20.0052 228.492 19.5625C228.492 19.1198 228.583 18.7109 228.766 18.3359C228.948 17.9609 229.208 17.6354 229.547 17.3594C229.891 17.0781 230.299 16.8594 230.773 16.7031C231.247 16.5469 231.776 16.4688 232.359 16.4688C233.214 16.4688 233.938 16.6328 234.531 16.9609C235.13 17.2839 235.586 17.7083 235.898 18.2344C236.211 18.7552 236.367 19.3125 236.367 19.9062H234.867C234.867 19.4792 234.776 19.1016 234.594 18.7734C234.411 18.4401 234.135 18.1797 233.766 17.9922C233.396 17.7995 232.927 17.7031 232.359 17.7031C231.823 17.7031 231.38 17.7839 231.031 17.9453C230.682 18.1068 230.422 18.3255 230.25 18.6016C230.083 18.8776 230 19.1927 230 19.5469C230 19.7865 230.049 20.0052 230.148 20.2031C230.253 20.3958 230.411 20.5755 230.625 20.7422C230.844 20.9089 231.12 21.0625 231.453 21.2031C231.792 21.3438 232.195 21.4792 232.664 21.6094C233.31 21.7917 233.867 21.9948 234.336 22.2188C234.805 22.4427 235.19 22.6953 235.492 22.9766C235.799 23.2526 236.026 23.5677 236.172 23.9219C236.323 24.2708 236.398 24.6667 236.398 25.1094C236.398 25.5729 236.305 25.9922 236.117 26.3672C235.93 26.7422 235.661 27.0625 235.312 27.3281C234.964 27.5938 234.544 27.7995 234.055 27.9453C233.57 28.0859 233.029 28.1562 232.43 28.1562C231.904 28.1562 231.385 28.0833 230.875 27.9375C230.37 27.7917 229.909 27.5729 229.492 27.2812C229.081 26.9896 228.75 26.6302 228.5 26.2031C228.255 25.7708 228.133 25.2708 228.133 24.7031H229.633C229.633 25.0938 229.708 25.4297 229.859 25.7109C230.01 25.987 230.216 26.2161 230.477 26.3984C230.742 26.5807 231.042 26.7161 231.375 26.8047C231.714 26.888 232.065 26.9297 232.43 26.9297C232.956 26.9297 233.401 26.8568 233.766 26.7109C234.13 26.5651 234.406 26.3568 234.594 26.0859C234.786 25.8151 234.883 25.4948 234.883 25.125ZM239.547 21.1719V31.25H238.094V19.5469H239.422L239.547 21.1719ZM245.242 23.7031V23.8672C245.242 24.4818 245.169 25.0521 245.023 25.5781C244.878 26.099 244.664 26.5521 244.383 26.9375C244.107 27.3229 243.766 27.6224 243.359 27.8359C242.953 28.0495 242.487 28.1562 241.961 28.1562C241.424 28.1562 240.951 28.0677 240.539 27.8906C240.128 27.7135 239.779 27.4557 239.492 27.1172C239.206 26.7786 238.977 26.3724 238.805 25.8984C238.638 25.4245 238.523 24.8906 238.461 24.2969V23.4219C238.523 22.7969 238.641 22.237 238.812 21.7422C238.984 21.2474 239.211 20.8255 239.492 20.4766C239.779 20.1224 240.125 19.8542 240.531 19.6719C240.938 19.4844 241.406 19.3906 241.938 19.3906C242.469 19.3906 242.94 19.4948 243.352 19.7031C243.763 19.9062 244.109 20.1979 244.391 20.5781C244.672 20.9583 244.883 21.4141 245.023 21.9453C245.169 22.4714 245.242 23.0573 245.242 23.7031ZM243.789 23.8672V23.7031C243.789 23.2812 243.745 22.8854 243.656 22.5156C243.568 22.1406 243.43 21.8125 243.242 21.5312C243.06 21.2448 242.826 21.0208 242.539 20.8594C242.253 20.6927 241.911 20.6094 241.516 20.6094C241.151 20.6094 240.833 20.6719 240.562 20.7969C240.297 20.9219 240.07 21.0911 239.883 21.3047C239.695 21.513 239.542 21.7526 239.422 22.0234C239.307 22.2891 239.221 22.5651 239.164 22.8516V24.875C239.268 25.2396 239.414 25.5833 239.602 25.9062C239.789 26.224 240.039 26.4818 240.352 26.6797C240.664 26.8724 241.057 26.9688 241.531 26.9688C241.922 26.9688 242.258 26.888 242.539 26.7266C242.826 26.5599 243.06 26.3333 243.242 26.0469C243.43 25.7604 243.568 25.4323 243.656 25.0625C243.745 24.6875 243.789 24.2891 243.789 23.8672ZM250.594 28.1562C250.005 28.1562 249.471 28.0573 248.992 27.8594C248.518 27.6562 248.109 27.3724 247.766 27.0078C247.427 26.6432 247.167 26.2109 246.984 25.7109C246.802 25.2109 246.711 24.6641 246.711 24.0703V23.7422C246.711 23.0547 246.812 22.4427 247.016 21.9062C247.219 21.3646 247.495 20.9062 247.844 20.5312C248.193 20.1562 248.589 19.8724 249.031 19.6797C249.474 19.487 249.932 19.3906 250.406 19.3906C251.01 19.3906 251.531 19.4948 251.969 19.7031C252.411 19.9115 252.773 20.2031 253.055 20.5781C253.336 20.9479 253.544 21.3854 253.68 21.8906C253.815 22.3906 253.883 22.9375 253.883 23.5312V24.1797H247.57V23H252.438V22.8906C252.417 22.5156 252.339 22.151 252.203 21.7969C252.073 21.4427 251.865 21.151 251.578 20.9219C251.292 20.6927 250.901 20.5781 250.406 20.5781C250.078 20.5781 249.776 20.6484 249.5 20.7891C249.224 20.9245 248.987 21.1276 248.789 21.3984C248.591 21.6693 248.438 22 248.328 22.3906C248.219 22.7812 248.164 23.2318 248.164 23.7422V24.0703C248.164 24.4714 248.219 24.849 248.328 25.2031C248.443 25.5521 248.607 25.8594 248.82 26.125C249.039 26.3906 249.302 26.599 249.609 26.75C249.922 26.901 250.276 26.9766 250.672 26.9766C251.182 26.9766 251.615 26.8724 251.969 26.6641C252.323 26.4557 252.633 26.1771 252.898 25.8281L253.773 26.5234C253.591 26.7995 253.359 27.0625 253.078 27.3125C252.797 27.5625 252.451 27.7656 252.039 27.9219C251.633 28.0781 251.151 28.1562 250.594 28.1562ZM260.555 26.5547V22.2031C260.555 21.8698 260.487 21.5807 260.352 21.3359C260.221 21.0859 260.023 20.8932 259.758 20.7578C259.492 20.6224 259.164 20.5547 258.773 20.5547C258.409 20.5547 258.089 20.6172 257.812 20.7422C257.542 20.8672 257.328 21.0312 257.172 21.2344C257.021 21.4375 256.945 21.6562 256.945 21.8906H255.5C255.5 21.5885 255.578 21.2891 255.734 20.9922C255.891 20.6953 256.115 20.4271 256.406 20.1875C256.703 19.9427 257.057 19.75 257.469 19.6094C257.885 19.4635 258.349 19.3906 258.859 19.3906C259.474 19.3906 260.016 19.4948 260.484 19.7031C260.958 19.9115 261.328 20.2266 261.594 20.6484C261.865 21.0651 262 21.5885 262 22.2188V26.1562C262 26.4375 262.023 26.737 262.07 27.0547C262.122 27.3724 262.198 27.6458 262.297 27.875V28H260.789C260.716 27.8333 260.659 27.612 260.617 27.3359C260.576 27.0547 260.555 26.7943 260.555 26.5547ZM260.805 22.875L260.82 23.8906H259.359C258.948 23.8906 258.581 23.9245 258.258 23.9922C257.935 24.0547 257.664 24.151 257.445 24.2812C257.227 24.4115 257.06 24.5755 256.945 24.7734C256.831 24.9661 256.773 25.1927 256.773 25.4531C256.773 25.7188 256.833 25.9609 256.953 26.1797C257.073 26.3984 257.253 26.5729 257.492 26.7031C257.737 26.8281 258.036 26.8906 258.391 26.8906C258.833 26.8906 259.224 26.7969 259.562 26.6094C259.901 26.4219 260.169 26.1927 260.367 25.9219C260.57 25.651 260.68 25.388 260.695 25.1328L261.312 25.8281C261.276 26.0469 261.177 26.2891 261.016 26.5547C260.854 26.8203 260.638 27.0755 260.367 27.3203C260.102 27.5599 259.784 27.7604 259.414 27.9219C259.049 28.0781 258.638 28.1562 258.18 28.1562C257.607 28.1562 257.104 28.0443 256.672 27.8203C256.245 27.5964 255.911 27.2969 255.672 26.9219C255.438 26.5417 255.32 26.1172 255.32 25.6484C255.32 25.1953 255.409 24.7969 255.586 24.4531C255.763 24.1042 256.018 23.8151 256.352 23.5859C256.685 23.3516 257.086 23.1745 257.555 23.0547C258.023 22.9349 258.547 22.875 259.125 22.875H260.805ZM265.727 16V28H264.273V16H265.727ZM270.891 19.5469L267.203 23.4922L265.141 25.6328L265.023 24.0938L266.5 22.3281L269.125 19.5469H270.891ZM269.57 28L266.555 23.9688L267.305 22.6797L271.273 28H269.57ZM278.492 26.5L280.664 19.5469H281.617L281.43 20.9297L279.219 28H278.289L278.492 26.5ZM277.031 19.5469L278.883 26.5781L279.016 28H278.039L275.586 19.5469H277.031ZM283.695 26.5234L285.461 19.5469H286.898L284.445 28H283.477L283.695 26.5234ZM281.828 19.5469L283.953 26.3828L284.195 28H283.273L281 20.9141L280.812 19.5469H281.828ZM289.953 19.5469V28H288.5V19.5469H289.953ZM288.391 17.3047C288.391 17.0703 288.461 16.8724 288.602 16.7109C288.747 16.5495 288.961 16.4688 289.242 16.4688C289.518 16.4688 289.729 16.5495 289.875 16.7109C290.026 16.8724 290.102 17.0703 290.102 17.3047C290.102 17.5286 290.026 17.7214 289.875 17.8828C289.729 18.0391 289.518 18.1172 289.242 18.1172C288.961 18.1172 288.747 18.0391 288.602 17.8828C288.461 17.7214 288.391 17.5286 288.391 17.3047ZM295.812 19.5469V20.6562H291.242V19.5469H295.812ZM292.789 17.4922H294.234V25.9062C294.234 26.1927 294.279 26.4089 294.367 26.5547C294.456 26.7005 294.57 26.7969 294.711 26.8438C294.852 26.8906 295.003 26.9141 295.164 26.9141C295.284 26.9141 295.409 26.9036 295.539 26.8828C295.674 26.8568 295.776 26.8359 295.844 26.8203L295.852 28C295.737 28.0365 295.586 28.0703 295.398 28.1016C295.216 28.138 294.995 28.1562 294.734 28.1562C294.38 28.1562 294.055 28.0859 293.758 27.9453C293.461 27.8047 293.224 27.5703 293.047 27.2422C292.875 26.9089 292.789 26.4609 292.789 25.8984V17.4922ZM298.953 16V28H297.508V16H298.953ZM298.609 23.4531L298.008 23.4297C298.013 22.8516 298.099 22.3177 298.266 21.8281C298.432 21.3333 298.667 20.9036 298.969 20.5391C299.271 20.1745 299.63 19.8932 300.047 19.6953C300.469 19.4922 300.935 19.3906 301.445 19.3906C301.862 19.3906 302.237 19.4479 302.57 19.5625C302.904 19.6719 303.188 19.849 303.422 20.0938C303.661 20.3385 303.844 20.6562 303.969 21.0469C304.094 21.4323 304.156 21.9036 304.156 22.4609V28H302.703V22.4453C302.703 22.0026 302.638 21.6484 302.508 21.3828C302.378 21.112 302.188 20.9167 301.938 20.7969C301.688 20.6719 301.38 20.6094 301.016 20.6094C300.656 20.6094 300.328 20.6849 300.031 20.8359C299.74 20.987 299.487 21.1953 299.273 21.4609C299.065 21.7266 298.901 22.0312 298.781 22.375C298.667 22.7135 298.609 23.0729 298.609 23.4531ZM315.273 26.5547V22.2031C315.273 21.8698 315.206 21.5807 315.07 21.3359C314.94 21.0859 314.742 20.8932 314.477 20.7578C314.211 20.6224 313.883 20.5547 313.492 20.5547C313.128 20.5547 312.807 20.6172 312.531 20.7422C312.26 20.8672 312.047 21.0312 311.891 21.2344C311.74 21.4375 311.664 21.6562 311.664 21.8906H310.219C310.219 21.5885 310.297 21.2891 310.453 20.9922C310.609 20.6953 310.833 20.4271 311.125 20.1875C311.422 19.9427 311.776 19.75 312.188 19.6094C312.604 19.4635 313.068 19.3906 313.578 19.3906C314.193 19.3906 314.734 19.4948 315.203 19.7031C315.677 19.9115 316.047 20.2266 316.312 20.6484C316.583 21.0651 316.719 21.5885 316.719 22.2188V26.1562C316.719 26.4375 316.742 26.737 316.789 27.0547C316.841 27.3724 316.917 27.6458 317.016 27.875V28H315.508C315.435 27.8333 315.378 27.612 315.336 27.3359C315.294 27.0547 315.273 26.7943 315.273 26.5547ZM315.523 22.875L315.539 23.8906H314.078C313.667 23.8906 313.299 23.9245 312.977 23.9922C312.654 24.0547 312.383 24.151 312.164 24.2812C311.945 24.4115 311.779 24.5755 311.664 24.7734C311.549 24.9661 311.492 25.1927 311.492 25.4531C311.492 25.7188 311.552 25.9609 311.672 26.1797C311.792 26.3984 311.971 26.5729 312.211 26.7031C312.456 26.8281 312.755 26.8906 313.109 26.8906C313.552 26.8906 313.943 26.7969 314.281 26.6094C314.62 26.4219 314.888 26.1927 315.086 25.9219C315.289 25.651 315.398 25.388 315.414 25.1328L316.031 25.8281C315.995 26.0469 315.896 26.2891 315.734 26.5547C315.573 26.8203 315.357 27.0755 315.086 27.3203C314.82 27.5599 314.503 27.7604 314.133 27.9219C313.768 28.0781 313.357 28.1562 312.898 28.1562C312.326 28.1562 311.823 28.0443 311.391 27.8203C310.964 27.5964 310.63 27.2969 310.391 26.9219C310.156 26.5417 310.039 26.1172 310.039 25.6484C310.039 25.1953 310.128 24.7969 310.305 24.4531C310.482 24.1042 310.737 23.8151 311.07 23.5859C311.404 23.3516 311.805 23.1745 312.273 23.0547C312.742 22.9349 313.266 22.875 313.844 22.875H315.523ZM320.438 21.3516V28H318.992V19.5469H320.359L320.438 21.3516ZM320.094 23.4531L319.492 23.4297C319.497 22.8516 319.583 22.3177 319.75 21.8281C319.917 21.3333 320.151 20.9036 320.453 20.5391C320.755 20.1745 321.115 19.8932 321.531 19.6953C321.953 19.4922 322.419 19.3906 322.93 19.3906C323.346 19.3906 323.721 19.4479 324.055 19.5625C324.388 19.6719 324.672 19.849 324.906 20.0938C325.146 20.3385 325.328 20.6562 325.453 21.0469C325.578 21.4323 325.641 21.9036 325.641 22.4609V28H324.188V22.4453C324.188 22.0026 324.122 21.6484 323.992 21.3828C323.862 21.112 323.672 20.9167 323.422 20.7969C323.172 20.6719 322.865 20.6094 322.5 20.6094C322.141 20.6094 321.812 20.6849 321.516 20.8359C321.224 20.987 320.971 21.1953 320.758 21.4609C320.549 21.7266 320.385 22.0312 320.266 22.375C320.151 22.7135 320.094 23.0729 320.094 23.4531ZM336.234 17.6328L332.469 28H330.93L335.266 16.625H336.258L336.234 17.6328ZM339.391 28L335.617 17.6328L335.594 16.625H336.586L340.938 28H339.391ZM339.195 23.7891V25.0234H332.805V23.7891H339.195ZM347.57 26.3594V16H349.023V28H347.695L347.57 26.3594ZM341.883 23.8672V23.7031C341.883 23.0573 341.961 22.4714 342.117 21.9453C342.279 21.4141 342.505 20.9583 342.797 20.5781C343.094 20.1979 343.445 19.9062 343.852 19.7031C344.263 19.4948 344.721 19.3906 345.227 19.3906C345.758 19.3906 346.221 19.4844 346.617 19.6719C347.018 19.8542 347.357 20.1224 347.633 20.4766C347.914 20.8255 348.135 21.2474 348.297 21.7422C348.458 22.237 348.57 22.7969 348.633 23.4219V24.1406C348.576 24.7604 348.464 25.3177 348.297 25.8125C348.135 26.3073 347.914 26.7292 347.633 27.0781C347.357 27.4271 347.018 27.6953 346.617 27.8828C346.216 28.0651 345.747 28.1562 345.211 28.1562C344.716 28.1562 344.263 28.0495 343.852 27.8359C343.445 27.6224 343.094 27.3229 342.797 26.9375C342.505 26.5521 342.279 26.099 342.117 25.5781C341.961 25.0521 341.883 24.4818 341.883 23.8672ZM343.336 23.7031V23.8672C343.336 24.2891 343.378 24.6849 343.461 25.0547C343.549 25.4245 343.685 25.75 343.867 26.0312C344.049 26.3125 344.281 26.5339 344.562 26.6953C344.844 26.8516 345.18 26.9297 345.57 26.9297C346.049 26.9297 346.443 26.8281 346.75 26.625C347.062 26.4219 347.312 26.1536 347.5 25.8203C347.688 25.487 347.833 25.125 347.938 24.7344V22.8516C347.875 22.5651 347.784 22.2891 347.664 22.0234C347.549 21.7526 347.398 21.513 347.211 21.3047C347.029 21.0911 346.802 20.9219 346.531 20.7969C346.266 20.6719 345.951 20.6094 345.586 20.6094C345.19 20.6094 344.849 20.6927 344.562 20.8594C344.281 21.0208 344.049 21.2448 343.867 21.5312C343.685 21.8125 343.549 22.1406 343.461 22.5156C343.378 22.8854 343.336 23.2812 343.336 23.7031ZM353.844 26.6953L356.156 19.5469H357.633L354.594 28H353.625L353.844 26.6953ZM351.914 19.5469L354.297 26.7344L354.461 28H353.492L350.43 19.5469H351.914ZM358.516 23.8672V23.6875C358.516 23.0781 358.604 22.513 358.781 21.9922C358.958 21.4661 359.214 21.0104 359.547 20.625C359.88 20.2344 360.284 19.9323 360.758 19.7188C361.232 19.5 361.763 19.3906 362.352 19.3906C362.945 19.3906 363.479 19.5 363.953 19.7188C364.432 19.9323 364.839 20.2344 365.172 20.625C365.51 21.0104 365.768 21.4661 365.945 21.9922C366.122 22.513 366.211 23.0781 366.211 23.6875V23.8672C366.211 24.4766 366.122 25.0417 365.945 25.5625C365.768 26.0833 365.51 26.5391 365.172 26.9297C364.839 27.3151 364.435 27.6172 363.961 27.8359C363.492 28.0495 362.961 28.1562 362.367 28.1562C361.773 28.1562 361.24 28.0495 360.766 27.8359C360.292 27.6172 359.885 27.3151 359.547 26.9297C359.214 26.5391 358.958 26.0833 358.781 25.5625C358.604 25.0417 358.516 24.4766 358.516 23.8672ZM359.961 23.6875V23.8672C359.961 24.2891 360.01 24.6875 360.109 25.0625C360.208 25.4323 360.357 25.7604 360.555 26.0469C360.758 26.3333 361.01 26.5599 361.312 26.7266C361.615 26.888 361.966 26.9688 362.367 26.9688C362.763 26.9688 363.109 26.888 363.406 26.7266C363.708 26.5599 363.958 26.3333 364.156 26.0469C364.354 25.7604 364.503 25.4323 364.602 25.0625C364.706 24.6875 364.758 24.2891 364.758 23.8672V23.6875C364.758 23.2708 364.706 22.8776 364.602 22.5078C364.503 22.1328 364.352 21.8021 364.148 21.5156C363.951 21.224 363.701 20.9948 363.398 20.8281C363.102 20.6615 362.753 20.5781 362.352 20.5781C361.956 20.5781 361.607 20.6615 361.305 20.8281C361.008 20.9948 360.758 21.224 360.555 21.5156C360.357 21.8021 360.208 22.1328 360.109 22.5078C360.01 22.8776 359.961 23.2708 359.961 23.6875ZM371.406 26.9688C371.75 26.9688 372.068 26.8984 372.359 26.7578C372.651 26.6172 372.891 26.4245 373.078 26.1797C373.266 25.9297 373.372 25.6458 373.398 25.3281H374.773C374.747 25.8281 374.578 26.2943 374.266 26.7266C373.958 27.1536 373.555 27.5 373.055 27.7656C372.555 28.026 372.005 28.1562 371.406 28.1562C370.771 28.1562 370.216 28.0443 369.742 27.8203C369.273 27.5964 368.883 27.2891 368.57 26.8984C368.263 26.5078 368.031 26.0599 367.875 25.5547C367.724 25.0443 367.648 24.5052 367.648 23.9375V23.6094C367.648 23.0417 367.724 22.5052 367.875 22C368.031 21.4896 368.263 21.0391 368.57 20.6484C368.883 20.2578 369.273 19.9505 369.742 19.7266C370.216 19.5026 370.771 19.3906 371.406 19.3906C372.068 19.3906 372.646 19.526 373.141 19.7969C373.635 20.0625 374.023 20.4271 374.305 20.8906C374.591 21.349 374.747 21.8698 374.773 22.4531H373.398C373.372 22.1042 373.273 21.7891 373.102 21.5078C372.935 21.2266 372.706 21.0026 372.414 20.8359C372.128 20.6641 371.792 20.5781 371.406 20.5781C370.964 20.5781 370.591 20.6667 370.289 20.8438C369.992 21.0156 369.755 21.25 369.578 21.5469C369.406 21.8385 369.281 22.1641 369.203 22.5234C369.13 22.8776 369.094 23.2396 369.094 23.6094V23.9375C369.094 24.3073 369.13 24.6719 369.203 25.0312C369.276 25.3906 369.398 25.7161 369.57 26.0078C369.747 26.2995 369.984 26.5339 370.281 26.7109C370.583 26.8828 370.958 26.9688 371.406 26.9688ZM381.383 26.5547V22.2031C381.383 21.8698 381.315 21.5807 381.18 21.3359C381.049 21.0859 380.852 20.8932 380.586 20.7578C380.32 20.6224 379.992 20.5547 379.602 20.5547C379.237 20.5547 378.917 20.6172 378.641 20.7422C378.37 20.8672 378.156 21.0312 378 21.2344C377.849 21.4375 377.773 21.6562 377.773 21.8906H376.328C376.328 21.5885 376.406 21.2891 376.562 20.9922C376.719 20.6953 376.943 20.4271 377.234 20.1875C377.531 19.9427 377.885 19.75 378.297 19.6094C378.714 19.4635 379.177 19.3906 379.688 19.3906C380.302 19.3906 380.844 19.4948 381.312 19.7031C381.786 19.9115 382.156 20.2266 382.422 20.6484C382.693 21.0651 382.828 21.5885 382.828 22.2188V26.1562C382.828 26.4375 382.852 26.737 382.898 27.0547C382.951 27.3724 383.026 27.6458 383.125 27.875V28H381.617C381.544 27.8333 381.487 27.612 381.445 27.3359C381.404 27.0547 381.383 26.7943 381.383 26.5547ZM381.633 22.875L381.648 23.8906H380.188C379.776 23.8906 379.409 23.9245 379.086 23.9922C378.763 24.0547 378.492 24.151 378.273 24.2812C378.055 24.4115 377.888 24.5755 377.773 24.7734C377.659 24.9661 377.602 25.1927 377.602 25.4531C377.602 25.7188 377.661 25.9609 377.781 26.1797C377.901 26.3984 378.081 26.5729 378.32 26.7031C378.565 26.8281 378.865 26.8906 379.219 26.8906C379.661 26.8906 380.052 26.7969 380.391 26.6094C380.729 26.4219 380.997 26.1927 381.195 25.9219C381.398 25.651 381.508 25.388 381.523 25.1328L382.141 25.8281C382.104 26.0469 382.005 26.2891 381.844 26.5547C381.682 26.8203 381.466 27.0755 381.195 27.3203C380.93 27.5599 380.612 27.7604 380.242 27.9219C379.878 28.0781 379.466 28.1562 379.008 28.1562C378.435 28.1562 377.932 28.0443 377.5 27.8203C377.073 27.5964 376.74 27.2969 376.5 26.9219C376.266 26.5417 376.148 26.1172 376.148 25.6484C376.148 25.1953 376.237 24.7969 376.414 24.4531C376.591 24.1042 376.846 23.8151 377.18 23.5859C377.513 23.3516 377.914 23.1745 378.383 23.0547C378.852 22.9349 379.375 22.875 379.953 22.875H381.633ZM388.641 19.5469V20.6562H384.07V19.5469H388.641ZM385.617 17.4922H387.062V25.9062C387.062 26.1927 387.107 26.4089 387.195 26.5547C387.284 26.7005 387.398 26.7969 387.539 26.8438C387.68 26.8906 387.831 26.9141 387.992 26.9141C388.112 26.9141 388.237 26.9036 388.367 26.8828C388.503 26.8568 388.604 26.8359 388.672 26.8203L388.68 28C388.565 28.0365 388.414 28.0703 388.227 28.1016C388.044 28.138 387.823 28.1562 387.562 28.1562C387.208 28.1562 386.883 28.0859 386.586 27.9453C386.289 27.8047 386.052 27.5703 385.875 27.2422C385.703 26.9089 385.617 26.4609 385.617 25.8984V17.4922ZM393.844 28.1562C393.255 28.1562 392.721 28.0573 392.242 27.8594C391.768 27.6562 391.359 27.3724 391.016 27.0078C390.677 26.6432 390.417 26.2109 390.234 25.7109C390.052 25.2109 389.961 24.6641 389.961 24.0703V23.7422C389.961 23.0547 390.062 22.4427 390.266 21.9062C390.469 21.3646 390.745 20.9062 391.094 20.5312C391.443 20.1562 391.839 19.8724 392.281 19.6797C392.724 19.487 393.182 19.3906 393.656 19.3906C394.26 19.3906 394.781 19.4948 395.219 19.7031C395.661 19.9115 396.023 20.2031 396.305 20.5781C396.586 20.9479 396.794 21.3854 396.93 21.8906C397.065 22.3906 397.133 22.9375 397.133 23.5312V24.1797H390.82V23H395.688V22.8906C395.667 22.5156 395.589 22.151 395.453 21.7969C395.323 21.4427 395.115 21.151 394.828 20.9219C394.542 20.6927 394.151 20.5781 393.656 20.5781C393.328 20.5781 393.026 20.6484 392.75 20.7891C392.474 20.9245 392.237 21.1276 392.039 21.3984C391.841 21.6693 391.688 22 391.578 22.3906C391.469 22.7812 391.414 23.2318 391.414 23.7422V24.0703C391.414 24.4714 391.469 24.849 391.578 25.2031C391.693 25.5521 391.857 25.8594 392.07 26.125C392.289 26.3906 392.552 26.599 392.859 26.75C393.172 26.901 393.526 26.9766 393.922 26.9766C394.432 26.9766 394.865 26.8724 395.219 26.6641C395.573 26.4557 395.883 26.1771 396.148 25.8281L397.023 26.5234C396.841 26.7995 396.609 27.0625 396.328 27.3125C396.047 27.5625 395.701 27.7656 395.289 27.9219C394.883 28.0781 394.401 28.1562 393.844 28.1562Z" fill="#2E31CA"/>
<path d="M420.424 23.7498L418.049 22.5623C417.955 22.5158 417.851 22.4947 417.747 22.5012C417.643 22.5077 417.542 22.5416 417.455 22.5995L416.365 23.3268C415.864 23.0517 415.452 22.6398 415.177 22.1393L415.904 21.049C415.962 20.9621 415.996 20.8614 416.003 20.7571C416.009 20.6529 415.988 20.5488 415.942 20.4553L414.754 18.0803C414.705 17.9809 414.629 17.8972 414.534 17.8389C414.44 17.7805 414.331 17.7497 414.22 17.75C413.433 17.75 412.678 18.0628 412.121 18.6195C411.564 19.1763 411.252 19.9314 411.252 20.7188C411.254 22.4503 411.942 24.1105 413.167 25.3349C414.391 26.5593 416.051 27.248 417.783 27.25C418.173 27.25 418.559 27.1732 418.919 27.024C419.279 26.8748 419.606 26.6561 419.882 26.3805C420.158 26.1048 420.377 25.7775 420.526 25.4173C420.675 25.0572 420.752 24.6711 420.752 24.2812C420.752 24.1709 420.721 24.0628 420.663 23.9689C420.605 23.8751 420.522 23.7992 420.424 23.7498ZM417.783 26.0625C416.366 26.0609 415.008 25.4974 414.006 24.4956C413.004 23.4938 412.441 22.1355 412.439 20.7188C412.439 20.3069 412.582 19.9078 412.843 19.5892C413.104 19.2707 413.467 19.0525 413.871 18.9716L414.723 20.6787L413.998 21.7578C413.944 21.8391 413.91 21.9325 413.901 22.0297C413.891 22.1269 413.906 22.225 413.944 22.3152C414.368 23.3249 415.172 24.1281 416.181 24.5529C416.272 24.5921 416.371 24.6081 416.469 24.5996C416.567 24.591 416.662 24.5581 416.744 24.5039L417.828 23.781L419.535 24.633C419.454 25.0373 419.235 25.4008 418.915 25.6615C418.595 25.9222 418.195 26.0639 417.783 26.0625ZM416.002 14.7813C414.669 14.781 413.359 15.1257 412.199 15.7819C411.039 16.4381 410.069 17.3834 409.383 18.5258C408.697 19.6682 408.318 20.9688 408.284 22.301C408.249 23.6332 408.561 24.9516 409.187 26.1278L408.345 28.655C408.275 28.8642 408.265 29.0887 408.315 29.3034C408.366 29.5181 408.475 29.7144 408.631 29.8703C408.787 30.0263 408.984 30.1357 409.198 30.1864C409.413 30.2371 409.637 30.2269 409.847 30.1571L412.374 29.3148C413.409 29.8654 414.556 30.1729 415.728 30.214C416.9 30.2551 418.065 30.0287 419.137 29.5521C420.208 29.0754 421.156 28.3609 421.91 27.4629C422.664 26.5649 423.204 25.507 423.487 24.3694C423.771 23.2318 423.793 22.0444 423.549 20.8975C423.306 19.7505 422.804 18.6741 422.083 17.7499C421.361 16.8258 420.438 16.0781 419.385 15.5637C418.331 15.0493 417.174 14.7817 416.002 14.7813ZM416.002 29.0312C414.854 29.032 413.725 28.7297 412.732 28.1547C412.659 28.1125 412.578 28.0863 412.494 28.0777C412.411 28.0691 412.326 28.0784 412.246 28.105L409.47 29.0312L410.396 26.2555C410.423 26.1757 410.432 26.0912 410.424 26.0075C410.415 25.9238 410.389 25.8429 410.347 25.7701C409.627 24.5254 409.338 23.0779 409.525 21.6521C409.711 20.2263 410.363 18.902 411.379 17.8846C412.396 16.8672 413.719 16.2136 415.145 16.0251C416.57 15.8366 418.018 16.1238 419.264 16.8422C420.509 17.5606 421.483 18.6699 422.034 19.9982C422.585 21.3264 422.682 22.7993 422.31 24.1884C421.938 25.5774 421.118 26.805 419.978 27.6806C418.837 28.5563 417.44 29.031 416.002 29.0312Z" fill="#2E31CA"/>
</svg>
