<svg width="46" height="44" viewBox="0 0 46 44" fill="none" xmlns="http://www.w3.org/2000/svg">
<path d="M45.0799 31.034C44.9551 30.9545 44.8121 30.9081 44.6645 30.8989C44.5168 30.8897 44.3692 30.9181 44.2355 30.9815C43.4091 31.3732 42.4947 31.5423 41.5828 31.472C40.671 31.4017 39.7933 31.0944 39.0367 30.5805C38.2802 30.0666 37.671 29.364 37.2695 28.5423C36.868 27.7205 36.6881 26.8082 36.7477 25.8955C36.8033 25.0406 37.0672 24.2123 37.5165 23.4828C37.9658 22.7533 38.5868 22.1449 39.3253 21.7106C40.0638 21.2763 40.8974 21.0293 41.7533 20.9912C42.6092 20.9531 43.4614 21.1251 44.2355 21.4921C44.3689 21.5556 44.5161 21.5843 44.6636 21.5756C44.811 21.5668 44.9539 21.5209 45.0788 21.4421C45.2037 21.3632 45.3066 21.2541 45.378 21.1247C45.4493 20.9954 45.4867 20.8501 45.4868 20.7024V11.3618C45.4868 10.6656 45.2102 9.99791 44.7179 9.50562C44.2257 9.01334 43.558 8.73678 42.8618 8.73678H33.893C34.134 7.79604 34.1765 6.81546 34.018 5.85739C33.8595 4.89931 33.5034 3.9847 32.9723 3.17169C32.4412 2.35869 31.7467 1.66509 30.9331 1.13498C30.1195 0.604868 29.2044 0.249853 28.2461 0.0925028C27.2879 -0.0648475 26.3073 -0.0210908 25.3669 0.220992C24.4265 0.463074 23.5467 0.898186 22.7835 1.49866C22.0203 2.09914 21.3904 2.85185 20.9338 3.70892C20.4772 4.566 20.204 5.5087 20.1315 6.47709C20.0767 7.23612 20.1439 7.99901 20.3305 8.73678H11.3618C10.6656 8.73678 9.99791 9.01334 9.50562 9.50562C9.01334 9.99791 8.73678 10.6656 8.73678 11.3618V19.4555C7.79604 19.2146 6.81546 19.172 5.85739 19.3305C4.89931 19.489 3.9847 19.8452 3.17169 20.3763C2.35869 20.9074 1.66509 21.6018 1.13498 22.4155C0.604868 23.2291 0.249853 24.1442 0.0925027 25.1024C-0.0648477 26.0607 -0.0210905 27.0412 0.220992 27.9817C0.463074 28.9221 0.898186 29.8019 1.49866 30.5651C2.09914 31.3283 2.85185 31.9582 3.70892 32.4147C4.566 32.8713 5.5087 33.1446 6.47709 33.2171C7.23613 33.2729 7.9992 33.2057 8.73678 33.018V41.1118C8.73678 41.808 9.01334 42.4757 9.50562 42.9679C9.99791 43.4602 10.6656 43.7368 11.3618 43.7368H42.8618C43.558 43.7368 44.2257 43.4602 44.7179 42.9679C45.2102 42.4757 45.4868 41.808 45.4868 41.1118V31.7733C45.4868 31.6258 45.4495 31.4806 45.3784 31.3514C45.3072 31.2221 45.2046 31.1129 45.0799 31.034ZM43.7368 41.1118C43.7368 41.3438 43.6446 41.5664 43.4805 41.7305C43.3164 41.8946 43.0938 41.9868 42.8618 41.9868H11.3618C11.1297 41.9868 10.9072 41.8946 10.7431 41.7305C10.579 41.5664 10.4868 41.3438 10.4868 41.1118V31.7733C10.4868 31.6258 10.4495 31.4806 10.3784 31.3514C10.3072 31.2221 10.2046 31.1129 10.0799 31.034C9.95533 30.9549 9.8128 30.9087 9.66556 30.8995C9.51831 30.8903 9.37114 30.9185 9.23772 30.9815C8.46347 31.3489 7.61104 31.5212 6.75485 31.4834C5.89867 31.4455 5.06477 31.1987 4.32597 30.7643C3.58717 30.33 2.96593 29.7214 2.51651 28.9916C2.06709 28.2619 1.80314 27.4333 1.74772 26.578C1.68793 25.6651 1.86774 24.7524 2.26934 23.9304C2.67093 23.1084 3.28037 22.4056 4.03725 21.8916C4.79412 21.3777 5.67217 21.0704 6.58436 21.0004C7.49655 20.9303 8.41122 21.0998 9.23772 21.4921C9.37098 21.5551 9.51801 21.5834 9.66514 21.5744C9.81228 21.5655 9.95476 21.5194 10.0794 21.4407C10.204 21.3619 10.3066 21.2529 10.3779 21.1238C10.4491 20.9948 10.4866 20.8498 10.4868 20.7024V11.3618C10.4868 11.1297 10.579 10.9072 10.7431 10.7431C10.9072 10.579 11.1297 10.4868 11.3618 10.4868H21.5752C21.7228 10.4869 21.8681 10.4497 21.9974 10.3787C22.1268 10.3076 22.236 10.2049 22.3151 10.0803C22.3941 9.95563 22.4403 9.81301 22.4494 9.66569C22.4585 9.51837 22.4302 9.37115 22.3671 9.23772C21.9996 8.46347 21.8273 7.61104 21.8652 6.75485C21.903 5.89867 22.1499 5.06477 22.5842 4.32597C23.0186 3.58717 23.6272 2.96593 24.3569 2.51651C25.0866 2.06709 25.9153 1.80314 26.7705 1.74772C27.6835 1.68793 28.5961 1.86774 29.4182 2.26934C30.2402 2.67093 30.943 3.28037 31.457 4.03725C31.9709 4.79413 32.2781 5.67217 32.3482 6.58436C32.4183 7.49655 32.2488 8.41122 31.8565 9.23772C31.7934 9.37115 31.765 9.51837 31.7741 9.66569C31.7832 9.81301 31.8294 9.95563 31.9085 10.0803C31.9875 10.2049 32.0968 10.3076 32.2261 10.3787C32.3555 10.4497 32.5007 10.4869 32.6483 10.4868H42.8618C43.0938 10.4868 43.3164 10.579 43.4805 10.7431C43.6446 10.9072 43.7368 11.1297 43.7368 11.3618V19.4555C42.9994 19.2667 42.2365 19.1973 41.4771 19.2499C40.5123 19.3274 39.5741 19.6041 38.7216 20.0626C37.8692 20.521 37.1211 21.1513 36.5246 21.9136C35.9281 22.6758 35.4962 23.5535 35.2561 24.4911C35.0161 25.4288 34.973 26.406 35.1298 27.3612C35.2866 28.3163 35.6397 29.2285 36.1669 30.0402C36.6941 30.8519 37.3839 31.5455 38.1927 32.0771C39.0016 32.6087 39.9119 32.9668 40.8661 33.1288C41.8204 33.2907 42.7978 33.253 43.7368 33.018V41.1118Z" fill="#FAF1E1"/>
</svg>
