<svg width="228" height="46" viewBox="0 0 228 46" fill="none" xmlns="http://www.w3.org/2000/svg">
<rect width="3" height="46" fill="#2E31CA"/>
<rect x="7" width="5" height="46" fill="#2E31CA"/>
<rect width="212" height="45" transform="translate(16 0.5)" fill="#2E31CA"/>
<path d="M36.3984 28.5H34.0234L34.0391 27.2734H36.3984C37.2109 27.2734 37.888 27.1042 38.4297 26.7656C38.9714 26.4219 39.3776 25.9427 39.6484 25.3281C39.9245 24.7083 40.0625 23.9844 40.0625 23.1562V22.4609C40.0625 21.8099 39.9844 21.2318 39.8281 20.7266C39.6719 20.2161 39.4427 19.7865 39.1406 19.4375C38.8385 19.0833 38.4688 18.8151 38.0312 18.6328C37.599 18.4505 37.1016 18.3594 36.5391 18.3594H33.9766V17.125H36.5391C37.2839 17.125 37.9635 17.25 38.5781 17.5C39.1927 17.7448 39.7214 18.1016 40.1641 18.5703C40.612 19.0339 40.9557 19.5964 41.1953 20.2578C41.4349 20.9141 41.5547 21.6536 41.5547 22.4766V23.1562C41.5547 23.9792 41.4349 24.7214 41.1953 25.3828C40.9557 26.0391 40.6094 26.599 40.1562 27.0625C39.7083 27.526 39.1667 27.8828 38.5312 28.1328C37.901 28.3776 37.1901 28.5 36.3984 28.5ZM34.8281 17.125V28.5H33.3203V17.125H34.8281ZM45.1719 20.0469V28.5H43.7188V20.0469H45.1719ZM43.6094 17.8047C43.6094 17.5703 43.6797 17.3724 43.8203 17.2109C43.9661 17.0495 44.1797 16.9688 44.4609 16.9688C44.737 16.9688 44.9479 17.0495 45.0938 17.2109C45.2448 17.3724 45.3203 17.5703 45.3203 17.8047C45.3203 18.0286 45.2448 18.2214 45.0938 18.3828C44.9479 18.5391 44.737 18.6172 44.4609 18.6172C44.1797 18.6172 43.9661 18.5391 43.8203 18.3828C43.6797 18.2214 43.6094 18.0286 43.6094 17.8047ZM52.4141 26.2578C52.4141 26.0495 52.3672 25.8568 52.2734 25.6797C52.1849 25.4974 52 25.3333 51.7188 25.1875C51.4427 25.0365 51.026 24.9062 50.4688 24.7969C50 24.6979 49.5755 24.5807 49.1953 24.4453C48.8203 24.3099 48.5 24.1458 48.2344 23.9531C47.974 23.7604 47.7734 23.5339 47.6328 23.2734C47.4922 23.013 47.4219 22.7083 47.4219 22.3594C47.4219 22.026 47.4948 21.7109 47.6406 21.4141C47.7917 21.1172 48.0026 20.8542 48.2734 20.625C48.5495 20.3958 48.8802 20.2161 49.2656 20.0859C49.651 19.9557 50.0807 19.8906 50.5547 19.8906C51.2318 19.8906 51.8099 20.0104 52.2891 20.25C52.7682 20.4896 53.1354 20.8099 53.3906 21.2109C53.6458 21.6068 53.7734 22.0469 53.7734 22.5312H52.3281C52.3281 22.2969 52.2578 22.0703 52.1172 21.8516C51.9818 21.6276 51.7812 21.4427 51.5156 21.2969C51.2552 21.151 50.9349 21.0781 50.5547 21.0781C50.1536 21.0781 49.8281 21.1406 49.5781 21.2656C49.3333 21.3854 49.1536 21.5391 49.0391 21.7266C48.9297 21.9141 48.875 22.112 48.875 22.3203C48.875 22.4766 48.901 22.6172 48.9531 22.7422C49.0104 22.862 49.1094 22.974 49.25 23.0781C49.3906 23.1771 49.5885 23.2708 49.8438 23.3594C50.099 23.4479 50.4245 23.5365 50.8203 23.625C51.513 23.7812 52.0833 23.9688 52.5312 24.1875C52.9792 24.4062 53.3125 24.6745 53.5312 24.9922C53.75 25.3099 53.8594 25.6953 53.8594 26.1484C53.8594 26.5182 53.7812 26.8568 53.625 27.1641C53.474 27.4714 53.2526 27.737 52.9609 27.9609C52.6745 28.1797 52.3307 28.3516 51.9297 28.4766C51.5339 28.5964 51.0885 28.6562 50.5938 28.6562C49.849 28.6562 49.2188 28.5234 48.7031 28.2578C48.1875 27.9922 47.7969 27.6484 47.5312 27.2266C47.2656 26.8047 47.1328 26.3594 47.1328 25.8906H48.5859C48.6068 26.2865 48.7214 26.6016 48.9297 26.8359C49.138 27.0651 49.3932 27.2292 49.6953 27.3281C49.9974 27.4219 50.2969 27.4688 50.5938 27.4688C50.9896 27.4688 51.3203 27.4167 51.5859 27.3125C51.8568 27.2083 52.0625 27.0651 52.2031 26.8828C52.3438 26.7005 52.4141 26.4922 52.4141 26.2578ZM59.1406 27.4688C59.4844 27.4688 59.8021 27.3984 60.0938 27.2578C60.3854 27.1172 60.625 26.9245 60.8125 26.6797C61 26.4297 61.1068 26.1458 61.1328 25.8281H62.5078C62.4818 26.3281 62.3125 26.7943 62 27.2266C61.6927 27.6536 61.2891 28 60.7891 28.2656C60.2891 28.526 59.7396 28.6562 59.1406 28.6562C58.5052 28.6562 57.9505 28.5443 57.4766 28.3203C57.0078 28.0964 56.6172 27.7891 56.3047 27.3984C55.9974 27.0078 55.7656 26.5599 55.6094 26.0547C55.4583 25.5443 55.3828 25.0052 55.3828 24.4375V24.1094C55.3828 23.5417 55.4583 23.0052 55.6094 22.5C55.7656 21.9896 55.9974 21.5391 56.3047 21.1484C56.6172 20.7578 57.0078 20.4505 57.4766 20.2266C57.9505 20.0026 58.5052 19.8906 59.1406 19.8906C59.8021 19.8906 60.3802 20.026 60.875 20.2969C61.3698 20.5625 61.7578 20.9271 62.0391 21.3906C62.3255 21.849 62.4818 22.3698 62.5078 22.9531H61.1328C61.1068 22.6042 61.0078 22.2891 60.8359 22.0078C60.6693 21.7266 60.4401 21.5026 60.1484 21.3359C59.862 21.1641 59.526 21.0781 59.1406 21.0781C58.6979 21.0781 58.3255 21.1667 58.0234 21.3438C57.7266 21.5156 57.4896 21.75 57.3125 22.0469C57.1406 22.3385 57.0156 22.6641 56.9375 23.0234C56.8646 23.3776 56.8281 23.7396 56.8281 24.1094V24.4375C56.8281 24.8073 56.8646 25.1719 56.9375 25.5312C57.0104 25.8906 57.1328 26.2161 57.3047 26.5078C57.4818 26.7995 57.7188 27.0339 58.0156 27.2109C58.3177 27.3828 58.6927 27.4688 59.1406 27.4688ZM63.75 24.3672V24.1875C63.75 23.5781 63.8385 23.013 64.0156 22.4922C64.1927 21.9661 64.4479 21.5104 64.7812 21.125C65.1146 20.7344 65.5182 20.4323 65.9922 20.2188C66.4661 20 66.9974 19.8906 67.5859 19.8906C68.1797 19.8906 68.7135 20 69.1875 20.2188C69.6667 20.4323 70.0729 20.7344 70.4062 21.125C70.7448 21.5104 71.0026 21.9661 71.1797 22.4922C71.3568 23.013 71.4453 23.5781 71.4453 24.1875V24.3672C71.4453 24.9766 71.3568 25.5417 71.1797 26.0625C71.0026 26.5833 70.7448 27.0391 70.4062 27.4297C70.0729 27.8151 69.6693 28.1172 69.1953 28.3359C68.7266 28.5495 68.1953 28.6562 67.6016 28.6562C67.0078 28.6562 66.474 28.5495 66 28.3359C65.526 28.1172 65.1198 27.8151 64.7812 27.4297C64.4479 27.0391 64.1927 26.5833 64.0156 26.0625C63.8385 25.5417 63.75 24.9766 63.75 24.3672ZM65.1953 24.1875V24.3672C65.1953 24.7891 65.2448 25.1875 65.3438 25.5625C65.4427 25.9323 65.5911 26.2604 65.7891 26.5469C65.9922 26.8333 66.2448 27.0599 66.5469 27.2266C66.849 27.388 67.2005 27.4688 67.6016 27.4688C67.9974 27.4688 68.3438 27.388 68.6406 27.2266C68.9427 27.0599 69.1927 26.8333 69.3906 26.5469C69.5885 26.2604 69.737 25.9323 69.8359 25.5625C69.9401 25.1875 69.9922 24.7891 69.9922 24.3672V24.1875C69.9922 23.7708 69.9401 23.3776 69.8359 23.0078C69.737 22.6328 69.5859 22.3021 69.3828 22.0156C69.1849 21.724 68.9349 21.4948 68.6328 21.3281C68.3359 21.1615 67.987 21.0781 67.5859 21.0781C67.1901 21.0781 66.8411 21.1615 66.5391 21.3281C66.2422 21.4948 65.9922 21.724 65.7891 22.0156C65.5911 22.3021 65.4427 22.6328 65.3438 23.0078C65.2448 23.3776 65.1953 23.7708 65.1953 24.1875ZM75.7031 27.1953L78.0156 20.0469H79.4922L76.4531 28.5H75.4844L75.7031 27.1953ZM73.7734 20.0469L76.1562 27.2344L76.3203 28.5H75.3516L72.2891 20.0469H73.7734ZM84.2812 28.6562C83.6927 28.6562 83.1589 28.5573 82.6797 28.3594C82.2057 28.1562 81.7969 27.8724 81.4531 27.5078C81.1146 27.1432 80.8542 26.7109 80.6719 26.2109C80.4896 25.7109 80.3984 25.1641 80.3984 24.5703V24.2422C80.3984 23.5547 80.5 22.9427 80.7031 22.4062C80.9062 21.8646 81.1823 21.4062 81.5312 21.0312C81.8802 20.6562 82.276 20.3724 82.7188 20.1797C83.1615 19.987 83.6198 19.8906 84.0938 19.8906C84.6979 19.8906 85.2188 19.9948 85.6562 20.2031C86.099 20.4115 86.4609 20.7031 86.7422 21.0781C87.0234 21.4479 87.2318 21.8854 87.3672 22.3906C87.5026 22.8906 87.5703 23.4375 87.5703 24.0312V24.6797H81.2578V23.5H86.125V23.3906C86.1042 23.0156 86.026 22.651 85.8906 22.2969C85.7604 21.9427 85.5521 21.651 85.2656 21.4219C84.9792 21.1927 84.5885 21.0781 84.0938 21.0781C83.7656 21.0781 83.4635 21.1484 83.1875 21.2891C82.9115 21.4245 82.6745 21.6276 82.4766 21.8984C82.2786 22.1693 82.125 22.5 82.0156 22.8906C81.9062 23.2812 81.8516 23.7318 81.8516 24.2422V24.5703C81.8516 24.9714 81.9062 25.349 82.0156 25.7031C82.1302 26.0521 82.2943 26.3594 82.5078 26.625C82.7266 26.8906 82.9896 27.099 83.2969 27.25C83.6094 27.401 83.9635 27.4766 84.3594 27.4766C84.8698 27.4766 85.3021 27.3724 85.6562 27.1641C86.0104 26.9557 86.3203 26.6771 86.5859 26.3281L87.4609 27.0234C87.2786 27.2995 87.0469 27.5625 86.7656 27.8125C86.4844 28.0625 86.138 28.2656 85.7266 28.4219C85.3203 28.5781 84.8385 28.6562 84.2812 28.6562ZM90.7031 21.375V28.5H89.2578V20.0469H90.6641L90.7031 21.375ZM93.3438 20L93.3359 21.3438C93.2161 21.3177 93.1016 21.3021 92.9922 21.2969C92.888 21.2865 92.7682 21.2812 92.6328 21.2812C92.2995 21.2812 92.0052 21.3333 91.75 21.4375C91.4948 21.5417 91.2786 21.6875 91.1016 21.875C90.9245 22.0625 90.7839 22.2865 90.6797 22.5469C90.5807 22.8021 90.5156 23.0833 90.4844 23.3906L90.0781 23.625C90.0781 23.1146 90.1276 22.6354 90.2266 22.1875C90.3307 21.7396 90.4896 21.3438 90.7031 21C90.9167 20.651 91.1875 20.3802 91.5156 20.1875C91.849 19.9896 92.2448 19.8906 92.7031 19.8906C92.8073 19.8906 92.9271 19.9036 93.0625 19.9297C93.1979 19.9505 93.2917 19.974 93.3438 20ZM98.2656 24.3672V24.1875C98.2656 23.5781 98.3542 23.013 98.5312 22.4922C98.7083 21.9661 98.9635 21.5104 99.2969 21.125C99.6302 20.7344 100.034 20.4323 100.508 20.2188C100.982 20 101.513 19.8906 102.102 19.8906C102.695 19.8906 103.229 20 103.703 20.2188C104.182 20.4323 104.589 20.7344 104.922 21.125C105.26 21.5104 105.518 21.9661 105.695 22.4922C105.872 23.013 105.961 23.5781 105.961 24.1875V24.3672C105.961 24.9766 105.872 25.5417 105.695 26.0625C105.518 26.5833 105.26 27.0391 104.922 27.4297C104.589 27.8151 104.185 28.1172 103.711 28.3359C103.242 28.5495 102.711 28.6562 102.117 28.6562C101.523 28.6562 100.99 28.5495 100.516 28.3359C100.042 28.1172 99.6354 27.8151 99.2969 27.4297C98.9635 27.0391 98.7083 26.5833 98.5312 26.0625C98.3542 25.5417 98.2656 24.9766 98.2656 24.3672ZM99.7109 24.1875V24.3672C99.7109 24.7891 99.7604 25.1875 99.8594 25.5625C99.9583 25.9323 100.107 26.2604 100.305 26.5469C100.508 26.8333 100.76 27.0599 101.062 27.2266C101.365 27.388 101.716 27.4688 102.117 27.4688C102.513 27.4688 102.859 27.388 103.156 27.2266C103.458 27.0599 103.708 26.8333 103.906 26.5469C104.104 26.2604 104.253 25.9323 104.352 25.5625C104.456 25.1875 104.508 24.7891 104.508 24.3672V24.1875C104.508 23.7708 104.456 23.3776 104.352 23.0078C104.253 22.6328 104.102 22.3021 103.898 22.0156C103.701 21.724 103.451 21.4948 103.148 21.3281C102.852 21.1615 102.503 21.0781 102.102 21.0781C101.706 21.0781 101.357 21.1615 101.055 21.3281C100.758 21.4948 100.508 21.724 100.305 22.0156C100.107 22.3021 99.9583 22.6328 99.8594 23.0078C99.7604 23.3776 99.7109 23.7708 99.7109 24.1875ZM112.945 26.5469V20.0469H114.398V28.5H113.016L112.945 26.5469ZM113.219 24.7656L113.82 24.75C113.82 25.3125 113.76 25.8333 113.641 26.3125C113.526 26.7865 113.339 27.1979 113.078 27.5469C112.818 27.8958 112.477 28.1693 112.055 28.3672C111.633 28.5599 111.12 28.6562 110.516 28.6562C110.104 28.6562 109.727 28.5964 109.383 28.4766C109.044 28.3568 108.753 28.1719 108.508 27.9219C108.263 27.6719 108.073 27.3464 107.938 26.9453C107.807 26.5443 107.742 26.0625 107.742 25.5V20.0469H109.188V25.5156C109.188 25.8958 109.229 26.2109 109.312 26.4609C109.401 26.7057 109.518 26.901 109.664 27.0469C109.815 27.1875 109.982 27.2865 110.164 27.3438C110.352 27.401 110.544 27.4297 110.742 27.4297C111.357 27.4297 111.844 27.3125 112.203 27.0781C112.562 26.8385 112.82 26.5182 112.977 26.1172C113.138 25.7109 113.219 25.2604 113.219 24.7656ZM118.047 21.375V28.5H116.602V20.0469H118.008L118.047 21.375ZM120.688 20L120.68 21.3438C120.56 21.3177 120.445 21.3021 120.336 21.2969C120.232 21.2865 120.112 21.2812 119.977 21.2812C119.643 21.2812 119.349 21.3333 119.094 21.4375C118.839 21.5417 118.622 21.6875 118.445 21.875C118.268 22.0625 118.128 22.2865 118.023 22.5469C117.924 22.8021 117.859 23.0833 117.828 23.3906L117.422 23.625C117.422 23.1146 117.471 22.6354 117.57 22.1875C117.674 21.7396 117.833 21.3438 118.047 21C118.26 20.651 118.531 20.3802 118.859 20.1875C119.193 19.9896 119.589 19.8906 120.047 19.8906C120.151 19.8906 120.271 19.9036 120.406 19.9297C120.542 19.9505 120.635 19.974 120.688 20ZM130.977 27.0547V22.7031C130.977 22.3698 130.909 22.0807 130.773 21.8359C130.643 21.5859 130.445 21.3932 130.18 21.2578C129.914 21.1224 129.586 21.0547 129.195 21.0547C128.831 21.0547 128.51 21.1172 128.234 21.2422C127.964 21.3672 127.75 21.5312 127.594 21.7344C127.443 21.9375 127.367 22.1562 127.367 22.3906H125.922C125.922 22.0885 126 21.7891 126.156 21.4922C126.312 21.1953 126.536 20.9271 126.828 20.6875C127.125 20.4427 127.479 20.25 127.891 20.1094C128.307 19.9635 128.771 19.8906 129.281 19.8906C129.896 19.8906 130.438 19.9948 130.906 20.2031C131.38 20.4115 131.75 20.7266 132.016 21.1484C132.286 21.5651 132.422 22.0885 132.422 22.7188V26.6562C132.422 26.9375 132.445 27.237 132.492 27.5547C132.544 27.8724 132.62 28.1458 132.719 28.375V28.5H131.211C131.138 28.3333 131.081 28.112 131.039 27.8359C130.997 27.5547 130.977 27.2943 130.977 27.0547ZM131.227 23.375L131.242 24.3906H129.781C129.37 24.3906 129.003 24.4245 128.68 24.4922C128.357 24.5547 128.086 24.651 127.867 24.7812C127.648 24.9115 127.482 25.0755 127.367 25.2734C127.253 25.4661 127.195 25.6927 127.195 25.9531C127.195 26.2188 127.255 26.4609 127.375 26.6797C127.495 26.8984 127.674 27.0729 127.914 27.2031C128.159 27.3281 128.458 27.3906 128.812 27.3906C129.255 27.3906 129.646 27.2969 129.984 27.1094C130.323 26.9219 130.591 26.6927 130.789 26.4219C130.992 26.151 131.102 25.888 131.117 25.6328L131.734 26.3281C131.698 26.5469 131.599 26.7891 131.438 27.0547C131.276 27.3203 131.06 27.5755 130.789 27.8203C130.523 28.0599 130.206 28.2604 129.836 28.4219C129.471 28.5781 129.06 28.6562 128.602 28.6562C128.029 28.6562 127.526 28.5443 127.094 28.3203C126.667 28.0964 126.333 27.7969 126.094 27.4219C125.859 27.0417 125.742 26.6172 125.742 26.1484C125.742 25.6953 125.831 25.2969 126.008 24.9531C126.185 24.6042 126.44 24.3151 126.773 24.0859C127.107 23.8516 127.508 23.6745 127.977 23.5547C128.445 23.4349 128.969 23.375 129.547 23.375H131.227ZM136.141 21.6719V31.75H134.688V20.0469H136.016L136.141 21.6719ZM141.836 24.2031V24.3672C141.836 24.9818 141.763 25.5521 141.617 26.0781C141.471 26.599 141.258 27.0521 140.977 27.4375C140.701 27.8229 140.359 28.1224 139.953 28.3359C139.547 28.5495 139.081 28.6562 138.555 28.6562C138.018 28.6562 137.544 28.5677 137.133 28.3906C136.721 28.2135 136.372 27.9557 136.086 27.6172C135.799 27.2786 135.57 26.8724 135.398 26.3984C135.232 25.9245 135.117 25.3906 135.055 24.7969V23.9219C135.117 23.2969 135.234 22.737 135.406 22.2422C135.578 21.7474 135.805 21.3255 136.086 20.9766C136.372 20.6224 136.719 20.3542 137.125 20.1719C137.531 19.9844 138 19.8906 138.531 19.8906C139.062 19.8906 139.534 19.9948 139.945 20.2031C140.357 20.4062 140.703 20.6979 140.984 21.0781C141.266 21.4583 141.477 21.9141 141.617 22.4453C141.763 22.9714 141.836 23.5573 141.836 24.2031ZM140.383 24.3672V24.2031C140.383 23.7812 140.339 23.3854 140.25 23.0156C140.161 22.6406 140.023 22.3125 139.836 22.0312C139.654 21.7448 139.419 21.5208 139.133 21.3594C138.846 21.1927 138.505 21.1094 138.109 21.1094C137.745 21.1094 137.427 21.1719 137.156 21.2969C136.891 21.4219 136.664 21.5911 136.477 21.8047C136.289 22.013 136.135 22.2526 136.016 22.5234C135.901 22.7891 135.815 23.0651 135.758 23.3516V25.375C135.862 25.7396 136.008 26.0833 136.195 26.4062C136.383 26.724 136.633 26.9818 136.945 27.1797C137.258 27.3724 137.651 27.4688 138.125 27.4688C138.516 27.4688 138.852 27.388 139.133 27.2266C139.419 27.0599 139.654 26.8333 139.836 26.5469C140.023 26.2604 140.161 25.9323 140.25 25.5625C140.339 25.1875 140.383 24.7891 140.383 24.3672ZM145.125 21.6719V31.75H143.672V20.0469H145L145.125 21.6719ZM150.82 24.2031V24.3672C150.82 24.9818 150.747 25.5521 150.602 26.0781C150.456 26.599 150.242 27.0521 149.961 27.4375C149.685 27.8229 149.344 28.1224 148.938 28.3359C148.531 28.5495 148.065 28.6562 147.539 28.6562C147.003 28.6562 146.529 28.5677 146.117 28.3906C145.706 28.2135 145.357 27.9557 145.07 27.6172C144.784 27.2786 144.555 26.8724 144.383 26.3984C144.216 25.9245 144.102 25.3906 144.039 24.7969V23.9219C144.102 23.2969 144.219 22.737 144.391 22.2422C144.562 21.7474 144.789 21.3255 145.07 20.9766C145.357 20.6224 145.703 20.3542 146.109 20.1719C146.516 19.9844 146.984 19.8906 147.516 19.8906C148.047 19.8906 148.518 19.9948 148.93 20.2031C149.341 20.4062 149.688 20.6979 149.969 21.0781C150.25 21.4583 150.461 21.9141 150.602 22.4453C150.747 22.9714 150.82 23.5573 150.82 24.2031ZM149.367 24.3672V24.2031C149.367 23.7812 149.323 23.3854 149.234 23.0156C149.146 22.6406 149.008 22.3125 148.82 22.0312C148.638 21.7448 148.404 21.5208 148.117 21.3594C147.831 21.1927 147.49 21.1094 147.094 21.1094C146.729 21.1094 146.411 21.1719 146.141 21.2969C145.875 21.4219 145.648 21.5911 145.461 21.8047C145.273 22.013 145.12 22.2526 145 22.5234C144.885 22.7891 144.799 23.0651 144.742 23.3516V25.375C144.846 25.7396 144.992 26.0833 145.18 26.4062C145.367 26.724 145.617 26.9818 145.93 27.1797C146.242 27.3724 146.635 27.4688 147.109 27.4688C147.5 27.4688 147.836 27.388 148.117 27.2266C148.404 27.0599 148.638 26.8333 148.82 26.5469C149.008 26.2604 149.146 25.9323 149.234 25.5625C149.323 25.1875 149.367 24.7891 149.367 24.3672ZM154.109 21.375V28.5H152.664V20.0469H154.07L154.109 21.375ZM156.75 20L156.742 21.3438C156.622 21.3177 156.508 21.3021 156.398 21.2969C156.294 21.2865 156.174 21.2812 156.039 21.2812C155.706 21.2812 155.411 21.3333 155.156 21.4375C154.901 21.5417 154.685 21.6875 154.508 21.875C154.331 22.0625 154.19 22.2865 154.086 22.5469C153.987 22.8021 153.922 23.0833 153.891 23.3906L153.484 23.625C153.484 23.1146 153.534 22.6354 153.633 22.1875C153.737 21.7396 153.896 21.3438 154.109 21C154.323 20.651 154.594 20.3802 154.922 20.1875C155.255 19.9896 155.651 19.8906 156.109 19.8906C156.214 19.8906 156.333 19.9036 156.469 19.9297C156.604 19.9505 156.698 19.974 156.75 20ZM157.547 24.3672V24.1875C157.547 23.5781 157.635 23.013 157.812 22.4922C157.99 21.9661 158.245 21.5104 158.578 21.125C158.911 20.7344 159.315 20.4323 159.789 20.2188C160.263 20 160.794 19.8906 161.383 19.8906C161.977 19.8906 162.51 20 162.984 20.2188C163.464 20.4323 163.87 20.7344 164.203 21.125C164.542 21.5104 164.799 21.9661 164.977 22.4922C165.154 23.013 165.242 23.5781 165.242 24.1875V24.3672C165.242 24.9766 165.154 25.5417 164.977 26.0625C164.799 26.5833 164.542 27.0391 164.203 27.4297C163.87 27.8151 163.466 28.1172 162.992 28.3359C162.523 28.5495 161.992 28.6562 161.398 28.6562C160.805 28.6562 160.271 28.5495 159.797 28.3359C159.323 28.1172 158.917 27.8151 158.578 27.4297C158.245 27.0391 157.99 26.5833 157.812 26.0625C157.635 25.5417 157.547 24.9766 157.547 24.3672ZM158.992 24.1875V24.3672C158.992 24.7891 159.042 25.1875 159.141 25.5625C159.24 25.9323 159.388 26.2604 159.586 26.5469C159.789 26.8333 160.042 27.0599 160.344 27.2266C160.646 27.388 160.997 27.4688 161.398 27.4688C161.794 27.4688 162.141 27.388 162.438 27.2266C162.74 27.0599 162.99 26.8333 163.188 26.5469C163.385 26.2604 163.534 25.9323 163.633 25.5625C163.737 25.1875 163.789 24.7891 163.789 24.3672V24.1875C163.789 23.7708 163.737 23.3776 163.633 23.0078C163.534 22.6328 163.383 22.3021 163.18 22.0156C162.982 21.724 162.732 21.4948 162.43 21.3281C162.133 21.1615 161.784 21.0781 161.383 21.0781C160.987 21.0781 160.638 21.1615 160.336 21.3281C160.039 21.4948 159.789 21.724 159.586 22.0156C159.388 22.3021 159.24 22.6328 159.141 23.0078C159.042 23.3776 158.992 23.7708 158.992 24.1875ZM172.039 27.0547V22.7031C172.039 22.3698 171.971 22.0807 171.836 21.8359C171.706 21.5859 171.508 21.3932 171.242 21.2578C170.977 21.1224 170.648 21.0547 170.258 21.0547C169.893 21.0547 169.573 21.1172 169.297 21.2422C169.026 21.3672 168.812 21.5312 168.656 21.7344C168.505 21.9375 168.43 22.1562 168.43 22.3906H166.984C166.984 22.0885 167.062 21.7891 167.219 21.4922C167.375 21.1953 167.599 20.9271 167.891 20.6875C168.188 20.4427 168.542 20.25 168.953 20.1094C169.37 19.9635 169.833 19.8906 170.344 19.8906C170.958 19.8906 171.5 19.9948 171.969 20.2031C172.443 20.4115 172.812 20.7266 173.078 21.1484C173.349 21.5651 173.484 22.0885 173.484 22.7188V26.6562C173.484 26.9375 173.508 27.237 173.555 27.5547C173.607 27.8724 173.682 28.1458 173.781 28.375V28.5H172.273C172.201 28.3333 172.143 28.112 172.102 27.8359C172.06 27.5547 172.039 27.2943 172.039 27.0547ZM172.289 23.375L172.305 24.3906H170.844C170.432 24.3906 170.065 24.4245 169.742 24.4922C169.419 24.5547 169.148 24.651 168.93 24.7812C168.711 24.9115 168.544 25.0755 168.43 25.2734C168.315 25.4661 168.258 25.6927 168.258 25.9531C168.258 26.2188 168.318 26.4609 168.438 26.6797C168.557 26.8984 168.737 27.0729 168.977 27.2031C169.221 27.3281 169.521 27.3906 169.875 27.3906C170.318 27.3906 170.708 27.2969 171.047 27.1094C171.385 26.9219 171.654 26.6927 171.852 26.4219C172.055 26.151 172.164 25.888 172.18 25.6328L172.797 26.3281C172.76 26.5469 172.661 26.7891 172.5 27.0547C172.339 27.3203 172.122 27.5755 171.852 27.8203C171.586 28.0599 171.268 28.2604 170.898 28.4219C170.534 28.5781 170.122 28.6562 169.664 28.6562C169.091 28.6562 168.589 28.5443 168.156 28.3203C167.729 28.0964 167.396 27.7969 167.156 27.4219C166.922 27.0417 166.805 26.6172 166.805 26.1484C166.805 25.6953 166.893 25.2969 167.07 24.9531C167.247 24.6042 167.503 24.3151 167.836 24.0859C168.169 23.8516 168.57 23.6745 169.039 23.5547C169.508 23.4349 170.031 23.375 170.609 23.375H172.289ZM179.141 27.4688C179.484 27.4688 179.802 27.3984 180.094 27.2578C180.385 27.1172 180.625 26.9245 180.812 26.6797C181 26.4297 181.107 26.1458 181.133 25.8281H182.508C182.482 26.3281 182.312 26.7943 182 27.2266C181.693 27.6536 181.289 28 180.789 28.2656C180.289 28.526 179.74 28.6562 179.141 28.6562C178.505 28.6562 177.951 28.5443 177.477 28.3203C177.008 28.0964 176.617 27.7891 176.305 27.3984C175.997 27.0078 175.766 26.5599 175.609 26.0547C175.458 25.5443 175.383 25.0052 175.383 24.4375V24.1094C175.383 23.5417 175.458 23.0052 175.609 22.5C175.766 21.9896 175.997 21.5391 176.305 21.1484C176.617 20.7578 177.008 20.4505 177.477 20.2266C177.951 20.0026 178.505 19.8906 179.141 19.8906C179.802 19.8906 180.38 20.026 180.875 20.2969C181.37 20.5625 181.758 20.9271 182.039 21.3906C182.326 21.849 182.482 22.3698 182.508 22.9531H181.133C181.107 22.6042 181.008 22.2891 180.836 22.0078C180.669 21.7266 180.44 21.5026 180.148 21.3359C179.862 21.1641 179.526 21.0781 179.141 21.0781C178.698 21.0781 178.326 21.1667 178.023 21.3438C177.727 21.5156 177.49 21.75 177.312 22.0469C177.141 22.3385 177.016 22.6641 176.938 23.0234C176.865 23.3776 176.828 23.7396 176.828 24.1094V24.4375C176.828 24.8073 176.865 25.1719 176.938 25.5312C177.01 25.8906 177.133 26.2161 177.305 26.5078C177.482 26.7995 177.719 27.0339 178.016 27.2109C178.318 27.3828 178.693 27.4688 179.141 27.4688ZM185.578 16.5V28.5H184.133V16.5H185.578ZM185.234 23.9531L184.633 23.9297C184.638 23.3516 184.724 22.8177 184.891 22.3281C185.057 21.8333 185.292 21.4036 185.594 21.0391C185.896 20.6745 186.255 20.3932 186.672 20.1953C187.094 19.9922 187.56 19.8906 188.07 19.8906C188.487 19.8906 188.862 19.9479 189.195 20.0625C189.529 20.1719 189.812 20.349 190.047 20.5938C190.286 20.8385 190.469 21.1562 190.594 21.5469C190.719 21.9323 190.781 22.4036 190.781 22.9609V28.5H189.328V22.9453C189.328 22.5026 189.263 22.1484 189.133 21.8828C189.003 21.612 188.812 21.4167 188.562 21.2969C188.312 21.1719 188.005 21.1094 187.641 21.1094C187.281 21.1094 186.953 21.1849 186.656 21.3359C186.365 21.487 186.112 21.6953 185.898 21.9609C185.69 22.2266 185.526 22.5312 185.406 22.875C185.292 23.2135 185.234 23.5729 185.234 23.9531Z" fill="white"/>
<path d="M208.5 20.6428V27.1428C208.5 27.2754 208.448 27.4026 208.354 27.4964C208.26 27.5901 208.133 27.6428 208 27.6428C207.868 27.6428 207.74 27.5901 207.647 27.4964C207.553 27.4026 207.5 27.2754 207.5 27.1428V21.8497L200.354 28.9966C200.26 29.0904 200.133 29.1431 200 29.1431C199.868 29.1431 199.74 29.0904 199.647 28.9966C199.553 28.9028 199.5 28.7755 199.5 28.6428C199.5 28.5101 199.553 28.3829 199.647 28.2891L206.793 21.1428H201.5C201.368 21.1428 201.24 21.0901 201.147 20.9964C201.053 20.9026 201 20.7754 201 20.6428C201 20.5102 201.053 20.383 201.147 20.2893C201.24 20.1955 201.368 20.1428 201.5 20.1428H208C208.133 20.1428 208.26 20.1955 208.354 20.2893C208.448 20.383 208.5 20.5102 208.5 20.6428Z" fill="white"/>
<rect x="3" width="4" height="46" fill="#EEEEEE"/>
<rect x="12" width="4" height="46" fill="#EEEEEE"/>
</svg>
