<svg width="218" height="46" viewBox="0 0 218 46" fill="none" xmlns="http://www.w3.org/2000/svg">
<rect width="3" height="46" fill="#2E31CA"/>
<rect x="7" width="5" height="46" fill="#2E31CA"/>
<rect width="202" height="45" transform="translate(16 0.5)" fill="#2E31CA"/>
<path d="M34.8281 17.125V28.5H33.3203V17.125H34.8281ZM41.6953 17.125L36.9688 22.4297L34.3125 25.1875L34.0625 23.5781L36.0625 21.375L39.8828 17.125H41.6953ZM40.2422 28.5L36.0312 22.9531L36.9297 21.7578L42.0391 28.5H40.2422ZM44.4062 21.8516V28.5H42.9609V20.0469H44.3281L44.4062 21.8516ZM44.0625 23.9531L43.4609 23.9297C43.4661 23.3516 43.5521 22.8177 43.7188 22.3281C43.8854 21.8333 44.1198 21.4036 44.4219 21.0391C44.724 20.6745 45.0833 20.3932 45.5 20.1953C45.9219 19.9922 46.388 19.8906 46.8984 19.8906C47.3151 19.8906 47.6901 19.9479 48.0234 20.0625C48.3568 20.1719 48.6406 20.349 48.875 20.5938C49.1146 20.8385 49.2969 21.1562 49.4219 21.5469C49.5469 21.9323 49.6094 22.4036 49.6094 22.9609V28.5H48.1562V22.9453C48.1562 22.5026 48.0911 22.1484 47.9609 21.8828C47.8307 21.612 47.6406 21.4167 47.3906 21.2969C47.1406 21.1719 46.8333 21.1094 46.4688 21.1094C46.1094 21.1094 45.7812 21.1849 45.4844 21.3359C45.1927 21.487 44.9401 21.6953 44.7266 21.9609C44.5182 22.2266 44.3542 22.5312 44.2344 22.875C44.1198 23.2135 44.0625 23.5729 44.0625 23.9531ZM51.4219 24.3672V24.1875C51.4219 23.5781 51.5104 23.013 51.6875 22.4922C51.8646 21.9661 52.1198 21.5104 52.4531 21.125C52.7865 20.7344 53.1901 20.4323 53.6641 20.2188C54.138 20 54.6693 19.8906 55.2578 19.8906C55.8516 19.8906 56.3854 20 56.8594 20.2188C57.3385 20.4323 57.7448 20.7344 58.0781 21.125C58.4167 21.5104 58.6745 21.9661 58.8516 22.4922C59.0286 23.013 59.1172 23.5781 59.1172 24.1875V24.3672C59.1172 24.9766 59.0286 25.5417 58.8516 26.0625C58.6745 26.5833 58.4167 27.0391 58.0781 27.4297C57.7448 27.8151 57.3411 28.1172 56.8672 28.3359C56.3984 28.5495 55.8672 28.6562 55.2734 28.6562C54.6797 28.6562 54.1458 28.5495 53.6719 28.3359C53.1979 28.1172 52.7917 27.8151 52.4531 27.4297C52.1198 27.0391 51.8646 26.5833 51.6875 26.0625C51.5104 25.5417 51.4219 24.9766 51.4219 24.3672ZM52.8672 24.1875V24.3672C52.8672 24.7891 52.9167 25.1875 53.0156 25.5625C53.1146 25.9323 53.263 26.2604 53.4609 26.5469C53.6641 26.8333 53.9167 27.0599 54.2188 27.2266C54.5208 27.388 54.8724 27.4688 55.2734 27.4688C55.6693 27.4688 56.0156 27.388 56.3125 27.2266C56.6146 27.0599 56.8646 26.8333 57.0625 26.5469C57.2604 26.2604 57.4089 25.9323 57.5078 25.5625C57.612 25.1875 57.6641 24.7891 57.6641 24.3672V24.1875C57.6641 23.7708 57.612 23.3776 57.5078 23.0078C57.4089 22.6328 57.2578 22.3021 57.0547 22.0156C56.8568 21.724 56.6068 21.4948 56.3047 21.3281C56.0078 21.1615 55.6589 21.0781 55.2578 21.0781C54.862 21.0781 54.513 21.1615 54.2109 21.3281C53.9141 21.4948 53.6641 21.724 53.4609 22.0156C53.263 22.3021 53.1146 22.6328 53.0156 23.0078C52.9167 23.3776 52.8672 23.7708 52.8672 24.1875ZM63.0703 27L65.2422 20.0469H66.1953L66.0078 21.4297L63.7969 28.5H62.8672L63.0703 27ZM61.6094 20.0469L63.4609 27.0781L63.5938 28.5H62.6172L60.1641 20.0469H61.6094ZM68.2734 27.0234L70.0391 20.0469H71.4766L69.0234 28.5H68.0547L68.2734 27.0234ZM66.4062 20.0469L68.5312 26.8828L68.7734 28.5H67.8516L65.5781 21.4141L65.3906 20.0469H66.4062ZM77.625 17.125H79.0859L82.8125 26.3984L86.5312 17.125H88L83.375 28.5H82.2344L77.625 17.125ZM77.1484 17.125H78.4375L78.6484 24.0625V28.5H77.1484V17.125ZM87.1797 17.125H88.4688V28.5H86.9688V24.0625L87.1797 17.125ZM90.5156 24.3672V24.1875C90.5156 23.5781 90.6042 23.013 90.7812 22.4922C90.9583 21.9661 91.2135 21.5104 91.5469 21.125C91.8802 20.7344 92.2839 20.4323 92.7578 20.2188C93.2318 20 93.763 19.8906 94.3516 19.8906C94.9453 19.8906 95.4792 20 95.9531 20.2188C96.4323 20.4323 96.8385 20.7344 97.1719 21.125C97.5104 21.5104 97.7682 21.9661 97.9453 22.4922C98.1224 23.013 98.2109 23.5781 98.2109 24.1875V24.3672C98.2109 24.9766 98.1224 25.5417 97.9453 26.0625C97.7682 26.5833 97.5104 27.0391 97.1719 27.4297C96.8385 27.8151 96.4349 28.1172 95.9609 28.3359C95.4922 28.5495 94.9609 28.6562 94.3672 28.6562C93.7734 28.6562 93.2396 28.5495 92.7656 28.3359C92.2917 28.1172 91.8854 27.8151 91.5469 27.4297C91.2135 27.0391 90.9583 26.5833 90.7812 26.0625C90.6042 25.5417 90.5156 24.9766 90.5156 24.3672ZM91.9609 24.1875V24.3672C91.9609 24.7891 92.0104 25.1875 92.1094 25.5625C92.2083 25.9323 92.3568 26.2604 92.5547 26.5469C92.7578 26.8333 93.0104 27.0599 93.3125 27.2266C93.6146 27.388 93.9661 27.4688 94.3672 27.4688C94.763 27.4688 95.1094 27.388 95.4062 27.2266C95.7083 27.0599 95.9583 26.8333 96.1562 26.5469C96.3542 26.2604 96.5026 25.9323 96.6016 25.5625C96.7057 25.1875 96.7578 24.7891 96.7578 24.3672V24.1875C96.7578 23.7708 96.7057 23.3776 96.6016 23.0078C96.5026 22.6328 96.3516 22.3021 96.1484 22.0156C95.9505 21.724 95.7005 21.4948 95.3984 21.3281C95.1016 21.1615 94.7526 21.0781 94.3516 21.0781C93.9557 21.0781 93.6068 21.1615 93.3047 21.3281C93.0078 21.4948 92.7578 21.724 92.5547 22.0156C92.3568 22.3021 92.2083 22.6328 92.1094 23.0078C92.0104 23.3776 91.9609 23.7708 91.9609 24.1875ZM101.469 21.375V28.5H100.023V20.0469H101.43L101.469 21.375ZM104.109 20L104.102 21.3438C103.982 21.3177 103.867 21.3021 103.758 21.2969C103.654 21.2865 103.534 21.2812 103.398 21.2812C103.065 21.2812 102.771 21.3333 102.516 21.4375C102.26 21.5417 102.044 21.6875 101.867 21.875C101.69 22.0625 101.549 22.2865 101.445 22.5469C101.346 22.8021 101.281 23.0833 101.25 23.3906L100.844 23.625C100.844 23.1146 100.893 22.6354 100.992 22.1875C101.096 21.7396 101.255 21.3438 101.469 21C101.682 20.651 101.953 20.3802 102.281 20.1875C102.615 19.9896 103.01 19.8906 103.469 19.8906C103.573 19.8906 103.693 19.9036 103.828 19.9297C103.964 19.9505 104.057 19.974 104.109 20ZM108.797 28.6562C108.208 28.6562 107.674 28.5573 107.195 28.3594C106.721 28.1562 106.312 27.8724 105.969 27.5078C105.63 27.1432 105.37 26.7109 105.188 26.2109C105.005 25.7109 104.914 25.1641 104.914 24.5703V24.2422C104.914 23.5547 105.016 22.9427 105.219 22.4062C105.422 21.8646 105.698 21.4062 106.047 21.0312C106.396 20.6562 106.792 20.3724 107.234 20.1797C107.677 19.987 108.135 19.8906 108.609 19.8906C109.214 19.8906 109.734 19.9948 110.172 20.2031C110.615 20.4115 110.977 20.7031 111.258 21.0781C111.539 21.4479 111.747 21.8854 111.883 22.3906C112.018 22.8906 112.086 23.4375 112.086 24.0312V24.6797H105.773V23.5H110.641V23.3906C110.62 23.0156 110.542 22.651 110.406 22.2969C110.276 21.9427 110.068 21.651 109.781 21.4219C109.495 21.1927 109.104 21.0781 108.609 21.0781C108.281 21.0781 107.979 21.1484 107.703 21.2891C107.427 21.4245 107.19 21.6276 106.992 21.8984C106.794 22.1693 106.641 22.5 106.531 22.8906C106.422 23.2812 106.367 23.7318 106.367 24.2422V24.5703C106.367 24.9714 106.422 25.349 106.531 25.7031C106.646 26.0521 106.81 26.3594 107.023 26.625C107.242 26.8906 107.505 27.099 107.812 27.25C108.125 27.401 108.479 27.4766 108.875 27.4766C109.385 27.4766 109.818 27.3724 110.172 27.1641C110.526 26.9557 110.836 26.6771 111.102 26.3281L111.977 27.0234C111.794 27.2995 111.562 27.5625 111.281 27.8125C111 28.0625 110.654 28.2656 110.242 28.4219C109.836 28.5781 109.354 28.6562 108.797 28.6562ZM122.172 18.1328L118.406 28.5H116.867L121.203 17.125H122.195L122.172 18.1328ZM125.328 28.5L121.555 18.1328L121.531 17.125H122.523L126.875 28.5H125.328ZM125.133 24.2891V25.5234H118.742V24.2891H125.133ZM128.172 16.5H129.625V26.8594L129.5 28.5H128.172V16.5ZM135.336 24.2031V24.3672C135.336 24.9818 135.263 25.5521 135.117 26.0781C134.971 26.599 134.758 27.0521 134.477 27.4375C134.195 27.8229 133.852 28.1224 133.445 28.3359C133.039 28.5495 132.573 28.6562 132.047 28.6562C131.51 28.6562 131.039 28.5651 130.633 28.3828C130.232 28.1953 129.893 27.9271 129.617 27.5781C129.341 27.2292 129.12 26.8073 128.953 26.3125C128.792 25.8177 128.68 25.2604 128.617 24.6406V23.9219C128.68 23.2969 128.792 22.737 128.953 22.2422C129.12 21.7474 129.341 21.3255 129.617 20.9766C129.893 20.6224 130.232 20.3542 130.633 20.1719C131.034 19.9844 131.5 19.8906 132.031 19.8906C132.562 19.8906 133.034 19.9948 133.445 20.2031C133.857 20.4062 134.201 20.6979 134.477 21.0781C134.758 21.4583 134.971 21.9141 135.117 22.4453C135.263 22.9714 135.336 23.5573 135.336 24.2031ZM133.883 24.3672V24.2031C133.883 23.7812 133.844 23.3854 133.766 23.0156C133.688 22.6406 133.562 22.3125 133.391 22.0312C133.219 21.7448 132.992 21.5208 132.711 21.3594C132.43 21.1927 132.083 21.1094 131.672 21.1094C131.307 21.1094 130.99 21.1719 130.719 21.2969C130.453 21.4219 130.227 21.5911 130.039 21.8047C129.852 22.013 129.698 22.2526 129.578 22.5234C129.464 22.7891 129.378 23.0651 129.32 23.3516V25.2344C129.404 25.599 129.539 25.9505 129.727 26.2891C129.919 26.6224 130.174 26.8958 130.492 27.1094C130.815 27.3229 131.214 27.4297 131.688 27.4297C132.078 27.4297 132.411 27.3516 132.688 27.1953C132.969 27.0339 133.195 26.8125 133.367 26.5312C133.544 26.25 133.674 25.9245 133.758 25.5547C133.841 25.1849 133.883 24.7891 133.883 24.3672ZM136.781 24.3672V24.1875C136.781 23.5781 136.87 23.013 137.047 22.4922C137.224 21.9661 137.479 21.5104 137.812 21.125C138.146 20.7344 138.549 20.4323 139.023 20.2188C139.497 20 140.029 19.8906 140.617 19.8906C141.211 19.8906 141.745 20 142.219 20.2188C142.698 20.4323 143.104 20.7344 143.438 21.125C143.776 21.5104 144.034 21.9661 144.211 22.4922C144.388 23.013 144.477 23.5781 144.477 24.1875V24.3672C144.477 24.9766 144.388 25.5417 144.211 26.0625C144.034 26.5833 143.776 27.0391 143.438 27.4297C143.104 27.8151 142.701 28.1172 142.227 28.3359C141.758 28.5495 141.227 28.6562 140.633 28.6562C140.039 28.6562 139.505 28.5495 139.031 28.3359C138.557 28.1172 138.151 27.8151 137.812 27.4297C137.479 27.0391 137.224 26.5833 137.047 26.0625C136.87 25.5417 136.781 24.9766 136.781 24.3672ZM138.227 24.1875V24.3672C138.227 24.7891 138.276 25.1875 138.375 25.5625C138.474 25.9323 138.622 26.2604 138.82 26.5469C139.023 26.8333 139.276 27.0599 139.578 27.2266C139.88 27.388 140.232 27.4688 140.633 27.4688C141.029 27.4688 141.375 27.388 141.672 27.2266C141.974 27.0599 142.224 26.8333 142.422 26.5469C142.62 26.2604 142.768 25.9323 142.867 25.5625C142.971 25.1875 143.023 24.7891 143.023 24.3672V24.1875C143.023 23.7708 142.971 23.3776 142.867 23.0078C142.768 22.6328 142.617 22.3021 142.414 22.0156C142.216 21.724 141.966 21.4948 141.664 21.3281C141.367 21.1615 141.018 21.0781 140.617 21.0781C140.221 21.0781 139.872 21.1615 139.57 21.3281C139.273 21.4948 139.023 21.724 138.82 22.0156C138.622 22.3021 138.474 22.6328 138.375 23.0078C138.276 23.3776 138.227 23.7708 138.227 24.1875ZM151.461 26.5469V20.0469H152.914V28.5H151.531L151.461 26.5469ZM151.734 24.7656L152.336 24.75C152.336 25.3125 152.276 25.8333 152.156 26.3125C152.042 26.7865 151.854 27.1979 151.594 27.5469C151.333 27.8958 150.992 28.1693 150.57 28.3672C150.148 28.5599 149.635 28.6562 149.031 28.6562C148.62 28.6562 148.242 28.5964 147.898 28.4766C147.56 28.3568 147.268 28.1719 147.023 27.9219C146.779 27.6719 146.589 27.3464 146.453 26.9453C146.323 26.5443 146.258 26.0625 146.258 25.5V20.0469H147.703V25.5156C147.703 25.8958 147.745 26.2109 147.828 26.4609C147.917 26.7057 148.034 26.901 148.18 27.0469C148.331 27.1875 148.497 27.2865 148.68 27.3438C148.867 27.401 149.06 27.4297 149.258 27.4297C149.872 27.4297 150.359 27.3125 150.719 27.0781C151.078 26.8385 151.336 26.5182 151.492 26.1172C151.654 25.7109 151.734 25.2604 151.734 24.7656ZM158.656 20.0469V21.1562H154.086V20.0469H158.656ZM155.633 17.9922H157.078V26.4062C157.078 26.6927 157.122 26.9089 157.211 27.0547C157.299 27.2005 157.414 27.2969 157.555 27.3438C157.695 27.3906 157.846 27.4141 158.008 27.4141C158.128 27.4141 158.253 27.4036 158.383 27.3828C158.518 27.3568 158.62 27.3359 158.688 27.3203L158.695 28.5C158.581 28.5365 158.43 28.5703 158.242 28.6016C158.06 28.638 157.839 28.6562 157.578 28.6562C157.224 28.6562 156.898 28.5859 156.602 28.4453C156.305 28.3047 156.068 28.0703 155.891 27.7422C155.719 27.4089 155.633 26.9609 155.633 26.3984V17.9922ZM171.047 17.125H172.547V24.8203C172.547 25.6745 172.357 26.3854 171.977 26.9531C171.596 27.5208 171.091 27.9479 170.461 28.2344C169.836 28.5156 169.156 28.6562 168.422 28.6562C167.651 28.6562 166.953 28.5156 166.328 28.2344C165.708 27.9479 165.216 27.5208 164.852 26.9531C164.492 26.3854 164.312 25.6745 164.312 24.8203V17.125H165.805V24.8203C165.805 25.4141 165.914 25.9036 166.133 26.2891C166.352 26.6745 166.656 26.9609 167.047 27.1484C167.443 27.3359 167.901 27.4297 168.422 27.4297C168.948 27.4297 169.406 27.3359 169.797 27.1484C170.193 26.9609 170.5 26.6745 170.719 26.2891C170.938 25.9036 171.047 25.4141 171.047 24.8203V17.125ZM179.617 26.2578C179.617 26.0495 179.57 25.8568 179.477 25.6797C179.388 25.4974 179.203 25.3333 178.922 25.1875C178.646 25.0365 178.229 24.9062 177.672 24.7969C177.203 24.6979 176.779 24.5807 176.398 24.4453C176.023 24.3099 175.703 24.1458 175.438 23.9531C175.177 23.7604 174.977 23.5339 174.836 23.2734C174.695 23.013 174.625 22.7083 174.625 22.3594C174.625 22.026 174.698 21.7109 174.844 21.4141C174.995 21.1172 175.206 20.8542 175.477 20.625C175.753 20.3958 176.083 20.2161 176.469 20.0859C176.854 19.9557 177.284 19.8906 177.758 19.8906C178.435 19.8906 179.013 20.0104 179.492 20.25C179.971 20.4896 180.339 20.8099 180.594 21.2109C180.849 21.6068 180.977 22.0469 180.977 22.5312H179.531C179.531 22.2969 179.461 22.0703 179.32 21.8516C179.185 21.6276 178.984 21.4427 178.719 21.2969C178.458 21.151 178.138 21.0781 177.758 21.0781C177.357 21.0781 177.031 21.1406 176.781 21.2656C176.536 21.3854 176.357 21.5391 176.242 21.7266C176.133 21.9141 176.078 22.112 176.078 22.3203C176.078 22.4766 176.104 22.6172 176.156 22.7422C176.214 22.862 176.312 22.974 176.453 23.0781C176.594 23.1771 176.792 23.2708 177.047 23.3594C177.302 23.4479 177.628 23.5365 178.023 23.625C178.716 23.7812 179.286 23.9688 179.734 24.1875C180.182 24.4062 180.516 24.6745 180.734 24.9922C180.953 25.3099 181.062 25.6953 181.062 26.1484C181.062 26.5182 180.984 26.8568 180.828 27.1641C180.677 27.4714 180.456 27.737 180.164 27.9609C179.878 28.1797 179.534 28.3516 179.133 28.4766C178.737 28.5964 178.292 28.6562 177.797 28.6562C177.052 28.6562 176.422 28.5234 175.906 28.2578C175.391 27.9922 175 27.6484 174.734 27.2266C174.469 26.8047 174.336 26.3594 174.336 25.8906H175.789C175.81 26.2865 175.924 26.6016 176.133 26.8359C176.341 27.0651 176.596 27.2292 176.898 27.3281C177.201 27.4219 177.5 27.4688 177.797 27.4688C178.193 27.4688 178.523 27.4167 178.789 27.3125C179.06 27.2083 179.266 27.0651 179.406 26.8828C179.547 26.7005 179.617 26.4922 179.617 26.2578Z" fill="white"/>
<path d="M198.5 20.6428V27.1428C198.5 27.2754 198.448 27.4026 198.354 27.4964C198.26 27.5901 198.133 27.6428 198 27.6428C197.868 27.6428 197.74 27.5901 197.647 27.4964C197.553 27.4026 197.5 27.2754 197.5 27.1428V21.8497L190.354 28.9966C190.26 29.0904 190.133 29.1431 190 29.1431C189.868 29.1431 189.74 29.0904 189.647 28.9966C189.553 28.9028 189.5 28.7755 189.5 28.6428C189.5 28.5101 189.553 28.3829 189.647 28.2891L196.793 21.1428H191.5C191.368 21.1428 191.24 21.0901 191.147 20.9964C191.053 20.9026 191 20.7754 191 20.6428C191 20.5102 191.053 20.383 191.147 20.2893C191.24 20.1955 191.368 20.1428 191.5 20.1428H198C198.133 20.1428 198.26 20.1955 198.354 20.2893C198.448 20.383 198.5 20.5102 198.5 20.6428Z" fill="white"/>
<rect x="3" width="4" height="46" fill="#EEEEEE"/>
<rect x="12" width="4" height="46" fill="#EEEEEE"/>
</svg>
