<svg width="246" height="45" viewBox="0 0 246 45" fill="none" xmlns="http://www.w3.org/2000/svg">
<rect width="3" height="45" fill="#2E31CA"/>
<rect x="7" width="5" height="45" fill="#2E31CA"/>
<rect width="230" height="45" transform="translate(16)" fill="#2E31CA"/>
<path d="M40.2188 26.7734V28H34.5312V26.7734H40.2188ZM34.8281 16.625V28H33.3203V16.625H34.8281ZM45.2344 28.1562C44.6458 28.1562 44.112 28.0573 43.6328 27.8594C43.1589 27.6562 42.75 27.3724 42.4062 27.0078C42.0677 26.6432 41.8073 26.2109 41.625 25.7109C41.4427 25.2109 41.3516 24.6641 41.3516 24.0703V23.7422C41.3516 23.0547 41.4531 22.4427 41.6562 21.9062C41.8594 21.3646 42.1354 20.9062 42.4844 20.5312C42.8333 20.1562 43.2292 19.8724 43.6719 19.6797C44.1146 19.487 44.5729 19.3906 45.0469 19.3906C45.651 19.3906 46.1719 19.4948 46.6094 19.7031C47.0521 19.9115 47.4141 20.2031 47.6953 20.5781C47.9766 20.9479 48.1849 21.3854 48.3203 21.8906C48.4557 22.3906 48.5234 22.9375 48.5234 23.5312V24.1797H42.2109V23H47.0781V22.8906C47.0573 22.5156 46.9792 22.151 46.8438 21.7969C46.7135 21.4427 46.5052 21.151 46.2188 20.9219C45.9323 20.6927 45.5417 20.5781 45.0469 20.5781C44.7188 20.5781 44.4167 20.6484 44.1406 20.7891C43.8646 20.9245 43.6276 21.1276 43.4297 21.3984C43.2318 21.6693 43.0781 22 42.9688 22.3906C42.8594 22.7812 42.8047 23.2318 42.8047 23.7422V24.0703C42.8047 24.4714 42.8594 24.849 42.9688 25.2031C43.0833 25.5521 43.2474 25.8594 43.4609 26.125C43.6797 26.3906 43.9427 26.599 44.25 26.75C44.5625 26.901 44.9167 26.9766 45.3125 26.9766C45.8229 26.9766 46.2552 26.8724 46.6094 26.6641C46.9635 26.4557 47.2734 26.1771 47.5391 25.8281L48.4141 26.5234C48.2318 26.7995 48 27.0625 47.7188 27.3125C47.4375 27.5625 47.0911 27.7656 46.6797 27.9219C46.2734 28.0781 45.7917 28.1562 45.2344 28.1562ZM53.75 19.5469V20.6562H49.1797V19.5469H53.75ZM50.7266 17.4922H52.1719V25.9062C52.1719 26.1927 52.2161 26.4089 52.3047 26.5547C52.3932 26.7005 52.5078 26.7969 52.6484 26.8438C52.7891 26.8906 52.9401 26.9141 53.1016 26.9141C53.2214 26.9141 53.3464 26.9036 53.4766 26.8828C53.612 26.8568 53.7135 26.8359 53.7812 26.8203L53.7891 28C53.6745 28.0365 53.5234 28.0703 53.3359 28.1016C53.1536 28.138 52.9323 28.1562 52.6719 28.1562C52.3177 28.1562 51.9922 28.0859 51.6953 27.9453C51.3984 27.8047 51.1615 27.5703 50.9844 27.2422C50.8125 26.9089 50.7266 26.4609 50.7266 25.8984V17.4922ZM56.9062 16V17C56.9062 17.3125 56.8516 17.6432 56.7422 17.9922C56.638 18.3359 56.4844 18.6693 56.2812 18.9922C56.0781 19.3099 55.8333 19.5885 55.5469 19.8281L54.7188 19.2578C54.9635 18.9141 55.1484 18.5625 55.2734 18.2031C55.4036 17.8385 55.4688 17.4453 55.4688 17.0234V16H56.9062ZM62.6953 25.7578C62.6953 25.5495 62.6484 25.3568 62.5547 25.1797C62.4661 24.9974 62.2812 24.8333 62 24.6875C61.724 24.5365 61.3073 24.4062 60.75 24.2969C60.2812 24.1979 59.8568 24.0807 59.4766 23.9453C59.1016 23.8099 58.7812 23.6458 58.5156 23.4531C58.2552 23.2604 58.0547 23.0339 57.9141 22.7734C57.7734 22.513 57.7031 22.2083 57.7031 21.8594C57.7031 21.526 57.776 21.2109 57.9219 20.9141C58.0729 20.6172 58.2839 20.3542 58.5547 20.125C58.8307 19.8958 59.1615 19.7161 59.5469 19.5859C59.9323 19.4557 60.362 19.3906 60.8359 19.3906C61.513 19.3906 62.0911 19.5104 62.5703 19.75C63.0495 19.9896 63.4167 20.3099 63.6719 20.7109C63.9271 21.1068 64.0547 21.5469 64.0547 22.0312H62.6094C62.6094 21.7969 62.5391 21.5703 62.3984 21.3516C62.263 21.1276 62.0625 20.9427 61.7969 20.7969C61.5365 20.651 61.2161 20.5781 60.8359 20.5781C60.4349 20.5781 60.1094 20.6406 59.8594 20.7656C59.6146 20.8854 59.4349 21.0391 59.3203 21.2266C59.2109 21.4141 59.1562 21.612 59.1562 21.8203C59.1562 21.9766 59.1823 22.1172 59.2344 22.2422C59.2917 22.362 59.3906 22.474 59.5312 22.5781C59.6719 22.6771 59.8698 22.7708 60.125 22.8594C60.3802 22.9479 60.7057 23.0365 61.1016 23.125C61.7943 23.2812 62.3646 23.4688 62.8125 23.6875C63.2604 23.9062 63.5938 24.1745 63.8125 24.4922C64.0312 24.8099 64.1406 25.1953 64.1406 25.6484C64.1406 26.0182 64.0625 26.3568 63.9062 26.6641C63.7552 26.9714 63.5339 27.237 63.2422 27.4609C62.9557 27.6797 62.612 27.8516 62.2109 27.9766C61.8151 28.0964 61.3698 28.1562 60.875 28.1562C60.1302 28.1562 59.5 28.0234 58.9844 27.7578C58.4688 27.4922 58.0781 27.1484 57.8125 26.7266C57.5469 26.3047 57.4141 25.8594 57.4141 25.3906H58.8672C58.888 25.7865 59.0026 26.1016 59.2109 26.3359C59.4193 26.5651 59.6745 26.7292 59.9766 26.8281C60.2786 26.9219 60.5781 26.9688 60.875 26.9688C61.2708 26.9688 61.6016 26.9167 61.8672 26.8125C62.138 26.7083 62.3438 26.5651 62.4844 26.3828C62.625 26.2005 62.6953 25.9922 62.6953 25.7578ZM75.3359 26.3594V16H76.7891V28H75.4609L75.3359 26.3594ZM69.6484 23.8672V23.7031C69.6484 23.0573 69.7266 22.4714 69.8828 21.9453C70.0443 21.4141 70.2708 20.9583 70.5625 20.5781C70.8594 20.1979 71.2109 19.9062 71.6172 19.7031C72.0286 19.4948 72.487 19.3906 72.9922 19.3906C73.5234 19.3906 73.987 19.4844 74.3828 19.6719C74.7839 19.8542 75.1224 20.1224 75.3984 20.4766C75.6797 20.8255 75.901 21.2474 76.0625 21.7422C76.224 22.237 76.3359 22.7969 76.3984 23.4219V24.1406C76.3411 24.7604 76.2292 25.3177 76.0625 25.8125C75.901 26.3073 75.6797 26.7292 75.3984 27.0781C75.1224 27.4271 74.7839 27.6953 74.3828 27.8828C73.9818 28.0651 73.513 28.1562 72.9766 28.1562C72.4818 28.1562 72.0286 28.0495 71.6172 27.8359C71.2109 27.6224 70.8594 27.3229 70.5625 26.9375C70.2708 26.5521 70.0443 26.099 69.8828 25.5781C69.7266 25.0521 69.6484 24.4818 69.6484 23.8672ZM71.1016 23.7031V23.8672C71.1016 24.2891 71.1432 24.6849 71.2266 25.0547C71.3151 25.4245 71.4505 25.75 71.6328 26.0312C71.8151 26.3125 72.0469 26.5339 72.3281 26.6953C72.6094 26.8516 72.9453 26.9297 73.3359 26.9297C73.8151 26.9297 74.2083 26.8281 74.5156 26.625C74.8281 26.4219 75.0781 26.1536 75.2656 25.8203C75.4531 25.487 75.599 25.125 75.7031 24.7344V22.8516C75.6406 22.5651 75.5495 22.2891 75.4297 22.0234C75.3151 21.7526 75.1641 21.513 74.9766 21.3047C74.7943 21.0911 74.5677 20.9219 74.2969 20.7969C74.0312 20.6719 73.7161 20.6094 73.3516 20.6094C72.9557 20.6094 72.6146 20.6927 72.3281 20.8594C72.0469 21.0208 71.8151 21.2448 71.6328 21.5312C71.4505 21.8125 71.3151 22.1406 71.2266 22.5156C71.1432 22.8854 71.1016 23.2812 71.1016 23.7031ZM80.6094 19.5469V28H79.1562V19.5469H80.6094ZM79.0469 17.3047C79.0469 17.0703 79.1172 16.8724 79.2578 16.7109C79.4036 16.5495 79.6172 16.4688 79.8984 16.4688C80.1745 16.4688 80.3854 16.5495 80.5312 16.7109C80.6823 16.8724 80.7578 17.0703 80.7578 17.3047C80.7578 17.5286 80.6823 17.7214 80.5312 17.8828C80.3854 18.0391 80.1745 18.1172 79.8984 18.1172C79.6172 18.1172 79.4036 18.0391 79.2578 17.8828C79.1172 17.7214 79.0469 17.5286 79.0469 17.3047ZM87.8516 25.7578C87.8516 25.5495 87.8047 25.3568 87.7109 25.1797C87.6224 24.9974 87.4375 24.8333 87.1562 24.6875C86.8802 24.5365 86.4635 24.4062 85.9062 24.2969C85.4375 24.1979 85.013 24.0807 84.6328 23.9453C84.2578 23.8099 83.9375 23.6458 83.6719 23.4531C83.4115 23.2604 83.2109 23.0339 83.0703 22.7734C82.9297 22.513 82.8594 22.2083 82.8594 21.8594C82.8594 21.526 82.9323 21.2109 83.0781 20.9141C83.2292 20.6172 83.4401 20.3542 83.7109 20.125C83.987 19.8958 84.3177 19.7161 84.7031 19.5859C85.0885 19.4557 85.5182 19.3906 85.9922 19.3906C86.6693 19.3906 87.2474 19.5104 87.7266 19.75C88.2057 19.9896 88.5729 20.3099 88.8281 20.7109C89.0833 21.1068 89.2109 21.5469 89.2109 22.0312H87.7656C87.7656 21.7969 87.6953 21.5703 87.5547 21.3516C87.4193 21.1276 87.2188 20.9427 86.9531 20.7969C86.6927 20.651 86.3724 20.5781 85.9922 20.5781C85.5911 20.5781 85.2656 20.6406 85.0156 20.7656C84.7708 20.8854 84.5911 21.0391 84.4766 21.2266C84.3672 21.4141 84.3125 21.612 84.3125 21.8203C84.3125 21.9766 84.3385 22.1172 84.3906 22.2422C84.4479 22.362 84.5469 22.474 84.6875 22.5781C84.8281 22.6771 85.026 22.7708 85.2812 22.8594C85.5365 22.9479 85.862 23.0365 86.2578 23.125C86.9505 23.2812 87.5208 23.4688 87.9688 23.6875C88.4167 23.9062 88.75 24.1745 88.9688 24.4922C89.1875 24.8099 89.2969 25.1953 89.2969 25.6484C89.2969 26.0182 89.2188 26.3568 89.0625 26.6641C88.9115 26.9714 88.6901 27.237 88.3984 27.4609C88.112 27.6797 87.7682 27.8516 87.3672 27.9766C86.9714 28.0964 86.526 28.1562 86.0312 28.1562C85.2865 28.1562 84.6562 28.0234 84.1406 27.7578C83.625 27.4922 83.2344 27.1484 82.9688 26.7266C82.7031 26.3047 82.5703 25.8594 82.5703 25.3906H84.0234C84.0443 25.7865 84.1589 26.1016 84.3672 26.3359C84.5755 26.5651 84.8307 26.7292 85.1328 26.8281C85.4349 26.9219 85.7344 26.9688 86.0312 26.9688C86.4271 26.9688 86.7578 26.9167 87.0234 26.8125C87.2943 26.7083 87.5 26.5651 87.6406 26.3828C87.7812 26.2005 87.8516 25.9922 87.8516 25.7578ZM94.5781 26.9688C94.9219 26.9688 95.2396 26.8984 95.5312 26.7578C95.8229 26.6172 96.0625 26.4245 96.25 26.1797C96.4375 25.9297 96.5443 25.6458 96.5703 25.3281H97.9453C97.9193 25.8281 97.75 26.2943 97.4375 26.7266C97.1302 27.1536 96.7266 27.5 96.2266 27.7656C95.7266 28.026 95.1771 28.1562 94.5781 28.1562C93.9427 28.1562 93.388 28.0443 92.9141 27.8203C92.4453 27.5964 92.0547 27.2891 91.7422 26.8984C91.4349 26.5078 91.2031 26.0599 91.0469 25.5547C90.8958 25.0443 90.8203 24.5052 90.8203 23.9375V23.6094C90.8203 23.0417 90.8958 22.5052 91.0469 22C91.2031 21.4896 91.4349 21.0391 91.7422 20.6484C92.0547 20.2578 92.4453 19.9505 92.9141 19.7266C93.388 19.5026 93.9427 19.3906 94.5781 19.3906C95.2396 19.3906 95.8177 19.526 96.3125 19.7969C96.8073 20.0625 97.1953 20.4271 97.4766 20.8906C97.763 21.349 97.9193 21.8698 97.9453 22.4531H96.5703C96.5443 22.1042 96.4453 21.7891 96.2734 21.5078C96.1068 21.2266 95.8776 21.0026 95.5859 20.8359C95.2995 20.6641 94.9635 20.5781 94.5781 20.5781C94.1354 20.5781 93.763 20.6667 93.4609 20.8438C93.1641 21.0156 92.9271 21.25 92.75 21.5469C92.5781 21.8385 92.4531 22.1641 92.375 22.5234C92.3021 22.8776 92.2656 23.2396 92.2656 23.6094V23.9375C92.2656 24.3073 92.3021 24.6719 92.375 25.0312C92.4479 25.3906 92.5703 25.7161 92.7422 26.0078C92.9193 26.2995 93.1562 26.5339 93.4531 26.7109C93.7552 26.8828 94.1302 26.9688 94.5781 26.9688ZM104.742 26.0469V19.5469H106.195V28H104.812L104.742 26.0469ZM105.016 24.2656L105.617 24.25C105.617 24.8125 105.557 25.3333 105.438 25.8125C105.323 26.2865 105.135 26.6979 104.875 27.0469C104.615 27.3958 104.273 27.6693 103.852 27.8672C103.43 28.0599 102.917 28.1562 102.312 28.1562C101.901 28.1562 101.523 28.0964 101.18 27.9766C100.841 27.8568 100.549 27.6719 100.305 27.4219C100.06 27.1719 99.8698 26.8464 99.7344 26.4453C99.6042 26.0443 99.5391 25.5625 99.5391 25V19.5469H100.984V25.0156C100.984 25.3958 101.026 25.7109 101.109 25.9609C101.198 26.2057 101.315 26.401 101.461 26.5469C101.612 26.6875 101.779 26.7865 101.961 26.8438C102.148 26.901 102.341 26.9297 102.539 26.9297C103.154 26.9297 103.641 26.8125 104 26.5781C104.359 26.3385 104.617 26.0182 104.773 25.6172C104.935 25.2109 105.016 24.7604 105.016 24.2656ZM113.32 25.7578C113.32 25.5495 113.273 25.3568 113.18 25.1797C113.091 24.9974 112.906 24.8333 112.625 24.6875C112.349 24.5365 111.932 24.4062 111.375 24.2969C110.906 24.1979 110.482 24.0807 110.102 23.9453C109.727 23.8099 109.406 23.6458 109.141 23.4531C108.88 23.2604 108.68 23.0339 108.539 22.7734C108.398 22.513 108.328 22.2083 108.328 21.8594C108.328 21.526 108.401 21.2109 108.547 20.9141C108.698 20.6172 108.909 20.3542 109.18 20.125C109.456 19.8958 109.786 19.7161 110.172 19.5859C110.557 19.4557 110.987 19.3906 111.461 19.3906C112.138 19.3906 112.716 19.5104 113.195 19.75C113.674 19.9896 114.042 20.3099 114.297 20.7109C114.552 21.1068 114.68 21.5469 114.68 22.0312H113.234C113.234 21.7969 113.164 21.5703 113.023 21.3516C112.888 21.1276 112.688 20.9427 112.422 20.7969C112.161 20.651 111.841 20.5781 111.461 20.5781C111.06 20.5781 110.734 20.6406 110.484 20.7656C110.24 20.8854 110.06 21.0391 109.945 21.2266C109.836 21.4141 109.781 21.612 109.781 21.8203C109.781 21.9766 109.807 22.1172 109.859 22.2422C109.917 22.362 110.016 22.474 110.156 22.5781C110.297 22.6771 110.495 22.7708 110.75 22.8594C111.005 22.9479 111.331 23.0365 111.727 23.125C112.419 23.2812 112.99 23.4688 113.438 23.6875C113.885 23.9062 114.219 24.1745 114.438 24.4922C114.656 24.8099 114.766 25.1953 114.766 25.6484C114.766 26.0182 114.688 26.3568 114.531 26.6641C114.38 26.9714 114.159 27.237 113.867 27.4609C113.581 27.6797 113.237 27.8516 112.836 27.9766C112.44 28.0964 111.995 28.1562 111.5 28.1562C110.755 28.1562 110.125 28.0234 109.609 27.7578C109.094 27.4922 108.703 27.1484 108.438 26.7266C108.172 26.3047 108.039 25.8594 108.039 25.3906H109.492C109.513 25.7865 109.628 26.1016 109.836 26.3359C110.044 26.5651 110.299 26.7292 110.602 26.8281C110.904 26.9219 111.203 26.9688 111.5 26.9688C111.896 26.9688 112.227 26.9167 112.492 26.8125C112.763 26.7083 112.969 26.5651 113.109 26.3828C113.25 26.2005 113.32 25.9922 113.32 25.7578ZM121.586 25.7578C121.586 25.5495 121.539 25.3568 121.445 25.1797C121.357 24.9974 121.172 24.8333 120.891 24.6875C120.615 24.5365 120.198 24.4062 119.641 24.2969C119.172 24.1979 118.747 24.0807 118.367 23.9453C117.992 23.8099 117.672 23.6458 117.406 23.4531C117.146 23.2604 116.945 23.0339 116.805 22.7734C116.664 22.513 116.594 22.2083 116.594 21.8594C116.594 21.526 116.667 21.2109 116.812 20.9141C116.964 20.6172 117.174 20.3542 117.445 20.125C117.721 19.8958 118.052 19.7161 118.438 19.5859C118.823 19.4557 119.253 19.3906 119.727 19.3906C120.404 19.3906 120.982 19.5104 121.461 19.75C121.94 19.9896 122.307 20.3099 122.562 20.7109C122.818 21.1068 122.945 21.5469 122.945 22.0312H121.5C121.5 21.7969 121.43 21.5703 121.289 21.3516C121.154 21.1276 120.953 20.9427 120.688 20.7969C120.427 20.651 120.107 20.5781 119.727 20.5781C119.326 20.5781 119 20.6406 118.75 20.7656C118.505 20.8854 118.326 21.0391 118.211 21.2266C118.102 21.4141 118.047 21.612 118.047 21.8203C118.047 21.9766 118.073 22.1172 118.125 22.2422C118.182 22.362 118.281 22.474 118.422 22.5781C118.562 22.6771 118.76 22.7708 119.016 22.8594C119.271 22.9479 119.596 23.0365 119.992 23.125C120.685 23.2812 121.255 23.4688 121.703 23.6875C122.151 23.9062 122.484 24.1745 122.703 24.4922C122.922 24.8099 123.031 25.1953 123.031 25.6484C123.031 26.0182 122.953 26.3568 122.797 26.6641C122.646 26.9714 122.424 27.237 122.133 27.4609C121.846 27.6797 121.503 27.8516 121.102 27.9766C120.706 28.0964 120.26 28.1562 119.766 28.1562C119.021 28.1562 118.391 28.0234 117.875 27.7578C117.359 27.4922 116.969 27.1484 116.703 26.7266C116.438 26.3047 116.305 25.8594 116.305 25.3906H117.758C117.779 25.7865 117.893 26.1016 118.102 26.3359C118.31 26.5651 118.565 26.7292 118.867 26.8281C119.169 26.9219 119.469 26.9688 119.766 26.9688C120.161 26.9688 120.492 26.9167 120.758 26.8125C121.029 26.7083 121.234 26.5651 121.375 26.3828C121.516 26.2005 121.586 25.9922 121.586 25.7578ZM131.273 27.125L133.625 19.5469H135.172L131.781 29.3047C131.703 29.513 131.599 29.737 131.469 29.9766C131.344 30.2214 131.182 30.4531 130.984 30.6719C130.786 30.8906 130.547 31.0677 130.266 31.2031C129.99 31.3438 129.659 31.4141 129.273 31.4141C129.159 31.4141 129.013 31.3984 128.836 31.3672C128.659 31.3359 128.534 31.3099 128.461 31.2891L128.453 30.1172C128.495 30.1224 128.56 30.1276 128.648 30.1328C128.742 30.1432 128.807 30.1484 128.844 30.1484C129.172 30.1484 129.451 30.1042 129.68 30.0156C129.909 29.9323 130.102 29.7891 130.258 29.5859C130.419 29.388 130.557 29.1146 130.672 28.7656L131.273 27.125ZM129.547 19.5469L131.742 26.1094L132.117 27.6328L131.078 28.1641L127.969 19.5469H129.547ZM135.969 23.8672V23.6875C135.969 23.0781 136.057 22.513 136.234 21.9922C136.411 21.4661 136.667 21.0104 137 20.625C137.333 20.2344 137.737 19.9323 138.211 19.7188C138.685 19.5 139.216 19.3906 139.805 19.3906C140.398 19.3906 140.932 19.5 141.406 19.7188C141.885 19.9323 142.292 20.2344 142.625 20.625C142.964 21.0104 143.221 21.4661 143.398 21.9922C143.576 22.513 143.664 23.0781 143.664 23.6875V23.8672C143.664 24.4766 143.576 25.0417 143.398 25.5625C143.221 26.0833 142.964 26.5391 142.625 26.9297C142.292 27.3151 141.888 27.6172 141.414 27.8359C140.945 28.0495 140.414 28.1562 139.82 28.1562C139.227 28.1562 138.693 28.0495 138.219 27.8359C137.745 27.6172 137.339 27.3151 137 26.9297C136.667 26.5391 136.411 26.0833 136.234 25.5625C136.057 25.0417 135.969 24.4766 135.969 23.8672ZM137.414 23.6875V23.8672C137.414 24.2891 137.464 24.6875 137.562 25.0625C137.661 25.4323 137.81 25.7604 138.008 26.0469C138.211 26.3333 138.464 26.5599 138.766 26.7266C139.068 26.888 139.419 26.9688 139.82 26.9688C140.216 26.9688 140.562 26.888 140.859 26.7266C141.161 26.5599 141.411 26.3333 141.609 26.0469C141.807 25.7604 141.956 25.4323 142.055 25.0625C142.159 24.6875 142.211 24.2891 142.211 23.8672V23.6875C142.211 23.2708 142.159 22.8776 142.055 22.5078C141.956 22.1328 141.805 21.8021 141.602 21.5156C141.404 21.224 141.154 20.9948 140.852 20.8281C140.555 20.6615 140.206 20.5781 139.805 20.5781C139.409 20.5781 139.06 20.6615 138.758 20.8281C138.461 20.9948 138.211 21.224 138.008 21.5156C137.81 21.8021 137.661 22.1328 137.562 22.5078C137.464 22.8776 137.414 23.2708 137.414 23.6875ZM150.648 26.0469V19.5469H152.102V28H150.719L150.648 26.0469ZM150.922 24.2656L151.523 24.25C151.523 24.8125 151.464 25.3333 151.344 25.8125C151.229 26.2865 151.042 26.6979 150.781 27.0469C150.521 27.3958 150.18 27.6693 149.758 27.8672C149.336 28.0599 148.823 28.1562 148.219 28.1562C147.807 28.1562 147.43 28.0964 147.086 27.9766C146.747 27.8568 146.456 27.6719 146.211 27.4219C145.966 27.1719 145.776 26.8464 145.641 26.4453C145.51 26.0443 145.445 25.5625 145.445 25V19.5469H146.891V25.0156C146.891 25.3958 146.932 25.7109 147.016 25.9609C147.104 26.2057 147.221 26.401 147.367 26.5469C147.518 26.6875 147.685 26.7865 147.867 26.8438C148.055 26.901 148.247 26.9297 148.445 26.9297C149.06 26.9297 149.547 26.8125 149.906 26.5781C150.266 26.3385 150.523 26.0182 150.68 25.6172C150.841 25.2109 150.922 24.7604 150.922 24.2656ZM155.75 20.875V28H154.305V19.5469H155.711L155.75 20.875ZM158.391 19.5L158.383 20.8438C158.263 20.8177 158.148 20.8021 158.039 20.7969C157.935 20.7865 157.815 20.7812 157.68 20.7812C157.346 20.7812 157.052 20.8333 156.797 20.9375C156.542 21.0417 156.326 21.1875 156.148 21.375C155.971 21.5625 155.831 21.7865 155.727 22.0469C155.628 22.3021 155.562 22.5833 155.531 22.8906L155.125 23.125C155.125 22.6146 155.174 22.1354 155.273 21.6875C155.378 21.2396 155.536 20.8438 155.75 20.5C155.964 20.151 156.234 19.8802 156.562 19.6875C156.896 19.4896 157.292 19.3906 157.75 19.3906C157.854 19.3906 157.974 19.4036 158.109 19.4297C158.245 19.4505 158.339 19.474 158.391 19.5ZM165.133 21.2266V28H163.68V19.5469H165.055L165.133 21.2266ZM164.836 23.4531L164.164 23.4297C164.169 22.8516 164.245 22.3177 164.391 21.8281C164.536 21.3333 164.753 20.9036 165.039 20.5391C165.326 20.1745 165.682 19.8932 166.109 19.6953C166.536 19.4922 167.031 19.3906 167.594 19.3906C167.99 19.3906 168.354 19.4479 168.688 19.5625C169.021 19.6719 169.31 19.8464 169.555 20.0859C169.799 20.3255 169.99 20.6328 170.125 21.0078C170.26 21.3828 170.328 21.8359 170.328 22.3672V28H168.883V22.4375C168.883 21.9948 168.807 21.6406 168.656 21.375C168.51 21.1094 168.302 20.9167 168.031 20.7969C167.76 20.6719 167.443 20.6094 167.078 20.6094C166.651 20.6094 166.294 20.6849 166.008 20.8359C165.721 20.987 165.492 21.1953 165.32 21.4609C165.148 21.7266 165.023 22.0312 164.945 22.375C164.872 22.7135 164.836 23.0729 164.836 23.4531ZM170.312 22.6562L169.344 22.9531C169.349 22.4896 169.424 22.0443 169.57 21.6172C169.721 21.1901 169.938 20.8099 170.219 20.4766C170.505 20.1432 170.857 19.8802 171.273 19.6875C171.69 19.4896 172.167 19.3906 172.703 19.3906C173.156 19.3906 173.557 19.4505 173.906 19.5703C174.26 19.6901 174.557 19.875 174.797 20.125C175.042 20.3698 175.227 20.6849 175.352 21.0703C175.477 21.4557 175.539 21.9141 175.539 22.4453V28H174.086V22.4297C174.086 21.9557 174.01 21.5885 173.859 21.3281C173.714 21.0625 173.505 20.8776 173.234 20.7734C172.969 20.6641 172.651 20.6094 172.281 20.6094C171.964 20.6094 171.682 20.6641 171.438 20.7734C171.193 20.8828 170.987 21.0339 170.82 21.2266C170.654 21.4141 170.526 21.6302 170.438 21.875C170.354 22.1198 170.312 22.3802 170.312 22.6562ZM182.711 26.5547V22.2031C182.711 21.8698 182.643 21.5807 182.508 21.3359C182.378 21.0859 182.18 20.8932 181.914 20.7578C181.648 20.6224 181.32 20.5547 180.93 20.5547C180.565 20.5547 180.245 20.6172 179.969 20.7422C179.698 20.8672 179.484 21.0312 179.328 21.2344C179.177 21.4375 179.102 21.6562 179.102 21.8906H177.656C177.656 21.5885 177.734 21.2891 177.891 20.9922C178.047 20.6953 178.271 20.4271 178.562 20.1875C178.859 19.9427 179.214 19.75 179.625 19.6094C180.042 19.4635 180.505 19.3906 181.016 19.3906C181.63 19.3906 182.172 19.4948 182.641 19.7031C183.115 19.9115 183.484 20.2266 183.75 20.6484C184.021 21.0651 184.156 21.5885 184.156 22.2188V26.1562C184.156 26.4375 184.18 26.737 184.227 27.0547C184.279 27.3724 184.354 27.6458 184.453 27.875V28H182.945C182.872 27.8333 182.815 27.612 182.773 27.3359C182.732 27.0547 182.711 26.7943 182.711 26.5547ZM182.961 22.875L182.977 23.8906H181.516C181.104 23.8906 180.737 23.9245 180.414 23.9922C180.091 24.0547 179.82 24.151 179.602 24.2812C179.383 24.4115 179.216 24.5755 179.102 24.7734C178.987 24.9661 178.93 25.1927 178.93 25.4531C178.93 25.7188 178.99 25.9609 179.109 26.1797C179.229 26.3984 179.409 26.5729 179.648 26.7031C179.893 26.8281 180.193 26.8906 180.547 26.8906C180.99 26.8906 181.38 26.7969 181.719 26.6094C182.057 26.4219 182.326 26.1927 182.523 25.9219C182.727 25.651 182.836 25.388 182.852 25.1328L183.469 25.8281C183.432 26.0469 183.333 26.2891 183.172 26.5547C183.01 26.8203 182.794 27.0755 182.523 27.3203C182.258 27.5599 181.94 27.7604 181.57 27.9219C181.206 28.0781 180.794 28.1562 180.336 28.1562C179.763 28.1562 179.26 28.0443 178.828 27.8203C178.401 27.5964 178.068 27.2969 177.828 26.9219C177.594 26.5417 177.477 26.1172 177.477 25.6484C177.477 25.1953 177.565 24.7969 177.742 24.4531C177.919 24.1042 178.174 23.8151 178.508 23.5859C178.841 23.3516 179.242 23.1745 179.711 23.0547C180.18 22.9349 180.703 22.875 181.281 22.875H182.961ZM189.969 19.5469V20.6562H185.398V19.5469H189.969ZM186.945 17.4922H188.391V25.9062C188.391 26.1927 188.435 26.4089 188.523 26.5547C188.612 26.7005 188.727 26.7969 188.867 26.8438C189.008 26.8906 189.159 26.9141 189.32 26.9141C189.44 26.9141 189.565 26.9036 189.695 26.8828C189.831 26.8568 189.932 26.8359 190 26.8203L190.008 28C189.893 28.0365 189.742 28.0703 189.555 28.1016C189.372 28.138 189.151 28.1562 188.891 28.1562C188.536 28.1562 188.211 28.0859 187.914 27.9453C187.617 27.8047 187.38 27.5703 187.203 27.2422C187.031 26.9089 186.945 26.4609 186.945 25.8984V17.4922ZM195.203 19.5469V20.6562H190.633V19.5469H195.203ZM192.18 17.4922H193.625V25.9062C193.625 26.1927 193.669 26.4089 193.758 26.5547C193.846 26.7005 193.961 26.7969 194.102 26.8438C194.242 26.8906 194.393 26.9141 194.555 26.9141C194.674 26.9141 194.799 26.9036 194.93 26.8828C195.065 26.8568 195.167 26.8359 195.234 26.8203L195.242 28C195.128 28.0365 194.977 28.0703 194.789 28.1016C194.607 28.138 194.385 28.1562 194.125 28.1562C193.771 28.1562 193.445 28.0859 193.148 27.9453C192.852 27.8047 192.615 27.5703 192.438 27.2422C192.266 26.9089 192.18 26.4609 192.18 25.8984V17.4922ZM200.406 28.1562C199.818 28.1562 199.284 28.0573 198.805 27.8594C198.331 27.6562 197.922 27.3724 197.578 27.0078C197.24 26.6432 196.979 26.2109 196.797 25.7109C196.615 25.2109 196.523 24.6641 196.523 24.0703V23.7422C196.523 23.0547 196.625 22.4427 196.828 21.9062C197.031 21.3646 197.307 20.9062 197.656 20.5312C198.005 20.1562 198.401 19.8724 198.844 19.6797C199.286 19.487 199.745 19.3906 200.219 19.3906C200.823 19.3906 201.344 19.4948 201.781 19.7031C202.224 19.9115 202.586 20.2031 202.867 20.5781C203.148 20.9479 203.357 21.3854 203.492 21.8906C203.628 22.3906 203.695 22.9375 203.695 23.5312V24.1797H197.383V23H202.25V22.8906C202.229 22.5156 202.151 22.151 202.016 21.7969C201.885 21.4427 201.677 21.151 201.391 20.9219C201.104 20.6927 200.714 20.5781 200.219 20.5781C199.891 20.5781 199.589 20.6484 199.312 20.7891C199.036 20.9245 198.799 21.1276 198.602 21.3984C198.404 21.6693 198.25 22 198.141 22.3906C198.031 22.7812 197.977 23.2318 197.977 23.7422V24.0703C197.977 24.4714 198.031 24.849 198.141 25.2031C198.255 25.5521 198.419 25.8594 198.633 26.125C198.852 26.3906 199.115 26.599 199.422 26.75C199.734 26.901 200.089 26.9766 200.484 26.9766C200.995 26.9766 201.427 26.8724 201.781 26.6641C202.135 26.4557 202.445 26.1771 202.711 25.8281L203.586 26.5234C203.404 26.7995 203.172 27.0625 202.891 27.3125C202.609 27.5625 202.263 27.7656 201.852 27.9219C201.445 28.0781 200.964 28.1562 200.406 28.1562ZM206.828 20.875V28H205.383V19.5469H206.789L206.828 20.875ZM209.469 19.5L209.461 20.8438C209.341 20.8177 209.227 20.8021 209.117 20.7969C209.013 20.7865 208.893 20.7812 208.758 20.7812C208.424 20.7812 208.13 20.8333 207.875 20.9375C207.62 21.0417 207.404 21.1875 207.227 21.375C207.049 21.5625 206.909 21.7865 206.805 22.0469C206.706 22.3021 206.641 22.5833 206.609 22.8906L206.203 23.125C206.203 22.6146 206.253 22.1354 206.352 21.6875C206.456 21.2396 206.615 20.8438 206.828 20.5C207.042 20.151 207.312 19.8802 207.641 19.6875C207.974 19.4896 208.37 19.3906 208.828 19.3906C208.932 19.3906 209.052 19.4036 209.188 19.4297C209.323 19.4505 209.417 19.474 209.469 19.5Z" fill="white"/>
<path d="M226.5 20.1431V26.6431C226.5 26.7757 226.448 26.9029 226.354 26.9966C226.26 27.0904 226.133 27.1431 226 27.1431C225.868 27.1431 225.74 27.0904 225.647 26.9966C225.553 26.9029 225.5 26.7757 225.5 26.6431V21.3499L218.354 28.4968C218.26 28.5906 218.133 28.6433 218 28.6433C217.868 28.6433 217.74 28.5906 217.647 28.4968C217.553 28.403 217.5 28.2757 217.5 28.1431C217.5 28.0104 217.553 27.8831 217.647 27.7893L224.793 20.6431H219.5C219.368 20.6431 219.24 20.5904 219.147 20.4966C219.053 20.4029 219 20.2757 219 20.1431C219 20.0105 219.053 19.8833 219.147 19.7895C219.24 19.6957 219.368 19.6431 219.5 19.6431H226C226.133 19.6431 226.26 19.6957 226.354 19.7895C226.448 19.8833 226.5 20.0105 226.5 20.1431Z" fill="white"/>
</svg>
