<svg width="238" height="45" viewBox="0 0 238 45" fill="none" xmlns="http://www.w3.org/2000/svg">
<rect width="3" height="45" fill="#2E31CA"/>
<rect x="7" width="5" height="45" fill="#2E31CA"/>
<rect width="222" height="45" transform="translate(16)" fill="#2E31CA"/>
<path d="M36.3984 28H34.0234L34.0391 26.7734H36.3984C37.2109 26.7734 37.888 26.6042 38.4297 26.2656C38.9714 25.9219 39.3776 25.4427 39.6484 24.8281C39.9245 24.2083 40.0625 23.4844 40.0625 22.6562V21.9609C40.0625 21.3099 39.9844 20.7318 39.8281 20.2266C39.6719 19.7161 39.4427 19.2865 39.1406 18.9375C38.8385 18.5833 38.4688 18.3151 38.0312 18.1328C37.599 17.9505 37.1016 17.8594 36.5391 17.8594H33.9766V16.625H36.5391C37.2839 16.625 37.9635 16.75 38.5781 17C39.1927 17.2448 39.7214 17.6016 40.1641 18.0703C40.612 18.5339 40.9557 19.0964 41.1953 19.7578C41.4349 20.4141 41.5547 21.1536 41.5547 21.9766V22.6562C41.5547 23.4792 41.4349 24.2214 41.1953 24.8828C40.9557 25.5391 40.6094 26.099 40.1562 26.5625C39.7083 27.026 39.1667 27.3828 38.5312 27.6328C37.901 27.8776 37.1901 28 36.3984 28ZM34.8281 16.625V28H33.3203V16.625H34.8281ZM45.1719 19.5469V28H43.7188V19.5469H45.1719ZM43.6094 17.3047C43.6094 17.0703 43.6797 16.8724 43.8203 16.7109C43.9661 16.5495 44.1797 16.4688 44.4609 16.4688C44.737 16.4688 44.9479 16.5495 45.0938 16.7109C45.2448 16.8724 45.3203 17.0703 45.3203 17.3047C45.3203 17.5286 45.2448 17.7214 45.0938 17.8828C44.9479 18.0391 44.737 18.1172 44.4609 18.1172C44.1797 18.1172 43.9661 18.0391 43.8203 17.8828C43.6797 17.7214 43.6094 17.5286 43.6094 17.3047ZM52.4141 25.7578C52.4141 25.5495 52.3672 25.3568 52.2734 25.1797C52.1849 24.9974 52 24.8333 51.7188 24.6875C51.4427 24.5365 51.026 24.4062 50.4688 24.2969C50 24.1979 49.5755 24.0807 49.1953 23.9453C48.8203 23.8099 48.5 23.6458 48.2344 23.4531C47.974 23.2604 47.7734 23.0339 47.6328 22.7734C47.4922 22.513 47.4219 22.2083 47.4219 21.8594C47.4219 21.526 47.4948 21.2109 47.6406 20.9141C47.7917 20.6172 48.0026 20.3542 48.2734 20.125C48.5495 19.8958 48.8802 19.7161 49.2656 19.5859C49.651 19.4557 50.0807 19.3906 50.5547 19.3906C51.2318 19.3906 51.8099 19.5104 52.2891 19.75C52.7682 19.9896 53.1354 20.3099 53.3906 20.7109C53.6458 21.1068 53.7734 21.5469 53.7734 22.0312H52.3281C52.3281 21.7969 52.2578 21.5703 52.1172 21.3516C51.9818 21.1276 51.7812 20.9427 51.5156 20.7969C51.2552 20.651 50.9349 20.5781 50.5547 20.5781C50.1536 20.5781 49.8281 20.6406 49.5781 20.7656C49.3333 20.8854 49.1536 21.0391 49.0391 21.2266C48.9297 21.4141 48.875 21.612 48.875 21.8203C48.875 21.9766 48.901 22.1172 48.9531 22.2422C49.0104 22.362 49.1094 22.474 49.25 22.5781C49.3906 22.6771 49.5885 22.7708 49.8438 22.8594C50.099 22.9479 50.4245 23.0365 50.8203 23.125C51.513 23.2812 52.0833 23.4688 52.5312 23.6875C52.9792 23.9062 53.3125 24.1745 53.5312 24.4922C53.75 24.8099 53.8594 25.1953 53.8594 25.6484C53.8594 26.0182 53.7812 26.3568 53.625 26.6641C53.474 26.9714 53.2526 27.237 52.9609 27.4609C52.6745 27.6797 52.3307 27.8516 51.9297 27.9766C51.5339 28.0964 51.0885 28.1562 50.5938 28.1562C49.849 28.1562 49.2188 28.0234 48.7031 27.7578C48.1875 27.4922 47.7969 27.1484 47.5312 26.7266C47.2656 26.3047 47.1328 25.8594 47.1328 25.3906H48.5859C48.6068 25.7865 48.7214 26.1016 48.9297 26.3359C49.138 26.5651 49.3932 26.7292 49.6953 26.8281C49.9974 26.9219 50.2969 26.9688 50.5938 26.9688C50.9896 26.9688 51.3203 26.9167 51.5859 26.8125C51.8568 26.7083 52.0625 26.5651 52.2031 26.3828C52.3438 26.2005 52.4141 25.9922 52.4141 25.7578ZM59.1406 26.9688C59.4844 26.9688 59.8021 26.8984 60.0938 26.7578C60.3854 26.6172 60.625 26.4245 60.8125 26.1797C61 25.9297 61.1068 25.6458 61.1328 25.3281H62.5078C62.4818 25.8281 62.3125 26.2943 62 26.7266C61.6927 27.1536 61.2891 27.5 60.7891 27.7656C60.2891 28.026 59.7396 28.1562 59.1406 28.1562C58.5052 28.1562 57.9505 28.0443 57.4766 27.8203C57.0078 27.5964 56.6172 27.2891 56.3047 26.8984C55.9974 26.5078 55.7656 26.0599 55.6094 25.5547C55.4583 25.0443 55.3828 24.5052 55.3828 23.9375V23.6094C55.3828 23.0417 55.4583 22.5052 55.6094 22C55.7656 21.4896 55.9974 21.0391 56.3047 20.6484C56.6172 20.2578 57.0078 19.9505 57.4766 19.7266C57.9505 19.5026 58.5052 19.3906 59.1406 19.3906C59.8021 19.3906 60.3802 19.526 60.875 19.7969C61.3698 20.0625 61.7578 20.4271 62.0391 20.8906C62.3255 21.349 62.4818 21.8698 62.5078 22.4531H61.1328C61.1068 22.1042 61.0078 21.7891 60.8359 21.5078C60.6693 21.2266 60.4401 21.0026 60.1484 20.8359C59.862 20.6641 59.526 20.5781 59.1406 20.5781C58.6979 20.5781 58.3255 20.6667 58.0234 20.8438C57.7266 21.0156 57.4896 21.25 57.3125 21.5469C57.1406 21.8385 57.0156 22.1641 56.9375 22.5234C56.8646 22.8776 56.8281 23.2396 56.8281 23.6094V23.9375C56.8281 24.3073 56.8646 24.6719 56.9375 25.0312C57.0104 25.3906 57.1328 25.7161 57.3047 26.0078C57.4818 26.2995 57.7188 26.5339 58.0156 26.7109C58.3177 26.8828 58.6927 26.9688 59.1406 26.9688ZM69.3047 26.0469V19.5469H70.7578V28H69.375L69.3047 26.0469ZM69.5781 24.2656L70.1797 24.25C70.1797 24.8125 70.1198 25.3333 70 25.8125C69.8854 26.2865 69.6979 26.6979 69.4375 27.0469C69.1771 27.3958 68.8359 27.6693 68.4141 27.8672C67.9922 28.0599 67.4792 28.1562 66.875 28.1562C66.4635 28.1562 66.0859 28.0964 65.7422 27.9766C65.4036 27.8568 65.112 27.6719 64.8672 27.4219C64.6224 27.1719 64.4323 26.8464 64.2969 26.4453C64.1667 26.0443 64.1016 25.5625 64.1016 25V19.5469H65.5469V25.0156C65.5469 25.3958 65.5885 25.7109 65.6719 25.9609C65.7604 26.2057 65.8776 26.401 66.0234 26.5469C66.1745 26.6875 66.3411 26.7865 66.5234 26.8438C66.7109 26.901 66.9036 26.9297 67.1016 26.9297C67.7161 26.9297 68.2031 26.8125 68.5625 26.5781C68.9219 26.3385 69.1797 26.0182 69.3359 25.6172C69.4974 25.2109 69.5781 24.7604 69.5781 24.2656ZM77.8828 25.7578C77.8828 25.5495 77.8359 25.3568 77.7422 25.1797C77.6536 24.9974 77.4688 24.8333 77.1875 24.6875C76.9115 24.5365 76.4948 24.4062 75.9375 24.2969C75.4688 24.1979 75.0443 24.0807 74.6641 23.9453C74.2891 23.8099 73.9688 23.6458 73.7031 23.4531C73.4427 23.2604 73.2422 23.0339 73.1016 22.7734C72.9609 22.513 72.8906 22.2083 72.8906 21.8594C72.8906 21.526 72.9635 21.2109 73.1094 20.9141C73.2604 20.6172 73.4714 20.3542 73.7422 20.125C74.0182 19.8958 74.349 19.7161 74.7344 19.5859C75.1198 19.4557 75.5495 19.3906 76.0234 19.3906C76.7005 19.3906 77.2786 19.5104 77.7578 19.75C78.237 19.9896 78.6042 20.3099 78.8594 20.7109C79.1146 21.1068 79.2422 21.5469 79.2422 22.0312H77.7969C77.7969 21.7969 77.7266 21.5703 77.5859 21.3516C77.4505 21.1276 77.25 20.9427 76.9844 20.7969C76.724 20.651 76.4036 20.5781 76.0234 20.5781C75.6224 20.5781 75.2969 20.6406 75.0469 20.7656C74.8021 20.8854 74.6224 21.0391 74.5078 21.2266C74.3984 21.4141 74.3438 21.612 74.3438 21.8203C74.3438 21.9766 74.3698 22.1172 74.4219 22.2422C74.4792 22.362 74.5781 22.474 74.7188 22.5781C74.8594 22.6771 75.0573 22.7708 75.3125 22.8594C75.5677 22.9479 75.8932 23.0365 76.2891 23.125C76.9818 23.2812 77.5521 23.4688 78 23.6875C78.4479 23.9062 78.7812 24.1745 79 24.4922C79.2188 24.8099 79.3281 25.1953 79.3281 25.6484C79.3281 26.0182 79.25 26.3568 79.0938 26.6641C78.9427 26.9714 78.7214 27.237 78.4297 27.4609C78.1432 27.6797 77.7995 27.8516 77.3984 27.9766C77.0026 28.0964 76.5573 28.1562 76.0625 28.1562C75.3177 28.1562 74.6875 28.0234 74.1719 27.7578C73.6562 27.4922 73.2656 27.1484 73 26.7266C72.7344 26.3047 72.6016 25.8594 72.6016 25.3906H74.0547C74.0755 25.7865 74.1901 26.1016 74.3984 26.3359C74.6068 26.5651 74.862 26.7292 75.1641 26.8281C75.4661 26.9219 75.7656 26.9688 76.0625 26.9688C76.4583 26.9688 76.7891 26.9167 77.0547 26.8125C77.3255 26.7083 77.5312 26.5651 77.6719 26.3828C77.8125 26.2005 77.8828 25.9922 77.8828 25.7578ZM86.1484 25.7578C86.1484 25.5495 86.1016 25.3568 86.0078 25.1797C85.9193 24.9974 85.7344 24.8333 85.4531 24.6875C85.1771 24.5365 84.7604 24.4062 84.2031 24.2969C83.7344 24.1979 83.3099 24.0807 82.9297 23.9453C82.5547 23.8099 82.2344 23.6458 81.9688 23.4531C81.7083 23.2604 81.5078 23.0339 81.3672 22.7734C81.2266 22.513 81.1562 22.2083 81.1562 21.8594C81.1562 21.526 81.2292 21.2109 81.375 20.9141C81.526 20.6172 81.737 20.3542 82.0078 20.125C82.2839 19.8958 82.6146 19.7161 83 19.5859C83.3854 19.4557 83.8151 19.3906 84.2891 19.3906C84.9661 19.3906 85.5443 19.5104 86.0234 19.75C86.5026 19.9896 86.8698 20.3099 87.125 20.7109C87.3802 21.1068 87.5078 21.5469 87.5078 22.0312H86.0625C86.0625 21.7969 85.9922 21.5703 85.8516 21.3516C85.7161 21.1276 85.5156 20.9427 85.25 20.7969C84.9896 20.651 84.6693 20.5781 84.2891 20.5781C83.888 20.5781 83.5625 20.6406 83.3125 20.7656C83.0677 20.8854 82.888 21.0391 82.7734 21.2266C82.6641 21.4141 82.6094 21.612 82.6094 21.8203C82.6094 21.9766 82.6354 22.1172 82.6875 22.2422C82.7448 22.362 82.8438 22.474 82.9844 22.5781C83.125 22.6771 83.3229 22.7708 83.5781 22.8594C83.8333 22.9479 84.1589 23.0365 84.5547 23.125C85.2474 23.2812 85.8177 23.4688 86.2656 23.6875C86.7135 23.9062 87.0469 24.1745 87.2656 24.4922C87.4844 24.8099 87.5938 25.1953 87.5938 25.6484C87.5938 26.0182 87.5156 26.3568 87.3594 26.6641C87.2083 26.9714 86.987 27.237 86.6953 27.4609C86.4089 27.6797 86.0651 27.8516 85.6641 27.9766C85.2682 28.0964 84.8229 28.1562 84.3281 28.1562C83.5833 28.1562 82.9531 28.0234 82.4375 27.7578C81.9219 27.4922 81.5312 27.1484 81.2656 26.7266C81 26.3047 80.8672 25.8594 80.8672 25.3906H82.3203C82.3411 25.7865 82.4557 26.1016 82.6641 26.3359C82.8724 26.5651 83.1276 26.7292 83.4297 26.8281C83.7318 26.9219 84.0312 26.9688 84.3281 26.9688C84.724 26.9688 85.0547 26.9167 85.3203 26.8125C85.5911 26.7083 85.7969 26.5651 85.9375 26.3828C86.0781 26.2005 86.1484 25.9922 86.1484 25.7578ZM94.2031 16.625L97.1562 22.3359L100.117 16.625H101.828L97.9062 23.75V28H96.3984V23.75L92.4766 16.625H94.2031ZM102.172 23.8672V23.6875C102.172 23.0781 102.26 22.513 102.438 21.9922C102.615 21.4661 102.87 21.0104 103.203 20.625C103.536 20.2344 103.94 19.9323 104.414 19.7188C104.888 19.5 105.419 19.3906 106.008 19.3906C106.602 19.3906 107.135 19.5 107.609 19.7188C108.089 19.9323 108.495 20.2344 108.828 20.625C109.167 21.0104 109.424 21.4661 109.602 21.9922C109.779 22.513 109.867 23.0781 109.867 23.6875V23.8672C109.867 24.4766 109.779 25.0417 109.602 25.5625C109.424 26.0833 109.167 26.5391 108.828 26.9297C108.495 27.3151 108.091 27.6172 107.617 27.8359C107.148 28.0495 106.617 28.1562 106.023 28.1562C105.43 28.1562 104.896 28.0495 104.422 27.8359C103.948 27.6172 103.542 27.3151 103.203 26.9297C102.87 26.5391 102.615 26.0833 102.438 25.5625C102.26 25.0417 102.172 24.4766 102.172 23.8672ZM103.617 23.6875V23.8672C103.617 24.2891 103.667 24.6875 103.766 25.0625C103.865 25.4323 104.013 25.7604 104.211 26.0469C104.414 26.3333 104.667 26.5599 104.969 26.7266C105.271 26.888 105.622 26.9688 106.023 26.9688C106.419 26.9688 106.766 26.888 107.062 26.7266C107.365 26.5599 107.615 26.3333 107.812 26.0469C108.01 25.7604 108.159 25.4323 108.258 25.0625C108.362 24.6875 108.414 24.2891 108.414 23.8672V23.6875C108.414 23.2708 108.362 22.8776 108.258 22.5078C108.159 22.1328 108.008 21.8021 107.805 21.5156C107.607 21.224 107.357 20.9948 107.055 20.8281C106.758 20.6615 106.409 20.5781 106.008 20.5781C105.612 20.5781 105.263 20.6615 104.961 20.8281C104.664 20.9948 104.414 21.224 104.211 21.5156C104.013 21.8021 103.865 22.1328 103.766 22.5078C103.667 22.8776 103.617 23.2708 103.617 23.6875ZM116.852 26.0469V19.5469H118.305V28H116.922L116.852 26.0469ZM117.125 24.2656L117.727 24.25C117.727 24.8125 117.667 25.3333 117.547 25.8125C117.432 26.2865 117.245 26.6979 116.984 27.0469C116.724 27.3958 116.383 27.6693 115.961 27.8672C115.539 28.0599 115.026 28.1562 114.422 28.1562C114.01 28.1562 113.633 28.0964 113.289 27.9766C112.951 27.8568 112.659 27.6719 112.414 27.4219C112.169 27.1719 111.979 26.8464 111.844 26.4453C111.714 26.0443 111.648 25.5625 111.648 25V19.5469H113.094V25.0156C113.094 25.3958 113.135 25.7109 113.219 25.9609C113.307 26.2057 113.424 26.401 113.57 26.5469C113.721 26.6875 113.888 26.7865 114.07 26.8438C114.258 26.901 114.451 26.9297 114.648 26.9297C115.263 26.9297 115.75 26.8125 116.109 26.5781C116.469 26.3385 116.727 26.0182 116.883 25.6172C117.044 25.2109 117.125 24.7604 117.125 24.2656ZM121.953 20.875V28H120.508V19.5469H121.914L121.953 20.875ZM124.594 19.5L124.586 20.8438C124.466 20.8177 124.352 20.8021 124.242 20.7969C124.138 20.7865 124.018 20.7812 123.883 20.7812C123.549 20.7812 123.255 20.8333 123 20.9375C122.745 21.0417 122.529 21.1875 122.352 21.375C122.174 21.5625 122.034 21.7865 121.93 22.0469C121.831 22.3021 121.766 22.5833 121.734 22.8906L121.328 23.125C121.328 22.6146 121.378 22.1354 121.477 21.6875C121.581 21.2396 121.74 20.8438 121.953 20.5C122.167 20.151 122.438 19.8802 122.766 19.6875C123.099 19.4896 123.495 19.3906 123.953 19.3906C124.057 19.3906 124.177 19.4036 124.312 19.4297C124.448 19.4505 124.542 19.474 124.594 19.5ZM136.984 24.3828H138.484C138.406 25.1016 138.201 25.7448 137.867 26.3125C137.534 26.8802 137.062 27.3307 136.453 27.6641C135.844 27.9922 135.083 28.1562 134.172 28.1562C133.505 28.1562 132.898 28.0312 132.352 27.7812C131.81 27.5312 131.344 27.1771 130.953 26.7188C130.562 26.2552 130.26 25.7005 130.047 25.0547C129.839 24.4036 129.734 23.6797 129.734 22.8828V21.75C129.734 20.9531 129.839 20.2318 130.047 19.5859C130.26 18.9349 130.565 18.3776 130.961 17.9141C131.362 17.4505 131.844 17.0938 132.406 16.8438C132.969 16.5938 133.602 16.4688 134.305 16.4688C135.164 16.4688 135.891 16.6302 136.484 16.9531C137.078 17.276 137.539 17.724 137.867 18.2969C138.201 18.8646 138.406 19.5234 138.484 20.2734H136.984C136.911 19.7422 136.776 19.2865 136.578 18.9062C136.38 18.5208 136.099 18.224 135.734 18.0156C135.37 17.8073 134.893 17.7031 134.305 17.7031C133.799 17.7031 133.354 17.7995 132.969 17.9922C132.589 18.1849 132.268 18.4583 132.008 18.8125C131.753 19.1667 131.56 19.5911 131.43 20.0859C131.299 20.5807 131.234 21.1302 131.234 21.7344V22.8828C131.234 23.4401 131.292 23.9635 131.406 24.4531C131.526 24.9427 131.706 25.3724 131.945 25.7422C132.185 26.112 132.49 26.4036 132.859 26.6172C133.229 26.8255 133.667 26.9297 134.172 26.9297C134.812 26.9297 135.323 26.8281 135.703 26.625C136.083 26.4219 136.37 26.1302 136.562 25.75C136.76 25.3698 136.901 24.9141 136.984 24.3828ZM145.305 26.5547V22.2031C145.305 21.8698 145.237 21.5807 145.102 21.3359C144.971 21.0859 144.773 20.8932 144.508 20.7578C144.242 20.6224 143.914 20.5547 143.523 20.5547C143.159 20.5547 142.839 20.6172 142.562 20.7422C142.292 20.8672 142.078 21.0312 141.922 21.2344C141.771 21.4375 141.695 21.6562 141.695 21.8906H140.25C140.25 21.5885 140.328 21.2891 140.484 20.9922C140.641 20.6953 140.865 20.4271 141.156 20.1875C141.453 19.9427 141.807 19.75 142.219 19.6094C142.635 19.4635 143.099 19.3906 143.609 19.3906C144.224 19.3906 144.766 19.4948 145.234 19.7031C145.708 19.9115 146.078 20.2266 146.344 20.6484C146.615 21.0651 146.75 21.5885 146.75 22.2188V26.1562C146.75 26.4375 146.773 26.737 146.82 27.0547C146.872 27.3724 146.948 27.6458 147.047 27.875V28H145.539C145.466 27.8333 145.409 27.612 145.367 27.3359C145.326 27.0547 145.305 26.7943 145.305 26.5547ZM145.555 22.875L145.57 23.8906H144.109C143.698 23.8906 143.331 23.9245 143.008 23.9922C142.685 24.0547 142.414 24.151 142.195 24.2812C141.977 24.4115 141.81 24.5755 141.695 24.7734C141.581 24.9661 141.523 25.1927 141.523 25.4531C141.523 25.7188 141.583 25.9609 141.703 26.1797C141.823 26.3984 142.003 26.5729 142.242 26.7031C142.487 26.8281 142.786 26.8906 143.141 26.8906C143.583 26.8906 143.974 26.7969 144.312 26.6094C144.651 26.4219 144.919 26.1927 145.117 25.9219C145.32 25.651 145.43 25.388 145.445 25.1328L146.062 25.8281C146.026 26.0469 145.927 26.2891 145.766 26.5547C145.604 26.8203 145.388 27.0755 145.117 27.3203C144.852 27.5599 144.534 27.7604 144.164 27.9219C143.799 28.0781 143.388 28.1562 142.93 28.1562C142.357 28.1562 141.854 28.0443 141.422 27.8203C140.995 27.5964 140.661 27.2969 140.422 26.9219C140.188 26.5417 140.07 26.1172 140.07 25.6484C140.07 25.1953 140.159 24.7969 140.336 24.4531C140.513 24.1042 140.768 23.8151 141.102 23.5859C141.435 23.3516 141.836 23.1745 142.305 23.0547C142.773 22.9349 143.297 22.875 143.875 22.875H145.555ZM153.945 25.7578C153.945 25.5495 153.898 25.3568 153.805 25.1797C153.716 24.9974 153.531 24.8333 153.25 24.6875C152.974 24.5365 152.557 24.4062 152 24.2969C151.531 24.1979 151.107 24.0807 150.727 23.9453C150.352 23.8099 150.031 23.6458 149.766 23.4531C149.505 23.2604 149.305 23.0339 149.164 22.7734C149.023 22.513 148.953 22.2083 148.953 21.8594C148.953 21.526 149.026 21.2109 149.172 20.9141C149.323 20.6172 149.534 20.3542 149.805 20.125C150.081 19.8958 150.411 19.7161 150.797 19.5859C151.182 19.4557 151.612 19.3906 152.086 19.3906C152.763 19.3906 153.341 19.5104 153.82 19.75C154.299 19.9896 154.667 20.3099 154.922 20.7109C155.177 21.1068 155.305 21.5469 155.305 22.0312H153.859C153.859 21.7969 153.789 21.5703 153.648 21.3516C153.513 21.1276 153.312 20.9427 153.047 20.7969C152.786 20.651 152.466 20.5781 152.086 20.5781C151.685 20.5781 151.359 20.6406 151.109 20.7656C150.865 20.8854 150.685 21.0391 150.57 21.2266C150.461 21.4141 150.406 21.612 150.406 21.8203C150.406 21.9766 150.432 22.1172 150.484 22.2422C150.542 22.362 150.641 22.474 150.781 22.5781C150.922 22.6771 151.12 22.7708 151.375 22.8594C151.63 22.9479 151.956 23.0365 152.352 23.125C153.044 23.2812 153.615 23.4688 154.062 23.6875C154.51 23.9062 154.844 24.1745 155.062 24.4922C155.281 24.8099 155.391 25.1953 155.391 25.6484C155.391 26.0182 155.312 26.3568 155.156 26.6641C155.005 26.9714 154.784 27.237 154.492 27.4609C154.206 27.6797 153.862 27.8516 153.461 27.9766C153.065 28.0964 152.62 28.1562 152.125 28.1562C151.38 28.1562 150.75 28.0234 150.234 27.7578C149.719 27.4922 149.328 27.1484 149.062 26.7266C148.797 26.3047 148.664 25.8594 148.664 25.3906H150.117C150.138 25.7865 150.253 26.1016 150.461 26.3359C150.669 26.5651 150.924 26.7292 151.227 26.8281C151.529 26.9219 151.828 26.9688 152.125 26.9688C152.521 26.9688 152.852 26.9167 153.117 26.8125C153.388 26.7083 153.594 26.5651 153.734 26.3828C153.875 26.2005 153.945 25.9922 153.945 25.7578ZM160.797 28.1562C160.208 28.1562 159.674 28.0573 159.195 27.8594C158.721 27.6562 158.312 27.3724 157.969 27.0078C157.63 26.6432 157.37 26.2109 157.188 25.7109C157.005 25.2109 156.914 24.6641 156.914 24.0703V23.7422C156.914 23.0547 157.016 22.4427 157.219 21.9062C157.422 21.3646 157.698 20.9062 158.047 20.5312C158.396 20.1562 158.792 19.8724 159.234 19.6797C159.677 19.487 160.135 19.3906 160.609 19.3906C161.214 19.3906 161.734 19.4948 162.172 19.7031C162.615 19.9115 162.977 20.2031 163.258 20.5781C163.539 20.9479 163.747 21.3854 163.883 21.8906C164.018 22.3906 164.086 22.9375 164.086 23.5312V24.1797H157.773V23H162.641V22.8906C162.62 22.5156 162.542 22.151 162.406 21.7969C162.276 21.4427 162.068 21.151 161.781 20.9219C161.495 20.6927 161.104 20.5781 160.609 20.5781C160.281 20.5781 159.979 20.6484 159.703 20.7891C159.427 20.9245 159.19 21.1276 158.992 21.3984C158.794 21.6693 158.641 22 158.531 22.3906C158.422 22.7812 158.367 23.2318 158.367 23.7422V24.0703C158.367 24.4714 158.422 24.849 158.531 25.2031C158.646 25.5521 158.81 25.8594 159.023 26.125C159.242 26.3906 159.505 26.599 159.812 26.75C160.125 26.901 160.479 26.9766 160.875 26.9766C161.385 26.9766 161.818 26.8724 162.172 26.6641C162.526 26.4557 162.836 26.1771 163.102 25.8281L163.977 26.5234C163.794 26.7995 163.562 27.0625 163.281 27.3125C163 27.5625 162.654 27.7656 162.242 27.9219C161.836 28.0781 161.354 28.1562 160.797 28.1562ZM178.711 16.625V28H177.195L171.469 19.2266V28H169.961V16.625H171.469L177.219 25.4219V16.625H178.711ZM180.781 23.8672V23.6875C180.781 23.0781 180.87 22.513 181.047 21.9922C181.224 21.4661 181.479 21.0104 181.812 20.625C182.146 20.2344 182.549 19.9323 183.023 19.7188C183.497 19.5 184.029 19.3906 184.617 19.3906C185.211 19.3906 185.745 19.5 186.219 19.7188C186.698 19.9323 187.104 20.2344 187.438 20.625C187.776 21.0104 188.034 21.4661 188.211 21.9922C188.388 22.513 188.477 23.0781 188.477 23.6875V23.8672C188.477 24.4766 188.388 25.0417 188.211 25.5625C188.034 26.0833 187.776 26.5391 187.438 26.9297C187.104 27.3151 186.701 27.6172 186.227 27.8359C185.758 28.0495 185.227 28.1562 184.633 28.1562C184.039 28.1562 183.505 28.0495 183.031 27.8359C182.557 27.6172 182.151 27.3151 181.812 26.9297C181.479 26.5391 181.224 26.0833 181.047 25.5625C180.87 25.0417 180.781 24.4766 180.781 23.8672ZM182.227 23.6875V23.8672C182.227 24.2891 182.276 24.6875 182.375 25.0625C182.474 25.4323 182.622 25.7604 182.82 26.0469C183.023 26.3333 183.276 26.5599 183.578 26.7266C183.88 26.888 184.232 26.9688 184.633 26.9688C185.029 26.9688 185.375 26.888 185.672 26.7266C185.974 26.5599 186.224 26.3333 186.422 26.0469C186.62 25.7604 186.768 25.4323 186.867 25.0625C186.971 24.6875 187.023 24.2891 187.023 23.8672V23.6875C187.023 23.2708 186.971 22.8776 186.867 22.5078C186.768 22.1328 186.617 21.8021 186.414 21.5156C186.216 21.224 185.966 20.9948 185.664 20.8281C185.367 20.6615 185.018 20.5781 184.617 20.5781C184.221 20.5781 183.872 20.6615 183.57 20.8281C183.273 20.9948 183.023 21.224 182.82 21.5156C182.622 21.8021 182.474 22.1328 182.375 22.5078C182.276 22.8776 182.227 23.2708 182.227 23.6875ZM192.43 26.5L194.602 19.5469H195.555L195.367 20.9297L193.156 28H192.227L192.43 26.5ZM190.969 19.5469L192.82 26.5781L192.953 28H191.977L189.523 19.5469H190.969ZM197.633 26.5234L199.398 19.5469H200.836L198.383 28H197.414L197.633 26.5234ZM195.766 19.5469L197.891 26.3828L198.133 28H197.211L194.938 20.9141L194.75 19.5469H195.766Z" fill="white"/>
<path d="M218.5 20.1429V26.6429C218.5 26.7755 218.448 26.9027 218.354 26.9964C218.26 27.0902 218.133 27.1429 218 27.1429C217.868 27.1429 217.74 27.0902 217.647 26.9964C217.553 26.9027 217.5 26.7755 217.5 26.6429V21.3498L210.354 28.4966C210.26 28.5905 210.133 28.6432 210 28.6432C209.868 28.6432 209.74 28.5905 209.647 28.4966C209.553 28.4028 209.5 28.2756 209.5 28.1429C209.5 28.0102 209.553 27.883 209.647 27.7891L216.793 20.6429H211.5C211.368 20.6429 211.24 20.5902 211.147 20.4964C211.053 20.4027 211 20.2755 211 20.1429C211 20.0103 211.053 19.8831 211.147 19.7893C211.24 19.6956 211.368 19.6429 211.5 19.6429H218C218.133 19.6429 218.26 19.6956 218.354 19.7893C218.448 19.8831 218.5 20.0103 218.5 20.1429Z" fill="white"/>
</svg>
