<svg width="41" height="42" viewBox="0 0 41 42" fill="none" xmlns="http://www.w3.org/2000/svg">
<path d="M37.625 0H2.625C1.92881 0 1.26113 0.276561 0.768844 0.768844C0.276561 1.26113 0 1.92881 0 2.625V14.875C0 26.0662 5.40969 32.8388 9.94656 36.5531C14.8466 40.5606 19.6919 41.9125 19.8953 41.9694C20.0457 42.0103 20.2043 42.0103 20.3547 41.9694C20.5581 41.9125 25.4034 40.5606 30.3034 36.5531C34.8403 32.8344 40.25 26.0662 40.25 14.875V2.625C40.25 1.92881 39.9734 1.26113 39.4812 0.768844C38.9889 0.276561 38.3212 0 37.625 0ZM38.5 14.875C38.5 23.2838 35.3872 30.1066 29.2491 35.1553C26.5386 37.3785 23.4471 39.0914 20.125 40.2106C16.8024 39.0924 13.7108 37.3794 11.0009 35.1553C4.86281 30.1066 1.75 23.2838 1.75 14.875V2.625C1.75 2.39294 1.84219 2.17038 2.00628 2.00628C2.17038 1.84219 2.39294 1.75 2.625 1.75H37.625C37.8571 1.75 38.0796 1.84219 38.2437 2.00628C38.4078 2.17038 38.5 2.39294 38.5 2.625V14.875ZM29.4941 12.5059C29.5754 12.5872 29.64 12.6837 29.684 12.7899C29.728 12.8962 29.7507 13.01 29.7507 13.125C29.7507 13.24 29.728 13.3538 29.684 13.4601C29.64 13.5663 29.5754 13.6628 29.4941 13.7441L17.2441 25.9941C17.1628 26.0754 17.0663 26.14 16.9601 26.184C16.8538 26.228 16.74 26.2507 16.625 26.2507C16.51 26.2507 16.3962 26.228 16.2899 26.184C16.1837 26.14 16.0872 26.0754 16.0059 25.9941L10.7559 20.7441C10.5918 20.5799 10.4995 20.3572 10.4995 20.125C10.4995 19.8928 10.5918 19.6701 10.7559 19.5059C10.9201 19.3418 11.1428 19.2495 11.375 19.2495C11.6072 19.2495 11.8299 19.3418 11.9941 19.5059L16.625 24.1369L28.2559 12.5059C28.3372 12.4246 28.4337 12.36 28.5399 12.316C28.6461 12.272 28.76 12.2493 28.875 12.2493C28.99 12.2493 29.1039 12.272 29.2101 12.316C29.3163 12.36 29.4128 12.4246 29.4941 12.5059Z" fill="#FAF1E1"/>
</svg>
