<svg width="218" height="45" viewBox="0 0 218 45" fill="none" xmlns="http://www.w3.org/2000/svg">
<rect width="3" height="45" fill="white"/>
<rect x="7" width="5" height="45" fill="white"/>
<rect width="202" height="45" transform="translate(16)" fill="white"/>
<path d="M40.5469 26.7734V28H34.5234V26.7734H40.5469ZM34.8281 16.625V28H33.3203V16.625H34.8281ZM39.75 21.5156V22.7422H34.5234V21.5156H39.75ZM40.4688 16.625V17.8594H34.5234V16.625H40.4688ZM43.1719 19.5469L45.0234 22.625L46.8984 19.5469H48.5938L45.8281 23.7188L48.6797 28H47.0078L45.0547 24.8281L43.1016 28H41.4219L44.2656 23.7188L41.5078 19.5469H43.1719ZM51.5781 21.1719V31.25H50.125V19.5469H51.4531L51.5781 21.1719ZM57.2734 23.7031V23.8672C57.2734 24.4818 57.2005 25.0521 57.0547 25.5781C56.9089 26.099 56.6953 26.5521 56.4141 26.9375C56.138 27.3229 55.7969 27.6224 55.3906 27.8359C54.9844 28.0495 54.5182 28.1562 53.9922 28.1562C53.4557 28.1562 52.9818 28.0677 52.5703 27.8906C52.1589 27.7135 51.8099 27.4557 51.5234 27.1172C51.237 26.7786 51.0078 26.3724 50.8359 25.8984C50.6693 25.4245 50.5547 24.8906 50.4922 24.2969V23.4219C50.5547 22.7969 50.6719 22.237 50.8438 21.7422C51.0156 21.2474 51.2422 20.8255 51.5234 20.4766C51.8099 20.1224 52.1562 19.8542 52.5625 19.6719C52.9688 19.4844 53.4375 19.3906 53.9688 19.3906C54.5 19.3906 54.9714 19.4948 55.3828 19.7031C55.7943 19.9062 56.1406 20.1979 56.4219 20.5781C56.7031 20.9583 56.9141 21.4141 57.0547 21.9453C57.2005 22.4714 57.2734 23.0573 57.2734 23.7031ZM55.8203 23.8672V23.7031C55.8203 23.2812 55.776 22.8854 55.6875 22.5156C55.599 22.1406 55.4609 21.8125 55.2734 21.5312C55.0911 21.2448 54.8568 21.0208 54.5703 20.8594C54.2839 20.6927 53.9427 20.6094 53.5469 20.6094C53.1823 20.6094 52.8646 20.6719 52.5938 20.7969C52.3281 20.9219 52.1016 21.0911 51.9141 21.3047C51.7266 21.513 51.5729 21.7526 51.4531 22.0234C51.3385 22.2891 51.2526 22.5651 51.1953 22.8516V24.875C51.2995 25.2396 51.4453 25.5833 51.6328 25.9062C51.8203 26.224 52.0703 26.4818 52.3828 26.6797C52.6953 26.8724 53.0885 26.9688 53.5625 26.9688C53.9531 26.9688 54.2891 26.888 54.5703 26.7266C54.8568 26.5599 55.0911 26.3333 55.2734 26.0469C55.4609 25.7604 55.599 25.4323 55.6875 25.0625C55.776 24.6875 55.8203 24.2891 55.8203 23.8672ZM60.6875 16V28H59.2344V16H60.6875ZM62.625 23.8672V23.6875C62.625 23.0781 62.7135 22.513 62.8906 21.9922C63.0677 21.4661 63.3229 21.0104 63.6562 20.625C63.9896 20.2344 64.3932 19.9323 64.8672 19.7188C65.3411 19.5 65.8724 19.3906 66.4609 19.3906C67.0547 19.3906 67.5885 19.5 68.0625 19.7188C68.5417 19.9323 68.9479 20.2344 69.2812 20.625C69.6198 21.0104 69.8776 21.4661 70.0547 21.9922C70.2318 22.513 70.3203 23.0781 70.3203 23.6875V23.8672C70.3203 24.4766 70.2318 25.0417 70.0547 25.5625C69.8776 26.0833 69.6198 26.5391 69.2812 26.9297C68.9479 27.3151 68.5443 27.6172 68.0703 27.8359C67.6016 28.0495 67.0703 28.1562 66.4766 28.1562C65.8828 28.1562 65.349 28.0495 64.875 27.8359C64.401 27.6172 63.9948 27.3151 63.6562 26.9297C63.3229 26.5391 63.0677 26.0833 62.8906 25.5625C62.7135 25.0417 62.625 24.4766 62.625 23.8672ZM64.0703 23.6875V23.8672C64.0703 24.2891 64.1198 24.6875 64.2188 25.0625C64.3177 25.4323 64.4661 25.7604 64.6641 26.0469C64.8672 26.3333 65.1198 26.5599 65.4219 26.7266C65.724 26.888 66.0755 26.9688 66.4766 26.9688C66.8724 26.9688 67.2188 26.888 67.5156 26.7266C67.8177 26.5599 68.0677 26.3333 68.2656 26.0469C68.4635 25.7604 68.612 25.4323 68.7109 25.0625C68.8151 24.6875 68.8672 24.2891 68.8672 23.8672V23.6875C68.8672 23.2708 68.8151 22.8776 68.7109 22.5078C68.612 22.1328 68.4609 21.8021 68.2578 21.5156C68.0599 21.224 67.8099 20.9948 67.5078 20.8281C67.2109 20.6615 66.862 20.5781 66.4609 20.5781C66.0651 20.5781 65.7161 20.6615 65.4141 20.8281C65.1172 20.9948 64.8672 21.224 64.6641 21.5156C64.4661 21.8021 64.3177 22.1328 64.2188 22.5078C64.1198 22.8776 64.0703 23.2708 64.0703 23.6875ZM73.5781 20.875V28H72.1328V19.5469H73.5391L73.5781 20.875ZM76.2188 19.5L76.2109 20.8438C76.0911 20.8177 75.9766 20.8021 75.8672 20.7969C75.763 20.7865 75.6432 20.7812 75.5078 20.7812C75.1745 20.7812 74.8802 20.8333 74.625 20.9375C74.3698 21.0417 74.1536 21.1875 73.9766 21.375C73.7995 21.5625 73.6589 21.7865 73.5547 22.0469C73.4557 22.3021 73.3906 22.5833 73.3594 22.8906L72.9531 23.125C72.9531 22.6146 73.0026 22.1354 73.1016 21.6875C73.2057 21.2396 73.3646 20.8438 73.5781 20.5C73.7917 20.151 74.0625 19.8802 74.3906 19.6875C74.724 19.4896 75.1198 19.3906 75.5781 19.3906C75.6823 19.3906 75.8021 19.4036 75.9375 19.4297C76.0729 19.4505 76.1667 19.474 76.2188 19.5ZM80.9062 28.1562C80.3177 28.1562 79.7839 28.0573 79.3047 27.8594C78.8307 27.6562 78.4219 27.3724 78.0781 27.0078C77.7396 26.6432 77.4792 26.2109 77.2969 25.7109C77.1146 25.2109 77.0234 24.6641 77.0234 24.0703V23.7422C77.0234 23.0547 77.125 22.4427 77.3281 21.9062C77.5312 21.3646 77.8073 20.9062 78.1562 20.5312C78.5052 20.1562 78.901 19.8724 79.3438 19.6797C79.7865 19.487 80.2448 19.3906 80.7188 19.3906C81.3229 19.3906 81.8438 19.4948 82.2812 19.7031C82.724 19.9115 83.0859 20.2031 83.3672 20.5781C83.6484 20.9479 83.8568 21.3854 83.9922 21.8906C84.1276 22.3906 84.1953 22.9375 84.1953 23.5312V24.1797H77.8828V23H82.75V22.8906C82.7292 22.5156 82.651 22.151 82.5156 21.7969C82.3854 21.4427 82.1771 21.151 81.8906 20.9219C81.6042 20.6927 81.2135 20.5781 80.7188 20.5781C80.3906 20.5781 80.0885 20.6484 79.8125 20.7891C79.5365 20.9245 79.2995 21.1276 79.1016 21.3984C78.9036 21.6693 78.75 22 78.6406 22.3906C78.5312 22.7812 78.4766 23.2318 78.4766 23.7422V24.0703C78.4766 24.4714 78.5312 24.849 78.6406 25.2031C78.7552 25.5521 78.9193 25.8594 79.1328 26.125C79.3516 26.3906 79.6146 26.599 79.9219 26.75C80.2344 26.901 80.5885 26.9766 80.9844 26.9766C81.4948 26.9766 81.9271 26.8724 82.2812 26.6641C82.6354 26.4557 82.9453 26.1771 83.2109 25.8281L84.0859 26.5234C83.9036 26.7995 83.6719 27.0625 83.3906 27.3125C83.1094 27.5625 82.763 27.7656 82.3516 27.9219C81.9453 28.0781 81.4635 28.1562 80.9062 28.1562ZM96.9688 26.7734V28H91.2812V26.7734H96.9688ZM91.5781 16.625V28H90.0703V16.625H91.5781ZM101.984 28.1562C101.396 28.1562 100.862 28.0573 100.383 27.8594C99.9089 27.6562 99.5 27.3724 99.1562 27.0078C98.8177 26.6432 98.5573 26.2109 98.375 25.7109C98.1927 25.2109 98.1016 24.6641 98.1016 24.0703V23.7422C98.1016 23.0547 98.2031 22.4427 98.4062 21.9062C98.6094 21.3646 98.8854 20.9062 99.2344 20.5312C99.5833 20.1562 99.9792 19.8724 100.422 19.6797C100.865 19.487 101.323 19.3906 101.797 19.3906C102.401 19.3906 102.922 19.4948 103.359 19.7031C103.802 19.9115 104.164 20.2031 104.445 20.5781C104.727 20.9479 104.935 21.3854 105.07 21.8906C105.206 22.3906 105.273 22.9375 105.273 23.5312V24.1797H98.9609V23H103.828V22.8906C103.807 22.5156 103.729 22.151 103.594 21.7969C103.464 21.4427 103.255 21.151 102.969 20.9219C102.682 20.6927 102.292 20.5781 101.797 20.5781C101.469 20.5781 101.167 20.6484 100.891 20.7891C100.615 20.9245 100.378 21.1276 100.18 21.3984C99.9818 21.6693 99.8281 22 99.7188 22.3906C99.6094 22.7812 99.5547 23.2318 99.5547 23.7422V24.0703C99.5547 24.4714 99.6094 24.849 99.7188 25.2031C99.8333 25.5521 99.9974 25.8594 100.211 26.125C100.43 26.3906 100.693 26.599 101 26.75C101.312 26.901 101.667 26.9766 102.062 26.9766C102.573 26.9766 103.005 26.8724 103.359 26.6641C103.714 26.4557 104.023 26.1771 104.289 25.8281L105.164 26.5234C104.982 26.7995 104.75 27.0625 104.469 27.3125C104.188 27.5625 103.841 27.7656 103.43 27.9219C103.023 28.0781 102.542 28.1562 101.984 28.1562ZM112.438 19.5469H113.75V27.8203C113.75 28.5651 113.599 29.2005 113.297 29.7266C112.995 30.2526 112.573 30.651 112.031 30.9219C111.495 31.1979 110.875 31.3359 110.172 31.3359C109.88 31.3359 109.536 31.2891 109.141 31.1953C108.75 31.1068 108.365 30.9531 107.984 30.7344C107.609 30.5208 107.294 30.2318 107.039 29.8672L107.797 29.0078C108.151 29.4349 108.521 29.7318 108.906 29.8984C109.297 30.0651 109.682 30.1484 110.062 30.1484C110.521 30.1484 110.917 30.0625 111.25 29.8906C111.583 29.7188 111.841 29.4635 112.023 29.125C112.211 28.7917 112.305 28.3802 112.305 27.8906V21.4062L112.438 19.5469ZM106.617 23.8672V23.7031C106.617 23.0573 106.693 22.4714 106.844 21.9453C107 21.4141 107.221 20.9583 107.508 20.5781C107.799 20.1979 108.151 19.9062 108.562 19.7031C108.974 19.4948 109.438 19.3906 109.953 19.3906C110.484 19.3906 110.948 19.4844 111.344 19.6719C111.745 19.8542 112.083 20.1224 112.359 20.4766C112.641 20.8255 112.862 21.2474 113.023 21.7422C113.185 22.237 113.297 22.7969 113.359 23.4219V24.1406C113.302 24.7604 113.19 25.3177 113.023 25.8125C112.862 26.3073 112.641 26.7292 112.359 27.0781C112.083 27.4271 111.745 27.6953 111.344 27.8828C110.943 28.0651 110.474 28.1562 109.938 28.1562C109.432 28.1562 108.974 28.0495 108.562 27.8359C108.156 27.6224 107.807 27.3229 107.516 26.9375C107.224 26.5521 107 26.099 106.844 25.5781C106.693 25.0521 106.617 24.4818 106.617 23.8672ZM108.062 23.7031V23.8672C108.062 24.2891 108.104 24.6849 108.188 25.0547C108.276 25.4245 108.409 25.75 108.586 26.0312C108.768 26.3125 109 26.5339 109.281 26.6953C109.562 26.8516 109.898 26.9297 110.289 26.9297C110.768 26.9297 111.164 26.8281 111.477 26.625C111.789 26.4219 112.036 26.1536 112.219 25.8203C112.406 25.487 112.552 25.125 112.656 24.7344V22.8516C112.599 22.5651 112.51 22.2891 112.391 22.0234C112.276 21.7526 112.125 21.513 111.938 21.3047C111.755 21.0911 111.529 20.9219 111.258 20.7969C110.987 20.6719 110.669 20.6094 110.305 20.6094C109.909 20.6094 109.568 20.6927 109.281 20.8594C109 21.0208 108.768 21.2448 108.586 21.5312C108.409 21.8125 108.276 22.1406 108.188 22.5156C108.104 22.8854 108.062 23.2812 108.062 23.7031ZM120.93 26.5547V22.2031C120.93 21.8698 120.862 21.5807 120.727 21.3359C120.596 21.0859 120.398 20.8932 120.133 20.7578C119.867 20.6224 119.539 20.5547 119.148 20.5547C118.784 20.5547 118.464 20.6172 118.188 20.7422C117.917 20.8672 117.703 21.0312 117.547 21.2344C117.396 21.4375 117.32 21.6562 117.32 21.8906H115.875C115.875 21.5885 115.953 21.2891 116.109 20.9922C116.266 20.6953 116.49 20.4271 116.781 20.1875C117.078 19.9427 117.432 19.75 117.844 19.6094C118.26 19.4635 118.724 19.3906 119.234 19.3906C119.849 19.3906 120.391 19.4948 120.859 19.7031C121.333 19.9115 121.703 20.2266 121.969 20.6484C122.24 21.0651 122.375 21.5885 122.375 22.2188V26.1562C122.375 26.4375 122.398 26.737 122.445 27.0547C122.497 27.3724 122.573 27.6458 122.672 27.875V28H121.164C121.091 27.8333 121.034 27.612 120.992 27.3359C120.951 27.0547 120.93 26.7943 120.93 26.5547ZM121.18 22.875L121.195 23.8906H119.734C119.323 23.8906 118.956 23.9245 118.633 23.9922C118.31 24.0547 118.039 24.151 117.82 24.2812C117.602 24.4115 117.435 24.5755 117.32 24.7734C117.206 24.9661 117.148 25.1927 117.148 25.4531C117.148 25.7188 117.208 25.9609 117.328 26.1797C117.448 26.3984 117.628 26.5729 117.867 26.7031C118.112 26.8281 118.411 26.8906 118.766 26.8906C119.208 26.8906 119.599 26.7969 119.938 26.6094C120.276 26.4219 120.544 26.1927 120.742 25.9219C120.945 25.651 121.055 25.388 121.07 25.1328L121.688 25.8281C121.651 26.0469 121.552 26.2891 121.391 26.5547C121.229 26.8203 121.013 27.0755 120.742 27.3203C120.477 27.5599 120.159 27.7604 119.789 27.9219C119.424 28.0781 119.013 28.1562 118.555 28.1562C117.982 28.1562 117.479 28.0443 117.047 27.8203C116.62 27.5964 116.286 27.2969 116.047 26.9219C115.812 26.5417 115.695 26.1172 115.695 25.6484C115.695 25.1953 115.784 24.7969 115.961 24.4531C116.138 24.1042 116.393 23.8151 116.727 23.5859C117.06 23.3516 117.461 23.1745 117.93 23.0547C118.398 22.9349 118.922 22.875 119.5 22.875H121.18ZM126.219 16V28H124.766V16H126.219ZM138.789 25.125C138.789 24.8594 138.747 24.625 138.664 24.4219C138.586 24.2135 138.445 24.026 138.242 23.8594C138.044 23.6927 137.768 23.5339 137.414 23.3828C137.065 23.2318 136.622 23.0781 136.086 22.9219C135.523 22.7552 135.016 22.5703 134.562 22.3672C134.109 22.1589 133.721 21.9219 133.398 21.6562C133.076 21.3906 132.828 21.0859 132.656 20.7422C132.484 20.3984 132.398 20.0052 132.398 19.5625C132.398 19.1198 132.49 18.7109 132.672 18.3359C132.854 17.9609 133.115 17.6354 133.453 17.3594C133.797 17.0781 134.206 16.8594 134.68 16.7031C135.154 16.5469 135.682 16.4688 136.266 16.4688C137.12 16.4688 137.844 16.6328 138.438 16.9609C139.036 17.2839 139.492 17.7083 139.805 18.2344C140.117 18.7552 140.273 19.3125 140.273 19.9062H138.773C138.773 19.4792 138.682 19.1016 138.5 18.7734C138.318 18.4401 138.042 18.1797 137.672 17.9922C137.302 17.7995 136.833 17.7031 136.266 17.7031C135.729 17.7031 135.286 17.7839 134.938 17.9453C134.589 18.1068 134.328 18.3255 134.156 18.6016C133.99 18.8776 133.906 19.1927 133.906 19.5469C133.906 19.7865 133.956 20.0052 134.055 20.2031C134.159 20.3958 134.318 20.5755 134.531 20.7422C134.75 20.9089 135.026 21.0625 135.359 21.2031C135.698 21.3438 136.102 21.4792 136.57 21.6094C137.216 21.7917 137.773 21.9948 138.242 22.2188C138.711 22.4427 139.096 22.6953 139.398 22.9766C139.706 23.2526 139.932 23.5677 140.078 23.9219C140.229 24.2708 140.305 24.6667 140.305 25.1094C140.305 25.5729 140.211 25.9922 140.023 26.3672C139.836 26.7422 139.568 27.0625 139.219 27.3281C138.87 27.5938 138.451 27.7995 137.961 27.9453C137.477 28.0859 136.935 28.1562 136.336 28.1562C135.81 28.1562 135.292 28.0833 134.781 27.9375C134.276 27.7917 133.815 27.5729 133.398 27.2812C132.987 26.9896 132.656 26.6302 132.406 26.2031C132.161 25.7708 132.039 25.2708 132.039 24.7031H133.539C133.539 25.0938 133.615 25.4297 133.766 25.7109C133.917 25.987 134.122 26.2161 134.383 26.3984C134.648 26.5807 134.948 26.7161 135.281 26.8047C135.62 26.888 135.971 26.9297 136.336 26.9297C136.862 26.9297 137.307 26.8568 137.672 26.7109C138.036 26.5651 138.312 26.3568 138.5 26.0859C138.693 25.8151 138.789 25.4948 138.789 25.125ZM145.516 28.1562C144.927 28.1562 144.393 28.0573 143.914 27.8594C143.44 27.6562 143.031 27.3724 142.688 27.0078C142.349 26.6432 142.089 26.2109 141.906 25.7109C141.724 25.2109 141.633 24.6641 141.633 24.0703V23.7422C141.633 23.0547 141.734 22.4427 141.938 21.9062C142.141 21.3646 142.417 20.9062 142.766 20.5312C143.115 20.1562 143.51 19.8724 143.953 19.6797C144.396 19.487 144.854 19.3906 145.328 19.3906C145.932 19.3906 146.453 19.4948 146.891 19.7031C147.333 19.9115 147.695 20.2031 147.977 20.5781C148.258 20.9479 148.466 21.3854 148.602 21.8906C148.737 22.3906 148.805 22.9375 148.805 23.5312V24.1797H142.492V23H147.359V22.8906C147.339 22.5156 147.26 22.151 147.125 21.7969C146.995 21.4427 146.786 21.151 146.5 20.9219C146.214 20.6927 145.823 20.5781 145.328 20.5781C145 20.5781 144.698 20.6484 144.422 20.7891C144.146 20.9245 143.909 21.1276 143.711 21.3984C143.513 21.6693 143.359 22 143.25 22.3906C143.141 22.7812 143.086 23.2318 143.086 23.7422V24.0703C143.086 24.4714 143.141 24.849 143.25 25.2031C143.365 25.5521 143.529 25.8594 143.742 26.125C143.961 26.3906 144.224 26.599 144.531 26.75C144.844 26.901 145.198 26.9766 145.594 26.9766C146.104 26.9766 146.536 26.8724 146.891 26.6641C147.245 26.4557 147.555 26.1771 147.82 25.8281L148.695 26.5234C148.513 26.7995 148.281 27.0625 148 27.3125C147.719 27.5625 147.372 27.7656 146.961 27.9219C146.555 28.0781 146.073 28.1562 145.516 28.1562ZM151.938 20.875V28H150.492V19.5469H151.898L151.938 20.875ZM154.578 19.5L154.57 20.8438C154.451 20.8177 154.336 20.8021 154.227 20.7969C154.122 20.7865 154.003 20.7812 153.867 20.7812C153.534 20.7812 153.24 20.8333 152.984 20.9375C152.729 21.0417 152.513 21.1875 152.336 21.375C152.159 21.5625 152.018 21.7865 151.914 22.0469C151.815 22.3021 151.75 22.5833 151.719 22.8906L151.312 23.125C151.312 22.6146 151.362 22.1354 151.461 21.6875C151.565 21.2396 151.724 20.8438 151.938 20.5C152.151 20.151 152.422 19.8802 152.75 19.6875C153.083 19.4896 153.479 19.3906 153.938 19.3906C154.042 19.3906 154.161 19.4036 154.297 19.4297C154.432 19.4505 154.526 19.474 154.578 19.5ZM158.625 26.6953L160.938 19.5469H162.414L159.375 28H158.406L158.625 26.6953ZM156.695 19.5469L159.078 26.7344L159.242 28H158.273L155.211 19.5469H156.695ZM165.375 19.5469V28H163.922V19.5469H165.375ZM163.812 17.3047C163.812 17.0703 163.883 16.8724 164.023 16.7109C164.169 16.5495 164.383 16.4688 164.664 16.4688C164.94 16.4688 165.151 16.5495 165.297 16.7109C165.448 16.8724 165.523 17.0703 165.523 17.3047C165.523 17.5286 165.448 17.7214 165.297 17.8828C165.151 18.0391 164.94 18.1172 164.664 18.1172C164.383 18.1172 164.169 18.0391 164.023 17.8828C163.883 17.7214 163.812 17.5286 163.812 17.3047ZM171.078 26.9688C171.422 26.9688 171.74 26.8984 172.031 26.7578C172.323 26.6172 172.562 26.4245 172.75 26.1797C172.938 25.9297 173.044 25.6458 173.07 25.3281H174.445C174.419 25.8281 174.25 26.2943 173.938 26.7266C173.63 27.1536 173.227 27.5 172.727 27.7656C172.227 28.026 171.677 28.1562 171.078 28.1562C170.443 28.1562 169.888 28.0443 169.414 27.8203C168.945 27.5964 168.555 27.2891 168.242 26.8984C167.935 26.5078 167.703 26.0599 167.547 25.5547C167.396 25.0443 167.32 24.5052 167.32 23.9375V23.6094C167.32 23.0417 167.396 22.5052 167.547 22C167.703 21.4896 167.935 21.0391 168.242 20.6484C168.555 20.2578 168.945 19.9505 169.414 19.7266C169.888 19.5026 170.443 19.3906 171.078 19.3906C171.74 19.3906 172.318 19.526 172.812 19.7969C173.307 20.0625 173.695 20.4271 173.977 20.8906C174.263 21.349 174.419 21.8698 174.445 22.4531H173.07C173.044 22.1042 172.945 21.7891 172.773 21.5078C172.607 21.2266 172.378 21.0026 172.086 20.8359C171.799 20.6641 171.464 20.5781 171.078 20.5781C170.635 20.5781 170.263 20.6667 169.961 20.8438C169.664 21.0156 169.427 21.25 169.25 21.5469C169.078 21.8385 168.953 22.1641 168.875 22.5234C168.802 22.8776 168.766 23.2396 168.766 23.6094V23.9375C168.766 24.3073 168.802 24.6719 168.875 25.0312C168.948 25.3906 169.07 25.7161 169.242 26.0078C169.419 26.2995 169.656 26.5339 169.953 26.7109C170.255 26.8828 170.63 26.9688 171.078 26.9688ZM179.578 28.1562C178.99 28.1562 178.456 28.0573 177.977 27.8594C177.503 27.6562 177.094 27.3724 176.75 27.0078C176.411 26.6432 176.151 26.2109 175.969 25.7109C175.786 25.2109 175.695 24.6641 175.695 24.0703V23.7422C175.695 23.0547 175.797 22.4427 176 21.9062C176.203 21.3646 176.479 20.9062 176.828 20.5312C177.177 20.1562 177.573 19.8724 178.016 19.6797C178.458 19.487 178.917 19.3906 179.391 19.3906C179.995 19.3906 180.516 19.4948 180.953 19.7031C181.396 19.9115 181.758 20.2031 182.039 20.5781C182.32 20.9479 182.529 21.3854 182.664 21.8906C182.799 22.3906 182.867 22.9375 182.867 23.5312V24.1797H176.555V23H181.422V22.8906C181.401 22.5156 181.323 22.151 181.188 21.7969C181.057 21.4427 180.849 21.151 180.562 20.9219C180.276 20.6927 179.885 20.5781 179.391 20.5781C179.062 20.5781 178.76 20.6484 178.484 20.7891C178.208 20.9245 177.971 21.1276 177.773 21.3984C177.576 21.6693 177.422 22 177.312 22.3906C177.203 22.7812 177.148 23.2318 177.148 23.7422V24.0703C177.148 24.4714 177.203 24.849 177.312 25.2031C177.427 25.5521 177.591 25.8594 177.805 26.125C178.023 26.3906 178.286 26.599 178.594 26.75C178.906 26.901 179.26 26.9766 179.656 26.9766C180.167 26.9766 180.599 26.8724 180.953 26.6641C181.307 26.4557 181.617 26.1771 181.883 25.8281L182.758 26.5234C182.576 26.7995 182.344 27.0625 182.062 27.3125C181.781 27.5625 181.435 27.7656 181.023 27.9219C180.617 28.0781 180.135 28.1562 179.578 28.1562Z" fill="#2E31CA"/>
<path d="M200.5 20.1428V26.6428C200.5 26.7754 200.448 26.9026 200.354 26.9964C200.26 27.0901 200.133 27.1428 200 27.1428C199.868 27.1428 199.74 27.0901 199.647 26.9964C199.553 26.9026 199.5 26.7754 199.5 26.6428V21.3497L192.354 28.4966C192.26 28.5904 192.133 28.6431 192 28.6431C191.868 28.6431 191.74 28.5904 191.647 28.4966C191.553 28.4028 191.5 28.2755 191.5 28.1428C191.5 28.0101 191.553 27.8829 191.647 27.7891L198.793 20.6428H193.5C193.368 20.6428 193.24 20.5901 193.147 20.4964C193.053 20.4026 193 20.2754 193 20.1428C193 20.0102 193.053 19.883 193.147 19.7893C193.24 19.6955 193.368 19.6428 193.5 19.6428H200C200.133 19.6428 200.26 19.6955 200.354 19.7893C200.448 19.883 200.5 20.0102 200.5 20.1428Z" fill="#2E31CA"/>
</svg>
