<svg width="219" height="46" viewBox="0 0 219 46" fill="none" xmlns="http://www.w3.org/2000/svg">
<rect width="3" height="46" fill="#2E31CA"/>
<rect x="7" width="5" height="46" fill="#2E31CA"/>
<rect width="203" height="45" transform="translate(16 0.5)" fill="#2E31CA"/>
<path d="M40.5469 27.2734V28.5H34.5234V27.2734H40.5469ZM34.8281 17.125V28.5H33.3203V17.125H34.8281ZM39.75 22.0156V23.2422H34.5234V22.0156H39.75ZM40.4688 17.125V18.3594H34.5234V17.125H40.4688ZM43.1719 20.0469L45.0234 23.125L46.8984 20.0469H48.5938L45.8281 24.2188L48.6797 28.5H47.0078L45.0547 25.3281L43.1016 28.5H41.4219L44.2656 24.2188L41.5078 20.0469H43.1719ZM51.5781 21.6719V31.75H50.125V20.0469H51.4531L51.5781 21.6719ZM57.2734 24.2031V24.3672C57.2734 24.9818 57.2005 25.5521 57.0547 26.0781C56.9089 26.599 56.6953 27.0521 56.4141 27.4375C56.138 27.8229 55.7969 28.1224 55.3906 28.3359C54.9844 28.5495 54.5182 28.6562 53.9922 28.6562C53.4557 28.6562 52.9818 28.5677 52.5703 28.3906C52.1589 28.2135 51.8099 27.9557 51.5234 27.6172C51.237 27.2786 51.0078 26.8724 50.8359 26.3984C50.6693 25.9245 50.5547 25.3906 50.4922 24.7969V23.9219C50.5547 23.2969 50.6719 22.737 50.8438 22.2422C51.0156 21.7474 51.2422 21.3255 51.5234 20.9766C51.8099 20.6224 52.1562 20.3542 52.5625 20.1719C52.9688 19.9844 53.4375 19.8906 53.9688 19.8906C54.5 19.8906 54.9714 19.9948 55.3828 20.2031C55.7943 20.4062 56.1406 20.6979 56.4219 21.0781C56.7031 21.4583 56.9141 21.9141 57.0547 22.4453C57.2005 22.9714 57.2734 23.5573 57.2734 24.2031ZM55.8203 24.3672V24.2031C55.8203 23.7812 55.776 23.3854 55.6875 23.0156C55.599 22.6406 55.4609 22.3125 55.2734 22.0312C55.0911 21.7448 54.8568 21.5208 54.5703 21.3594C54.2839 21.1927 53.9427 21.1094 53.5469 21.1094C53.1823 21.1094 52.8646 21.1719 52.5938 21.2969C52.3281 21.4219 52.1016 21.5911 51.9141 21.8047C51.7266 22.013 51.5729 22.2526 51.4531 22.5234C51.3385 22.7891 51.2526 23.0651 51.1953 23.3516V25.375C51.2995 25.7396 51.4453 26.0833 51.6328 26.4062C51.8203 26.724 52.0703 26.9818 52.3828 27.1797C52.6953 27.3724 53.0885 27.4688 53.5625 27.4688C53.9531 27.4688 54.2891 27.388 54.5703 27.2266C54.8568 27.0599 55.0911 26.8333 55.2734 26.5469C55.4609 26.2604 55.599 25.9323 55.6875 25.5625C55.776 25.1875 55.8203 24.7891 55.8203 24.3672ZM60.6875 16.5V28.5H59.2344V16.5H60.6875ZM62.625 24.3672V24.1875C62.625 23.5781 62.7135 23.013 62.8906 22.4922C63.0677 21.9661 63.3229 21.5104 63.6562 21.125C63.9896 20.7344 64.3932 20.4323 64.8672 20.2188C65.3411 20 65.8724 19.8906 66.4609 19.8906C67.0547 19.8906 67.5885 20 68.0625 20.2188C68.5417 20.4323 68.9479 20.7344 69.2812 21.125C69.6198 21.5104 69.8776 21.9661 70.0547 22.4922C70.2318 23.013 70.3203 23.5781 70.3203 24.1875V24.3672C70.3203 24.9766 70.2318 25.5417 70.0547 26.0625C69.8776 26.5833 69.6198 27.0391 69.2812 27.4297C68.9479 27.8151 68.5443 28.1172 68.0703 28.3359C67.6016 28.5495 67.0703 28.6562 66.4766 28.6562C65.8828 28.6562 65.349 28.5495 64.875 28.3359C64.401 28.1172 63.9948 27.8151 63.6562 27.4297C63.3229 27.0391 63.0677 26.5833 62.8906 26.0625C62.7135 25.5417 62.625 24.9766 62.625 24.3672ZM64.0703 24.1875V24.3672C64.0703 24.7891 64.1198 25.1875 64.2188 25.5625C64.3177 25.9323 64.4661 26.2604 64.6641 26.5469C64.8672 26.8333 65.1198 27.0599 65.4219 27.2266C65.724 27.388 66.0755 27.4688 66.4766 27.4688C66.8724 27.4688 67.2188 27.388 67.5156 27.2266C67.8177 27.0599 68.0677 26.8333 68.2656 26.5469C68.4635 26.2604 68.612 25.9323 68.7109 25.5625C68.8151 25.1875 68.8672 24.7891 68.8672 24.3672V24.1875C68.8672 23.7708 68.8151 23.3776 68.7109 23.0078C68.612 22.6328 68.4609 22.3021 68.2578 22.0156C68.0599 21.724 67.8099 21.4948 67.5078 21.3281C67.2109 21.1615 66.862 21.0781 66.4609 21.0781C66.0651 21.0781 65.7161 21.1615 65.4141 21.3281C65.1172 21.4948 64.8672 21.724 64.6641 22.0156C64.4661 22.3021 64.3177 22.6328 64.2188 23.0078C64.1198 23.3776 64.0703 23.7708 64.0703 24.1875ZM73.5781 21.375V28.5H72.1328V20.0469H73.5391L73.5781 21.375ZM76.2188 20L76.2109 21.3438C76.0911 21.3177 75.9766 21.3021 75.8672 21.2969C75.763 21.2865 75.6432 21.2812 75.5078 21.2812C75.1745 21.2812 74.8802 21.3333 74.625 21.4375C74.3698 21.5417 74.1536 21.6875 73.9766 21.875C73.7995 22.0625 73.6589 22.2865 73.5547 22.5469C73.4557 22.8021 73.3906 23.0833 73.3594 23.3906L72.9531 23.625C72.9531 23.1146 73.0026 22.6354 73.1016 22.1875C73.2057 21.7396 73.3646 21.3438 73.5781 21C73.7917 20.651 74.0625 20.3802 74.3906 20.1875C74.724 19.9896 75.1198 19.8906 75.5781 19.8906C75.6823 19.8906 75.8021 19.9036 75.9375 19.9297C76.0729 19.9505 76.1667 19.974 76.2188 20ZM80.9062 28.6562C80.3177 28.6562 79.7839 28.5573 79.3047 28.3594C78.8307 28.1562 78.4219 27.8724 78.0781 27.5078C77.7396 27.1432 77.4792 26.7109 77.2969 26.2109C77.1146 25.7109 77.0234 25.1641 77.0234 24.5703V24.2422C77.0234 23.5547 77.125 22.9427 77.3281 22.4062C77.5312 21.8646 77.8073 21.4062 78.1562 21.0312C78.5052 20.6562 78.901 20.3724 79.3438 20.1797C79.7865 19.987 80.2448 19.8906 80.7188 19.8906C81.3229 19.8906 81.8438 19.9948 82.2812 20.2031C82.724 20.4115 83.0859 20.7031 83.3672 21.0781C83.6484 21.4479 83.8568 21.8854 83.9922 22.3906C84.1276 22.8906 84.1953 23.4375 84.1953 24.0312V24.6797H77.8828V23.5H82.75V23.3906C82.7292 23.0156 82.651 22.651 82.5156 22.2969C82.3854 21.9427 82.1771 21.651 81.8906 21.4219C81.6042 21.1927 81.2135 21.0781 80.7188 21.0781C80.3906 21.0781 80.0885 21.1484 79.8125 21.2891C79.5365 21.4245 79.2995 21.6276 79.1016 21.8984C78.9036 22.1693 78.75 22.5 78.6406 22.8906C78.5312 23.2812 78.4766 23.7318 78.4766 24.2422V24.5703C78.4766 24.9714 78.5312 25.349 78.6406 25.7031C78.7552 26.0521 78.9193 26.3594 79.1328 26.625C79.3516 26.8906 79.6146 27.099 79.9219 27.25C80.2344 27.401 80.5885 27.4766 80.9844 27.4766C81.4948 27.4766 81.9271 27.3724 82.2812 27.1641C82.6354 26.9557 82.9453 26.6771 83.2109 26.3281L84.0859 27.0234C83.9036 27.2995 83.6719 27.5625 83.3906 27.8125C83.1094 28.0625 82.763 28.2656 82.3516 28.4219C81.9453 28.5781 81.4635 28.6562 80.9062 28.6562ZM91.4219 16.5V28.5H89.9688V16.5H91.4219ZM97.25 28.6562C96.6615 28.6562 96.1276 28.5573 95.6484 28.3594C95.1745 28.1562 94.7656 27.8724 94.4219 27.5078C94.0833 27.1432 93.8229 26.7109 93.6406 26.2109C93.4583 25.7109 93.3672 25.1641 93.3672 24.5703V24.2422C93.3672 23.5547 93.4688 22.9427 93.6719 22.4062C93.875 21.8646 94.151 21.4062 94.5 21.0312C94.849 20.6562 95.2448 20.3724 95.6875 20.1797C96.1302 19.987 96.5885 19.8906 97.0625 19.8906C97.6667 19.8906 98.1875 19.9948 98.625 20.2031C99.0677 20.4115 99.4297 20.7031 99.7109 21.0781C99.9922 21.4479 100.201 21.8854 100.336 22.3906C100.471 22.8906 100.539 23.4375 100.539 24.0312V24.6797H94.2266V23.5H99.0938V23.3906C99.0729 23.0156 98.9948 22.651 98.8594 22.2969C98.7292 21.9427 98.5208 21.651 98.2344 21.4219C97.9479 21.1927 97.5573 21.0781 97.0625 21.0781C96.7344 21.0781 96.4323 21.1484 96.1562 21.2891C95.8802 21.4245 95.6432 21.6276 95.4453 21.8984C95.2474 22.1693 95.0938 22.5 94.9844 22.8906C94.875 23.2812 94.8203 23.7318 94.8203 24.2422V24.5703C94.8203 24.9714 94.875 25.349 94.9844 25.7031C95.099 26.0521 95.263 26.3594 95.4766 26.625C95.6953 26.8906 95.9583 27.099 96.2656 27.25C96.5781 27.401 96.9323 27.4766 97.3281 27.4766C97.8385 27.4766 98.2708 27.3724 98.625 27.1641C98.9792 26.9557 99.2891 26.6771 99.5547 26.3281L100.43 27.0234C100.247 27.2995 100.016 27.5625 99.7344 27.8125C99.4531 28.0625 99.1068 28.2656 98.6953 28.4219C98.2891 28.5781 97.8073 28.6562 97.25 28.6562ZM107.703 20.0469H109.016V28.3203C109.016 29.0651 108.865 29.7005 108.562 30.2266C108.26 30.7526 107.839 31.151 107.297 31.4219C106.76 31.6979 106.141 31.8359 105.438 31.8359C105.146 31.8359 104.802 31.7891 104.406 31.6953C104.016 31.6068 103.63 31.4531 103.25 31.2344C102.875 31.0208 102.56 30.7318 102.305 30.3672L103.062 29.5078C103.417 29.9349 103.786 30.2318 104.172 30.3984C104.562 30.5651 104.948 30.6484 105.328 30.6484C105.786 30.6484 106.182 30.5625 106.516 30.3906C106.849 30.2188 107.107 29.9635 107.289 29.625C107.477 29.2917 107.57 28.8802 107.57 28.3906V21.9062L107.703 20.0469ZM101.883 24.3672V24.2031C101.883 23.5573 101.958 22.9714 102.109 22.4453C102.266 21.9141 102.487 21.4583 102.773 21.0781C103.065 20.6979 103.417 20.4062 103.828 20.2031C104.24 19.9948 104.703 19.8906 105.219 19.8906C105.75 19.8906 106.214 19.9844 106.609 20.1719C107.01 20.3542 107.349 20.6224 107.625 20.9766C107.906 21.3255 108.128 21.7474 108.289 22.2422C108.451 22.737 108.562 23.2969 108.625 23.9219V24.6406C108.568 25.2604 108.456 25.8177 108.289 26.3125C108.128 26.8073 107.906 27.2292 107.625 27.5781C107.349 27.9271 107.01 28.1953 106.609 28.3828C106.208 28.5651 105.74 28.6562 105.203 28.6562C104.698 28.6562 104.24 28.5495 103.828 28.3359C103.422 28.1224 103.073 27.8229 102.781 27.4375C102.49 27.0521 102.266 26.599 102.109 26.0781C101.958 25.5521 101.883 24.9818 101.883 24.3672ZM103.328 24.2031V24.3672C103.328 24.7891 103.37 25.1849 103.453 25.5547C103.542 25.9245 103.674 26.25 103.852 26.5312C104.034 26.8125 104.266 27.0339 104.547 27.1953C104.828 27.3516 105.164 27.4297 105.555 27.4297C106.034 27.4297 106.43 27.3281 106.742 27.125C107.055 26.9219 107.302 26.6536 107.484 26.3203C107.672 25.987 107.818 25.625 107.922 25.2344V23.3516C107.865 23.0651 107.776 22.7891 107.656 22.5234C107.542 22.2526 107.391 22.013 107.203 21.8047C107.021 21.5911 106.794 21.4219 106.523 21.2969C106.253 21.1719 105.935 21.1094 105.57 21.1094C105.174 21.1094 104.833 21.1927 104.547 21.3594C104.266 21.5208 104.034 21.7448 103.852 22.0312C103.674 22.3125 103.542 22.6406 103.453 23.0156C103.37 23.3854 103.328 23.7812 103.328 24.2031ZM116.195 27.0547V22.7031C116.195 22.3698 116.128 22.0807 115.992 21.8359C115.862 21.5859 115.664 21.3932 115.398 21.2578C115.133 21.1224 114.805 21.0547 114.414 21.0547C114.049 21.0547 113.729 21.1172 113.453 21.2422C113.182 21.3672 112.969 21.5312 112.812 21.7344C112.661 21.9375 112.586 22.1562 112.586 22.3906H111.141C111.141 22.0885 111.219 21.7891 111.375 21.4922C111.531 21.1953 111.755 20.9271 112.047 20.6875C112.344 20.4427 112.698 20.25 113.109 20.1094C113.526 19.9635 113.99 19.8906 114.5 19.8906C115.115 19.8906 115.656 19.9948 116.125 20.2031C116.599 20.4115 116.969 20.7266 117.234 21.1484C117.505 21.5651 117.641 22.0885 117.641 22.7188V26.6562C117.641 26.9375 117.664 27.237 117.711 27.5547C117.763 27.8724 117.839 28.1458 117.938 28.375V28.5H116.43C116.357 28.3333 116.299 28.112 116.258 27.8359C116.216 27.5547 116.195 27.2943 116.195 27.0547ZM116.445 23.375L116.461 24.3906H115C114.589 24.3906 114.221 24.4245 113.898 24.4922C113.576 24.5547 113.305 24.651 113.086 24.7812C112.867 24.9115 112.701 25.0755 112.586 25.2734C112.471 25.4661 112.414 25.6927 112.414 25.9531C112.414 26.2188 112.474 26.4609 112.594 26.6797C112.714 26.8984 112.893 27.0729 113.133 27.2031C113.378 27.3281 113.677 27.3906 114.031 27.3906C114.474 27.3906 114.865 27.2969 115.203 27.1094C115.542 26.9219 115.81 26.6927 116.008 26.4219C116.211 26.151 116.32 25.888 116.336 25.6328L116.953 26.3281C116.917 26.5469 116.818 26.7891 116.656 27.0547C116.495 27.3203 116.279 27.5755 116.008 27.8203C115.742 28.0599 115.424 28.2604 115.055 28.4219C114.69 28.5781 114.279 28.6562 113.82 28.6562C113.247 28.6562 112.745 28.5443 112.312 28.3203C111.885 28.0964 111.552 27.7969 111.312 27.4219C111.078 27.0417 110.961 26.6172 110.961 26.1484C110.961 25.6953 111.049 25.2969 111.227 24.9531C111.404 24.6042 111.659 24.3151 111.992 24.0859C112.326 23.8516 112.727 23.6745 113.195 23.5547C113.664 23.4349 114.188 23.375 114.766 23.375H116.445ZM121.484 16.5V28.5H120.031V16.5H121.484ZM129.344 20.0469V28.5H127.891V20.0469H129.344ZM127.781 17.8047C127.781 17.5703 127.852 17.3724 127.992 17.2109C128.138 17.0495 128.352 16.9688 128.633 16.9688C128.909 16.9688 129.12 17.0495 129.266 17.2109C129.417 17.3724 129.492 17.5703 129.492 17.8047C129.492 18.0286 129.417 18.2214 129.266 18.3828C129.12 18.5391 128.909 18.6172 128.633 18.6172C128.352 18.6172 128.138 18.5391 127.992 18.3828C127.852 18.2214 127.781 18.0286 127.781 17.8047ZM133.109 21.8516V28.5H131.664V20.0469H133.031L133.109 21.8516ZM132.766 23.9531L132.164 23.9297C132.169 23.3516 132.255 22.8177 132.422 22.3281C132.589 21.8333 132.823 21.4036 133.125 21.0391C133.427 20.6745 133.786 20.3932 134.203 20.1953C134.625 19.9922 135.091 19.8906 135.602 19.8906C136.018 19.8906 136.393 19.9479 136.727 20.0625C137.06 20.1719 137.344 20.349 137.578 20.5938C137.818 20.8385 138 21.1562 138.125 21.5469C138.25 21.9323 138.312 22.4036 138.312 22.9609V28.5H136.859V22.9453C136.859 22.5026 136.794 22.1484 136.664 21.8828C136.534 21.612 136.344 21.4167 136.094 21.2969C135.844 21.1719 135.536 21.1094 135.172 21.1094C134.812 21.1094 134.484 21.1849 134.188 21.3359C133.896 21.487 133.643 21.6953 133.43 21.9609C133.221 22.2266 133.057 22.5312 132.938 22.875C132.823 23.2135 132.766 23.5729 132.766 23.9531ZM145.43 26.2578C145.43 26.0495 145.383 25.8568 145.289 25.6797C145.201 25.4974 145.016 25.3333 144.734 25.1875C144.458 25.0365 144.042 24.9062 143.484 24.7969C143.016 24.6979 142.591 24.5807 142.211 24.4453C141.836 24.3099 141.516 24.1458 141.25 23.9531C140.99 23.7604 140.789 23.5339 140.648 23.2734C140.508 23.013 140.438 22.7083 140.438 22.3594C140.438 22.026 140.51 21.7109 140.656 21.4141C140.807 21.1172 141.018 20.8542 141.289 20.625C141.565 20.3958 141.896 20.2161 142.281 20.0859C142.667 19.9557 143.096 19.8906 143.57 19.8906C144.247 19.8906 144.826 20.0104 145.305 20.25C145.784 20.4896 146.151 20.8099 146.406 21.2109C146.661 21.6068 146.789 22.0469 146.789 22.5312H145.344C145.344 22.2969 145.273 22.0703 145.133 21.8516C144.997 21.6276 144.797 21.4427 144.531 21.2969C144.271 21.151 143.951 21.0781 143.57 21.0781C143.169 21.0781 142.844 21.1406 142.594 21.2656C142.349 21.3854 142.169 21.5391 142.055 21.7266C141.945 21.9141 141.891 22.112 141.891 22.3203C141.891 22.4766 141.917 22.6172 141.969 22.7422C142.026 22.862 142.125 22.974 142.266 23.0781C142.406 23.1771 142.604 23.2708 142.859 23.3594C143.115 23.4479 143.44 23.5365 143.836 23.625C144.529 23.7812 145.099 23.9688 145.547 24.1875C145.995 24.4062 146.328 24.6745 146.547 24.9922C146.766 25.3099 146.875 25.6953 146.875 26.1484C146.875 26.5182 146.797 26.8568 146.641 27.1641C146.49 27.4714 146.268 27.737 145.977 27.9609C145.69 28.1797 145.346 28.3516 144.945 28.4766C144.549 28.5964 144.104 28.6562 143.609 28.6562C142.865 28.6562 142.234 28.5234 141.719 28.2578C141.203 27.9922 140.812 27.6484 140.547 27.2266C140.281 26.8047 140.148 26.3594 140.148 25.8906H141.602C141.622 26.2865 141.737 26.6016 141.945 26.8359C142.154 27.0651 142.409 27.2292 142.711 27.3281C143.013 27.4219 143.312 27.4688 143.609 27.4688C144.005 27.4688 144.336 27.4167 144.602 27.3125C144.872 27.2083 145.078 27.0651 145.219 26.8828C145.359 26.7005 145.43 26.4922 145.43 26.2578ZM150.344 20.0469V28.5H148.891V20.0469H150.344ZM148.781 17.8047C148.781 17.5703 148.852 17.3724 148.992 17.2109C149.138 17.0495 149.352 16.9688 149.633 16.9688C149.909 16.9688 150.12 17.0495 150.266 17.2109C150.417 17.3724 150.492 17.5703 150.492 17.8047C150.492 18.0286 150.417 18.2214 150.266 18.3828C150.12 18.5391 149.909 18.6172 149.633 18.6172C149.352 18.6172 149.138 18.5391 148.992 18.3828C148.852 18.2214 148.781 18.0286 148.781 17.8047ZM158.141 20.0469H159.453V28.3203C159.453 29.0651 159.302 29.7005 159 30.2266C158.698 30.7526 158.276 31.151 157.734 31.4219C157.198 31.6979 156.578 31.8359 155.875 31.8359C155.583 31.8359 155.24 31.7891 154.844 31.6953C154.453 31.6068 154.068 31.4531 153.688 31.2344C153.312 31.0208 152.997 30.7318 152.742 30.3672L153.5 29.5078C153.854 29.9349 154.224 30.2318 154.609 30.3984C155 30.5651 155.385 30.6484 155.766 30.6484C156.224 30.6484 156.62 30.5625 156.953 30.3906C157.286 30.2188 157.544 29.9635 157.727 29.625C157.914 29.2917 158.008 28.8802 158.008 28.3906V21.9062L158.141 20.0469ZM152.32 24.3672V24.2031C152.32 23.5573 152.396 22.9714 152.547 22.4453C152.703 21.9141 152.924 21.4583 153.211 21.0781C153.503 20.6979 153.854 20.4062 154.266 20.2031C154.677 19.9948 155.141 19.8906 155.656 19.8906C156.188 19.8906 156.651 19.9844 157.047 20.1719C157.448 20.3542 157.786 20.6224 158.062 20.9766C158.344 21.3255 158.565 21.7474 158.727 22.2422C158.888 22.737 159 23.2969 159.062 23.9219V24.6406C159.005 25.2604 158.893 25.8177 158.727 26.3125C158.565 26.8073 158.344 27.2292 158.062 27.5781C157.786 27.9271 157.448 28.1953 157.047 28.3828C156.646 28.5651 156.177 28.6562 155.641 28.6562C155.135 28.6562 154.677 28.5495 154.266 28.3359C153.859 28.1224 153.51 27.8229 153.219 27.4375C152.927 27.0521 152.703 26.599 152.547 26.0781C152.396 25.5521 152.32 24.9818 152.32 24.3672ZM153.766 24.2031V24.3672C153.766 24.7891 153.807 25.1849 153.891 25.5547C153.979 25.9245 154.112 26.25 154.289 26.5312C154.471 26.8125 154.703 27.0339 154.984 27.1953C155.266 27.3516 155.602 27.4297 155.992 27.4297C156.471 27.4297 156.867 27.3281 157.18 27.125C157.492 26.9219 157.74 26.6536 157.922 26.3203C158.109 25.987 158.255 25.625 158.359 25.2344V23.3516C158.302 23.0651 158.214 22.7891 158.094 22.5234C157.979 22.2526 157.828 22.013 157.641 21.8047C157.458 21.5911 157.232 21.4219 156.961 21.2969C156.69 21.1719 156.372 21.1094 156.008 21.1094C155.612 21.1094 155.271 21.1927 154.984 21.3594C154.703 21.5208 154.471 21.7448 154.289 22.0312C154.112 22.3125 153.979 22.6406 153.891 23.0156C153.807 23.3854 153.766 23.7812 153.766 24.2031ZM163.094 16.5V28.5H161.648V16.5H163.094ZM162.75 23.9531L162.148 23.9297C162.154 23.3516 162.24 22.8177 162.406 22.3281C162.573 21.8333 162.807 21.4036 163.109 21.0391C163.411 20.6745 163.771 20.3932 164.188 20.1953C164.609 19.9922 165.076 19.8906 165.586 19.8906C166.003 19.8906 166.378 19.9479 166.711 20.0625C167.044 20.1719 167.328 20.349 167.562 20.5938C167.802 20.8385 167.984 21.1562 168.109 21.5469C168.234 21.9323 168.297 22.4036 168.297 22.9609V28.5H166.844V22.9453C166.844 22.5026 166.779 22.1484 166.648 21.8828C166.518 21.612 166.328 21.4167 166.078 21.2969C165.828 21.1719 165.521 21.1094 165.156 21.1094C164.797 21.1094 164.469 21.1849 164.172 21.3359C163.88 21.487 163.628 21.6953 163.414 21.9609C163.206 22.2266 163.042 22.5312 162.922 22.875C162.807 23.2135 162.75 23.5729 162.75 23.9531ZM174 20.0469V21.1562H169.43V20.0469H174ZM170.977 17.9922H172.422V26.4062C172.422 26.6927 172.466 26.9089 172.555 27.0547C172.643 27.2005 172.758 27.2969 172.898 27.3438C173.039 27.3906 173.19 27.4141 173.352 27.4141C173.471 27.4141 173.596 27.4036 173.727 27.3828C173.862 27.3568 173.964 27.3359 174.031 27.3203L174.039 28.5C173.924 28.5365 173.773 28.5703 173.586 28.6016C173.404 28.638 173.182 28.6562 172.922 28.6562C172.568 28.6562 172.242 28.5859 171.945 28.4453C171.648 28.3047 171.411 28.0703 171.234 27.7422C171.062 27.4089 170.977 26.9609 170.977 26.3984V17.9922ZM180.617 26.2578C180.617 26.0495 180.57 25.8568 180.477 25.6797C180.388 25.4974 180.203 25.3333 179.922 25.1875C179.646 25.0365 179.229 24.9062 178.672 24.7969C178.203 24.6979 177.779 24.5807 177.398 24.4453C177.023 24.3099 176.703 24.1458 176.438 23.9531C176.177 23.7604 175.977 23.5339 175.836 23.2734C175.695 23.013 175.625 22.7083 175.625 22.3594C175.625 22.026 175.698 21.7109 175.844 21.4141C175.995 21.1172 176.206 20.8542 176.477 20.625C176.753 20.3958 177.083 20.2161 177.469 20.0859C177.854 19.9557 178.284 19.8906 178.758 19.8906C179.435 19.8906 180.013 20.0104 180.492 20.25C180.971 20.4896 181.339 20.8099 181.594 21.2109C181.849 21.6068 181.977 22.0469 181.977 22.5312H180.531C180.531 22.2969 180.461 22.0703 180.32 21.8516C180.185 21.6276 179.984 21.4427 179.719 21.2969C179.458 21.151 179.138 21.0781 178.758 21.0781C178.357 21.0781 178.031 21.1406 177.781 21.2656C177.536 21.3854 177.357 21.5391 177.242 21.7266C177.133 21.9141 177.078 22.112 177.078 22.3203C177.078 22.4766 177.104 22.6172 177.156 22.7422C177.214 22.862 177.312 22.974 177.453 23.0781C177.594 23.1771 177.792 23.2708 178.047 23.3594C178.302 23.4479 178.628 23.5365 179.023 23.625C179.716 23.7812 180.286 23.9688 180.734 24.1875C181.182 24.4062 181.516 24.6745 181.734 24.9922C181.953 25.3099 182.062 25.6953 182.062 26.1484C182.062 26.5182 181.984 26.8568 181.828 27.1641C181.677 27.4714 181.456 27.737 181.164 27.9609C180.878 28.1797 180.534 28.3516 180.133 28.4766C179.737 28.5964 179.292 28.6562 178.797 28.6562C178.052 28.6562 177.422 28.5234 176.906 28.2578C176.391 27.9922 176 27.6484 175.734 27.2266C175.469 26.8047 175.336 26.3594 175.336 25.8906H176.789C176.81 26.2865 176.924 26.6016 177.133 26.8359C177.341 27.0651 177.596 27.2292 177.898 27.3281C178.201 27.4219 178.5 27.4688 178.797 27.4688C179.193 27.4688 179.523 27.4167 179.789 27.3125C180.06 27.2083 180.266 27.0651 180.406 26.8828C180.547 26.7005 180.617 26.4922 180.617 26.2578Z" fill="white"/>
<path d="M199.5 20.6426V27.1426C199.5 27.2752 199.448 27.4024 199.354 27.4961C199.26 27.5899 199.133 27.6426 199 27.6426C198.868 27.6426 198.74 27.5899 198.647 27.4961C198.553 27.4024 198.5 27.2752 198.5 27.1426V21.8495L191.354 28.9963C191.26 29.0901 191.133 29.1429 191 29.1429C190.868 29.1429 190.74 29.0901 190.647 28.9963C190.553 28.9025 190.5 28.7753 190.5 28.6426C190.5 28.5099 190.553 28.3826 190.647 28.2888L197.793 21.1426H192.5C192.368 21.1426 192.24 21.0899 192.147 20.9961C192.053 20.9024 192 20.7752 192 20.6426C192 20.51 192.053 20.3828 192.147 20.289C192.24 20.1953 192.368 20.1426 192.5 20.1426H199C199.133 20.1426 199.26 20.1953 199.354 20.289C199.448 20.3828 199.5 20.51 199.5 20.6426Z" fill="white"/>
<rect x="3" width="4" height="46" fill="#EEEEEE"/>
<rect x="12" width="4" height="46" fill="#EEEEEE"/>
</svg>
