<svg width="77" height="28" viewBox="0 0 77 28" fill="none" xmlns="http://www.w3.org/2000/svg">
<path d="M76.6607 19.5751C76.6607 22.1167 75.4821 24.1183 73.1249 25.58C70.7809 27.0286 68.1933 27.7528 65.362 27.7528C62.9785 27.7528 60.6411 27.1932 58.3497 26.0738C56.0716 24.9413 54.6954 23.0846 54.2214 20.5035C54.1687 20.2138 54.1424 20.036 54.1424 19.9702C54.1424 19.3908 54.6954 19.1011 55.8016 19.1011C56.6971 19.1011 57.2107 19.3579 57.3423 19.8714C58.409 23.9669 61.1283 25.9948 65.5003 25.9553C67.2649 25.929 69.0295 25.3957 70.7941 24.3553C72.5587 23.3019 73.441 21.7677 73.441 19.7529C73.441 18.3044 72.5652 17.1719 70.8138 16.3554C69.5233 15.7497 67.897 15.3414 65.9349 15.1307C64.7497 15.0122 63.4987 14.8213 62.1818 14.5579C60.8781 14.2814 59.6798 13.86 58.5868 13.2937C56.0847 12.0032 54.8337 10.0213 54.8337 7.34808C54.8337 4.68803 56.0716 2.79833 58.5473 1.679C61.023 0.559666 63.3604 0 65.5595 0C67.7587 0 69.8525 0.506991 71.841 1.52097C73.8426 2.53496 75.1595 4.16786 75.7916 6.4197C75.8706 6.69624 75.9101 6.86743 75.9101 6.93327C75.9101 7.47319 75.3504 7.74314 74.2311 7.74314C73.3356 7.74314 72.822 7.47977 72.6903 6.95303C71.9002 3.51602 69.5299 1.79752 65.5793 1.79752C63.9201 1.79752 62.2476 2.23208 60.5621 3.10121C58.8896 3.95717 58.0534 5.36621 58.0534 7.32833C58.0534 8.71103 59.0213 9.83037 60.9571 10.6863C61.8526 11.0682 62.7941 11.3579 63.7818 11.5555C64.7694 11.753 65.5925 11.8847 66.2509 11.9505C67.5546 12.0822 68.878 12.2929 70.2212 12.5826C71.5644 12.8723 72.7496 13.3464 73.7768 14.0048C75.6994 15.269 76.6607 17.1258 76.6607 19.5751Z" fill="#FAF1E1"/>
<path d="M50.5689 18.3109C51.6355 18.3109 52.1689 18.6204 52.1689 19.2393C52.1689 19.4369 52.0898 19.8122 51.9318 20.3653C51.2339 22.7751 49.7458 24.6121 47.4677 25.8763C45.2027 27.1273 42.8587 27.7528 40.4356 27.7528C36.3929 27.7528 33.2456 26.4689 30.9937 23.901C28.7551 21.3331 27.6357 18.0542 27.6357 14.0641C27.6357 10.0213 28.7617 6.6699 31.0135 4.00984C33.2653 1.33661 36.4982 0 40.7122 0C43.1879 0 45.5582 0.665015 47.8232 1.99504C50.0882 3.32507 51.4841 5.26086 52.0108 7.8024C52.0898 8.09211 52.1294 8.31598 52.1294 8.474C52.1294 9.11926 51.5894 9.44189 50.5096 9.44189C49.5088 9.44189 48.9755 9.16535 48.9096 8.61227C48.317 4.0691 45.5846 1.79752 40.7122 1.79752C37.3673 1.79752 34.8851 3.07487 33.2653 5.62958C31.6456 8.17112 30.8357 10.9365 30.8357 13.9258C30.8357 16.8624 31.5995 19.6015 33.1271 22.143C34.6678 24.6846 37.104 25.9553 40.4356 25.9553C42.4373 25.9553 44.2743 25.3232 45.9467 24.059C47.6323 22.7949 48.6397 21.1488 48.9689 19.1208C49.0611 18.5809 49.5944 18.3109 50.5689 18.3109Z" fill="#FAF1E1"/>
<path d="M26.1331 26.8837C26.1331 27.4631 25.5273 27.7528 24.3158 27.7528C23.3809 27.7528 22.8146 27.5224 22.6171 27.0615L18.9233 18.5677H6.02464L2.31109 27.2985C2.16624 27.6014 1.79751 27.7528 1.20493 27.7528C0.401643 27.7528 0 27.5553 0 27.1603C0 27.1471 0.0131686 27.0878 0.0395059 26.9825L11.2394 0.651846C11.4106 0.217282 12.0295 0 13.0962 0C14.018 0 14.5842 0.230451 14.7949 0.691352L26.0146 26.5282C26.0936 26.7125 26.1331 26.831 26.1331 26.8837ZM18.1529 16.7702L12.4048 3.53577L6.77525 16.7702H18.1529Z" fill="#FAF1E1"/>
</svg>
