<svg width="52" height="49" viewBox="0 0 52 49" fill="none" xmlns="http://www.w3.org/2000/svg">
<path d="M47.6525 39.655C48.7722 38.5365 49.535 37.1111 49.8444 35.559C50.1538 34.0069 49.9959 32.3979 49.3906 30.9356C48.7854 29.4733 47.76 28.2234 46.4442 27.3439C45.1284 26.4645 43.5814 25.9951 41.9987 25.9951C40.4161 25.9951 38.8691 26.4645 37.5533 27.3439C36.2375 28.2234 35.2121 29.4733 34.6069 30.9356C34.0016 32.3979 33.8437 34.0069 34.1531 35.559C34.4625 37.1111 35.2253 38.5365 36.345 39.655C34.2419 40.9968 32.7162 43.0762 32.0675 45.485C31.9309 45.9976 32.0035 46.5433 32.2694 47.0023C32.5352 47.4613 32.9725 47.7959 33.485 47.9325C33.6531 47.9769 33.8262 47.9996 34 48C34.4411 47.9999 34.8697 47.8539 35.2192 47.5849C35.5687 47.3159 35.8195 46.9389 35.9325 46.5125C36.64 43.855 39.135 42 42 42C44.865 42 47.36 43.855 48.0675 46.5125C48.1308 46.7708 48.245 47.0138 48.4034 47.2274C48.5617 47.441 48.7611 47.6209 48.9898 47.7565C49.2186 47.8922 49.472 47.9808 49.7354 48.0173C49.9988 48.0538 50.2668 48.0374 50.5238 47.9691C50.7808 47.9008 51.0216 47.7819 51.2321 47.6194C51.4426 47.457 51.6185 47.2541 51.7497 47.0228C51.8809 46.7915 51.9646 46.5364 51.996 46.2723C52.0274 46.0083 52.0058 45.7406 51.9325 45.485C51.2832 43.0758 49.7566 40.9963 47.6525 39.655ZM42 30C42.7911 30 43.5645 30.2346 44.2223 30.6741C44.8801 31.1137 45.3928 31.7384 45.6955 32.4693C45.9983 33.2002 46.0775 34.0045 45.9231 34.7804C45.7688 35.5563 45.3878 36.269 44.8284 36.8284C44.269 37.3879 43.5563 37.7688 42.7804 37.9232C42.0044 38.0775 41.2002 37.9983 40.4693 37.6955C39.7384 37.3928 39.1136 36.8801 38.6741 36.2223C38.2346 35.5645 38 34.7911 38 34C38 32.9392 38.4214 31.9217 39.1716 31.1716C39.9217 30.4214 40.9391 30 42 30ZM48 8.00002H26.8275L20 1.17252C19.6299 0.799469 19.1894 0.503704 18.704 0.302418C18.2186 0.101132 17.698 -0.0016586 17.1725 2.02374e-05H4C2.93913 2.02374e-05 1.92172 0.421447 1.17157 1.17159C0.421427 1.92174 0 2.93915 0 4.00002V40.1525C0.000661338 41.1723 0.405891 42.1502 1.12675 42.8715C1.84762 43.5928 2.82522 43.9987 3.845 44H24.14C24.6704 44 25.1791 43.7893 25.5542 43.4142C25.9293 43.0392 26.14 42.5305 26.14 42C26.14 41.4696 25.9293 40.9609 25.5542 40.5858C25.1791 40.2107 24.6704 40 24.14 40H4V12H48V20C48 20.5305 48.2107 21.0392 48.5858 21.4142C48.9609 21.7893 49.4696 22 50 22C50.5304 22 51.0391 21.7893 51.4142 21.4142C51.7893 21.0392 52 20.5305 52 20V12C52 10.9392 51.5786 9.92174 50.8284 9.17159C50.0783 8.42145 49.0609 8.00002 48 8.00002ZM17.1725 4.00002L21.1725 8.00002H4V4.00002H17.1725Z" fill="#FDEACB"/>
</svg>
