<svg width="56" height="59" viewBox="0 0 56 59" fill="none" xmlns="http://www.w3.org/2000/svg">
<path fill-rule="evenodd" clip-rule="evenodd" d="M27.4263 0L28.0125 1.68888H29.9094L28.3748 2.73264L28.961 4.42148L27.4263 3.37772L25.8916 4.42148L26.4778 2.73264L24.9431 1.68888H26.8401L27.4263 0Z" fill="#0C0D50"/>
<path fill-rule="evenodd" clip-rule="evenodd" d="M12.466 32.8767H0.750358C0.743022 32.9506 0.739379 33.0247 0.739379 33.0988C0.739379 35.1033 3.36912 36.7307 6.6082 36.7307C9.84729 36.7307 12.477 35.1033 12.477 33.0988C12.477 33.0247 12.4734 32.9506 12.466 32.8767Z" fill="#0C0D50"/>
<path fill-rule="evenodd" clip-rule="evenodd" d="M42.9413 32.9224H54.657C54.6643 32.9963 54.6679 33.0704 54.6679 33.1445C54.6679 35.149 52.0382 36.7764 48.7991 36.7764C45.56 36.7764 42.9303 35.149 42.9303 33.1445C42.9303 33.0704 42.9339 32.9963 42.9413 32.9224Z" fill="#0C0D50"/>
<path fill-rule="evenodd" clip-rule="evenodd" d="M37.154 16.1725L36.4608 17.406C37.0316 17.4203 39.141 17.7257 39.141 17.7257C39.141 17.7257 36.8241 17.6686 36.2759 17.7714L35.3979 18.5938C36.247 18.5061 38.6952 17.6919 45.1646 19.0421C45.5657 19.1258 45.947 19.2918 46.3499 19.3662C49.8988 20.0215 51.4255 18.7664 51.3502 17.8248C51.2105 16.0784 49.1086 16.3743 48.881 17.6517C48.8038 18.085 48.3371 18.3197 48.3371 18.3197C48.3371 18.3197 46.9544 18.4066 46.2113 18.2283C46.0286 18.1844 45.7184 17.9313 45.6568 17.7714C45.6071 17.6426 45.5205 17.437 45.5644 17.2689C45.626 17.0328 46.0594 16.6799 45.9803 16.2638C45.7701 15.1592 43.4283 15.9294 44.2705 17.6344C43.1948 17.4039 41.8956 16.8867 38.8425 16.2648C37.8391 16.0604 37.2076 16.171 37.154 16.1725Z" fill="#0C0D50"/>
<path d="M48.4294 19.8729H49.1226V32.0251H48.4294V19.8729Z" fill="#0C0D50"/>
<path d="M48.4908 20.155L49.1226 19.8729L54.6615 31.999L54.0298 32.281L48.4908 20.155Z" fill="#0C0D50"/>
<path d="M49.0624 20.1562L48.4307 19.8742L42.8917 32.0002L43.5235 32.2822L49.0624 20.1562Z" fill="#0C0D50"/>
<path d="M42.3758 31.9338H55.4073V32.619H42.3758V31.9338Z" fill="#0C0D50"/>
<path fill-rule="evenodd" clip-rule="evenodd" d="M21.2572 15.9897V17.7714C19.8796 17.5367 18.4322 17.4897 16.9133 17.6344C18.4155 17.7421 19.8773 17.9883 21.211 18.3653V19.5532C20.4081 19.1914 16.6197 17.4635 10.2428 18.9964C9.84444 19.0921 9.46043 19.2461 9.05747 19.3205C5.50863 19.9758 3.98191 18.7207 4.05723 17.7791C4.19693 16.0327 6.29884 16.3286 6.52639 17.606C6.60356 18.0393 7.07034 18.274 7.07034 18.274C7.07034 18.274 8.45298 18.3609 9.19606 18.1826C9.37877 18.1387 9.68899 17.8856 9.75059 17.7257C9.80027 17.5969 9.88691 17.3913 9.84301 17.2232C9.78141 16.9872 9.34795 16.6342 9.42711 16.2182C9.63728 15.1135 11.9791 15.8837 11.1369 17.5887C12.1967 17.3099 13.4165 16.4766 16.5649 16.2192C17.8863 16.1111 21.2572 15.9897 21.2572 15.9897Z" fill="#0C0D50"/>
<path d="M6.97789 19.8273H6.28472V31.9795H6.97789V19.8273Z" fill="#0C0D50"/>
<path d="M6.91646 20.1093L6.28472 19.8273L0.745781 31.9533L1.37752 32.2353L6.91646 20.1093Z" fill="#0C0D50"/>
<path d="M6.3448 20.1105L6.66067 19.9695L6.97654 19.8285L12.5155 31.9545L11.8837 32.2366L6.3448 20.1105Z" fill="#0C0D50"/>
<path d="M13.0316 31.8881H0V32.5734H13.0316V31.8881Z" fill="#0C0D50"/>
<path fill-rule="evenodd" clip-rule="evenodd" d="M11.4604 57.197C8.93415 57.1665 7.57864 58.1107 7.57864 58.1107C7.57864 58.1107 8.84663 55.2646 11.9225 54.3646C14.9984 53.4645 20.8412 53.9077 20.8412 53.9077C20.8412 53.9077 17.6621 55.8809 17.6527 57.197" fill="#0C0D50"/>
<path fill-rule="evenodd" clip-rule="evenodd" d="M44.0274 57.1829C46.5537 57.1524 47.9092 58.0966 47.9092 58.0966C47.6334 57.8988 46.702 54.8104 42.299 54.0724C39.4627 53.5969 34.1851 53.8828 34.6466 53.8936C34.6466 53.8936 37.8258 55.8668 37.8351 57.1829" fill="#0C0D50"/>
<path fill-rule="evenodd" clip-rule="evenodd" d="M17.514 58.9793C17.514 58.9793 19.0257 57.5041 21.7655 57.1975C24.5053 56.891 31.3291 56.9594 32.1168 56.9691C32.9044 56.9789 36.2313 57.822 37.8932 58.9793C38.0135 59.063 36.6167 54.9054 33.688 54.2737C30.7592 53.642 21.9784 54.1344 21.8117 54.1367C21.645 54.1389 17.5912 55.7205 17.514 58.9793Z" fill="#0C0D50"/>
<path fill-rule="evenodd" clip-rule="evenodd" d="M20.3191 39.8931H23.8001C23.8258 40.0269 23.8387 40.1632 23.8387 40.3C23.8387 41.3842 23.0415 42.2644 22.0596 42.2644C21.0777 42.2644 20.2805 41.3842 20.2805 40.3C20.2805 40.1632 20.2934 40.0269 20.3191 39.8931Z" fill="#0C0D50"/>
<path fill-rule="evenodd" clip-rule="evenodd" d="M23.9236 39.8931H27.4046C27.4303 40.0269 27.4432 40.1632 27.4432 40.3C27.4432 41.3842 26.646 42.2644 25.6641 42.2644C24.6822 42.2644 23.885 41.3842 23.885 40.3C23.885 40.1632 23.8979 40.0269 23.9236 39.8931Z" fill="#0C0D50"/>
<path fill-rule="evenodd" clip-rule="evenodd" d="M27.528 39.8931H31.0091C31.0348 40.0269 31.0477 40.1632 31.0477 40.3C31.0477 41.3842 30.2505 42.2644 29.2686 42.2644C28.2867 42.2644 27.4894 41.3842 27.4894 40.3C27.4894 40.1632 27.5023 40.0269 27.528 39.8931Z" fill="#0C0D50"/>
<path fill-rule="evenodd" clip-rule="evenodd" d="M31.1787 39.8931H34.6598C34.6855 40.0269 34.6984 40.1632 34.6984 40.3C34.6984 41.3842 33.9011 42.2644 32.9192 42.2644C31.9373 42.2644 31.1401 41.3842 31.1401 40.3C31.1401 40.1632 31.153 40.0269 31.1787 39.8931Z" fill="#0C0D50"/>
<path d="M28.3276 21.5633H27.2647V33.8982H28.3276V21.5633Z" fill="#0C0D50"/>
<path fill-rule="evenodd" clip-rule="evenodd" d="M32.8459 39.6808H22.3445C21.8504 39.6808 21.4491 39.2842 21.4491 38.7956V38.5559C21.4491 38.0674 21.8504 37.6707 22.3445 37.6707H32.8459C33.3401 37.6707 33.7413 38.0674 33.7413 38.5559V38.7956C33.7413 39.2842 33.3401 39.6808 32.8459 39.6808Z" fill="#0C0D50"/>
<path fill-rule="evenodd" clip-rule="evenodd" d="M32.8481 53.7512H22.3467C21.8525 53.7512 21.4513 53.3546 21.4513 52.866V52.6263C21.4513 52.1378 21.8525 51.7411 22.3467 51.7411H32.8481C33.3422 51.7411 33.7435 52.1378 33.7435 52.6263V52.866C33.7435 53.3546 33.3422 53.7512 32.8481 53.7512Z" fill="#0C0D50"/>
<path fill-rule="evenodd" clip-rule="evenodd" d="M31.942 43.1037V51.5143H29.539V43.1037C29.539 42.5263 30.0132 42.0576 30.5972 42.0576H30.8837C31.4678 42.0576 31.942 42.5263 31.942 43.1037Z" fill="#0C0D50"/>
<path fill-rule="evenodd" clip-rule="evenodd" d="M28.661 43.1021V51.5127H26.258V43.1021C26.258 42.5247 26.7322 42.0559 27.3162 42.0559H27.6028C28.1868 42.0559 28.661 42.5247 28.661 43.1021Z" fill="#0C0D50"/>
<path fill-rule="evenodd" clip-rule="evenodd" d="M25.4262 43.1021V51.5127H23.0232V43.1021C23.0232 42.5247 23.4974 42.0559 24.0814 42.0559H24.368C24.952 42.0559 25.4262 42.5247 25.4262 43.1021Z" fill="#0C0D50"/>
<path fill-rule="evenodd" clip-rule="evenodd" d="M35.1206 37.3703C35.0981 37.791 36.5703 32.6039 36.738 30.4262C36.7476 30.3017 41.1281 28.1419 41.1281 28.1419C41.1281 28.1419 42.0818 37.0783 40.6197 41.5733C38.996 46.5654 32.6786 50.7729 32.6714 50.3448C32.6714 50.3448 32.6265 46.9696 32.6252 46.7814C33.8967 45.8345 35.0009 44.532 35.86 42.8982C36.5271 40.5784 36.4447 38.801 35.1206 37.3703Z" fill="#0C0D50"/>
<path fill-rule="evenodd" clip-rule="evenodd" d="M19.5936 5.71062L31.5623 5.7563C31.5623 5.7563 37.6696 6.68745 37.616 12.8375C37.5624 18.9875 30.9885 20.1195 30.2222 20.1927C29.4559 20.266 27.2647 20.3298 27.2647 20.3298L27.1723 8.4974L28.2813 8.54308L28.3276 15.6699L31.2389 15.5329C31.2389 15.5329 31.358 17.6063 28.0041 17.7258C24.6501 17.8452 27.8654 17.7258 27.8654 17.7258V18.5481C27.8654 18.5481 32.9035 19.5784 32.7638 12.6547C32.6241 5.73104 26.2943 7.49233 26.2943 7.49233L26.3405 34.4921L31.9782 34.5835C31.9782 34.5835 33.938 35.0807 35.0282 30.0607C35.0388 30.012 35.0596 29.9174 35.0596 29.9174L36.091 29.9693L34.7509 36.8221L19.5474 36.9134L19.5936 35.9084C19.5936 35.9084 21.8089 36.1834 21.9042 34.4008C21.9995 32.6181 21.9504 7.99486 21.9504 7.99486C21.9504 7.99486 22.0457 7.07792 21.1186 6.85274C20.1915 6.62756 19.5936 6.76137 19.5936 6.76137V5.71062Z" fill="#0C0D50"/>
<path fill-rule="evenodd" clip-rule="evenodd" d="M14.0944 28.1876C14.0944 28.1876 15.2976 28.7936 15.8967 29.1013C16.6822 29.5048 18.5546 30.4749 18.808 30.6089C19.0613 30.7429 20.487 31.9094 20.6102 32.0708C20.7334 32.2323 21.3919 33.0785 21.3496 33.5784C21.3077 34.0726 21.1989 34.5549 20.8875 34.7662C20.576 34.9776 19.9815 35.094 19.4087 35.4972C18.8359 35.9004 19.0465 36.3524 19.039 36.4566C19.0315 36.5607 19.4085 37.1096 19.5473 37.2789C19.665 37.4224 19.9037 37.6725 19.7784 37.8728C19.6531 38.0731 19.4326 38.3389 19.3163 38.4667C19.1828 38.6134 18.8957 38.8425 18.7617 39.0606C18.628 39.2784 18.6623 40.0497 18.808 41.0708C18.9528 42.0866 19.7758 43.8213 19.917 44.1316C20.0736 44.4759 20.9152 45.7662 21.8587 46.3771C21.9039 46.4063 21.9498 46.4345 21.9965 46.4616C22.0959 46.5192 22.6328 46.4133 22.6328 46.4133L22.6435 50.2077C19.4948 49.2511 16.454 46.3111 14.9642 42.3754C14.179 40.3013 13.8298 38.0853 13.82 35.8092C13.8077 32.9564 14.0395 29.5827 14.0944 28.1876Z" fill="#0C0D50"/>
<path fill-rule="evenodd" clip-rule="evenodd" d="M5.3605 38.9236L13.2164 38.7408C13.2164 38.7408 12.9802 45.0661 21.3496 50.8473C21.4252 50.8996 20.6102 50.9387 20.6102 50.9387C20.6102 50.9387 10.1099 51.9211 5.3605 38.9236Z" fill="#0C0D50"/>
<path fill-rule="evenodd" clip-rule="evenodd" d="M49.9874 38.826L42.1315 38.6433C42.1315 38.6433 42.3677 44.9686 33.9984 50.7498C33.9228 50.802 34.7377 50.8412 34.7377 50.8412C34.7377 50.8412 45.2381 51.8235 49.9874 38.826Z" fill="#0C0D50"/>
<path fill-rule="evenodd" clip-rule="evenodd" d="M0.277267 42.6697L5.96124 42.487C5.96124 42.487 9.08849 49.7393 16.9133 51.3042C17.0216 51.3258 17.1431 51.324 17.1431 51.324C16.9105 51.9231 4.53073 55.5571 0.277267 42.6697Z" fill="#0C0D50"/>
<path fill-rule="evenodd" clip-rule="evenodd" d="M55.0707 42.5722L49.3867 42.3895C49.3867 42.3895 46.2594 49.6417 38.4346 51.2066C38.3264 51.2283 38.2048 51.2265 38.2048 51.2265C38.4374 51.8256 50.8172 55.4596 55.0707 42.5722Z" fill="#0C0D50"/>
</svg>
