<svg width="618" height="618" viewBox="0 0 618 618" fill="none" xmlns="http://www.w3.org/2000/svg">
<path d="M22.2899 194.738C38.7685 155.405 55.9721 125.214 92.7932 88.1112C131.524 53.3636 138.233 47.7744 192.386 22.8389C233.553 5.58478 278.454 -0.281707 309.237 0.0103167C319.87 0.0122931 328.787 0.537088 335.577 1.07811C361.978 3.93267 365.04 3.86389 401.333 14.1176C437.255 25.7726 457.836 36.6936 485.093 55.2368C515.123 70.915 581.349 149.847 592.271 186.094C607.562 219.787 615.374 261.681 616.659 286.881C617.187 294.79 617.308 300.909 617.33 305.693C617.336 307.713 617.307 308.649 617.284 308.65C617.253 308.649 617.231 307.198 617.195 304.605C617.022 292.099 615.959 273.251 611.753 251.508C602.309 211.493 602.665 206.012 576.868 156.652C547.977 109.306 525.036 82.5682 470.343 46.6189C413.981 16.2376 398.226 6.27241 309.237 1.21757C308.058 1.21378 306.868 1.21646 305.665 1.22606C214.188 8.32846 201.469 13.3635 124.905 63.0023C46.745 116.198 1.91564 232.151 2.62478 287.686C2.17406 294.442 1.92929 301.342 1.9322 308.65C1.46963 361.17 17.2884 428.288 57.5741 485.042C101.344 550.724 189.843 607.026 277.228 614.321C287.389 615.39 298.116 616.003 309.237 616.019C393.836 619.603 487.906 567.757 521.892 531.104C561.417 490.476 569.615 478.072 592.774 428.681C605.4 399.87 615.875 357.244 616.977 320.563C617.407 302.116 617.669 306.343 617.014 324.852C615.696 352.024 610.862 373.92 607.428 387.451C600.01 414.37 596.344 425.977 579.779 457.155C562.235 487.825 551.42 500.751 537.809 516.166C522.043 528.711 529.925 539.737 437.568 589.417C386.185 612.755 342.619 617.243 309.237 617.45C280.238 617.414 258.187 613.798 240.269 609.786C201.174 603.068 123.548 566.659 81.1001 516.75C38.3595 476.988 -4.41115 370.828 0.366285 308.65C0.359205 300.803 0.636472 293.906 1.02405 287.875C6.48467 235.215 8.07762 234.977 22.2899 194.738Z" fill="#3C5C8D"/>
<path d="M110.588 229.788C122.029 202.581 133.792 181.581 159.319 155.892C186.165 131.84 190.857 128.051 228.339 110.77C256.837 98.8089 287.932 94.7777 309.241 94.9813C316.601 94.9832 322.774 95.343 327.476 95.7085C345.76 97.6469 347.861 97.7134 372.986 104.785C397.858 112.827 412.104 120.404 430.945 133.268C451.709 144.154 497.499 198.778 505.099 223.84C515.725 247.141 521.055 276.157 521.923 293.588C522.283 299.06 522.358 303.294 522.365 306.603C522.366 308 522.338 308.648 522.315 308.648C522.284 308.648 522.26 307.644 522.235 305.851C522.109 297.202 521.358 284.166 518.418 269.137C511.827 241.485 512.14 237.677 494.275 203.561C474.269 170.841 458.375 152.414 420.597 127.533C381.648 106.494 370.721 99.7696 309.241 96.1888C308.426 96.185 307.602 96.185 306.772 96.1907C243.533 101.002 234.775 104.666 181.915 138.968C127.949 175.722 96.8882 255.778 97.3828 294.163C97.0724 298.831 96.9043 303.599 96.9072 308.648C96.5977 344.94 107.538 391.301 135.355 430.526C165.586 475.928 226.757 514.776 287.123 519.857C294.143 520.6 301.555 521.028 309.241 521.045C367.698 523.564 432.747 487.773 456.269 462.452C483.622 434.388 489.303 425.807 505.296 391.646C514.014 371.719 521.269 342.255 522.077 316.888C522.398 304.13 522.611 307.051 522.175 319.858C521.284 338.659 517.926 353.807 515.589 363.178C510.533 381.828 508.022 389.885 496.512 411.446C484.329 432.648 476.931 441.658 467.496 452.326C456.569 461.005 461.99 468.586 398.081 503.017C362.52 519.198 332.355 522.323 309.241 522.477C289.16 522.461 273.889 519.963 261.479 517.19C234.397 512.547 180.671 487.287 151.269 452.745C121.66 425.223 92.0523 351.705 95.3418 308.648C95.3342 303.215 95.5231 298.438 95.788 294.261C99.5377 257.787 100.712 257.631 110.588 229.788Z" fill="#3C5C8D"/>
</svg>
