<svg width="56" height="48" viewBox="0 0 56 48" fill="none" xmlns="http://www.w3.org/2000/svg">
<path d="M55.8575 25.25L47.8575 5.25C47.6814 4.80946 47.3543 4.4459 46.9349 4.22425C46.5154 4.00259 46.0307 3.93729 45.5675 4.04L30 7.5V2C30 1.46957 29.7893 0.96086 29.4143 0.585787C29.0392 0.210714 28.5305 0 28 0C27.4696 0 26.9609 0.210714 26.5858 0.585787C26.2108 0.96086 26 1.46957 26 2V8.395L9.56504 12.0475C9.24816 12.1175 8.95308 12.2635 8.70525 12.473C8.45743 12.6825 8.2643 12.9492 8.14254 13.25V13.265L0.142538 33.25C0.0468363 33.4884 -0.00156311 33.7431 3.84869e-05 34C3.84869e-05 39.8275 6.13504 42 10 42C13.865 42 20 39.8275 20 34C20.0016 33.7431 19.9532 33.4884 19.8575 33.25L12.73 15.4425L26 12.5V44H22C21.4696 44 20.9609 44.2107 20.5858 44.5858C20.2108 44.9609 20 45.4696 20 46C20 46.5304 20.2108 47.0391 20.5858 47.4142C20.9609 47.7893 21.4696 48 22 48H34C34.5305 48 35.0392 47.7893 35.4143 47.4142C35.7893 47.0391 36 46.5304 36 46C36 45.4696 35.7893 44.9609 35.4143 44.5858C35.0392 44.2107 34.5305 44 34 44H30V11.605L42.75 8.775L36.1425 25.25C36.0468 25.4884 35.9984 25.7431 36 26C36 31.8275 42.135 34 46 34C49.865 34 56 31.8275 56 26C56.0016 25.7431 55.9532 25.4884 55.8575 25.25ZM10 38C8.11754 38 4.31004 37.0975 4.01754 34.34L10 19.385L15.9825 34.34C15.69 37.0975 11.8825 38 10 38ZM46 30C44.1175 30 40.31 29.0975 40.0175 26.34L46 11.385L51.9825 26.34C51.69 29.0975 47.8825 30 46 30Z" fill="#FDEACB"/>
</svg>
