<svg width="53" height="53" viewBox="0 0 53 53" fill="none" xmlns="http://www.w3.org/2000/svg">
<path d="M51.4703 48.6403L38.9528 36.1253C42.5808 31.7695 44.39 26.1827 44.0038 20.5271C43.6177 14.8715 41.066 9.5824 36.8796 5.76019C32.6932 1.93798 27.1944 -0.123107 21.527 0.00569254C15.8597 0.134492 10.4602 2.44326 6.45171 6.45171C2.44326 10.4602 0.134492 15.8597 0.00569254 21.527C-0.123107 27.1944 1.93798 32.6932 5.76019 36.8796C9.5824 41.066 14.8715 43.6177 20.5271 44.0038C26.1827 44.39 31.7695 42.5808 36.1253 38.9528L48.6403 51.4703C48.8261 51.6561 49.0467 51.8035 49.2895 51.904C49.5323 52.0046 49.7925 52.0564 50.0553 52.0564C50.3181 52.0564 50.5783 52.0046 50.8211 51.904C51.0638 51.8035 51.2844 51.6561 51.4703 51.4703C51.6561 51.2844 51.8035 51.0638 51.904 50.8211C52.0046 50.5783 52.0564 50.3181 52.0564 50.0553C52.0564 49.7925 52.0046 49.5323 51.904 49.2895C51.8035 49.0467 51.6561 48.8261 51.4703 48.6403ZM4.05526 22.0553C4.05526 18.4952 5.11094 15.0151 7.08881 12.055C9.06667 9.09491 11.8779 6.7878 15.167 5.42543C18.456 4.06305 22.0752 3.70659 25.5669 4.40112C29.0585 5.09566 32.2658 6.80999 34.7832 9.32734C37.3005 11.8447 39.0149 15.052 39.7094 18.5436C40.4039 22.0353 40.0475 25.6545 38.6851 28.9436C37.3227 32.2326 35.0156 35.0438 32.0555 37.0217C29.0954 38.9996 25.6153 40.0553 22.0553 40.0553C17.283 40.05 12.7077 38.1518 9.33318 34.7773C5.95867 31.4028 4.06055 26.8275 4.05526 22.0553Z" fill="#FDEACB"/>
</svg>
