<svg width="591" height="45" viewBox="0 0 591 45" fill="none" xmlns="http://www.w3.org/2000/svg">
<rect width="3" height="45" fill="#2E31CA"/>
<rect x="7" width="5" height="45" fill="#2E31CA"/>
<rect width="575" height="45" transform="translate(16)" fill="#2E31CA"/>
<path d="M200.219 26.7734V28H194.531V26.7734H200.219ZM194.828 16.625V28H193.32V16.625H194.828ZM205.234 28.1562C204.646 28.1562 204.112 28.0573 203.633 27.8594C203.159 27.6562 202.75 27.3724 202.406 27.0078C202.068 26.6432 201.807 26.2109 201.625 25.7109C201.443 25.2109 201.352 24.6641 201.352 24.0703V23.7422C201.352 23.0547 201.453 22.4427 201.656 21.9062C201.859 21.3646 202.135 20.9062 202.484 20.5312C202.833 20.1562 203.229 19.8724 203.672 19.6797C204.115 19.487 204.573 19.3906 205.047 19.3906C205.651 19.3906 206.172 19.4948 206.609 19.7031C207.052 19.9115 207.414 20.2031 207.695 20.5781C207.977 20.9479 208.185 21.3854 208.32 21.8906C208.456 22.3906 208.523 22.9375 208.523 23.5312V24.1797H202.211V23H207.078V22.8906C207.057 22.5156 206.979 22.151 206.844 21.7969C206.714 21.4427 206.505 21.151 206.219 20.9219C205.932 20.6927 205.542 20.5781 205.047 20.5781C204.719 20.5781 204.417 20.6484 204.141 20.7891C203.865 20.9245 203.628 21.1276 203.43 21.3984C203.232 21.6693 203.078 22 202.969 22.3906C202.859 22.7812 202.805 23.2318 202.805 23.7422V24.0703C202.805 24.4714 202.859 24.849 202.969 25.2031C203.083 25.5521 203.247 25.8594 203.461 26.125C203.68 26.3906 203.943 26.599 204.25 26.75C204.562 26.901 204.917 26.9766 205.312 26.9766C205.823 26.9766 206.255 26.8724 206.609 26.6641C206.964 26.4557 207.273 26.1771 207.539 25.8281L208.414 26.5234C208.232 26.7995 208 27.0625 207.719 27.3125C207.438 27.5625 207.091 27.7656 206.68 27.9219C206.273 28.0781 205.792 28.1562 205.234 28.1562ZM213.75 19.5469V20.6562H209.18V19.5469H213.75ZM210.727 17.4922H212.172V25.9062C212.172 26.1927 212.216 26.4089 212.305 26.5547C212.393 26.7005 212.508 26.7969 212.648 26.8438C212.789 26.8906 212.94 26.9141 213.102 26.9141C213.221 26.9141 213.346 26.9036 213.477 26.8828C213.612 26.8568 213.714 26.8359 213.781 26.8203L213.789 28C213.674 28.0365 213.523 28.0703 213.336 28.1016C213.154 28.138 212.932 28.1562 212.672 28.1562C212.318 28.1562 211.992 28.0859 211.695 27.9453C211.398 27.8047 211.161 27.5703 210.984 27.2422C210.812 26.9089 210.727 26.4609 210.727 25.8984V17.4922ZM216.906 16V17C216.906 17.3125 216.852 17.6432 216.742 17.9922C216.638 18.3359 216.484 18.6693 216.281 18.9922C216.078 19.3099 215.833 19.5885 215.547 19.8281L214.719 19.2578C214.964 18.9141 215.148 18.5625 215.273 18.2031C215.404 17.8385 215.469 17.4453 215.469 17.0234V16H216.906ZM222.695 25.7578C222.695 25.5495 222.648 25.3568 222.555 25.1797C222.466 24.9974 222.281 24.8333 222 24.6875C221.724 24.5365 221.307 24.4062 220.75 24.2969C220.281 24.1979 219.857 24.0807 219.477 23.9453C219.102 23.8099 218.781 23.6458 218.516 23.4531C218.255 23.2604 218.055 23.0339 217.914 22.7734C217.773 22.513 217.703 22.2083 217.703 21.8594C217.703 21.526 217.776 21.2109 217.922 20.9141C218.073 20.6172 218.284 20.3542 218.555 20.125C218.831 19.8958 219.161 19.7161 219.547 19.5859C219.932 19.4557 220.362 19.3906 220.836 19.3906C221.513 19.3906 222.091 19.5104 222.57 19.75C223.049 19.9896 223.417 20.3099 223.672 20.7109C223.927 21.1068 224.055 21.5469 224.055 22.0312H222.609C222.609 21.7969 222.539 21.5703 222.398 21.3516C222.263 21.1276 222.062 20.9427 221.797 20.7969C221.536 20.651 221.216 20.5781 220.836 20.5781C220.435 20.5781 220.109 20.6406 219.859 20.7656C219.615 20.8854 219.435 21.0391 219.32 21.2266C219.211 21.4141 219.156 21.612 219.156 21.8203C219.156 21.9766 219.182 22.1172 219.234 22.2422C219.292 22.362 219.391 22.474 219.531 22.5781C219.672 22.6771 219.87 22.7708 220.125 22.8594C220.38 22.9479 220.706 23.0365 221.102 23.125C221.794 23.2812 222.365 23.4688 222.812 23.6875C223.26 23.9062 223.594 24.1745 223.812 24.4922C224.031 24.8099 224.141 25.1953 224.141 25.6484C224.141 26.0182 224.062 26.3568 223.906 26.6641C223.755 26.9714 223.534 27.237 223.242 27.4609C222.956 27.6797 222.612 27.8516 222.211 27.9766C221.815 28.0964 221.37 28.1562 220.875 28.1562C220.13 28.1562 219.5 28.0234 218.984 27.7578C218.469 27.4922 218.078 27.1484 217.812 26.7266C217.547 26.3047 217.414 25.8594 217.414 25.3906H218.867C218.888 25.7865 219.003 26.1016 219.211 26.3359C219.419 26.5651 219.674 26.7292 219.977 26.8281C220.279 26.9219 220.578 26.9688 220.875 26.9688C221.271 26.9688 221.602 26.9167 221.867 26.8125C222.138 26.7083 222.344 26.5651 222.484 26.3828C222.625 26.2005 222.695 25.9922 222.695 25.7578ZM237.094 24.3828H238.594C238.516 25.1016 238.31 25.7448 237.977 26.3125C237.643 26.8802 237.172 27.3307 236.562 27.6641C235.953 27.9922 235.193 28.1562 234.281 28.1562C233.615 28.1562 233.008 28.0312 232.461 27.7812C231.919 27.5312 231.453 27.1771 231.062 26.7188C230.672 26.2552 230.37 25.7005 230.156 25.0547C229.948 24.4036 229.844 23.6797 229.844 22.8828V21.75C229.844 20.9531 229.948 20.2318 230.156 19.5859C230.37 18.9349 230.674 18.3776 231.07 17.9141C231.471 17.4505 231.953 17.0938 232.516 16.8438C233.078 16.5938 233.711 16.4688 234.414 16.4688C235.273 16.4688 236 16.6302 236.594 16.9531C237.188 17.276 237.648 17.724 237.977 18.2969C238.31 18.8646 238.516 19.5234 238.594 20.2734H237.094C237.021 19.7422 236.885 19.2865 236.688 18.9062C236.49 18.5208 236.208 18.224 235.844 18.0156C235.479 17.8073 235.003 17.7031 234.414 17.7031C233.909 17.7031 233.464 17.7995 233.078 17.9922C232.698 18.1849 232.378 18.4583 232.117 18.8125C231.862 19.1667 231.669 19.5911 231.539 20.0859C231.409 20.5807 231.344 21.1302 231.344 21.7344V22.8828C231.344 23.4401 231.401 23.9635 231.516 24.4531C231.635 24.9427 231.815 25.3724 232.055 25.7422C232.294 26.112 232.599 26.4036 232.969 26.6172C233.339 26.8255 233.776 26.9297 234.281 26.9297C234.922 26.9297 235.432 26.8281 235.812 26.625C236.193 26.4219 236.479 26.1302 236.672 25.75C236.87 25.3698 237.01 24.9141 237.094 24.3828ZM240.047 23.8672V23.6875C240.047 23.0781 240.135 22.513 240.312 21.9922C240.49 21.4661 240.745 21.0104 241.078 20.625C241.411 20.2344 241.815 19.9323 242.289 19.7188C242.763 19.5 243.294 19.3906 243.883 19.3906C244.477 19.3906 245.01 19.5 245.484 19.7188C245.964 19.9323 246.37 20.2344 246.703 20.625C247.042 21.0104 247.299 21.4661 247.477 21.9922C247.654 22.513 247.742 23.0781 247.742 23.6875V23.8672C247.742 24.4766 247.654 25.0417 247.477 25.5625C247.299 26.0833 247.042 26.5391 246.703 26.9297C246.37 27.3151 245.966 27.6172 245.492 27.8359C245.023 28.0495 244.492 28.1562 243.898 28.1562C243.305 28.1562 242.771 28.0495 242.297 27.8359C241.823 27.6172 241.417 27.3151 241.078 26.9297C240.745 26.5391 240.49 26.0833 240.312 25.5625C240.135 25.0417 240.047 24.4766 240.047 23.8672ZM241.492 23.6875V23.8672C241.492 24.2891 241.542 24.6875 241.641 25.0625C241.74 25.4323 241.888 25.7604 242.086 26.0469C242.289 26.3333 242.542 26.5599 242.844 26.7266C243.146 26.888 243.497 26.9688 243.898 26.9688C244.294 26.9688 244.641 26.888 244.938 26.7266C245.24 26.5599 245.49 26.3333 245.688 26.0469C245.885 25.7604 246.034 25.4323 246.133 25.0625C246.237 24.6875 246.289 24.2891 246.289 23.8672V23.6875C246.289 23.2708 246.237 22.8776 246.133 22.5078C246.034 22.1328 245.883 21.8021 245.68 21.5156C245.482 21.224 245.232 20.9948 244.93 20.8281C244.633 20.6615 244.284 20.5781 243.883 20.5781C243.487 20.5781 243.138 20.6615 242.836 20.8281C242.539 20.9948 242.289 21.224 242.086 21.5156C241.888 21.8021 241.74 22.1328 241.641 22.5078C241.542 22.8776 241.492 23.2708 241.492 23.6875ZM251 21.3516V28H249.555V19.5469H250.922L251 21.3516ZM250.656 23.4531L250.055 23.4297C250.06 22.8516 250.146 22.3177 250.312 21.8281C250.479 21.3333 250.714 20.9036 251.016 20.5391C251.318 20.1745 251.677 19.8932 252.094 19.6953C252.516 19.4922 252.982 19.3906 253.492 19.3906C253.909 19.3906 254.284 19.4479 254.617 19.5625C254.951 19.6719 255.234 19.849 255.469 20.0938C255.708 20.3385 255.891 20.6562 256.016 21.0469C256.141 21.4323 256.203 21.9036 256.203 22.4609V28H254.75V22.4453C254.75 22.0026 254.685 21.6484 254.555 21.3828C254.424 21.112 254.234 20.9167 253.984 20.7969C253.734 20.6719 253.427 20.6094 253.062 20.6094C252.703 20.6094 252.375 20.6849 252.078 20.8359C251.786 20.987 251.534 21.1953 251.32 21.4609C251.112 21.7266 250.948 22.0312 250.828 22.375C250.714 22.7135 250.656 23.0729 250.656 23.4531ZM259.844 21.3516V28H258.398V19.5469H259.766L259.844 21.3516ZM259.5 23.4531L258.898 23.4297C258.904 22.8516 258.99 22.3177 259.156 21.8281C259.323 21.3333 259.557 20.9036 259.859 20.5391C260.161 20.1745 260.521 19.8932 260.938 19.6953C261.359 19.4922 261.826 19.3906 262.336 19.3906C262.753 19.3906 263.128 19.4479 263.461 19.5625C263.794 19.6719 264.078 19.849 264.312 20.0938C264.552 20.3385 264.734 20.6562 264.859 21.0469C264.984 21.4323 265.047 21.9036 265.047 22.4609V28H263.594V22.4453C263.594 22.0026 263.529 21.6484 263.398 21.3828C263.268 21.112 263.078 20.9167 262.828 20.7969C262.578 20.6719 262.271 20.6094 261.906 20.6094C261.547 20.6094 261.219 20.6849 260.922 20.8359C260.63 20.987 260.378 21.1953 260.164 21.4609C259.956 21.7266 259.792 22.0312 259.672 22.375C259.557 22.7135 259.5 23.0729 259.5 23.4531ZM270.75 28.1562C270.161 28.1562 269.628 28.0573 269.148 27.8594C268.674 27.6562 268.266 27.3724 267.922 27.0078C267.583 26.6432 267.323 26.2109 267.141 25.7109C266.958 25.2109 266.867 24.6641 266.867 24.0703V23.7422C266.867 23.0547 266.969 22.4427 267.172 21.9062C267.375 21.3646 267.651 20.9062 268 20.5312C268.349 20.1562 268.745 19.8724 269.188 19.6797C269.63 19.487 270.089 19.3906 270.562 19.3906C271.167 19.3906 271.688 19.4948 272.125 19.7031C272.568 19.9115 272.93 20.2031 273.211 20.5781C273.492 20.9479 273.701 21.3854 273.836 21.8906C273.971 22.3906 274.039 22.9375 274.039 23.5312V24.1797H267.727V23H272.594V22.8906C272.573 22.5156 272.495 22.151 272.359 21.7969C272.229 21.4427 272.021 21.151 271.734 20.9219C271.448 20.6927 271.057 20.5781 270.562 20.5781C270.234 20.5781 269.932 20.6484 269.656 20.7891C269.38 20.9245 269.143 21.1276 268.945 21.3984C268.747 21.6693 268.594 22 268.484 22.3906C268.375 22.7812 268.32 23.2318 268.32 23.7422V24.0703C268.32 24.4714 268.375 24.849 268.484 25.2031C268.599 25.5521 268.763 25.8594 268.977 26.125C269.195 26.3906 269.458 26.599 269.766 26.75C270.078 26.901 270.432 26.9766 270.828 26.9766C271.339 26.9766 271.771 26.8724 272.125 26.6641C272.479 26.4557 272.789 26.1771 273.055 25.8281L273.93 26.5234C273.747 26.7995 273.516 27.0625 273.234 27.3125C272.953 27.5625 272.607 27.7656 272.195 27.9219C271.789 28.0781 271.307 28.1562 270.75 28.1562ZM279.109 26.9688C279.453 26.9688 279.771 26.8984 280.062 26.7578C280.354 26.6172 280.594 26.4245 280.781 26.1797C280.969 25.9297 281.076 25.6458 281.102 25.3281H282.477C282.451 25.8281 282.281 26.2943 281.969 26.7266C281.661 27.1536 281.258 27.5 280.758 27.7656C280.258 28.026 279.708 28.1562 279.109 28.1562C278.474 28.1562 277.919 28.0443 277.445 27.8203C276.977 27.5964 276.586 27.2891 276.273 26.8984C275.966 26.5078 275.734 26.0599 275.578 25.5547C275.427 25.0443 275.352 24.5052 275.352 23.9375V23.6094C275.352 23.0417 275.427 22.5052 275.578 22C275.734 21.4896 275.966 21.0391 276.273 20.6484C276.586 20.2578 276.977 19.9505 277.445 19.7266C277.919 19.5026 278.474 19.3906 279.109 19.3906C279.771 19.3906 280.349 19.526 280.844 19.7969C281.339 20.0625 281.727 20.4271 282.008 20.8906C282.294 21.349 282.451 21.8698 282.477 22.4531H281.102C281.076 22.1042 280.977 21.7891 280.805 21.5078C280.638 21.2266 280.409 21.0026 280.117 20.8359C279.831 20.6641 279.495 20.5781 279.109 20.5781C278.667 20.5781 278.294 20.6667 277.992 20.8438C277.695 21.0156 277.458 21.25 277.281 21.5469C277.109 21.8385 276.984 22.1641 276.906 22.5234C276.833 22.8776 276.797 23.2396 276.797 23.6094V23.9375C276.797 24.3073 276.833 24.6719 276.906 25.0312C276.979 25.3906 277.102 25.7161 277.273 26.0078C277.451 26.2995 277.688 26.5339 277.984 26.7109C278.286 26.8828 278.661 26.9688 279.109 26.9688ZM287.641 19.5469V20.6562H283.07V19.5469H287.641ZM284.617 17.4922H286.062V25.9062C286.062 26.1927 286.107 26.4089 286.195 26.5547C286.284 26.7005 286.398 26.7969 286.539 26.8438C286.68 26.8906 286.831 26.9141 286.992 26.9141C287.112 26.9141 287.237 26.9036 287.367 26.8828C287.503 26.8568 287.604 26.8359 287.672 26.8203L287.68 28C287.565 28.0365 287.414 28.0703 287.227 28.1016C287.044 28.138 286.823 28.1562 286.562 28.1562C286.208 28.1562 285.883 28.0859 285.586 27.9453C285.289 27.8047 285.052 27.5703 284.875 27.2422C284.703 26.9089 284.617 26.4609 284.617 25.8984V17.4922ZM292.922 23.8672V23.6875C292.922 23.0781 293.01 22.513 293.188 21.9922C293.365 21.4661 293.62 21.0104 293.953 20.625C294.286 20.2344 294.69 19.9323 295.164 19.7188C295.638 19.5 296.169 19.3906 296.758 19.3906C297.352 19.3906 297.885 19.5 298.359 19.7188C298.839 19.9323 299.245 20.2344 299.578 20.625C299.917 21.0104 300.174 21.4661 300.352 21.9922C300.529 22.513 300.617 23.0781 300.617 23.6875V23.8672C300.617 24.4766 300.529 25.0417 300.352 25.5625C300.174 26.0833 299.917 26.5391 299.578 26.9297C299.245 27.3151 298.841 27.6172 298.367 27.8359C297.898 28.0495 297.367 28.1562 296.773 28.1562C296.18 28.1562 295.646 28.0495 295.172 27.8359C294.698 27.6172 294.292 27.3151 293.953 26.9297C293.62 26.5391 293.365 26.0833 293.188 25.5625C293.01 25.0417 292.922 24.4766 292.922 23.8672ZM294.367 23.6875V23.8672C294.367 24.2891 294.417 24.6875 294.516 25.0625C294.615 25.4323 294.763 25.7604 294.961 26.0469C295.164 26.3333 295.417 26.5599 295.719 26.7266C296.021 26.888 296.372 26.9688 296.773 26.9688C297.169 26.9688 297.516 26.888 297.812 26.7266C298.115 26.5599 298.365 26.3333 298.562 26.0469C298.76 25.7604 298.909 25.4323 299.008 25.0625C299.112 24.6875 299.164 24.2891 299.164 23.8672V23.6875C299.164 23.2708 299.112 22.8776 299.008 22.5078C298.909 22.1328 298.758 21.8021 298.555 21.5156C298.357 21.224 298.107 20.9948 297.805 20.8281C297.508 20.6615 297.159 20.5781 296.758 20.5781C296.362 20.5781 296.013 20.6615 295.711 20.8281C295.414 20.9948 295.164 21.224 294.961 21.5156C294.763 21.8021 294.615 22.1328 294.516 22.5078C294.417 22.8776 294.367 23.2708 294.367 23.6875ZM303.875 21.3516V28H302.43V19.5469H303.797L303.875 21.3516ZM303.531 23.4531L302.93 23.4297C302.935 22.8516 303.021 22.3177 303.188 21.8281C303.354 21.3333 303.589 20.9036 303.891 20.5391C304.193 20.1745 304.552 19.8932 304.969 19.6953C305.391 19.4922 305.857 19.3906 306.367 19.3906C306.784 19.3906 307.159 19.4479 307.492 19.5625C307.826 19.6719 308.109 19.849 308.344 20.0938C308.583 20.3385 308.766 20.6562 308.891 21.0469C309.016 21.4323 309.078 21.9036 309.078 22.4609V28H307.625V22.4453C307.625 22.0026 307.56 21.6484 307.43 21.3828C307.299 21.112 307.109 20.9167 306.859 20.7969C306.609 20.6719 306.302 20.6094 305.938 20.6094C305.578 20.6094 305.25 20.6849 304.953 20.8359C304.661 20.987 304.409 21.1953 304.195 21.4609C303.987 21.7266 303.823 22.0312 303.703 22.375C303.589 22.7135 303.531 23.0729 303.531 23.4531ZM318.453 24.5625L320.711 16.625H321.805L321.172 19.7109L318.742 28H317.656L318.453 24.5625ZM316.117 16.625L317.914 24.4062L318.453 28H317.375L314.617 16.625H316.117ZM324.727 24.3984L326.484 16.625H327.992L325.242 28H324.164L324.727 24.3984ZM321.969 16.625L324.164 24.5625L324.961 28H323.875L321.531 19.7109L320.891 16.625H321.969ZM330.891 16V28H329.445V16H330.891ZM330.547 23.4531L329.945 23.4297C329.951 22.8516 330.036 22.3177 330.203 21.8281C330.37 21.3333 330.604 20.9036 330.906 20.5391C331.208 20.1745 331.568 19.8932 331.984 19.6953C332.406 19.4922 332.872 19.3906 333.383 19.3906C333.799 19.3906 334.174 19.4479 334.508 19.5625C334.841 19.6719 335.125 19.849 335.359 20.0938C335.599 20.3385 335.781 20.6562 335.906 21.0469C336.031 21.4323 336.094 21.9036 336.094 22.4609V28H334.641V22.4453C334.641 22.0026 334.576 21.6484 334.445 21.3828C334.315 21.112 334.125 20.9167 333.875 20.7969C333.625 20.6719 333.318 20.6094 332.953 20.6094C332.594 20.6094 332.266 20.6849 331.969 20.8359C331.677 20.987 331.424 21.1953 331.211 21.4609C331.003 21.7266 330.839 22.0312 330.719 22.375C330.604 22.7135 330.547 23.0729 330.547 23.4531ZM343.242 26.5547V22.2031C343.242 21.8698 343.174 21.5807 343.039 21.3359C342.909 21.0859 342.711 20.8932 342.445 20.7578C342.18 20.6224 341.852 20.5547 341.461 20.5547C341.096 20.5547 340.776 20.6172 340.5 20.7422C340.229 20.8672 340.016 21.0312 339.859 21.2344C339.708 21.4375 339.633 21.6562 339.633 21.8906H338.188C338.188 21.5885 338.266 21.2891 338.422 20.9922C338.578 20.6953 338.802 20.4271 339.094 20.1875C339.391 19.9427 339.745 19.75 340.156 19.6094C340.573 19.4635 341.036 19.3906 341.547 19.3906C342.161 19.3906 342.703 19.4948 343.172 19.7031C343.646 19.9115 344.016 20.2266 344.281 20.6484C344.552 21.0651 344.688 21.5885 344.688 22.2188V26.1562C344.688 26.4375 344.711 26.737 344.758 27.0547C344.81 27.3724 344.885 27.6458 344.984 27.875V28H343.477C343.404 27.8333 343.346 27.612 343.305 27.3359C343.263 27.0547 343.242 26.7943 343.242 26.5547ZM343.492 22.875L343.508 23.8906H342.047C341.635 23.8906 341.268 23.9245 340.945 23.9922C340.622 24.0547 340.352 24.151 340.133 24.2812C339.914 24.4115 339.747 24.5755 339.633 24.7734C339.518 24.9661 339.461 25.1927 339.461 25.4531C339.461 25.7188 339.521 25.9609 339.641 26.1797C339.76 26.3984 339.94 26.5729 340.18 26.7031C340.424 26.8281 340.724 26.8906 341.078 26.8906C341.521 26.8906 341.911 26.7969 342.25 26.6094C342.589 26.4219 342.857 26.1927 343.055 25.9219C343.258 25.651 343.367 25.388 343.383 25.1328L344 25.8281C343.964 26.0469 343.865 26.2891 343.703 26.5547C343.542 26.8203 343.326 27.0755 343.055 27.3203C342.789 27.5599 342.471 27.7604 342.102 27.9219C341.737 28.0781 341.326 28.1562 340.867 28.1562C340.294 28.1562 339.792 28.0443 339.359 27.8203C338.932 27.5964 338.599 27.2969 338.359 26.9219C338.125 26.5417 338.008 26.1172 338.008 25.6484C338.008 25.1953 338.096 24.7969 338.273 24.4531C338.451 24.1042 338.706 23.8151 339.039 23.5859C339.372 23.3516 339.773 23.1745 340.242 23.0547C340.711 22.9349 341.234 22.875 341.812 22.875H343.492ZM350.5 19.5469V20.6562H345.93V19.5469H350.5ZM347.477 17.4922H348.922V25.9062C348.922 26.1927 348.966 26.4089 349.055 26.5547C349.143 26.7005 349.258 26.7969 349.398 26.8438C349.539 26.8906 349.69 26.9141 349.852 26.9141C349.971 26.9141 350.096 26.9036 350.227 26.8828C350.362 26.8568 350.464 26.8359 350.531 26.8203L350.539 28C350.424 28.0365 350.273 28.0703 350.086 28.1016C349.904 28.138 349.682 28.1562 349.422 28.1562C349.068 28.1562 348.742 28.0859 348.445 27.9453C348.148 27.8047 347.911 27.5703 347.734 27.2422C347.562 26.9089 347.477 26.4609 347.477 25.8984V17.4922ZM357.117 25.7578C357.117 25.5495 357.07 25.3568 356.977 25.1797C356.888 24.9974 356.703 24.8333 356.422 24.6875C356.146 24.5365 355.729 24.4062 355.172 24.2969C354.703 24.1979 354.279 24.0807 353.898 23.9453C353.523 23.8099 353.203 23.6458 352.938 23.4531C352.677 23.2604 352.477 23.0339 352.336 22.7734C352.195 22.513 352.125 22.2083 352.125 21.8594C352.125 21.526 352.198 21.2109 352.344 20.9141C352.495 20.6172 352.706 20.3542 352.977 20.125C353.253 19.8958 353.583 19.7161 353.969 19.5859C354.354 19.4557 354.784 19.3906 355.258 19.3906C355.935 19.3906 356.513 19.5104 356.992 19.75C357.471 19.9896 357.839 20.3099 358.094 20.7109C358.349 21.1068 358.477 21.5469 358.477 22.0312H357.031C357.031 21.7969 356.961 21.5703 356.82 21.3516C356.685 21.1276 356.484 20.9427 356.219 20.7969C355.958 20.651 355.638 20.5781 355.258 20.5781C354.857 20.5781 354.531 20.6406 354.281 20.7656C354.036 20.8854 353.857 21.0391 353.742 21.2266C353.633 21.4141 353.578 21.612 353.578 21.8203C353.578 21.9766 353.604 22.1172 353.656 22.2422C353.714 22.362 353.812 22.474 353.953 22.5781C354.094 22.6771 354.292 22.7708 354.547 22.8594C354.802 22.9479 355.128 23.0365 355.523 23.125C356.216 23.2812 356.786 23.4688 357.234 23.6875C357.682 23.9062 358.016 24.1745 358.234 24.4922C358.453 24.8099 358.562 25.1953 358.562 25.6484C358.562 26.0182 358.484 26.3568 358.328 26.6641C358.177 26.9714 357.956 27.237 357.664 27.4609C357.378 27.6797 357.034 27.8516 356.633 27.9766C356.237 28.0964 355.792 28.1562 355.297 28.1562C354.552 28.1562 353.922 28.0234 353.406 27.7578C352.891 27.4922 352.5 27.1484 352.234 26.7266C351.969 26.3047 351.836 25.8594 351.836 25.3906H353.289C353.31 25.7865 353.424 26.1016 353.633 26.3359C353.841 26.5651 354.096 26.7292 354.398 26.8281C354.701 26.9219 355 26.9688 355.297 26.9688C355.693 26.9688 356.023 26.9167 356.289 26.8125C356.56 26.7083 356.766 26.5651 356.906 26.3828C357.047 26.2005 357.117 25.9922 357.117 25.7578ZM364.891 17.6328L361.125 28H359.586L363.922 16.625H364.914L364.891 17.6328ZM368.047 28L364.273 17.6328L364.25 16.625H365.242L369.594 28H368.047ZM367.852 23.7891V25.0234H361.461V23.7891H367.852ZM372.344 21.1719V31.25H370.891V19.5469H372.219L372.344 21.1719ZM378.039 23.7031V23.8672C378.039 24.4818 377.966 25.0521 377.82 25.5781C377.674 26.099 377.461 26.5521 377.18 26.9375C376.904 27.3229 376.562 27.6224 376.156 27.8359C375.75 28.0495 375.284 28.1562 374.758 28.1562C374.221 28.1562 373.747 28.0677 373.336 27.8906C372.924 27.7135 372.576 27.4557 372.289 27.1172C372.003 26.7786 371.773 26.3724 371.602 25.8984C371.435 25.4245 371.32 24.8906 371.258 24.2969V23.4219C371.32 22.7969 371.438 22.237 371.609 21.7422C371.781 21.2474 372.008 20.8255 372.289 20.4766C372.576 20.1224 372.922 19.8542 373.328 19.6719C373.734 19.4844 374.203 19.3906 374.734 19.3906C375.266 19.3906 375.737 19.4948 376.148 19.7031C376.56 19.9062 376.906 20.1979 377.188 20.5781C377.469 20.9583 377.68 21.4141 377.82 21.9453C377.966 22.4714 378.039 23.0573 378.039 23.7031ZM376.586 23.8672V23.7031C376.586 23.2812 376.542 22.8854 376.453 22.5156C376.365 22.1406 376.227 21.8125 376.039 21.5312C375.857 21.2448 375.622 21.0208 375.336 20.8594C375.049 20.6927 374.708 20.6094 374.312 20.6094C373.948 20.6094 373.63 20.6719 373.359 20.7969C373.094 20.9219 372.867 21.0911 372.68 21.3047C372.492 21.513 372.339 21.7526 372.219 22.0234C372.104 22.2891 372.018 22.5651 371.961 22.8516V24.875C372.065 25.2396 372.211 25.5833 372.398 25.9062C372.586 26.224 372.836 26.4818 373.148 26.6797C373.461 26.8724 373.854 26.9688 374.328 26.9688C374.719 26.9688 375.055 26.888 375.336 26.7266C375.622 26.5599 375.857 26.3333 376.039 26.0469C376.227 25.7604 376.365 25.4323 376.453 25.0625C376.542 24.6875 376.586 24.2891 376.586 23.8672ZM381.328 21.1719V31.25H379.875V19.5469H381.203L381.328 21.1719ZM387.023 23.7031V23.8672C387.023 24.4818 386.951 25.0521 386.805 25.5781C386.659 26.099 386.445 26.5521 386.164 26.9375C385.888 27.3229 385.547 27.6224 385.141 27.8359C384.734 28.0495 384.268 28.1562 383.742 28.1562C383.206 28.1562 382.732 28.0677 382.32 27.8906C381.909 27.7135 381.56 27.4557 381.273 27.1172C380.987 26.7786 380.758 26.3724 380.586 25.8984C380.419 25.4245 380.305 24.8906 380.242 24.2969V23.4219C380.305 22.7969 380.422 22.237 380.594 21.7422C380.766 21.2474 380.992 20.8255 381.273 20.4766C381.56 20.1224 381.906 19.8542 382.312 19.6719C382.719 19.4844 383.188 19.3906 383.719 19.3906C384.25 19.3906 384.721 19.4948 385.133 19.7031C385.544 19.9062 385.891 20.1979 386.172 20.5781C386.453 20.9583 386.664 21.4141 386.805 21.9453C386.951 22.4714 387.023 23.0573 387.023 23.7031ZM385.57 23.8672V23.7031C385.57 23.2812 385.526 22.8854 385.438 22.5156C385.349 22.1406 385.211 21.8125 385.023 21.5312C384.841 21.2448 384.607 21.0208 384.32 20.8594C384.034 20.6927 383.693 20.6094 383.297 20.6094C382.932 20.6094 382.615 20.6719 382.344 20.7969C382.078 20.9219 381.852 21.0911 381.664 21.3047C381.477 21.513 381.323 21.7526 381.203 22.0234C381.089 22.2891 381.003 22.5651 380.945 22.8516V24.875C381.049 25.2396 381.195 25.5833 381.383 25.9062C381.57 26.224 381.82 26.4818 382.133 26.6797C382.445 26.8724 382.839 26.9688 383.312 26.9688C383.703 26.9688 384.039 26.888 384.32 26.7266C384.607 26.5599 384.841 26.3333 385.023 26.0469C385.211 25.7604 385.349 25.4323 385.438 25.0625C385.526 24.6875 385.57 24.2891 385.57 23.8672Z" fill="white"/>
<path d="M409.924 23.7498L407.549 22.5623C407.455 22.5158 407.351 22.4947 407.247 22.5012C407.143 22.5077 407.042 22.5416 406.955 22.5995L405.865 23.3268C405.364 23.0517 404.952 22.6398 404.677 22.1393L405.404 21.049C405.462 20.9621 405.496 20.8614 405.503 20.7571C405.509 20.6529 405.488 20.5488 405.442 20.4553L404.254 18.0803C404.205 17.9809 404.129 17.8972 404.034 17.8389C403.94 17.7805 403.831 17.7497 403.72 17.75C402.933 17.75 402.178 18.0628 401.621 18.6195C401.064 19.1763 400.752 19.9314 400.752 20.7188C400.754 22.4503 401.442 24.1105 402.667 25.3349C403.891 26.5593 405.551 27.248 407.283 27.25C407.673 27.25 408.059 27.1732 408.419 27.024C408.779 26.8748 409.106 26.6561 409.382 26.3805C409.658 26.1048 409.877 25.7775 410.026 25.4173C410.175 25.0572 410.252 24.6711 410.252 24.2813C410.252 24.1709 410.221 24.0628 410.163 23.9689C410.105 23.8751 410.022 23.7992 409.924 23.7498ZM407.283 26.0625C405.866 26.0609 404.508 25.4974 403.506 24.4956C402.504 23.4938 401.941 22.1355 401.939 20.7188C401.939 20.3069 402.082 19.9078 402.343 19.5892C402.604 19.2707 402.967 19.0525 403.371 18.9716L404.223 20.6787L403.498 21.7578C403.444 21.8391 403.41 21.9325 403.401 22.0297C403.391 22.1269 403.406 22.225 403.444 22.3152C403.868 23.3249 404.672 24.1281 405.681 24.5529C405.772 24.5921 405.871 24.6081 405.969 24.5996C406.067 24.591 406.162 24.5581 406.244 24.5039L407.328 23.781L409.035 24.633C408.954 25.0373 408.735 25.4008 408.415 25.6615C408.095 25.9222 407.695 26.0639 407.283 26.0625ZM405.502 14.7813C404.169 14.781 402.859 15.1257 401.699 15.7819C400.539 16.4381 399.569 17.3834 398.883 18.5258C398.197 19.6682 397.818 20.9688 397.784 22.301C397.749 23.6332 398.061 24.9516 398.687 26.1278L397.845 28.655C397.775 28.8642 397.765 29.0887 397.815 29.3034C397.866 29.5181 397.975 29.7144 398.131 29.8703C398.287 30.0263 398.484 30.1357 398.698 30.1864C398.913 30.2371 399.137 30.2269 399.347 30.1572L401.874 29.3148C402.909 29.8654 404.056 30.1729 405.228 30.214C406.4 30.2551 407.565 30.0287 408.637 29.5521C409.708 29.0754 410.656 28.3609 411.41 27.4629C412.164 26.5649 412.704 25.507 412.987 24.3694C413.271 23.2318 413.293 22.0444 413.049 20.8975C412.806 19.7505 412.304 18.6741 411.583 17.7499C410.861 16.8258 409.938 16.0781 408.885 15.5637C407.831 15.0493 406.674 14.7817 405.502 14.7813ZM405.502 29.0313C404.354 29.032 403.225 28.7297 402.232 28.1547C402.159 28.1125 402.078 28.0863 401.994 28.0777C401.911 28.0691 401.826 28.0784 401.746 28.105L398.97 29.0313L399.896 26.2555C399.923 26.1757 399.932 26.0912 399.924 26.0075C399.915 25.9238 399.889 25.8429 399.847 25.7701C399.127 24.5254 398.838 23.0779 399.025 21.6521C399.211 20.2263 399.863 18.902 400.879 17.8846C401.896 16.8672 403.219 16.2136 404.645 16.0251C406.07 15.8366 407.518 16.1238 408.764 16.8422C410.009 17.5606 410.983 18.6699 411.534 19.9982C412.085 21.3265 412.182 22.7993 411.81 24.1884C411.438 25.5774 410.618 26.805 409.478 27.6806C408.337 28.5563 406.94 29.031 405.502 29.0313Z" fill="white"/>
</svg>
