<svg width="183" height="44" viewBox="0 0 183 44" fill="none" xmlns="http://www.w3.org/2000/svg">
<path d="M76.6607 27.5059C76.6607 30.0475 75.4821 32.0491 73.1249 33.5108C70.7809 34.9594 68.1932 35.6836 65.362 35.6836C62.9785 35.6836 60.641 35.124 58.3497 34.0047C56.0715 32.8721 54.6954 31.0154 54.2213 28.4343C54.1687 28.1446 54.1423 27.9668 54.1423 27.901C54.1423 27.3216 54.6954 27.0319 55.8016 27.0319C56.697 27.0319 57.2106 27.2887 57.3423 27.8022C58.409 31.8977 61.1283 33.9256 65.5003 33.8861C67.2648 33.8598 69.0294 33.3265 70.794 32.2861C72.5586 31.2327 73.4409 29.6985 73.4409 27.6837C73.4409 26.2352 72.5652 25.1027 70.8138 24.2862C69.5233 23.6805 67.8969 23.2722 65.9348 23.0615C64.7496 22.943 63.4986 22.7521 62.1818 22.4887C60.8781 22.2122 59.6797 21.7908 58.5867 21.2245C56.0847 19.934 54.8337 17.9521 54.8337 15.2789C54.8337 12.6188 56.0715 10.7291 58.5472 9.6098C61.0229 8.49047 63.3604 7.93081 65.5595 7.93081C67.7587 7.93081 69.8525 8.4378 71.8409 9.45178C73.8426 10.4658 75.1594 12.0987 75.7915 14.3505C75.8705 14.627 75.91 14.7982 75.91 14.8641C75.91 15.404 75.3504 15.6739 74.231 15.6739C73.3356 15.6739 72.822 15.4106 72.6903 14.8838C71.9002 11.4468 69.5298 9.72832 65.5793 9.72832C63.92 9.72832 62.2476 10.1629 60.562 11.032C58.8896 11.888 58.0534 13.297 58.0534 15.2591C58.0534 16.6418 59.0213 17.7612 60.9571 18.6171C61.8526 18.999 62.7941 19.2887 63.7818 19.4863C64.7694 19.6838 65.5924 19.8155 66.2509 19.8813C67.5546 20.013 68.878 20.2237 70.2212 20.5134C71.5644 20.8031 72.7496 21.2772 73.7767 21.9356C75.6993 23.1998 76.6607 25.0566 76.6607 27.5059Z" fill="#131C2B"/>
<path d="M50.5689 26.2417C51.6355 26.2417 52.1689 26.5512 52.1689 27.1701C52.1689 27.3677 52.0898 27.743 51.9318 28.296C51.2339 30.7059 49.7458 32.5429 47.4677 33.8071C45.2027 35.0581 42.8587 35.6836 40.4356 35.6836C36.3929 35.6836 33.2456 34.3997 30.9937 31.8318C28.7551 29.2639 27.6357 25.985 27.6357 21.9949C27.6357 17.9521 28.7617 14.6007 31.0135 11.9406C33.2653 9.26741 36.4982 7.9308 40.7122 7.9308C43.1879 7.9308 45.5582 8.59581 47.8232 9.92584C50.0882 11.2559 51.4841 13.1917 52.0108 15.7332C52.0898 16.0229 52.1294 16.2468 52.1294 16.4048C52.1294 17.0501 51.5894 17.3727 50.5096 17.3727C49.5088 17.3727 48.9755 17.0961 48.9096 16.5431C48.317 11.9999 45.5846 9.72831 40.7122 9.72831C37.3673 9.72831 34.8851 11.0057 33.2653 13.5604C31.6456 16.1019 30.8357 18.8673 30.8357 21.8566C30.8357 24.7932 31.5995 27.5323 33.1271 30.0738C34.6678 32.6154 37.104 33.8861 40.4356 33.8861C42.4373 33.8861 44.2743 33.254 45.9467 31.9898C47.6323 30.7257 48.6397 29.0796 48.9689 27.0516C49.0611 26.5117 49.5944 26.2417 50.5689 26.2417Z" fill="#131C2B"/>
<path d="M26.1331 34.8145C26.1331 35.3939 25.5273 35.6836 24.3158 35.6836C23.3809 35.6836 22.8146 35.4532 22.6171 34.9923L18.9233 26.4985H6.02464L2.31109 35.2293C2.16624 35.5322 1.79751 35.6836 1.20493 35.6836C0.401643 35.6836 0 35.4861 0 35.0911C0 35.0779 0.0131686 35.0186 0.0395059 34.9133L11.2394 8.58264C11.4106 8.14808 12.0295 7.9308 13.0962 7.9308C14.018 7.9308 14.5842 8.16125 14.7949 8.62215L26.0146 34.459C26.0936 34.6433 26.1331 34.7618 26.1331 34.8145ZM18.1529 24.701L12.4048 11.4666L6.77525 24.701H18.1529Z" fill="#131C2B"/>
<path d="M82.8037 0.307224L88.9466 21.8072L82.8037 43.3072" stroke="#DDD1BB" stroke-width="0.614288" stroke-linecap="round"/>
<path d="M87.1045 0.307224L93.2473 21.8072L87.1045 43.3072" stroke="#DDD1BB" stroke-width="0.614288" stroke-linecap="round"/>
<path d="M161.122 43.2721C160.57 43.2721 160.017 43.1749 159.465 42.9805C158.923 42.7861 158.514 42.5406 158.237 42.244L158.191 40.51H158.897C159.081 41.1443 159.373 41.6404 159.772 41.9985C160.181 42.3565 160.677 42.5355 161.26 42.5355C161.71 42.5355 162.074 42.4281 162.35 42.2133C162.626 41.9882 162.764 41.6864 162.764 41.3079C162.764 40.6942 162.396 40.2594 161.659 40.0037L159.956 39.3899C158.913 39.0216 158.391 38.3669 158.391 37.4258C158.391 36.7301 158.652 36.1675 159.173 35.7379C159.695 35.298 160.36 35.078 161.168 35.078C161.649 35.078 162.115 35.1599 162.565 35.3236C163.025 35.477 163.388 35.6765 163.654 35.922V37.6866H162.948C162.836 37.0933 162.611 36.633 162.273 36.3056C161.935 35.9783 161.511 35.8146 160.999 35.8146C160.58 35.8146 160.242 35.9169 159.987 36.1215C159.731 36.3261 159.603 36.6023 159.603 36.9501C159.603 37.5127 159.956 37.9219 160.662 38.1776L162.38 38.7914C163.526 39.2006 164.099 39.886 164.099 40.8476C164.099 41.5739 163.818 42.1621 163.255 42.6122C162.703 43.0521 161.992 43.2721 161.122 43.2721Z" fill="#131C2B"/>
<path d="M148.522 42.4281C148.778 42.4076 148.973 42.3821 149.106 42.3514C149.239 42.3105 149.356 42.2286 149.458 42.1059C149.571 41.9729 149.627 41.7939 149.627 41.5688V36.5358L148.599 36.2289V35.7992L150.671 35.2622H150.916V36.7506C151.264 36.2493 151.699 35.8453 152.221 35.5384C152.752 35.2315 153.29 35.078 153.832 35.078C154.486 35.078 155.023 35.3082 155.443 35.7685C155.862 36.2186 156.072 36.7966 156.072 37.5025V41.5688C156.072 41.7939 156.123 41.9729 156.225 42.1059C156.338 42.2286 156.461 42.3105 156.594 42.3514C156.727 42.3821 156.921 42.4076 157.177 42.4281V43.0879H153.678V42.4281C153.934 42.4076 154.128 42.3821 154.261 42.3514C154.394 42.3105 154.512 42.2286 154.614 42.1059C154.727 41.9729 154.783 41.7939 154.783 41.5688V37.9475C154.783 37.4564 154.645 37.0677 154.369 36.7813C154.103 36.4948 153.735 36.3516 153.264 36.3516C152.875 36.3516 152.466 36.4642 152.036 36.6892C151.607 36.9143 151.233 37.216 150.916 37.5945V41.5688C150.916 41.7939 150.967 41.9729 151.07 42.1059C151.182 42.2286 151.305 42.3105 151.438 42.3514C151.571 42.3821 151.765 42.4076 152.021 42.4281V43.0879H148.522V42.4281Z" fill="#131C2B"/>
<path d="M143.87 43.2721C142.817 43.2721 141.957 42.9038 141.292 42.1672C140.638 41.4307 140.31 40.4844 140.31 39.3285C140.31 38.0805 140.668 37.0626 141.384 36.2749C142.101 35.477 143.021 35.078 144.146 35.078C145.2 35.078 146.059 35.4463 146.724 36.1828C147.389 36.9194 147.722 37.8656 147.722 39.0216C147.722 40.2696 147.359 41.2926 146.632 42.0905C145.916 42.8782 144.996 43.2721 143.87 43.2721ZM144.146 42.3821C144.801 42.3821 145.313 42.111 145.681 41.5688C146.059 41.0164 146.249 40.2696 146.249 39.3285C146.249 38.3055 146.034 37.4922 145.604 36.8887C145.185 36.2749 144.612 35.968 143.886 35.968C143.231 35.968 142.714 36.2442 142.336 36.7966C141.968 37.3388 141.783 38.0805 141.783 39.0216C141.783 40.0446 141.993 40.8629 142.413 41.4767C142.842 42.0803 143.42 42.3821 144.146 42.3821Z" fill="#131C2B"/>
<path d="M136.101 42.4281C136.356 42.4077 136.551 42.3821 136.684 42.3514C136.817 42.3105 136.934 42.2286 137.037 42.1059C137.149 41.9729 137.205 41.7939 137.205 41.5688V36.5358L136.177 36.2289V35.7992L138.249 35.2622H138.494V41.5688C138.494 41.7939 138.545 41.9729 138.648 42.1059C138.76 42.2286 138.883 42.3105 139.016 42.3514C139.149 42.3821 139.343 42.4077 139.599 42.4281V43.0879H136.101V42.4281ZM137.067 33.9579V32.2853H138.617V33.9579H137.067Z" fill="#131C2B"/>
<path d="M132.931 43.272C132.389 43.272 131.955 43.0981 131.627 42.7503C131.3 42.3923 131.136 41.937 131.136 41.3846V36.2442H129.663V35.6304L131.995 33.697H132.425V35.4002L134.727 35.2621V36.2442H132.425V41.001C132.425 41.3591 132.527 41.6455 132.732 41.8603C132.947 42.0649 133.243 42.1672 133.622 42.1672C134.103 42.1672 134.502 42.0496 134.819 41.8143L135.018 42.1826C134.445 42.9089 133.75 43.272 132.931 43.272Z" fill="#131C2B"/>
<path d="M124.023 43.272C123.379 43.272 122.842 43.047 122.412 42.5969C121.993 42.1365 121.783 41.5534 121.783 40.8476V36.8426C121.783 36.6278 121.696 36.4641 121.522 36.3516C121.358 36.2391 121.067 36.1624 120.647 36.1214V35.523L122.842 35.124H123.072V40.4026C123.072 40.8936 123.21 41.2823 123.486 41.5688C123.762 41.8552 124.131 41.9984 124.591 41.9984C125.553 41.9984 126.305 41.6557 126.847 40.9703V36.8426C126.847 36.6278 126.765 36.4641 126.601 36.3516C126.437 36.2391 126.156 36.1624 125.757 36.1214V35.523L127.905 35.124H128.136V41.4153C128.136 41.7734 128.238 42.024 128.443 42.1672C128.657 42.3002 128.995 42.3872 129.455 42.4281V42.9191L127.123 43.272H126.847V41.6915C126.509 42.1826 126.09 42.5713 125.588 42.8577C125.087 43.1339 124.565 43.272 124.023 43.272Z" fill="#131C2B"/>
<path d="M116.647 42.4281C116.913 42.4076 117.113 42.3821 117.246 42.3514C117.379 42.3104 117.497 42.2286 117.599 42.1058C117.711 41.9729 117.768 41.7938 117.768 41.5688V32.6229L116.724 32.316V31.8863L118.811 31.3493H119.057V41.5688C119.057 41.7938 119.108 41.9729 119.21 42.1058C119.312 42.2286 119.43 42.3104 119.563 42.3514C119.696 42.3821 119.895 42.4076 120.161 42.4281V43.0879H116.647V42.4281Z" fill="#131C2B"/>
<path d="M112.193 43.272C111.139 43.272 110.28 42.9037 109.615 42.1672C108.96 41.4306 108.633 40.4844 108.633 39.3284C108.633 38.0804 108.991 37.0625 109.707 36.2749C110.423 35.4769 111.344 35.078 112.469 35.078C113.523 35.078 114.382 35.4462 115.047 36.1828C115.712 36.9193 116.044 37.8656 116.044 39.0215C116.044 40.2696 115.681 41.2925 114.955 42.0905C114.239 42.8782 113.318 43.272 112.193 43.272ZM112.469 42.382C113.124 42.382 113.635 42.1109 114.003 41.5687C114.382 41.0163 114.571 40.2696 114.571 39.3284C114.571 38.3055 114.356 37.4922 113.927 36.8886C113.507 36.2749 112.934 35.968 112.208 35.968C111.553 35.968 111.037 36.2442 110.658 36.7966C110.29 37.3387 110.106 38.0804 110.106 39.0215C110.106 40.0445 110.316 40.8629 110.735 41.4767C111.165 42.0802 111.743 42.382 112.469 42.382Z" fill="#131C2B"/>
<path d="M103.702 43.272C103.006 43.272 102.321 43.1595 101.646 42.9345C100.981 42.7094 100.469 42.423 100.111 42.0752L99.9424 39.6507H100.572C100.868 40.51 101.293 41.1801 101.845 41.6608C102.408 42.1416 103.083 42.382 103.871 42.382C104.495 42.382 104.991 42.2388 105.359 41.9524C105.727 41.6557 105.911 41.2159 105.911 40.6328C105.911 40.0599 105.717 39.5893 105.328 39.2211C104.94 38.8528 104.464 38.5664 103.901 38.3618C103.349 38.1572 102.791 37.9475 102.229 37.7326C101.676 37.5178 101.206 37.2007 100.817 36.7813C100.428 36.3618 100.234 35.8299 100.234 35.1854C100.234 34.3057 100.556 33.61 101.201 33.0986C101.855 32.5768 102.704 32.316 103.748 32.316C104.986 32.316 105.963 32.6229 106.679 33.2367V35.3389H106.05C105.917 34.6842 105.64 34.1625 105.221 33.7737C104.802 33.385 104.244 33.1906 103.548 33.1906C102.945 33.1906 102.459 33.339 102.091 33.6356C101.733 33.9221 101.554 34.2954 101.554 34.7558C101.554 35.1036 101.661 35.4054 101.876 35.6611C102.091 35.9169 102.367 36.1266 102.704 36.2902C103.052 36.4539 103.436 36.6074 103.855 36.7506C104.275 36.8938 104.689 37.0575 105.098 37.2416C105.518 37.4155 105.896 37.6201 106.234 37.8554C106.581 38.0907 106.863 38.4027 107.078 38.7914C107.292 39.1801 107.4 39.6354 107.4 40.1571C107.4 41.1289 107.052 41.891 106.356 42.4434C105.671 42.9958 104.786 43.272 103.702 43.272Z" fill="#131C2B"/>
<path d="M179.488 27.3006C178.455 27.3006 177.621 26.9324 176.987 26.1958C176.363 25.449 176.051 24.4874 176.051 23.311C176.051 22.0937 176.388 21.0912 177.064 20.3035C177.739 19.5056 178.583 19.1066 179.596 19.1066C180.557 19.1066 181.299 19.4442 181.82 20.1193C182.352 20.7843 182.649 21.6743 182.71 22.7893H177.34V22.9581C177.34 23.9504 177.59 24.7125 178.092 25.2444C178.593 25.7662 179.212 26.027 179.948 26.027C180.971 26.027 181.805 25.5462 182.45 24.5846L182.741 24.7841C182.148 26.4618 181.063 27.3006 179.488 27.3006ZM177.432 22.0067H181.268C181.186 21.3725 180.982 20.8815 180.654 20.5337C180.337 20.1756 179.938 19.9966 179.457 19.9966C178.936 19.9966 178.496 20.1756 178.138 20.5337C177.79 20.8815 177.555 21.3725 177.432 22.0067Z" fill="#131C2B"/>
<path d="M171.757 27.3006C170.703 27.3006 169.854 26.9323 169.21 26.1958C168.565 25.4593 168.243 24.5079 168.243 23.3417C168.243 22.1141 168.596 21.1014 169.302 20.3035C170.018 19.5055 170.923 19.1066 172.018 19.1066C172.54 19.1066 173.041 19.1987 173.522 19.3828C174.013 19.5669 174.396 19.8073 174.672 20.104V21.8686H173.844C173.762 21.2855 173.537 20.8303 173.169 20.5029C172.8 20.1654 172.35 19.9966 171.818 19.9966C171.123 19.9966 170.565 20.2625 170.146 20.7945C169.737 21.3264 169.532 22.0323 169.532 22.912C169.532 23.9146 169.793 24.6869 170.315 25.2291C170.836 25.761 171.465 26.027 172.202 26.027C173.235 26.027 174.079 25.5462 174.734 24.5846L175.025 24.7841C174.422 26.4618 173.332 27.3006 171.757 27.3006Z" fill="#131C2B"/>
<path d="M158.861 26.4567C159.117 26.4362 159.311 26.4106 159.444 26.3799C159.577 26.339 159.695 26.2572 159.797 26.1344C159.91 26.0014 159.966 25.8224 159.966 25.5974V20.5643L158.938 20.2574V19.8278L161.01 19.2907H161.255V20.7792C161.603 20.2779 162.038 19.8738 162.559 19.5669C163.091 19.26 163.628 19.1066 164.171 19.1066C164.825 19.1066 165.362 19.3368 165.782 19.7971C166.201 20.2472 166.411 20.8252 166.411 21.531V25.5974C166.411 25.8224 166.462 26.0014 166.564 26.1344C166.677 26.2572 166.8 26.339 166.933 26.3799C167.066 26.4106 167.26 26.4362 167.516 26.4567V27.1165H164.017V26.4567C164.273 26.4362 164.467 26.4106 164.6 26.3799C164.733 26.339 164.851 26.2572 164.953 26.1344C165.066 26.0014 165.122 25.8224 165.122 25.5974V21.976C165.122 21.485 164.984 21.0963 164.708 20.8098C164.442 20.5234 164.073 20.3802 163.603 20.3802C163.214 20.3802 162.805 20.4927 162.375 20.7178C161.946 20.9428 161.572 21.2446 161.255 21.6231V25.5974C161.255 25.8224 161.306 26.0014 161.409 26.1344C161.521 26.2572 161.644 26.339 161.777 26.3799C161.91 26.4106 162.104 26.4362 162.36 26.4567V27.1165H158.861V26.4567Z" fill="#131C2B"/>
<path d="M152.621 27.3006C151.986 27.3006 151.465 27.1165 151.055 26.7482C150.657 26.3697 150.457 25.8787 150.457 25.2751C150.457 24.7432 150.641 24.2982 151.009 23.9401C151.388 23.5719 151.986 23.265 152.805 23.0195L155.245 22.2829V21.6078C155.245 21.1167 155.101 20.728 154.815 20.4416C154.528 20.1449 154.145 19.9966 153.664 19.9966C153.204 19.9966 152.82 20.1347 152.513 20.4109C152.217 20.6769 152.058 21.04 152.038 21.5003V21.8379H150.687V21.5924C150.687 20.8763 150.984 20.283 151.577 19.8124C152.171 19.3419 152.887 19.1066 153.725 19.1066C154.544 19.1066 155.214 19.3265 155.736 19.7664C156.268 20.2063 156.533 20.774 156.533 21.4697V25.4132C156.533 25.9861 156.743 26.2725 157.163 26.2725C157.367 26.2725 157.572 26.206 157.776 26.073L157.976 26.4567C157.649 27.0193 157.198 27.3006 156.626 27.3006C156.216 27.3006 155.894 27.1727 155.659 26.917C155.424 26.6613 155.291 26.3288 155.26 25.9196C154.431 26.8403 153.552 27.3006 152.621 27.3006ZM153.25 26.1037C154.007 26.1037 154.672 25.8429 155.245 25.3212V22.9427L153.403 23.5258C152.421 23.8327 151.93 24.3238 151.93 24.9989C151.93 25.7355 152.37 26.1037 153.25 26.1037Z" fill="#131C2B"/>
<path d="M145.96 26.4567C146.216 26.4362 146.41 26.4106 146.543 26.3799C146.676 26.339 146.794 26.2572 146.896 26.1344C147.009 26.0014 147.065 25.8224 147.065 25.5974V20.5643L146.037 20.2574V19.8278L148.108 19.2907H148.354V25.5974C148.354 25.8224 148.405 26.0014 148.507 26.1344C148.62 26.2572 148.742 26.339 148.875 26.3799C149.008 26.4106 149.203 26.4362 149.459 26.4567V27.1165H145.96V26.4567ZM146.927 17.9864V16.3139H148.476V17.9864H146.927Z" fill="#131C2B"/>
<path d="M141.431 26.4566C141.697 26.4362 141.896 26.4106 142.029 26.3799C142.162 26.339 142.28 26.2572 142.382 26.1344C142.495 26.0014 142.551 25.8224 142.551 25.5973V16.6514L141.507 16.3446V15.9149L143.594 15.3778H143.84V25.5973C143.84 25.8224 143.891 26.0014 143.993 26.1344C144.096 26.2572 144.213 26.339 144.346 26.3799C144.479 26.4106 144.679 26.4362 144.945 26.4566V27.1165H141.431V26.4566Z" fill="#131C2B"/>
<path d="M137.145 27.3006C136.419 27.3006 135.774 27.1011 135.211 26.7022V28.3594C135.211 28.5844 135.263 28.7583 135.365 28.8811C135.477 29.0141 135.6 29.0959 135.733 29.1266C135.866 29.1675 136.06 29.1982 136.316 29.2187V29.8785H132.802V29.2187C133.068 29.1982 133.268 29.1675 133.401 29.1266C133.534 29.0959 133.651 29.0141 133.754 28.8811C133.866 28.7583 133.922 28.5844 133.922 28.3594V20.9633C133.922 20.6052 133.815 20.3597 133.6 20.2267C133.396 20.0835 133.068 19.9915 132.618 19.9505V19.4595L134.935 19.1066H135.211V20.3495C135.917 19.5209 136.731 19.1066 137.651 19.1066C138.572 19.1066 139.324 19.48 139.907 20.2267C140.5 20.9735 140.797 21.9198 140.797 23.0655C140.797 24.3033 140.454 25.3212 139.769 26.1191C139.083 26.9068 138.209 27.3006 137.145 27.3006ZM135.211 24.201C135.211 24.8864 135.406 25.4388 135.794 25.8582C136.193 26.2776 136.695 26.4873 137.298 26.4873C137.963 26.4873 138.49 26.2163 138.879 25.6741C139.267 25.1217 139.462 24.3851 139.462 23.4645C139.462 22.5131 139.252 21.7561 138.833 21.1935C138.413 20.6308 137.83 20.3495 137.083 20.3495C136.347 20.3495 135.723 20.5592 135.211 20.9786V24.201Z" fill="#131C2B"/>
<path d="M118.762 26.4567C119.018 26.4362 119.212 26.4106 119.345 26.3799C119.478 26.339 119.596 26.2572 119.698 26.1344C119.81 26.0014 119.867 25.8224 119.867 25.5974V20.5643L118.839 20.2574V19.8278L120.91 19.2907H121.156V20.7178C121.483 20.2165 121.887 19.8227 122.368 19.5362C122.849 19.2498 123.35 19.1066 123.872 19.1066C124.424 19.1066 124.9 19.2651 125.299 19.5823C125.708 19.8892 125.974 20.2984 126.097 20.8098C126.434 20.2881 126.854 19.8738 127.355 19.5669C127.856 19.26 128.378 19.1066 128.92 19.1066C129.585 19.1066 130.132 19.3265 130.562 19.7664C130.991 20.2063 131.206 20.7638 131.206 21.439V25.5974C131.206 25.6997 131.222 25.7917 131.252 25.8736C131.283 25.9554 131.324 26.027 131.375 26.0884C131.436 26.1395 131.493 26.1856 131.544 26.2265C131.605 26.2572 131.677 26.2879 131.759 26.3186C131.851 26.3492 131.917 26.3748 131.958 26.3953C132.009 26.4055 132.076 26.4208 132.158 26.4413C132.25 26.4515 132.301 26.4567 132.311 26.4567V27.1165H128.812V26.4567C129.068 26.4362 129.263 26.4106 129.396 26.3799C129.529 26.339 129.646 26.2572 129.749 26.1344C129.861 26.0014 129.917 25.8224 129.917 25.5974V21.884C129.917 21.4236 129.774 21.0605 129.488 20.7945C129.201 20.5183 128.828 20.3802 128.368 20.3802C127.549 20.3802 126.818 20.774 126.173 21.5617V25.5974C126.173 25.8224 126.224 26.0014 126.327 26.1344C126.439 26.2572 126.562 26.339 126.695 26.3799C126.828 26.4106 127.027 26.4362 127.293 26.4567V27.1165H123.779V26.4567C124.045 26.4362 124.245 26.4106 124.378 26.3799C124.511 26.339 124.629 26.2572 124.731 26.1344C124.833 26.0014 124.884 25.8224 124.884 25.5974V21.884C124.884 21.4236 124.741 21.0605 124.455 20.7945C124.178 20.5183 123.81 20.3802 123.35 20.3802C122.531 20.3802 121.8 20.7843 121.156 21.5924V25.5974C121.156 25.8224 121.207 26.0014 121.309 26.1344C121.422 26.2572 121.544 26.339 121.677 26.3799C121.81 26.4106 122.005 26.4362 122.26 26.4567V27.1165H118.762V26.4567Z" fill="#131C2B"/>
<path d="M114.111 27.3006C113.057 27.3006 112.198 26.9323 111.533 26.1958C110.878 25.4593 110.551 24.513 110.551 23.357C110.551 22.109 110.909 21.0912 111.625 20.3035C112.341 19.5055 113.262 19.1066 114.387 19.1066C115.441 19.1066 116.3 19.4749 116.965 20.2114C117.63 20.9479 117.962 21.8942 117.962 23.0502C117.962 24.2982 117.599 25.3212 116.873 26.1191C116.157 26.9068 115.236 27.3006 114.111 27.3006ZM114.387 26.4106C115.042 26.4106 115.553 26.1395 115.922 25.5974C116.3 25.045 116.489 24.2982 116.489 23.357C116.489 22.3341 116.275 21.5208 115.845 20.9173C115.425 20.3035 114.853 19.9966 114.126 19.9966C113.472 19.9966 112.955 20.2728 112.577 20.8252C112.208 21.3674 112.024 22.109 112.024 23.0502C112.024 24.0731 112.234 24.8915 112.653 25.5053C113.083 26.1088 113.661 26.4106 114.387 26.4106Z" fill="#131C2B"/>
<path d="M105.052 27.3006C103.548 27.3006 102.321 26.7993 101.369 25.7968C100.418 24.7943 99.9424 23.5156 99.9424 21.9607C99.9424 20.3341 100.449 18.994 101.461 17.9404C102.474 16.8765 103.753 16.3445 105.298 16.3445C106.055 16.3445 106.781 16.4724 107.477 16.7282C108.182 16.9839 108.699 17.3113 109.026 17.7102V19.8124H108.397C108.172 19.035 107.763 18.4212 107.17 17.9711C106.576 17.521 105.871 17.2959 105.052 17.2959C103.958 17.2959 103.088 17.6949 102.444 18.4928C101.799 19.2907 101.477 20.3648 101.477 21.7152C101.477 23.1166 101.82 24.2419 102.505 25.091C103.19 25.9298 104.096 26.3492 105.221 26.3492C106.05 26.3492 106.766 26.1191 107.369 25.6587C107.973 25.1984 108.382 24.5795 108.597 23.802H109.226L108.996 25.9042C108.689 26.293 108.152 26.6254 107.385 26.9016C106.628 27.1676 105.85 27.3006 105.052 27.3006Z" fill="#131C2B"/>
<path d="M147.515 11.3292C146.962 11.3292 146.41 11.232 145.858 11.0376C145.315 10.8432 144.906 10.5977 144.63 10.3011L144.584 8.56713H145.29C145.474 9.20137 145.766 9.69751 146.164 10.0556C146.574 10.4136 147.07 10.5926 147.653 10.5926C148.103 10.5926 148.466 10.4852 148.742 10.2704C149.019 10.0453 149.157 9.74355 149.157 9.36505C149.157 8.75126 148.788 8.3165 148.052 8.06076L146.349 7.44697C145.305 7.0787 144.783 6.424 144.783 5.48286C144.783 4.78724 145.044 4.2246 145.566 3.79495C146.088 3.35507 146.753 3.13514 147.561 3.13514C148.042 3.13514 148.507 3.21697 148.957 3.38065C149.418 3.5341 149.781 3.73358 150.047 3.97909V5.74372H149.341C149.228 5.15039 149.003 4.69006 148.666 4.3627C148.328 4.03535 147.904 3.87168 147.392 3.87168C146.973 3.87168 146.635 3.97397 146.379 4.17857C146.124 4.38316 145.996 4.65937 145.996 5.00718C145.996 5.56981 146.349 5.979 147.054 6.23475L148.773 6.84853C149.919 7.25772 150.492 7.94311 150.492 8.90471C150.492 9.63102 150.21 10.2192 149.648 10.6693C149.095 11.1092 148.384 11.3292 147.515 11.3292Z" fill="#131C2B"/>
<path d="M140.011 10.4852C140.266 10.4648 140.461 10.4392 140.594 10.4085C140.727 10.3676 140.844 10.2857 140.947 10.163C141.059 10.03 141.116 9.85097 141.116 9.62592V4.59289L140.087 4.286V3.85635L142.159 3.31928H142.404V9.62592C142.404 9.85097 142.456 10.03 142.558 10.163C142.67 10.2857 142.793 10.3676 142.926 10.4085C143.059 10.4392 143.254 10.4648 143.509 10.4852V11.145H140.011V10.4852ZM140.977 2.01499V0.34243H142.527V2.01499H140.977Z" fill="#131C2B"/>
<path d="M136.842 11.3292C136.299 11.3292 135.865 11.1553 135.537 10.8075C135.21 10.4494 135.046 9.99421 135.046 9.4418V4.30136H133.573V3.68757L135.906 1.75415H136.335V3.45741L138.637 3.3193V4.30136H136.335V9.05819C136.335 9.41623 136.438 9.70266 136.642 9.91749C136.857 10.1221 137.154 10.2244 137.532 10.2244C138.013 10.2244 138.412 10.1067 138.729 9.87145L138.929 10.2397C138.356 10.966 137.66 11.3292 136.842 11.3292Z" fill="#131C2B"/>
<path d="M124.756 10.4852C125.012 10.4647 125.206 10.4392 125.339 10.4085C125.472 10.3676 125.59 10.2857 125.692 10.163C125.804 10.03 125.861 9.85096 125.861 9.6259V4.59287L124.833 4.28598V3.85633L126.904 3.31927H127.15V4.8077C127.497 4.30644 127.932 3.90237 128.454 3.59547C128.986 3.28858 129.523 3.13514 130.065 3.13514C130.72 3.13514 131.257 3.3653 131.676 3.82564C132.096 4.27575 132.305 4.85373 132.305 5.55958V9.6259C132.305 9.85096 132.357 10.03 132.459 10.163C132.571 10.2857 132.694 10.3676 132.827 10.4085C132.96 10.4392 133.154 10.4647 133.41 10.4852V11.145H129.912V10.4852C130.167 10.4647 130.362 10.4392 130.495 10.4085C130.628 10.3676 130.745 10.2857 130.848 10.163C130.96 10.03 131.016 9.85096 131.016 9.6259V6.00458C131.016 5.51355 130.878 5.12482 130.602 4.83839C130.336 4.55195 129.968 4.40874 129.497 4.40874C129.109 4.40874 128.699 4.52126 128.27 4.74632C127.84 4.97137 127.467 5.27315 127.15 5.65165V9.6259C127.15 9.85096 127.201 10.03 127.303 10.163C127.416 10.2857 127.538 10.3676 127.671 10.4085C127.804 10.4392 127.999 10.4647 128.254 10.4852V11.145H124.756V10.4852Z" fill="#131C2B"/>
<path d="M120.611 11.3292C119.578 11.3292 118.744 10.9609 118.11 10.2243C117.486 9.47757 117.174 8.51598 117.174 7.33956C117.174 6.12222 117.512 5.1197 118.187 4.33201C118.862 3.5341 119.706 3.13514 120.719 3.13514C121.68 3.13514 122.422 3.47272 122.944 4.14788C123.475 4.81281 123.772 5.7028 123.834 6.81784H118.463V6.98663C118.463 7.97892 118.714 8.74103 119.215 9.27298C119.716 9.7947 120.335 10.0556 121.071 10.0556C122.094 10.0556 122.928 9.57476 123.573 8.61316L123.864 8.81264C123.271 10.4903 122.187 11.3292 120.611 11.3292ZM118.555 6.03527H122.391C122.309 5.40102 122.105 4.91 121.777 4.56218C121.46 4.20414 121.061 4.02512 120.58 4.02512C120.059 4.02512 119.619 4.20414 119.261 4.56218C118.913 4.91 118.678 5.40102 118.555 6.03527Z" fill="#131C2B"/>
<path d="M109.801 4.8384C109.658 4.51104 109.515 4.29622 109.372 4.19392C109.228 4.08139 108.988 4.00979 108.65 3.9791V3.31928H112.149V3.9791C111.965 3.99956 111.816 4.02002 111.704 4.04048C111.591 4.06093 111.474 4.10697 111.351 4.17858C111.228 4.23996 111.167 4.32179 111.167 4.42409C111.177 4.52639 111.203 4.66449 111.244 4.8384L113.07 9.16557L114.773 4.8384C114.855 4.70541 114.875 4.59288 114.834 4.50081C114.804 4.39852 114.773 4.31668 114.742 4.2553C114.722 4.19392 114.655 4.14789 114.543 4.1172C114.44 4.07628 114.353 4.05071 114.282 4.04048C114.21 4.02002 114.118 3.99956 114.006 3.9791V3.31928H116.768V3.9791C116.42 4.00979 116.169 4.08139 116.016 4.19392C115.873 4.29622 115.734 4.51104 115.601 4.8384L113.024 11.3292H112.594L109.801 4.8384Z" fill="#131C2B"/>
<path d="M99.3916 10.4852C99.719 10.4647 99.9696 10.4085 100.143 10.3164C100.328 10.2141 100.471 10.0351 100.573 9.77935L104.256 0.373108H104.747L108.844 9.62591C108.987 9.94303 109.13 10.1579 109.274 10.2704C109.427 10.3829 109.667 10.4545 109.995 10.4852V11.145H106.205V10.4852C106.624 10.4443 106.946 10.3624 107.171 10.2397C107.407 10.1169 107.463 9.91234 107.34 9.62591L106.527 7.7999H102.368L101.601 9.77935C101.499 10.0351 101.54 10.209 101.724 10.3011C101.918 10.3931 102.225 10.4545 102.645 10.4852V11.145H99.3916V10.4852ZM102.691 6.97129H106.159L104.317 2.79756L102.691 6.97129Z" fill="#131C2B"/>
</svg>