<svg width="217" height="52" viewBox="0 0 217 52" fill="none" xmlns="http://www.w3.org/2000/svg">
<path d="M90.9236 32.6233C90.9236 35.6377 89.5257 38.0117 86.73 39.7453C83.9499 41.4634 80.8808 42.3224 77.5228 42.3224C74.6959 42.3224 71.9236 41.6586 69.206 40.331C66.5039 38.9878 64.8718 36.7856 64.3095 33.7244C64.2471 33.3808 64.2158 33.1699 64.2158 33.0918C64.2158 32.4046 64.8718 32.061 66.1838 32.061C67.2458 32.061 67.855 32.3656 68.0111 32.9747C69.2762 37.8321 72.5015 40.2373 77.6868 40.1905C79.7797 40.1592 81.8726 39.5267 83.9655 38.2928C86.0584 37.0433 87.1048 35.2238 87.1048 32.8341C87.1048 31.1161 86.0662 29.7729 83.9889 28.8045C82.4583 28.0861 80.5294 27.6019 78.2023 27.352C76.7966 27.2114 75.3128 26.985 73.751 26.6726C72.2047 26.3446 70.7834 25.8448 69.4871 25.1732C66.5196 23.6426 65.0358 21.292 65.0358 18.1214C65.0358 14.9665 66.5039 12.7252 69.4402 11.3976C72.3765 10.07 75.1488 9.40625 77.7571 9.40625C80.3654 9.40625 82.8488 10.0076 85.2072 11.2102C87.5812 12.4128 89.1431 14.3495 89.8928 17.0203C89.9865 17.3483 90.0333 17.5513 90.0333 17.6294C90.0333 18.2698 89.3695 18.59 88.042 18.59C86.9799 18.59 86.3708 18.2776 86.2146 17.6529C85.2775 13.5764 82.4661 11.5382 77.7806 11.5382C75.8126 11.5382 73.8291 12.0536 71.8299 13.0844C69.8463 14.0996 68.8545 15.7708 68.8545 18.098C68.8545 19.7379 70.0025 21.0655 72.2984 22.0807C73.3605 22.5337 74.4772 22.8773 75.6486 23.1116C76.82 23.3458 77.7962 23.502 78.5771 23.5801C80.1233 23.7363 81.693 23.9862 83.2861 24.3298C84.8792 24.6734 86.2849 25.2357 87.5031 26.0166C89.7834 27.516 90.9236 29.7182 90.9236 32.6233Z" fill="#131C2B"/>
<path d="M59.9771 31.1239C61.2422 31.1239 61.8748 31.4909 61.8748 32.225C61.8748 32.4593 61.7811 32.9044 61.5936 33.5604C60.7658 36.4186 59.0009 38.5974 56.2989 40.0968C53.6125 41.5805 50.8324 42.3224 47.9586 42.3224C43.1637 42.3224 39.4309 40.7996 36.7601 37.754C34.1049 34.7084 32.7773 30.8193 32.7773 26.0869C32.7773 21.292 34.1127 17.3171 36.7835 14.1621C39.4543 10.9915 43.2886 9.40625 48.2866 9.40625C51.2229 9.40625 54.0342 10.195 56.7206 11.7725C59.407 13.3499 61.0626 15.6459 61.6873 18.6603C61.781 19.0039 61.8279 19.2694 61.8279 19.4568C61.8279 20.2221 61.1875 20.6048 59.9068 20.6048C58.7198 20.6048 58.0873 20.2768 58.0092 19.6208C57.3063 14.2324 54.0655 11.5382 48.2866 11.5382C44.3195 11.5382 41.3754 13.0532 39.4543 16.0832C37.5332 19.0976 36.5727 22.3775 36.5727 25.9229C36.5727 29.4058 37.4785 32.6545 39.2903 35.6689C41.1177 38.6833 44.0071 40.1905 47.9586 40.1905C50.3326 40.1905 52.5114 39.4408 54.495 37.9414C56.4942 36.442 57.689 34.4897 58.0794 32.0844C58.1888 31.4441 58.8213 31.1239 59.9771 31.1239Z" fill="#131C2B"/>
<path d="M30.9951 41.2916C30.9951 41.9788 30.2766 42.3224 28.8397 42.3224C27.7308 42.3224 27.0592 42.0491 26.8249 41.5024L22.4439 31.4285H7.1455L2.74106 41.7836C2.56926 42.1428 2.13194 42.3224 1.4291 42.3224C0.476367 42.3224 0 42.0881 0 41.6196C0 41.604 0.0156186 41.5337 0.0468558 41.4087L13.3305 10.1794C13.5335 9.66396 14.2676 9.40625 15.5327 9.40625C16.626 9.40625 17.2976 9.67958 17.5475 10.2262L30.8545 40.8699C30.9482 41.0885 30.9951 41.2291 30.9951 41.2916ZM21.5302 29.2965L14.7127 13.5998L8.03576 29.2965H21.5302Z" fill="#131C2B"/>
<path d="M98.2093 0.364258L105.495 25.8643L98.2093 51.3643" stroke="#DDD1BB" stroke-width="0.728574" stroke-linecap="round"/>
<path d="M103.31 0.364258L110.595 25.8643L103.31 51.3643" stroke="#DDD1BB" stroke-width="0.728574" stroke-linecap="round"/>
<path d="M176.154 50.321C176.458 50.2968 176.688 50.2664 176.846 50.23C177.004 50.1815 177.143 50.0844 177.264 49.9389C177.398 49.7811 177.465 49.5688 177.465 49.3019V43.3325L176.245 42.9685V42.4589L178.702 41.8219H178.993V43.5873C179.406 42.9927 179.922 42.5135 180.54 42.1495C181.171 41.7855 181.808 41.6035 182.451 41.6035C183.228 41.6035 183.865 41.8765 184.362 42.4225C184.86 42.9563 185.108 43.6419 185.108 44.479V49.3019C185.108 49.5688 185.169 49.7811 185.29 49.9389C185.424 50.0844 185.569 50.1815 185.727 50.23C185.885 50.2664 186.115 50.2968 186.419 50.321V51.1036H182.269V50.321C182.573 50.2968 182.803 50.2664 182.961 50.23C183.119 50.1815 183.258 50.0844 183.379 49.9389C183.513 49.7811 183.58 49.5688 183.58 49.3019V45.0068C183.58 44.4244 183.416 43.9634 183.088 43.6237C182.773 43.2839 182.336 43.1141 181.778 43.1141C181.317 43.1141 180.832 43.2475 180.322 43.5145C179.812 43.7814 179.37 44.1393 178.993 44.5882V49.3019C178.993 49.5688 179.054 49.7811 179.175 49.9389C179.309 50.0844 179.454 50.1815 179.612 50.23C179.77 50.2664 180 50.2968 180.304 50.321V51.1036H176.154V50.321Z" fill="#131C2B"/>
<path d="M170.637 51.322C169.387 51.322 168.368 50.8852 167.58 50.0116C166.803 49.1381 166.415 48.0158 166.415 46.6448C166.415 45.1645 166.84 43.9573 167.689 43.0231C168.538 42.0767 169.63 41.6035 170.965 41.6035C172.214 41.6035 173.234 42.0403 174.022 42.9139C174.811 43.7874 175.205 44.9097 175.205 46.2808C175.205 47.761 174.774 48.9743 173.913 49.9207C173.064 50.8549 171.972 51.322 170.637 51.322ZM170.965 50.2664C171.741 50.2664 172.348 49.9449 172.785 49.3019C173.234 48.6467 173.458 47.761 173.458 46.6448C173.458 45.4315 173.203 44.4669 172.694 43.751C172.196 43.0231 171.517 42.6591 170.655 42.6591C169.879 42.6591 169.266 42.9867 168.817 43.6419C168.38 44.2849 168.162 45.1645 168.162 46.2808C168.162 47.4941 168.411 48.4647 168.908 49.1927C169.418 49.9085 170.103 50.2664 170.965 50.2664Z" fill="#131C2B"/>
<path d="M161.422 50.3218C161.725 50.2975 161.956 50.2672 162.113 50.2308C162.271 50.1823 162.411 50.0852 162.532 49.9396C162.666 49.7819 162.732 49.5696 162.732 49.3026V43.3332L161.513 42.9692V42.4597L163.97 41.8227H164.261V49.3026C164.261 49.5696 164.322 49.7819 164.443 49.9396C164.576 50.0852 164.722 50.1823 164.88 50.2308C165.037 50.2672 165.268 50.2975 165.571 50.3218V51.1044H161.422V50.3218ZM162.568 40.2757V38.292H164.407V40.2757H162.568Z" fill="#131C2B"/>
<path d="M157.663 51.3223C157.02 51.3223 156.504 51.116 156.116 50.7035C155.727 50.2788 155.533 49.7389 155.533 49.0837V42.9869H153.786V42.2589L156.552 39.9658H157.062V41.986L159.792 41.8222V42.9869H157.062V48.6287C157.062 49.0534 157.183 49.3931 157.426 49.6479C157.681 49.8906 158.033 50.0119 158.482 50.0119C159.052 50.0119 159.525 49.8724 159.901 49.5933L160.138 50.0301C159.458 50.8915 158.633 51.3223 157.663 51.3223Z" fill="#131C2B"/>
<path d="M147.098 51.3221C146.333 51.3221 145.696 51.0552 145.187 50.5213C144.689 49.9753 144.441 49.2838 144.441 48.4466V43.6965C144.441 43.4417 144.337 43.2476 144.131 43.1142C143.937 42.9807 143.591 42.8897 143.094 42.8412V42.1314L145.696 41.6582H145.969V47.9188C145.969 48.5012 146.133 48.9622 146.461 49.302C146.788 49.6417 147.225 49.8115 147.771 49.8115C148.911 49.8115 149.803 49.4051 150.446 48.5922V43.6965C150.446 43.4417 150.349 43.2476 150.155 43.1142C149.961 42.9807 149.627 42.8897 149.154 42.8412V42.1314L151.702 41.6582H151.975V49.12C151.975 49.5446 152.096 49.8419 152.339 50.0117C152.594 50.1695 152.994 50.2726 153.54 50.3211V50.9035L150.774 51.3221H150.446V49.4476C150.046 50.0299 149.548 50.491 148.954 50.8307C148.359 51.1583 147.741 51.3221 147.098 51.3221Z" fill="#131C2B"/>
<path d="M138.35 50.3216C138.665 50.2974 138.902 50.267 139.059 50.2306C139.217 50.1821 139.357 50.085 139.478 49.9394C139.611 49.7817 139.678 49.5694 139.678 49.3025V38.6922L138.441 38.3282V37.8186L140.916 37.1816H141.207V49.3025C141.207 49.5694 141.268 49.7817 141.389 49.9394C141.51 50.085 141.65 50.1821 141.807 50.2306C141.965 50.267 142.202 50.2974 142.517 50.3216V51.1042H138.35V50.3216Z" fill="#131C2B"/>
<path d="M133.066 51.322C131.816 51.322 130.797 50.8852 130.008 50.0116C129.232 49.1381 128.844 48.0158 128.844 46.6448C128.844 45.1645 129.268 43.9573 130.118 43.0231C130.967 42.0767 132.059 41.6035 133.393 41.6035C134.643 41.6035 135.662 42.0403 136.451 42.9139C137.24 43.7874 137.634 44.9097 137.634 46.2808C137.634 47.761 137.203 48.9743 136.342 49.9207C135.492 50.8549 134.4 51.322 133.066 51.322ZM133.393 50.2664C134.17 50.2664 134.777 49.9449 135.213 49.3019C135.662 48.6467 135.887 47.761 135.887 46.6448C135.887 45.4315 135.632 44.4669 135.122 43.751C134.625 43.0231 133.945 42.6591 133.084 42.6591C132.308 42.6591 131.695 42.9867 131.246 43.6419C130.809 44.2849 130.591 45.1645 130.591 46.2808C130.591 47.4941 130.839 48.4647 131.337 49.1927C131.846 49.9085 132.532 50.2664 133.393 50.2664Z" fill="#131C2B"/>
<path d="M122.995 51.3225C122.17 51.3225 121.357 51.189 120.556 50.9221C119.768 50.6552 119.161 50.3155 118.737 49.903L118.536 47.0274H119.282C119.634 48.0466 120.138 48.8413 120.793 49.4116C121.46 49.9818 122.261 50.2669 123.195 50.2669C123.935 50.2669 124.524 50.0971 124.961 49.7574C125.397 49.4055 125.616 48.8838 125.616 48.1922C125.616 47.5128 125.385 46.9546 124.924 46.5179C124.463 46.0811 123.899 45.7414 123.232 45.4987C122.577 45.256 121.915 45.0073 121.248 44.7525C120.593 44.4977 120.035 44.1216 119.574 43.6242C119.113 43.1267 118.882 42.4958 118.882 41.7314C118.882 40.688 119.264 39.8629 120.029 39.2563C120.805 38.6375 121.812 38.3281 123.05 38.3281C124.518 38.3281 125.677 38.6921 126.526 39.4201V41.9134H125.78C125.622 41.1369 125.294 40.5181 124.797 40.0571C124.299 39.596 123.638 39.3655 122.813 39.3655C122.097 39.3655 121.521 39.5414 121.084 39.8933C120.66 40.233 120.447 40.6759 120.447 41.2218C120.447 41.6344 120.575 41.9923 120.829 42.2956C121.084 42.5989 121.412 42.8476 121.812 43.0418C122.225 43.2359 122.68 43.4179 123.177 43.5878C123.675 43.7576 124.166 43.9517 124.651 44.1701C125.149 44.3764 125.598 44.6191 125.998 44.8981C126.411 45.1772 126.744 45.5472 126.999 46.0083C127.254 46.4693 127.381 47.0092 127.381 47.628C127.381 48.7807 126.969 49.6846 126.144 50.3397C125.331 50.9949 124.281 51.3225 122.995 51.3225Z" fill="#131C2B"/>
<path d="M212.881 32.3806C211.656 32.3806 210.667 31.9438 209.915 31.0702C209.175 30.1845 208.805 29.044 208.805 27.6488C208.805 26.2049 209.205 25.0159 210.006 24.0817C210.807 23.1353 211.808 22.6621 213.009 22.6621C214.149 22.6621 215.029 23.0625 215.648 23.8633C216.279 24.6519 216.63 25.7075 216.703 27.03H210.333V27.2302C210.333 28.4071 210.631 29.311 211.225 29.9419C211.82 30.5607 212.554 30.87 213.427 30.87C214.641 30.87 215.629 30.2998 216.394 29.1593L216.74 29.3959C216.036 31.3857 214.75 32.3806 212.881 32.3806ZM210.443 26.1018H214.992C214.895 25.3496 214.653 24.7672 214.265 24.3547C213.888 23.93 213.415 23.7177 212.845 23.7177C212.226 23.7177 211.704 23.93 211.28 24.3547C210.867 24.7672 210.588 25.3496 210.443 26.1018Z" fill="#131C2B"/>
<path d="M203.712 32.3786C202.462 32.3786 201.455 31.9419 200.691 31.0683C199.926 30.1947 199.544 29.0664 199.544 27.6832C199.544 26.2272 199.963 25.0261 200.8 24.0797C201.649 23.1333 202.723 22.6602 204.021 22.6602C204.64 22.6602 205.234 22.7694 205.805 22.9877C206.387 23.2061 206.842 23.4913 207.169 23.8431V25.9361H206.187C206.09 25.2445 205.823 24.7046 205.386 24.3163C204.949 23.9159 204.415 23.7157 203.784 23.7157C202.959 23.7157 202.298 24.0312 201.801 24.6621C201.315 25.293 201.073 26.1302 201.073 27.1736C201.073 28.3626 201.382 29.2787 202.001 29.9217C202.62 30.5526 203.366 30.8681 204.239 30.8681C205.465 30.8681 206.466 30.2978 207.242 29.1574L207.588 29.3939C206.872 31.3837 205.58 32.3786 203.712 32.3786Z" fill="#131C2B"/>
<path d="M188.417 31.3777C188.72 31.3534 188.951 31.3231 189.109 31.2867C189.266 31.2381 189.406 31.1411 189.527 30.9955C189.661 30.8378 189.727 30.6254 189.727 30.3585V24.3891L188.508 24.0251V23.5155L190.965 22.8785H191.256V24.6439C191.669 24.0494 192.184 23.5701 192.803 23.2061C193.434 22.8422 194.071 22.6602 194.714 22.6602C195.49 22.6602 196.127 22.9331 196.625 23.4791C197.122 24.013 197.371 24.6985 197.371 25.5357V30.3585C197.371 30.6254 197.432 30.8378 197.553 30.9955C197.687 31.1411 197.832 31.2381 197.99 31.2867C198.148 31.3231 198.378 31.3534 198.681 31.3777V32.1603H194.532V31.3777C194.835 31.3534 195.066 31.3231 195.224 31.2867C195.381 31.2381 195.521 31.1411 195.642 30.9955C195.776 30.8378 195.842 30.6254 195.842 30.3585V26.0634C195.842 25.4811 195.679 25.02 195.351 24.6803C195.036 24.3406 194.599 24.1707 194.041 24.1707C193.58 24.1707 193.094 24.3042 192.585 24.5711C192.075 24.838 191.632 25.1959 191.256 25.6449V30.3585C191.256 30.6254 191.317 30.8378 191.438 30.9955C191.572 31.1411 191.717 31.2381 191.875 31.2867C192.033 31.3231 192.263 31.3534 192.566 31.3777V32.1603H188.417V31.3777Z" fill="#131C2B"/>
<path d="M181.015 32.3786C180.263 32.3786 179.644 32.1603 179.159 31.7235C178.686 31.2745 178.449 30.6922 178.449 29.9763C178.449 29.3454 178.668 28.8176 179.104 28.393C179.553 27.9562 180.263 27.5922 181.234 27.301L184.127 26.4274V25.6267C184.127 25.0443 183.958 24.5832 183.618 24.2435C183.278 23.8917 182.823 23.7157 182.253 23.7157C181.707 23.7157 181.252 23.8795 180.888 24.2071C180.536 24.5226 180.348 24.9533 180.324 25.4993V25.8997H178.722V25.6085C178.722 24.7592 179.074 24.0554 179.778 23.4973C180.481 22.9392 181.331 22.6602 182.326 22.6602C183.296 22.6602 184.091 22.921 184.71 23.4427C185.341 23.9644 185.656 24.6378 185.656 25.4629V30.1401C185.656 30.8196 185.905 31.1593 186.402 31.1593C186.645 31.1593 186.888 31.0804 187.13 30.9227L187.367 31.3777C186.979 32.045 186.445 32.3786 185.765 32.3786C185.28 32.3786 184.898 32.227 184.619 31.9237C184.34 31.6203 184.182 31.226 184.146 30.7407C183.163 31.8327 182.119 32.3786 181.015 32.3786ZM181.762 30.9591C182.659 30.9591 183.448 30.6497 184.127 30.0309V27.21L181.944 27.9016C180.779 28.2656 180.196 28.848 180.196 29.6487C180.196 30.5223 180.718 30.9591 181.762 30.9591Z" fill="#131C2B"/>
<path d="M173.115 31.3785C173.419 31.3542 173.649 31.3239 173.807 31.2875C173.965 31.2389 174.104 31.1419 174.225 30.9963C174.359 30.8385 174.426 30.6262 174.426 30.3593V24.3899L173.206 24.0259V23.5163L175.663 22.8793H175.954V30.3593C175.954 30.6262 176.015 30.8385 176.136 30.9963C176.27 31.1419 176.415 31.2389 176.573 31.2875C176.731 31.3239 176.961 31.3542 177.265 31.3785V32.161H173.115V31.3785ZM174.262 21.3324V19.3486H176.1V21.3324H174.262Z" fill="#131C2B"/>
<path d="M167.743 31.3783C168.059 31.354 168.295 31.3237 168.453 31.2873C168.611 31.2387 168.75 31.1417 168.872 30.9961C169.005 30.8383 169.072 30.626 169.072 30.3591V19.7488L167.834 19.3848V18.8753L170.309 18.2383H170.601V30.3591C170.601 30.626 170.661 30.8383 170.783 30.9961C170.904 31.1417 171.044 31.2387 171.201 31.2873C171.359 31.3237 171.596 31.354 171.911 31.3783V32.1608H167.743V31.3783Z" fill="#131C2B"/>
<path d="M162.66 32.3786C161.798 32.3786 161.034 32.1421 160.367 31.6689V33.6344C160.367 33.9013 160.427 34.1076 160.549 34.2532C160.682 34.4109 160.828 34.508 160.985 34.5444C161.143 34.5929 161.374 34.6293 161.677 34.6536V35.4361H157.509V34.6536C157.825 34.6293 158.061 34.5929 158.219 34.5444C158.377 34.508 158.516 34.4109 158.638 34.2532C158.771 34.1076 158.838 33.9013 158.838 33.6344V24.8623C158.838 24.4376 158.711 24.1464 158.456 23.9887C158.213 23.8189 157.825 23.7097 157.291 23.6611V23.0787L160.039 22.6602H160.367V24.1343C161.204 23.1515 162.168 22.6602 163.26 22.6602C164.352 22.6602 165.244 23.103 165.936 23.9887C166.639 24.8744 166.991 25.9967 166.991 27.3556C166.991 28.8237 166.585 30.0309 165.772 30.9773C164.959 31.9115 163.922 32.3786 162.66 32.3786ZM160.367 28.7024C160.367 29.5153 160.597 30.1704 161.058 30.6679C161.531 31.1653 162.126 31.4141 162.842 31.4141C163.63 31.4141 164.255 31.0926 164.716 30.4495C165.177 29.7943 165.408 28.9208 165.408 27.8288C165.408 26.7004 165.159 25.8026 164.662 25.1353C164.164 24.468 163.473 24.1343 162.587 24.1343C161.713 24.1343 160.973 24.383 160.367 24.8805V28.7024Z" fill="#131C2B"/>
<path d="M140.856 31.3777C141.16 31.3534 141.39 31.3231 141.548 31.2867C141.706 31.2381 141.845 31.1411 141.967 30.9955C142.1 30.8378 142.167 30.6254 142.167 30.3585V24.3891L140.947 24.0251V23.5155L143.404 22.8785H143.696V24.5711C144.084 23.9766 144.563 23.5095 145.133 23.1697C145.704 22.83 146.298 22.6602 146.917 22.6602C147.572 22.6602 148.136 22.8482 148.609 23.2243C149.095 23.5883 149.41 24.0736 149.556 24.6803C149.956 24.0615 150.454 23.5701 151.048 23.2061C151.643 22.8422 152.261 22.6602 152.904 22.6602C153.693 22.6602 154.342 22.921 154.852 23.4427C155.361 23.9644 155.616 24.6257 155.616 25.4265V30.3585C155.616 30.4798 155.634 30.589 155.671 30.6861C155.707 30.7832 155.756 30.8681 155.816 30.9409C155.889 31.0016 155.956 31.0562 156.017 31.1047C156.089 31.1411 156.174 31.1775 156.271 31.2139C156.381 31.2503 156.459 31.2806 156.508 31.3049C156.569 31.317 156.647 31.3352 156.745 31.3595C156.854 31.3716 156.914 31.3777 156.927 31.3777V32.1603H152.777V31.3777C153.08 31.3534 153.311 31.3231 153.469 31.2867C153.626 31.2381 153.766 31.1411 153.887 30.9955C154.021 30.8378 154.087 30.6254 154.087 30.3585V25.9543C154.087 25.4083 153.918 24.9776 153.578 24.6621C153.238 24.3345 152.795 24.1707 152.249 24.1707C151.279 24.1707 150.411 24.6378 149.647 25.5721V30.3585C149.647 30.6254 149.707 30.8378 149.829 30.9955C149.962 31.1411 150.108 31.2381 150.266 31.2867C150.423 31.3231 150.66 31.3534 150.975 31.3777V32.1603H146.808V31.3777C147.123 31.3534 147.36 31.3231 147.517 31.2867C147.675 31.2381 147.815 31.1411 147.936 30.9955C148.057 30.8378 148.118 30.6254 148.118 30.3585V25.9543C148.118 25.4083 147.948 24.9776 147.608 24.6621C147.281 24.3345 146.844 24.1707 146.298 24.1707C145.327 24.1707 144.46 24.65 143.696 25.6085V30.3585C143.696 30.6254 143.756 30.8378 143.878 30.9955C144.011 31.1411 144.157 31.2381 144.314 31.2867C144.472 31.3231 144.703 31.3534 145.006 31.3777V32.1603H140.856V31.3777Z" fill="#131C2B"/>
<path d="M135.34 32.3786C134.091 32.3786 133.072 31.9419 132.283 31.0683C131.506 30.1947 131.118 29.0724 131.118 27.7014C131.118 26.2212 131.543 25.0139 132.392 24.0797C133.241 23.1333 134.333 22.6602 135.668 22.6602C136.918 22.6602 137.937 23.0969 138.726 23.9705C139.514 24.8441 139.908 25.9664 139.908 27.3374C139.908 28.8176 139.478 30.0309 138.616 30.9773C137.767 31.9115 136.675 32.3786 135.34 32.3786ZM135.668 31.3231C136.445 31.3231 137.051 31.0016 137.488 30.3585C137.937 29.7033 138.161 28.8176 138.161 27.7014C138.161 26.4881 137.907 25.5235 137.397 24.8077C136.9 24.0797 136.22 23.7157 135.359 23.7157C134.582 23.7157 133.969 24.0433 133.52 24.6985C133.084 25.3415 132.865 26.2212 132.865 27.3374C132.865 28.5507 133.114 29.5213 133.611 30.2493C134.121 30.9652 134.807 31.3231 135.668 31.3231Z" fill="#131C2B"/>
<path d="M124.597 32.3791C122.813 32.3791 121.357 31.7846 120.229 30.5956C119.1 29.4066 118.536 27.89 118.536 26.0458C118.536 24.1166 119.137 22.5272 120.338 21.2775C121.539 20.0157 123.056 19.3848 124.888 19.3848C125.786 19.3848 126.647 19.5364 127.472 19.8398C128.309 20.1431 128.922 20.5313 129.31 21.0045V23.4978H128.564C128.297 22.5757 127.812 21.8478 127.108 21.3139C126.404 20.7801 125.567 20.5131 124.597 20.5131C123.298 20.5131 122.267 20.9863 121.503 21.9327C120.738 22.8791 120.356 24.153 120.356 25.7546C120.356 27.4168 120.763 28.7514 121.575 29.7584C122.388 30.7533 123.462 31.2508 124.797 31.2508C125.78 31.2508 126.629 30.9778 127.345 30.4318C128.06 29.8858 128.546 29.1518 128.801 28.2297H129.547L129.274 30.723C128.91 31.1841 128.273 31.5784 127.363 31.906C126.465 32.2214 125.543 32.3791 124.597 32.3791Z" fill="#131C2B"/>
<path d="M174.959 13.4372C174.304 13.4372 173.649 13.322 172.994 13.0914C172.351 12.8609 171.866 12.5697 171.538 12.2179L171.483 10.1613H172.321C172.539 10.9136 172.885 11.502 173.358 11.9267C173.843 12.3513 174.432 12.5637 175.123 12.5637C175.657 12.5637 176.088 12.4363 176.415 12.1815C176.743 11.9146 176.907 11.5566 176.907 11.1077C176.907 10.3797 176.47 9.86409 175.596 9.56076L173.576 8.83279C172.339 8.396 171.72 7.61949 171.72 6.50326C171.72 5.67822 172.029 5.01091 172.648 4.50132C173.267 3.97961 174.056 3.71875 175.014 3.71875C175.584 3.71875 176.136 3.81581 176.67 4.00994C177.216 4.19193 177.647 4.42853 177.962 4.71972V6.81265H177.125C176.992 6.10894 176.725 5.56296 176.324 5.1747C175.924 4.78645 175.42 4.59232 174.814 4.59232C174.316 4.59232 173.916 4.71365 173.613 4.95631C173.309 5.19897 173.158 5.52656 173.158 5.93908C173.158 6.60639 173.576 7.09171 174.413 7.39503L176.452 8.12301C177.811 8.60833 178.49 9.42123 178.49 10.5617C178.49 11.4232 178.156 12.1208 177.489 12.6547C176.834 13.1764 175.991 13.4372 174.959 13.4372Z" fill="#131C2B"/>
<path d="M166.06 12.4361C166.363 12.4118 166.593 12.3815 166.751 12.3451C166.909 12.2965 167.048 12.1995 167.17 12.0539C167.303 11.8962 167.37 11.6838 167.37 11.4169V5.44749L166.151 5.0835V4.57392L168.607 3.93694H168.899V11.4169C168.899 11.6838 168.959 11.8962 169.081 12.0539C169.214 12.1995 169.36 12.2965 169.517 12.3451C169.675 12.3815 169.906 12.4118 170.209 12.4361V13.2186H166.06V12.4361ZM167.206 2.38999V0.40625H169.044V2.38999H167.206Z" fill="#131C2B"/>
<path d="M162.3 13.4375C161.657 13.4375 161.142 13.2312 160.753 12.8187C160.365 12.3941 160.171 11.8541 160.171 11.199V5.10216H158.424V4.37418L161.19 2.08105H161.7V4.10119L164.43 3.9374V5.10216H161.7V10.744C161.7 11.1686 161.821 11.5084 162.064 11.7631C162.319 12.0058 162.67 12.1271 163.119 12.1271C163.69 12.1271 164.163 11.9876 164.539 11.7085L164.775 12.1453C164.096 13.0068 163.271 13.4375 162.3 13.4375Z" fill="#131C2B"/>
<path d="M147.966 12.4363C148.269 12.412 148.5 12.3817 148.657 12.3453C148.815 12.2967 148.955 12.1997 149.076 12.0541C149.209 11.8964 149.276 11.684 149.276 11.4171V5.44769L148.057 5.08371V4.57412L150.514 3.93714H150.805V5.70249C151.217 5.10797 151.733 4.62872 152.352 4.26473C152.983 3.90074 153.62 3.71875 154.263 3.71875C155.039 3.71875 155.676 3.99174 156.174 4.53772C156.671 5.07157 156.92 5.75708 156.92 6.59426V11.4171C156.92 11.684 156.981 11.8964 157.102 12.0541C157.235 12.1997 157.381 12.2967 157.539 12.3453C157.696 12.3817 157.927 12.412 158.23 12.4363V13.2188H154.081V12.4363C154.384 12.412 154.615 12.3817 154.772 12.3453C154.93 12.2967 155.07 12.1997 155.191 12.0541C155.324 11.8964 155.391 11.684 155.391 11.4171V7.12204C155.391 6.53966 155.227 6.07861 154.9 5.73889C154.584 5.39916 154.148 5.2293 153.589 5.2293C153.128 5.2293 152.643 5.36276 152.133 5.62969C151.624 5.89661 151.181 6.25454 150.805 6.70345V11.4171C150.805 11.684 150.866 11.8964 150.987 12.0541C151.12 12.1997 151.266 12.2967 151.424 12.3453C151.581 12.3817 151.812 12.412 152.115 12.4363V13.2188H147.966V12.4363Z" fill="#131C2B"/>
<path d="M143.05 13.4372C141.825 13.4372 140.836 13.0005 140.084 12.1269C139.344 11.2412 138.974 10.1007 138.974 8.70539C138.974 7.26157 139.374 6.07254 140.175 5.1383C140.976 4.19193 141.977 3.71875 143.178 3.71875C144.318 3.71875 145.198 4.11914 145.817 4.91991C146.448 5.70855 146.799 6.76412 146.872 8.08661H140.502V8.2868C140.502 9.4637 140.8 10.3676 141.394 10.9985C141.989 11.6173 142.723 11.9267 143.596 11.9267C144.81 11.9267 145.798 11.3564 146.563 10.2159L146.909 10.4525C146.205 12.4423 144.919 13.4372 143.05 13.4372ZM140.612 7.15844H145.161C145.064 6.4062 144.822 5.82382 144.433 5.4113C144.057 4.98664 143.584 4.77432 143.014 4.77432C142.395 4.77432 141.873 4.98664 141.449 5.4113C141.036 5.82382 140.757 6.4062 140.612 7.15844Z" fill="#131C2B"/>
<path d="M130.229 5.73827C130.06 5.35001 129.89 5.09522 129.72 4.97389C129.55 4.84043 129.265 4.7555 128.864 4.7191V3.93652H133.014V4.7191C132.796 4.74336 132.62 4.76763 132.486 4.7919C132.353 4.81616 132.213 4.87076 132.068 4.95569C131.922 5.02849 131.849 5.12555 131.849 5.24688C131.861 5.36821 131.892 5.53201 131.94 5.73827L134.106 10.8705L136.126 5.73827C136.223 5.58054 136.247 5.44708 136.199 5.33788C136.162 5.21655 136.126 5.11949 136.09 5.04669C136.065 4.97389 135.986 4.91929 135.853 4.88289C135.732 4.83436 135.629 4.80403 135.544 4.7919C135.459 4.76763 135.349 4.74336 135.216 4.7191V3.93652H138.492V4.7191C138.079 4.7555 137.782 4.84043 137.6 4.97389C137.43 5.09522 137.267 5.35001 137.109 5.73827L134.051 13.4366H133.542L130.229 5.73827Z" fill="#131C2B"/>
<path d="M117.883 12.4348C118.271 12.4106 118.568 12.3438 118.775 12.2346C118.993 12.1133 119.163 11.901 119.284 11.5976L123.652 0.441406H124.234L129.094 11.4157C129.264 11.7918 129.433 12.0466 129.603 12.18C129.785 12.3135 130.07 12.3984 130.459 12.4348V13.2174H125.963V12.4348C126.461 12.3863 126.843 12.2892 127.11 12.1436C127.389 11.998 127.456 11.7554 127.31 11.4157L126.346 9.24992H121.413L120.504 11.5976C120.382 11.901 120.431 12.1072 120.649 12.2164C120.88 12.3256 121.244 12.3984 121.741 12.4348V13.2174H117.883V12.4348ZM121.796 8.26716H125.909L123.725 3.31691L121.796 8.26716Z" fill="#131C2B"/>
</svg>
