<svg width="22" height="17" viewBox="0 0 22 17" fill="none" xmlns="http://www.w3.org/2000/svg">
<path d="M21.0938 0H0.84375C0.619974 0 0.405362 0.088895 0.247129 0.247129C0.0888948 0.405363 0 0.619974 0 0.84375V15.1875C0 15.6351 0.17779 16.0643 0.494257 16.3807C0.810725 16.6972 1.23995 16.875 1.6875 16.875H20.25C20.6976 16.875 21.1268 16.6972 21.4432 16.3807C21.7597 16.0643 21.9375 15.6351 21.9375 15.1875V0.84375C21.9375 0.619974 21.8486 0.405363 21.6904 0.247129C21.5321 0.088895 21.3175 0 21.0938 0ZM10.9688 8.98066L3.01324 1.6875H18.9243L10.9688 8.98066ZM7.87957 8.4375L1.6875 14.1128V2.76223L7.87957 8.4375ZM9.12832 9.58184L10.3939 10.7473C10.5496 10.8902 10.7532 10.9694 10.9645 10.9694C11.1758 10.9694 11.3795 10.8902 11.5351 10.7473L12.8007 9.58184L18.9179 15.1875H3.01324L9.12832 9.58184ZM14.0579 8.4375L20.25 2.76117V14.1138L14.0579 8.4375Z" fill="#A17755"/>
</svg>
