<svg width="44" height="52" viewBox="0 0 44 52" fill="none" xmlns="http://www.w3.org/2000/svg">
<path d="M42 0H8C5.87827 0 3.84344 0.842854 2.34315 2.34315C0.842854 3.84344 0 5.87827 0 8V50C0 50.5304 0.210714 51.0391 0.585787 51.4142C0.96086 51.7893 1.46957 52 2 52H38C38.5304 52 39.0391 51.7893 39.4142 51.4142C39.7893 51.0391 40 50.5304 40 50C40 49.4696 39.7893 48.9609 39.4142 48.5858C39.0391 48.2107 38.5304 48 38 48H4C4 46.9391 4.42143 45.9217 5.17157 45.1716C5.92172 44.4214 6.93913 44 8 44H42C42.5304 44 43.0391 43.7893 43.4142 43.4142C43.7893 43.0391 44 42.5304 44 42V2C44 1.46957 43.7893 0.960859 43.4142 0.585786C43.0391 0.210714 42.5304 0 42 0ZM40 40H8C6.59536 39.9981 5.21526 40.3681 4 41.0725V8C4 6.93913 4.42143 5.92172 5.17157 5.17157C5.92172 4.42143 6.93913 4 8 4H40V40Z" fill="#FDEACB"/>
</svg>
