<svg width="19" height="24" viewBox="0 0 19 24" fill="none" xmlns="http://www.w3.org/2000/svg">
<path d="M9.28125 5.0625C8.44686 5.0625 7.63121 5.30993 6.93744 5.77349C6.24367 6.23705 5.70294 6.89593 5.38363 7.6668C5.06433 8.43768 4.98078 9.28593 5.14356 10.1043C5.30634 10.9226 5.70814 11.6744 6.29814 12.2644C6.88815 12.8544 7.63986 13.2562 8.45821 13.4189C9.27657 13.5817 10.1248 13.4982 10.8957 13.1789C11.6666 12.8596 12.3255 12.3188 12.789 11.6251C13.2526 10.9313 13.5 10.1156 13.5 9.28125C13.5 8.16237 13.0555 7.08931 12.2644 6.29814C11.4732 5.50697 10.4001 5.0625 9.28125 5.0625ZM9.28125 11.8125C8.78062 11.8125 8.29122 11.664 7.87496 11.3859C7.4587 11.1078 7.13426 10.7124 6.94268 10.2499C6.7511 9.78739 6.70097 9.27844 6.79864 8.78743C6.89631 8.29641 7.13738 7.84539 7.49139 7.49139C7.84539 7.13738 8.29641 6.89631 8.78743 6.79864C9.27844 6.70097 9.78739 6.7511 10.2499 6.94268C10.7124 7.13426 11.1078 7.4587 11.3859 7.87496C11.664 8.29122 11.8125 8.78062 11.8125 9.28125C11.8125 9.95258 11.5458 10.5964 11.0711 11.0711C10.5964 11.5458 9.95258 11.8125 9.28125 11.8125ZM9.28125 0C6.82057 0.00279148 4.46147 0.981531 2.7215 2.7215C0.981531 4.46147 0.00279148 6.82057 0 9.28125C0 12.593 1.53035 16.103 4.42969 19.4326C5.73246 20.9372 7.19872 22.292 8.80137 23.4721C8.94324 23.5715 9.11225 23.6248 9.28547 23.6248C9.45868 23.6248 9.6277 23.5715 9.76957 23.4721C11.3693 22.2915 12.8327 20.9367 14.1328 19.4326C17.0279 16.103 18.5625 12.593 18.5625 9.28125C18.5597 6.82057 17.581 4.46147 15.841 2.7215C14.101 0.981531 11.7419 0.00279148 9.28125 0ZM9.28125 21.7266C7.53785 20.3555 1.6875 15.3193 1.6875 9.28125C1.6875 7.26726 2.48755 5.33576 3.91166 3.91166C5.33576 2.48755 7.26726 1.6875 9.28125 1.6875C11.2952 1.6875 13.2267 2.48755 14.6508 3.91166C16.0749 5.33576 16.875 7.26726 16.875 9.28125C16.875 15.3172 11.0246 20.3555 9.28125 21.7266Z" fill="#A17755"/>
</svg>
