<svg width="44" height="52" viewBox="0 0 44 52" fill="none" xmlns="http://www.w3.org/2000/svg">
<path d="M43.415 14.585L29.415 0.585001C29.2291 0.399332 29.0085 0.252104 28.7657 0.151728C28.5229 0.0513516 28.2627 -0.000205972 28 6.18397e-07H4C2.93913 6.18397e-07 1.92172 0.421428 1.17157 1.17157C0.421427 1.92172 0 2.93913 0 4V48C0 49.0609 0.421427 50.0783 1.17157 50.8284C1.92172 51.5786 2.93913 52 4 52H40C41.0609 52 42.0783 51.5786 42.8284 50.8284C43.5786 50.0783 44 49.0609 44 48V16C44.0002 15.7373 43.9487 15.4771 43.8483 15.2343C43.7479 14.9915 43.6007 14.7709 43.415 14.585ZM30 6.8275L37.1725 14H30V6.8275ZM40 48H4V4H26V16C26 16.5304 26.2107 17.0391 26.5858 17.4142C26.9609 17.7893 27.4696 18 28 18H40V48ZM28.615 35.7875C29.7953 33.9119 30.2433 31.6672 29.8732 29.4822C29.5031 27.2973 28.341 25.3253 26.6089 23.9429C24.8768 22.5606 22.6961 21.865 20.4835 21.9888C18.2709 22.1127 16.1814 23.0474 14.6144 24.6144C13.0474 26.1814 12.1127 28.2709 11.9888 30.4835C11.865 32.6961 12.5606 34.8768 13.9429 36.6089C15.3253 38.341 17.2973 39.5031 19.4822 39.8732C21.6672 40.2433 23.9119 39.7953 25.7875 38.615L28.585 41.415C28.7708 41.6008 28.9914 41.7482 29.2342 41.8488C29.477 41.9494 29.7372 42.0011 30 42.0011C30.2628 42.0011 30.523 41.9494 30.7658 41.8488C31.0086 41.7482 31.2292 41.6008 31.415 41.415C31.6008 41.2292 31.7482 41.0086 31.8488 40.7658C31.9494 40.523 32.0011 40.2628 32.0011 40C32.0011 39.7372 31.9494 39.477 31.8488 39.2342C31.7482 38.9914 31.6008 38.7708 31.415 38.585L28.615 35.7875ZM16 31C16 30.0111 16.2932 29.0444 16.8427 28.2221C17.3921 27.3999 18.173 26.759 19.0866 26.3806C20.0002 26.0022 21.0055 25.9031 21.9755 26.0961C22.9454 26.289 23.8363 26.7652 24.5355 27.4645C25.2348 28.1637 25.711 29.0546 25.9039 30.0245C26.0969 30.9945 25.9978 31.9998 25.6194 32.9134C25.241 33.827 24.6001 34.6079 23.7779 35.1573C22.9556 35.7068 21.9889 36 21 36C19.6739 36 18.4021 35.4732 17.4645 34.5355C16.5268 33.5979 16 32.3261 16 31Z" fill="#FDEACB"/>
</svg>
