<svg width="201" height="45" viewBox="0 0 201 45" fill="none" xmlns="http://www.w3.org/2000/svg">
<rect width="3" height="45" fill="#2E31CA"/>
<rect x="7" width="5" height="45" fill="#2E31CA"/>
<rect width="185" height="45" transform="translate(16)" fill="#2E31CA"/>
<path d="M42.0781 21.9531V22.6719C42.0781 23.526 41.9714 24.2917 41.7578 24.9688C41.5443 25.6458 41.237 26.2214 40.8359 26.6953C40.4349 27.1693 39.9531 27.5312 39.3906 27.7812C38.8333 28.0312 38.2083 28.1562 37.5156 28.1562C36.8438 28.1562 36.2266 28.0312 35.6641 27.7812C35.1068 27.5312 34.6224 27.1693 34.2109 26.6953C33.8047 26.2214 33.4896 25.6458 33.2656 24.9688C33.0417 24.2917 32.9297 23.526 32.9297 22.6719V21.9531C32.9297 21.099 33.0391 20.3359 33.2578 19.6641C33.4818 18.987 33.7969 18.4115 34.2031 17.9375C34.6094 17.4583 35.0911 17.0938 35.6484 16.8438C36.2109 16.5938 36.8281 16.4688 37.5 16.4688C38.1927 16.4688 38.8177 16.5938 39.375 16.8438C39.9375 17.0938 40.4193 17.4583 40.8203 17.9375C41.2266 18.4115 41.5365 18.987 41.75 19.6641C41.9688 20.3359 42.0781 21.099 42.0781 21.9531ZM40.5859 22.6719V21.9375C40.5859 21.2604 40.5156 20.6615 40.375 20.1406C40.2396 19.6198 40.0391 19.1823 39.7734 18.8281C39.5078 18.474 39.1823 18.2057 38.7969 18.0234C38.4167 17.8411 37.9844 17.75 37.5 17.75C37.0312 17.75 36.6068 17.8411 36.2266 18.0234C35.8516 18.2057 35.5286 18.474 35.2578 18.8281C34.9922 19.1823 34.7865 19.6198 34.6406 20.1406C34.4948 20.6615 34.4219 21.2604 34.4219 21.9375V22.6719C34.4219 23.3542 34.4948 23.9583 34.6406 24.4844C34.7865 25.0052 34.9948 25.4453 35.2656 25.8047C35.5417 26.1589 35.8672 26.4271 36.2422 26.6094C36.6224 26.7917 37.0469 26.8828 37.5156 26.8828C38.0052 26.8828 38.4401 26.7917 38.8203 26.6094C39.2005 26.4271 39.5208 26.1589 39.7812 25.8047C40.0469 25.4453 40.2474 25.0052 40.3828 24.4844C40.5182 23.9583 40.5859 23.3542 40.5859 22.6719ZM49.2891 26.0469V19.5469H50.7422V28H49.3594L49.2891 26.0469ZM49.5625 24.2656L50.1641 24.25C50.1641 24.8125 50.1042 25.3333 49.9844 25.8125C49.8698 26.2865 49.6823 26.6979 49.4219 27.0469C49.1615 27.3958 48.8203 27.6693 48.3984 27.8672C47.9766 28.0599 47.4635 28.1562 46.8594 28.1562C46.4479 28.1562 46.0703 28.0964 45.7266 27.9766C45.388 27.8568 45.0964 27.6719 44.8516 27.4219C44.6068 27.1719 44.4167 26.8464 44.2812 26.4453C44.151 26.0443 44.0859 25.5625 44.0859 25V19.5469H45.5312V25.0156C45.5312 25.3958 45.5729 25.7109 45.6562 25.9609C45.7448 26.2057 45.862 26.401 46.0078 26.5469C46.1589 26.6875 46.3255 26.7865 46.5078 26.8438C46.6953 26.901 46.888 26.9297 47.0859 26.9297C47.7005 26.9297 48.1875 26.8125 48.5469 26.5781C48.9062 26.3385 49.1641 26.0182 49.3203 25.6172C49.4818 25.2109 49.5625 24.7604 49.5625 24.2656ZM54.3906 20.875V28H52.9453V19.5469H54.3516L54.3906 20.875ZM57.0312 19.5L57.0234 20.8438C56.9036 20.8177 56.7891 20.8021 56.6797 20.7969C56.5755 20.7865 56.4557 20.7812 56.3203 20.7812C55.987 20.7812 55.6927 20.8333 55.4375 20.9375C55.1823 21.0417 54.9661 21.1875 54.7891 21.375C54.612 21.5625 54.4714 21.7865 54.3672 22.0469C54.2682 22.3021 54.2031 22.5833 54.1719 22.8906L53.7656 23.125C53.7656 22.6146 53.8151 22.1354 53.9141 21.6875C54.0182 21.2396 54.1771 20.8438 54.3906 20.5C54.6042 20.151 54.875 19.8802 55.2031 19.6875C55.5365 19.4896 55.9323 19.3906 56.3906 19.3906C56.4948 19.3906 56.6146 19.4036 56.75 19.4297C56.8854 19.4505 56.9792 19.474 57.0312 19.5ZM66.75 23.5391H63.7109V22.3125H66.75C67.3385 22.3125 67.8151 22.2188 68.1797 22.0312C68.5443 21.8438 68.8099 21.5833 68.9766 21.25C69.1484 20.9167 69.2344 20.5365 69.2344 20.1094C69.2344 19.7188 69.1484 19.3516 68.9766 19.0078C68.8099 18.6641 68.5443 18.388 68.1797 18.1797C67.8151 17.9661 67.3385 17.8594 66.75 17.8594H64.0625V28H62.5547V16.625H66.75C67.6094 16.625 68.3359 16.7734 68.9297 17.0703C69.5234 17.3672 69.974 17.7786 70.2812 18.3047C70.5885 18.8255 70.7422 19.4219 70.7422 20.0938C70.7422 20.8229 70.5885 21.4453 70.2812 21.9609C69.974 22.4766 69.5234 22.8698 68.9297 23.1406C68.3359 23.4062 67.6094 23.5391 66.75 23.5391ZM73.875 20.875V28H72.4297V19.5469H73.8359L73.875 20.875ZM76.5156 19.5L76.5078 20.8438C76.388 20.8177 76.2734 20.8021 76.1641 20.7969C76.0599 20.7865 75.9401 20.7812 75.8047 20.7812C75.4714 20.7812 75.1771 20.8333 74.9219 20.9375C74.6667 21.0417 74.4505 21.1875 74.2734 21.375C74.0964 21.5625 73.9557 21.7865 73.8516 22.0469C73.7526 22.3021 73.6875 22.5833 73.6562 22.8906L73.25 23.125C73.25 22.6146 73.2995 22.1354 73.3984 21.6875C73.5026 21.2396 73.6615 20.8438 73.875 20.5C74.0885 20.151 74.3594 19.8802 74.6875 19.6875C75.0208 19.4896 75.4167 19.3906 75.875 19.3906C75.9792 19.3906 76.099 19.4036 76.2344 19.4297C76.3698 19.4505 76.4635 19.474 76.5156 19.5ZM82.5234 26.5547V22.2031C82.5234 21.8698 82.4557 21.5807 82.3203 21.3359C82.1901 21.0859 81.9922 20.8932 81.7266 20.7578C81.4609 20.6224 81.1328 20.5547 80.7422 20.5547C80.3776 20.5547 80.0573 20.6172 79.7812 20.7422C79.5104 20.8672 79.2969 21.0312 79.1406 21.2344C78.9896 21.4375 78.9141 21.6562 78.9141 21.8906H77.4688C77.4688 21.5885 77.5469 21.2891 77.7031 20.9922C77.8594 20.6953 78.0833 20.4271 78.375 20.1875C78.6719 19.9427 79.026 19.75 79.4375 19.6094C79.8542 19.4635 80.3177 19.3906 80.8281 19.3906C81.4427 19.3906 81.9844 19.4948 82.4531 19.7031C82.9271 19.9115 83.2969 20.2266 83.5625 20.6484C83.8333 21.0651 83.9688 21.5885 83.9688 22.2188V26.1562C83.9688 26.4375 83.9922 26.737 84.0391 27.0547C84.0911 27.3724 84.1667 27.6458 84.2656 27.875V28H82.7578C82.6849 27.8333 82.6276 27.612 82.5859 27.3359C82.5443 27.0547 82.5234 26.7943 82.5234 26.5547ZM82.7734 22.875L82.7891 23.8906H81.3281C80.9167 23.8906 80.5495 23.9245 80.2266 23.9922C79.9036 24.0547 79.6328 24.151 79.4141 24.2812C79.1953 24.4115 79.0286 24.5755 78.9141 24.7734C78.7995 24.9661 78.7422 25.1927 78.7422 25.4531C78.7422 25.7188 78.8021 25.9609 78.9219 26.1797C79.0417 26.3984 79.2214 26.5729 79.4609 26.7031C79.7057 26.8281 80.0052 26.8906 80.3594 26.8906C80.8021 26.8906 81.1927 26.7969 81.5312 26.6094C81.8698 26.4219 82.138 26.1927 82.3359 25.9219C82.5391 25.651 82.6484 25.388 82.6641 25.1328L83.2812 25.8281C83.2448 26.0469 83.1458 26.2891 82.9844 26.5547C82.8229 26.8203 82.6068 27.0755 82.3359 27.3203C82.0703 27.5599 81.7526 27.7604 81.3828 27.9219C81.0182 28.0781 80.6068 28.1562 80.1484 28.1562C79.5755 28.1562 79.0729 28.0443 78.6406 27.8203C78.2135 27.5964 77.8802 27.2969 77.6406 26.9219C77.4062 26.5417 77.2891 26.1172 77.2891 25.6484C77.2891 25.1953 77.3776 24.7969 77.5547 24.4531C77.7318 24.1042 77.987 23.8151 78.3203 23.5859C78.6536 23.3516 79.0547 23.1745 79.5234 23.0547C79.9922 22.9349 80.5156 22.875 81.0938 22.875H82.7734ZM89.625 26.9688C89.9688 26.9688 90.2865 26.8984 90.5781 26.7578C90.8698 26.6172 91.1094 26.4245 91.2969 26.1797C91.4844 25.9297 91.5911 25.6458 91.6172 25.3281H92.9922C92.9661 25.8281 92.7969 26.2943 92.4844 26.7266C92.1771 27.1536 91.7734 27.5 91.2734 27.7656C90.7734 28.026 90.224 28.1562 89.625 28.1562C88.9896 28.1562 88.4349 28.0443 87.9609 27.8203C87.4922 27.5964 87.1016 27.2891 86.7891 26.8984C86.4818 26.5078 86.25 26.0599 86.0938 25.5547C85.9427 25.0443 85.8672 24.5052 85.8672 23.9375V23.6094C85.8672 23.0417 85.9427 22.5052 86.0938 22C86.25 21.4896 86.4818 21.0391 86.7891 20.6484C87.1016 20.2578 87.4922 19.9505 87.9609 19.7266C88.4349 19.5026 88.9896 19.3906 89.625 19.3906C90.2865 19.3906 90.8646 19.526 91.3594 19.7969C91.8542 20.0625 92.2422 20.4271 92.5234 20.8906C92.8099 21.349 92.9661 21.8698 92.9922 22.4531H91.6172C91.5911 22.1042 91.4922 21.7891 91.3203 21.5078C91.1536 21.2266 90.9245 21.0026 90.6328 20.8359C90.3464 20.6641 90.0104 20.5781 89.625 20.5781C89.1823 20.5781 88.8099 20.6667 88.5078 20.8438C88.2109 21.0156 87.974 21.25 87.7969 21.5469C87.625 21.8385 87.5 22.1641 87.4219 22.5234C87.349 22.8776 87.3125 23.2396 87.3125 23.6094V23.9375C87.3125 24.3073 87.349 24.6719 87.4219 25.0312C87.4948 25.3906 87.6172 25.7161 87.7891 26.0078C87.9661 26.2995 88.2031 26.5339 88.5 26.7109C88.8021 26.8828 89.1771 26.9688 89.625 26.9688ZM98.1562 19.5469V20.6562H93.5859V19.5469H98.1562ZM95.1328 17.4922H96.5781V25.9062C96.5781 26.1927 96.6224 26.4089 96.7109 26.5547C96.7995 26.7005 96.9141 26.7969 97.0547 26.8438C97.1953 26.8906 97.3464 26.9141 97.5078 26.9141C97.6276 26.9141 97.7526 26.9036 97.8828 26.8828C98.0182 26.8568 98.1198 26.8359 98.1875 26.8203L98.1953 28C98.0807 28.0365 97.9297 28.0703 97.7422 28.1016C97.5599 28.138 97.3385 28.1562 97.0781 28.1562C96.724 28.1562 96.3984 28.0859 96.1016 27.9453C95.8047 27.8047 95.5677 27.5703 95.3906 27.2422C95.2188 26.9089 95.1328 26.4609 95.1328 25.8984V17.4922ZM101.422 19.5469V28H99.9688V19.5469H101.422ZM99.8594 17.3047C99.8594 17.0703 99.9297 16.8724 100.07 16.7109C100.216 16.5495 100.43 16.4688 100.711 16.4688C100.987 16.4688 101.198 16.5495 101.344 16.7109C101.495 16.8724 101.57 17.0703 101.57 17.3047C101.57 17.5286 101.495 17.7214 101.344 17.8828C101.198 18.0391 100.987 18.1172 100.711 18.1172C100.43 18.1172 100.216 18.0391 100.07 17.8828C99.9297 17.7214 99.8594 17.5286 99.8594 17.3047ZM107.125 26.9688C107.469 26.9688 107.786 26.8984 108.078 26.7578C108.37 26.6172 108.609 26.4245 108.797 26.1797C108.984 25.9297 109.091 25.6458 109.117 25.3281H110.492C110.466 25.8281 110.297 26.2943 109.984 26.7266C109.677 27.1536 109.273 27.5 108.773 27.7656C108.273 28.026 107.724 28.1562 107.125 28.1562C106.49 28.1562 105.935 28.0443 105.461 27.8203C104.992 27.5964 104.602 27.2891 104.289 26.8984C103.982 26.5078 103.75 26.0599 103.594 25.5547C103.443 25.0443 103.367 24.5052 103.367 23.9375V23.6094C103.367 23.0417 103.443 22.5052 103.594 22C103.75 21.4896 103.982 21.0391 104.289 20.6484C104.602 20.2578 104.992 19.9505 105.461 19.7266C105.935 19.5026 106.49 19.3906 107.125 19.3906C107.786 19.3906 108.365 19.526 108.859 19.7969C109.354 20.0625 109.742 20.4271 110.023 20.8906C110.31 21.349 110.466 21.8698 110.492 22.4531H109.117C109.091 22.1042 108.992 21.7891 108.82 21.5078C108.654 21.2266 108.424 21.0026 108.133 20.8359C107.846 20.6641 107.51 20.5781 107.125 20.5781C106.682 20.5781 106.31 20.6667 106.008 20.8438C105.711 21.0156 105.474 21.25 105.297 21.5469C105.125 21.8385 105 22.1641 104.922 22.5234C104.849 22.8776 104.812 23.2396 104.812 23.6094V23.9375C104.812 24.3073 104.849 24.6719 104.922 25.0312C104.995 25.3906 105.117 25.7161 105.289 26.0078C105.466 26.2995 105.703 26.5339 106 26.7109C106.302 26.8828 106.677 26.9688 107.125 26.9688ZM115.625 28.1562C115.036 28.1562 114.503 28.0573 114.023 27.8594C113.549 27.6562 113.141 27.3724 112.797 27.0078C112.458 26.6432 112.198 26.2109 112.016 25.7109C111.833 25.2109 111.742 24.6641 111.742 24.0703V23.7422C111.742 23.0547 111.844 22.4427 112.047 21.9062C112.25 21.3646 112.526 20.9062 112.875 20.5312C113.224 20.1562 113.62 19.8724 114.062 19.6797C114.505 19.487 114.964 19.3906 115.438 19.3906C116.042 19.3906 116.562 19.4948 117 19.7031C117.443 19.9115 117.805 20.2031 118.086 20.5781C118.367 20.9479 118.576 21.3854 118.711 21.8906C118.846 22.3906 118.914 22.9375 118.914 23.5312V24.1797H112.602V23H117.469V22.8906C117.448 22.5156 117.37 22.151 117.234 21.7969C117.104 21.4427 116.896 21.151 116.609 20.9219C116.323 20.6927 115.932 20.5781 115.438 20.5781C115.109 20.5781 114.807 20.6484 114.531 20.7891C114.255 20.9245 114.018 21.1276 113.82 21.3984C113.622 21.6693 113.469 22 113.359 22.3906C113.25 22.7812 113.195 23.2318 113.195 23.7422V24.0703C113.195 24.4714 113.25 24.849 113.359 25.2031C113.474 25.5521 113.638 25.8594 113.852 26.125C114.07 26.3906 114.333 26.599 114.641 26.75C114.953 26.901 115.307 26.9766 115.703 26.9766C116.214 26.9766 116.646 26.8724 117 26.6641C117.354 26.4557 117.664 26.1771 117.93 25.8281L118.805 26.5234C118.622 26.7995 118.391 27.0625 118.109 27.3125C117.828 27.5625 117.482 27.7656 117.07 27.9219C116.664 28.0781 116.182 28.1562 115.625 28.1562ZM129 17.6328L125.234 28H123.695L128.031 16.625H129.023L129 17.6328ZM132.156 28L128.383 17.6328L128.359 16.625H129.352L133.703 28H132.156ZM131.961 23.7891V25.0234H125.57V23.7891H131.961ZM136.453 20.875V28H135.008V19.5469H136.414L136.453 20.875ZM139.094 19.5L139.086 20.8438C138.966 20.8177 138.852 20.8021 138.742 20.7969C138.638 20.7865 138.518 20.7812 138.383 20.7812C138.049 20.7812 137.755 20.8333 137.5 20.9375C137.245 21.0417 137.029 21.1875 136.852 21.375C136.674 21.5625 136.534 21.7865 136.43 22.0469C136.331 22.3021 136.266 22.5833 136.234 22.8906L135.828 23.125C135.828 22.6146 135.878 22.1354 135.977 21.6875C136.081 21.2396 136.24 20.8438 136.453 20.5C136.667 20.151 136.938 19.8802 137.266 19.6875C137.599 19.4896 137.995 19.3906 138.453 19.3906C138.557 19.3906 138.677 19.4036 138.812 19.4297C138.948 19.4505 139.042 19.474 139.094 19.5ZM143.781 28.1562C143.193 28.1562 142.659 28.0573 142.18 27.8594C141.706 27.6562 141.297 27.3724 140.953 27.0078C140.615 26.6432 140.354 26.2109 140.172 25.7109C139.99 25.2109 139.898 24.6641 139.898 24.0703V23.7422C139.898 23.0547 140 22.4427 140.203 21.9062C140.406 21.3646 140.682 20.9062 141.031 20.5312C141.38 20.1562 141.776 19.8724 142.219 19.6797C142.661 19.487 143.12 19.3906 143.594 19.3906C144.198 19.3906 144.719 19.4948 145.156 19.7031C145.599 19.9115 145.961 20.2031 146.242 20.5781C146.523 20.9479 146.732 21.3854 146.867 21.8906C147.003 22.3906 147.07 22.9375 147.07 23.5312V24.1797H140.758V23H145.625V22.8906C145.604 22.5156 145.526 22.151 145.391 21.7969C145.26 21.4427 145.052 21.151 144.766 20.9219C144.479 20.6927 144.089 20.5781 143.594 20.5781C143.266 20.5781 142.964 20.6484 142.688 20.7891C142.411 20.9245 142.174 21.1276 141.977 21.3984C141.779 21.6693 141.625 22 141.516 22.3906C141.406 22.7812 141.352 23.2318 141.352 23.7422V24.0703C141.352 24.4714 141.406 24.849 141.516 25.2031C141.63 25.5521 141.794 25.8594 142.008 26.125C142.227 26.3906 142.49 26.599 142.797 26.75C143.109 26.901 143.464 26.9766 143.859 26.9766C144.37 26.9766 144.802 26.8724 145.156 26.6641C145.51 26.4557 145.82 26.1771 146.086 25.8281L146.961 26.5234C146.779 26.7995 146.547 27.0625 146.266 27.3125C145.984 27.5625 145.638 27.7656 145.227 27.9219C144.82 28.0781 144.339 28.1562 143.781 28.1562ZM153.742 26.5547V22.2031C153.742 21.8698 153.674 21.5807 153.539 21.3359C153.409 21.0859 153.211 20.8932 152.945 20.7578C152.68 20.6224 152.352 20.5547 151.961 20.5547C151.596 20.5547 151.276 20.6172 151 20.7422C150.729 20.8672 150.516 21.0312 150.359 21.2344C150.208 21.4375 150.133 21.6562 150.133 21.8906H148.688C148.688 21.5885 148.766 21.2891 148.922 20.9922C149.078 20.6953 149.302 20.4271 149.594 20.1875C149.891 19.9427 150.245 19.75 150.656 19.6094C151.073 19.4635 151.536 19.3906 152.047 19.3906C152.661 19.3906 153.203 19.4948 153.672 19.7031C154.146 19.9115 154.516 20.2266 154.781 20.6484C155.052 21.0651 155.188 21.5885 155.188 22.2188V26.1562C155.188 26.4375 155.211 26.737 155.258 27.0547C155.31 27.3724 155.385 27.6458 155.484 27.875V28H153.977C153.904 27.8333 153.846 27.612 153.805 27.3359C153.763 27.0547 153.742 26.7943 153.742 26.5547ZM153.992 22.875L154.008 23.8906H152.547C152.135 23.8906 151.768 23.9245 151.445 23.9922C151.122 24.0547 150.852 24.151 150.633 24.2812C150.414 24.4115 150.247 24.5755 150.133 24.7734C150.018 24.9661 149.961 25.1927 149.961 25.4531C149.961 25.7188 150.021 25.9609 150.141 26.1797C150.26 26.3984 150.44 26.5729 150.68 26.7031C150.924 26.8281 151.224 26.8906 151.578 26.8906C152.021 26.8906 152.411 26.7969 152.75 26.6094C153.089 26.4219 153.357 26.1927 153.555 25.9219C153.758 25.651 153.867 25.388 153.883 25.1328L154.5 25.8281C154.464 26.0469 154.365 26.2891 154.203 26.5547C154.042 26.8203 153.826 27.0755 153.555 27.3203C153.289 27.5599 152.971 27.7604 152.602 27.9219C152.237 28.0781 151.826 28.1562 151.367 28.1562C150.794 28.1562 150.292 28.0443 149.859 27.8203C149.432 27.5964 149.099 27.2969 148.859 26.9219C148.625 26.5417 148.508 26.1172 148.508 25.6484C148.508 25.1953 148.596 24.7969 148.773 24.4531C148.951 24.1042 149.206 23.8151 149.539 23.5859C149.872 23.3516 150.273 23.1745 150.742 23.0547C151.211 22.9349 151.734 22.875 152.312 22.875H153.992ZM162.383 25.7578C162.383 25.5495 162.336 25.3568 162.242 25.1797C162.154 24.9974 161.969 24.8333 161.688 24.6875C161.411 24.5365 160.995 24.4062 160.438 24.2969C159.969 24.1979 159.544 24.0807 159.164 23.9453C158.789 23.8099 158.469 23.6458 158.203 23.4531C157.943 23.2604 157.742 23.0339 157.602 22.7734C157.461 22.513 157.391 22.2083 157.391 21.8594C157.391 21.526 157.464 21.2109 157.609 20.9141C157.76 20.6172 157.971 20.3542 158.242 20.125C158.518 19.8958 158.849 19.7161 159.234 19.5859C159.62 19.4557 160.049 19.3906 160.523 19.3906C161.201 19.3906 161.779 19.5104 162.258 19.75C162.737 19.9896 163.104 20.3099 163.359 20.7109C163.615 21.1068 163.742 21.5469 163.742 22.0312H162.297C162.297 21.7969 162.227 21.5703 162.086 21.3516C161.951 21.1276 161.75 20.9427 161.484 20.7969C161.224 20.651 160.904 20.5781 160.523 20.5781C160.122 20.5781 159.797 20.6406 159.547 20.7656C159.302 20.8854 159.122 21.0391 159.008 21.2266C158.898 21.4141 158.844 21.612 158.844 21.8203C158.844 21.9766 158.87 22.1172 158.922 22.2422C158.979 22.362 159.078 22.474 159.219 22.5781C159.359 22.6771 159.557 22.7708 159.812 22.8594C160.068 22.9479 160.393 23.0365 160.789 23.125C161.482 23.2812 162.052 23.4688 162.5 23.6875C162.948 23.9062 163.281 24.1745 163.5 24.4922C163.719 24.8099 163.828 25.1953 163.828 25.6484C163.828 26.0182 163.75 26.3568 163.594 26.6641C163.443 26.9714 163.221 27.237 162.93 27.4609C162.643 27.6797 162.299 27.8516 161.898 27.9766C161.503 28.0964 161.057 28.1562 160.562 28.1562C159.818 28.1562 159.188 28.0234 158.672 27.7578C158.156 27.4922 157.766 27.1484 157.5 26.7266C157.234 26.3047 157.102 25.8594 157.102 25.3906H158.555C158.576 25.7865 158.69 26.1016 158.898 26.3359C159.107 26.5651 159.362 26.7292 159.664 26.8281C159.966 26.9219 160.266 26.9688 160.562 26.9688C160.958 26.9688 161.289 26.9167 161.555 26.8125C161.826 26.7083 162.031 26.5651 162.172 26.3828C162.312 26.2005 162.383 25.9922 162.383 25.7578Z" fill="white"/>
<path d="M181.5 20.1429V26.6429C181.5 26.7755 181.448 26.9027 181.354 26.9964C181.26 27.0902 181.133 27.1429 181 27.1429C180.868 27.1429 180.74 27.0902 180.647 26.9964C180.553 26.9027 180.5 26.7755 180.5 26.6429V21.3498L173.354 28.4966C173.26 28.5905 173.133 28.6432 173 28.6432C172.868 28.6432 172.74 28.5905 172.647 28.4966C172.553 28.4028 172.5 28.2756 172.5 28.1429C172.5 28.0102 172.553 27.883 172.647 27.7891L179.793 20.6429H174.5C174.368 20.6429 174.24 20.5902 174.147 20.4964C174.053 20.4027 174 20.2755 174 20.1429C174 20.0103 174.053 19.8831 174.147 19.7893C174.24 19.6956 174.368 19.6429 174.5 19.6429H181C181.133 19.6429 181.26 19.6956 181.354 19.7893C181.448 19.8831 181.5 20.0103 181.5 20.1429Z" fill="white"/>
</svg>
