<svg width="50" height="44" viewBox="0 0 50 44" fill="none" xmlns="http://www.w3.org/2000/svg">
<path d="M46 8H6C5.46957 8 4.96086 7.78929 4.58579 7.41421C4.21071 7.03914 4 6.53043 4 6C4 5.46957 4.21071 4.96086 4.58579 4.58579C4.96086 4.21071 5.46957 4 6 4H40C40.5304 4 41.0391 3.78929 41.4142 3.41421C41.7893 3.03914 42 2.53043 42 2C42 1.46957 41.7893 0.96086 41.4142 0.585787C41.0391 0.210714 40.5304 0 40 0H6C4.4087 0 2.88258 0.632141 1.75736 1.75736C0.632141 2.88258 0 4.4087 0 6V38C0 39.5913 0.632141 41.1174 1.75736 42.2426C2.88258 43.3679 4.4087 44 6 44H46C47.0609 44 48.0783 43.5786 48.8284 42.8284C49.5786 42.0783 50 41.0609 50 40V12C50 10.9391 49.5786 9.92172 48.8284 9.17157C48.0783 8.42143 47.0609 8 46 8ZM46 40H6C5.46957 40 4.96086 39.7893 4.58579 39.4142C4.21071 39.0391 4 38.5304 4 38V11.6575C4.64219 11.8851 5.31866 12.001 6 12H46V40ZM34 25C34 24.4067 34.1759 23.8266 34.5056 23.3333C34.8352 22.8399 35.3038 22.4554 35.852 22.2284C36.4001 22.0013 37.0033 21.9419 37.5853 22.0576C38.1672 22.1734 38.7018 22.4591 39.1213 22.8787C39.5409 23.2982 39.8266 23.8328 39.9424 24.4147C40.0581 24.9967 39.9987 25.5999 39.7716 26.148C39.5446 26.6962 39.1601 27.1648 38.6667 27.4944C38.1734 27.8241 37.5933 28 37 28C36.2043 28 35.4413 27.6839 34.8787 27.1213C34.3161 26.5587 34 25.7956 34 25Z" fill="#FDEACB"/>
</svg>
