<svg width="100" height="104" viewBox="0 0 100 104" fill="none" xmlns="http://www.w3.org/2000/svg">
<path d="M35.9066 103.633V98.28H36.479V103.144H39.5112V103.633H35.9066Z" fill="white"/>
<path d="M41.5445 103.633V98.28H45.2574V98.7694H42.1169V103.144H45.3734V103.633H41.5445ZM42.055 101.155V100.674H44.9171V101.155H42.055Z" fill="white"/>
<path d="M50.1614 103.679C49.7489 103.679 49.3673 103.613 49.0166 103.48C48.6711 103.342 48.3695 103.151 48.1116 102.906C47.8589 102.662 47.6604 102.374 47.516 102.042C47.3768 101.711 47.3072 101.349 47.3072 100.956C47.3072 100.564 47.3768 100.202 47.516 99.8706C47.6604 99.5392 47.8615 99.2512 48.1194 99.0065C48.3772 98.7618 48.6789 98.5731 49.0244 98.4406C49.375 98.3029 49.7566 98.2341 50.1692 98.2341C50.5817 98.2341 50.9582 98.2978 51.2985 98.4253C51.644 98.5527 51.9379 98.7465 52.1803 99.0065L51.8245 99.3659C51.5976 99.1416 51.3475 98.981 51.0742 98.8841C50.8009 98.7873 50.5069 98.7388 50.1924 98.7388C49.8572 98.7388 49.5478 98.7949 49.2642 98.9071C48.9857 99.0141 48.7407 99.1696 48.5293 99.3735C48.323 99.5724 48.1606 99.8069 48.042 100.077C47.9286 100.342 47.8718 100.635 47.8718 100.956C47.8718 101.273 47.9286 101.566 48.042 101.836C48.1606 102.106 48.323 102.343 48.5293 102.547C48.7407 102.746 48.9857 102.901 49.2642 103.014C49.5478 103.121 49.8546 103.174 50.1846 103.174C50.494 103.174 50.7854 103.128 51.0587 103.036C51.3372 102.945 51.5924 102.789 51.8245 102.57L52.1494 102.998C51.8915 103.223 51.5899 103.393 51.2444 103.511C50.8988 103.623 50.5379 103.679 50.1614 103.679ZM52.1494 102.998L51.6002 102.929V100.956H52.1494V102.998Z" fill="white"/>
<path d="M53.986 103.633L56.4612 98.28H57.0259L59.5012 103.633H58.8978L56.6237 98.6088H56.8557L54.5816 103.633H53.986ZM54.9606 102.203L55.1308 101.744H58.279L58.4492 102.203H54.9606Z" fill="white"/>
<path d="M61.4798 103.633V98.28H62.0522V103.144H65.0844V103.633H61.4798Z" fill="white"/>
<path fill-rule="evenodd" clip-rule="evenodd" d="M49.5975 0L50.3825 2.26157H52.9227L50.8676 3.65927L51.6526 5.92078L49.5975 4.52308L47.5424 5.92078L48.3274 3.65927L46.2723 2.26157H48.8125L49.5975 0Z" fill="white"/>
<path fill-rule="evenodd" clip-rule="evenodd" d="M29.5643 44.0251H13.8759C13.8661 44.124 13.8612 44.2232 13.8612 44.3224C13.8612 47.0066 17.3827 49.1859 21.7201 49.1859C26.0575 49.1859 29.579 47.0066 29.579 44.3224C29.579 44.2232 29.5741 44.124 29.5643 44.0251Z" fill="white"/>
<path fill-rule="evenodd" clip-rule="evenodd" d="M70.3735 44.0862H86.062C86.0718 44.1852 86.0767 44.2844 86.0767 44.3836C86.0767 47.0678 82.5552 49.2471 78.2178 49.2471C73.8803 49.2471 70.3588 47.0678 70.3588 44.3836C70.3588 44.2844 70.3637 44.1852 70.3735 44.0862Z" fill="white"/>
<path fill-rule="evenodd" clip-rule="evenodd" d="M62.6238 21.6565L61.6956 23.3082C62.4599 23.3275 65.2847 23.7365 65.2847 23.7365C65.2847 23.7365 62.182 23.6599 61.448 23.7976L60.2723 24.8988C61.4092 24.7814 64.6877 23.6912 73.3508 25.4991C73.8879 25.6112 74.3985 25.8335 74.9381 25.9332C79.6903 26.8106 81.7347 25.13 81.6339 23.869C81.4468 21.5304 78.6321 21.9267 78.3274 23.6373C78.2241 24.2175 77.599 24.5318 77.599 24.5318C77.599 24.5318 75.7475 24.6482 74.7525 24.4094C74.5078 24.3507 74.0924 24.0118 74.0099 23.7976C73.9434 23.6251 73.8274 23.3498 73.8861 23.1247C73.9686 22.8086 74.5491 22.336 74.4431 21.7788C74.1616 20.2996 71.0257 21.3309 72.1535 23.6141C70.713 23.3054 68.9733 22.6129 64.8849 21.7802C63.5412 21.5065 62.6956 21.6544 62.6238 21.6565Z" fill="white"/>
<path d="M77.7227 26.6118H78.6509V42.8847H77.7227V26.6118Z" fill="white"/>
<path d="M77.805 26.9894L78.6509 26.6118L86.0681 42.8497L85.2221 43.2274L77.805 26.9894Z" fill="white"/>
<path d="M78.5703 26.991L77.7244 26.6134L70.3072 42.8513L71.1532 43.229L78.5703 26.991Z" fill="white"/>
<path d="M69.6163 42.7624H87.0668V43.68H69.6163V42.7624Z" fill="white"/>
<path fill-rule="evenodd" clip-rule="evenodd" d="M41.3365 21.4118V23.7976C39.4918 23.4833 37.5536 23.4203 35.5196 23.6141C37.5312 23.7583 39.4886 24.0881 41.2746 24.5929V26.1835C40.1995 25.6991 35.1265 23.3853 26.5872 25.438C26.0537 25.5661 25.5395 25.7724 24.9999 25.872C20.2477 26.7495 18.2032 25.0688 18.3041 23.8079C18.4912 21.4693 21.3058 21.8655 21.6105 23.5761C21.7139 24.1563 22.339 24.4706 22.339 24.4706C22.339 24.4706 24.1904 24.587 25.1855 24.3482C25.4302 24.2895 25.8456 23.9506 25.9281 23.7365C25.9946 23.5639 26.1106 23.2887 26.0518 23.0635C25.9693 22.7474 25.3889 22.2748 25.4949 21.7176C25.7763 20.2385 28.9122 21.2698 27.7845 23.5529C29.2037 23.1796 30.837 22.0638 35.0531 21.719C36.8226 21.5742 41.3365 21.4118 41.3365 21.4118Z" fill="white"/>
<path d="M22.2152 26.5506H21.2869V42.8235H22.2152V26.5506Z" fill="white"/>
<path d="M22.1329 26.9283L21.2869 26.5506L13.8698 42.7885L14.7157 43.1662L22.1329 26.9283Z" fill="white"/>
<path d="M21.3674 26.9299L21.7904 26.7411L22.2133 26.5522L29.6305 42.7902L28.7845 43.1678L21.3674 26.9299Z" fill="white"/>
<path d="M30.3216 42.7012H12.8711V43.6188H30.3216V42.7012Z" fill="white"/>
<path fill-rule="evenodd" clip-rule="evenodd" d="M28.2176 76.5922C24.8348 76.5514 23.0196 77.8158 23.0196 77.8158C23.0196 77.8158 24.7176 74.0045 28.8364 72.7993C32.9553 71.5941 40.7795 72.1875 40.7795 72.1875C40.7795 72.1875 36.5223 74.8298 36.5097 76.5922" fill="white"/>
<path fill-rule="evenodd" clip-rule="evenodd" d="M71.828 76.5733C75.2109 76.5325 77.026 77.7969 77.026 77.7969C76.6568 77.532 75.4095 73.3964 69.5135 72.4081C65.7153 71.7714 58.6481 72.1542 59.2662 72.1686C59.2662 72.1686 63.5234 74.8109 63.5359 76.5733" fill="white"/>
<path fill-rule="evenodd" clip-rule="evenodd" d="M36.3241 78.9788C36.3241 78.9788 38.3483 77.0035 42.0171 76.593C45.686 76.1824 54.8238 76.274 55.8785 76.2871C56.9333 76.3001 61.3883 77.4292 63.6137 78.9788C63.7747 79.091 61.9043 73.5235 57.9825 72.6777C54.0606 71.8318 42.3022 72.4911 42.079 72.4941C41.8558 72.4972 36.4274 74.6151 36.3241 78.9788Z" fill="white"/>
<path fill-rule="evenodd" clip-rule="evenodd" d="M40.0803 53.4207H44.7418C44.7762 53.5998 44.7934 53.7824 44.7934 53.9655C44.7934 55.4173 43.7259 56.5961 42.411 56.5961C41.0962 56.5961 40.0286 55.4173 40.0286 53.9655C40.0286 53.7824 40.0459 53.5998 40.0803 53.4207Z" fill="white"/>
<path fill-rule="evenodd" clip-rule="evenodd" d="M44.907 53.4207H49.5685C49.6029 53.5998 49.6202 53.7824 49.6202 53.9655C49.6202 55.4173 48.5526 56.5961 47.2378 56.5961C45.9229 56.5961 44.8553 55.4173 44.8553 53.9655C44.8553 53.7824 44.8726 53.5998 44.907 53.4207Z" fill="white"/>
<path fill-rule="evenodd" clip-rule="evenodd" d="M49.7337 53.4207H54.3952C54.4296 53.5998 54.4469 53.7824 54.4469 53.9655C54.4469 55.4173 53.3793 56.5961 52.0645 56.5961C50.7496 56.5961 49.6821 55.4173 49.6821 53.9655C49.6821 53.7824 49.6993 53.5998 49.7337 53.4207Z" fill="white"/>
<path fill-rule="evenodd" clip-rule="evenodd" d="M54.6224 53.4207H59.2838C59.3182 53.5998 59.3355 53.7824 59.3355 53.9655C59.3355 55.4173 58.268 56.5961 56.9531 56.5961C55.6382 56.5961 54.5707 55.4173 54.5707 53.9655C54.5707 53.7824 54.588 53.5998 54.6224 53.4207Z" fill="white"/>
<path d="M50.8044 28.8753H49.3811V45.393H50.8044V28.8753Z" fill="white"/>
<path fill-rule="evenodd" clip-rule="evenodd" d="M56.8549 53.1364H42.7926C42.1308 53.1364 41.5935 52.6052 41.5935 51.951V51.63C41.5935 50.9758 42.1308 50.4446 42.7926 50.4446H56.8549C57.5166 50.4446 58.0539 50.9758 58.0539 51.63V51.951C58.0539 52.6052 57.5166 53.1364 56.8549 53.1364Z" fill="white"/>
<path fill-rule="evenodd" clip-rule="evenodd" d="M56.8578 71.978H42.7955C42.1337 71.978 41.5964 71.4468 41.5964 70.7926V70.4716C41.5964 69.8174 42.1337 69.2862 42.7955 69.2862H56.8578C57.5195 69.2862 58.0568 69.8174 58.0568 70.4716V70.7926C58.0568 71.4468 57.5195 71.978 56.8578 71.978Z" fill="white"/>
<path fill-rule="evenodd" clip-rule="evenodd" d="M55.6444 57.72V68.9826H52.4266V57.72C52.4266 56.9468 53.0616 56.3191 53.8436 56.3191H54.2274C55.0094 56.3191 55.6444 56.9468 55.6444 57.72Z" fill="white"/>
<path fill-rule="evenodd" clip-rule="evenodd" d="M51.2508 57.7178V68.9804H48.033V57.7178C48.033 56.9446 48.668 56.3168 49.4501 56.3168H49.8338C50.6159 56.3168 51.2508 56.9446 51.2508 57.7178Z" fill="white"/>
<path fill-rule="evenodd" clip-rule="evenodd" d="M46.9192 57.7178V68.9804H43.7013V57.7178C43.7013 56.9446 44.3363 56.3168 45.1184 56.3168H45.5021C46.2842 56.3168 46.9192 56.9446 46.9192 57.7178Z" fill="white"/>
<path fill-rule="evenodd" clip-rule="evenodd" d="M59.9009 50.0424C59.8708 50.6057 61.8422 43.6597 62.0667 40.7435C62.0796 40.5768 67.9455 37.6847 67.9455 37.6847C67.9455 37.6847 69.2226 49.6514 67.2648 55.6706C65.0904 62.3555 56.6309 67.9898 56.6212 67.4165C56.6212 67.4165 56.5611 62.8968 56.5593 62.6447C58.2619 61.3767 59.7406 59.6326 60.891 57.4447C61.7843 54.3384 61.6741 51.9583 59.9009 50.0424Z" fill="white"/>
<path fill-rule="evenodd" clip-rule="evenodd" d="M39.1088 7.64706L55.1361 7.70824C55.1361 7.70824 63.3142 8.95513 63.2425 17.1906C63.1708 25.426 54.3677 26.9419 53.3415 27.04C52.3153 27.1381 49.3811 27.2235 49.3811 27.2235L49.2574 11.3788L50.7425 11.44L50.8044 20.9835L54.7029 20.8C54.7029 20.8 54.8625 23.5766 50.3712 23.7365C45.8799 23.8964 50.1856 23.7365 50.1856 23.7365V24.8377C50.1856 24.8377 56.932 26.2174 56.745 16.9459C56.5579 7.67441 48.0816 10.0329 48.0816 10.0329L48.1435 46.1882L55.693 46.3106C55.693 46.3106 58.3173 46.9764 59.7771 40.2541C59.7913 40.1889 59.8192 40.0622 59.8192 40.0622L61.2004 40.1318L59.4059 49.3082L39.047 49.4306L39.1088 48.0847C39.1088 48.0847 42.0753 48.453 42.2029 46.0659C42.3305 43.6788 42.2648 10.7059 42.2648 10.7059C42.2648 10.7059 42.3924 9.47801 41.1509 9.17647C39.9094 8.87493 39.1088 9.05412 39.1088 9.05412V7.64706Z" fill="white"/>
<path fill-rule="evenodd" clip-rule="evenodd" d="M31.7449 37.7459C31.7449 37.7459 33.356 38.5573 34.1582 38.9694C35.2102 39.5098 37.7174 40.8087 38.0567 40.9882C38.396 41.1677 40.3051 42.7297 40.4701 42.9459C40.6351 43.1621 41.5169 44.2952 41.4602 44.9647C41.4041 45.6264 41.2584 46.2723 40.8414 46.5553C40.4244 46.8383 39.6282 46.9942 38.8612 47.5341C38.0942 48.0741 38.3762 48.6794 38.3661 48.8188C38.3561 48.9583 38.8609 49.6933 39.0468 49.92C39.2044 50.1122 39.524 50.4471 39.3562 50.7153C39.1885 50.9835 38.8932 51.3395 38.7374 51.5106C38.5587 51.707 38.1742 52.0138 37.9949 52.3059C37.8158 52.5975 37.8617 53.6303 38.0567 54.9977C38.2507 56.3579 39.3528 58.6808 39.5419 59.0965C39.7516 59.5575 40.8785 61.2853 42.1419 62.1033C42.2025 62.1425 42.264 62.1803 42.3265 62.2165C42.4596 62.2936 43.1785 62.1519 43.1785 62.1519L43.1929 67.2329C38.9765 65.9519 34.9046 62.015 32.9095 56.7447C31.8582 53.9673 31.3905 50.9998 31.3773 47.952C31.3609 44.1317 31.6713 39.614 31.7449 37.7459Z" fill="white"/>
<path fill-rule="evenodd" clip-rule="evenodd" d="M20.0493 52.1224L30.5691 51.8777C30.5691 51.8777 30.2528 60.3478 41.4602 68.0894C41.5614 68.1593 40.4701 68.2118 40.4701 68.2118C40.4701 68.2118 26.4091 69.5273 20.0493 52.1224Z" fill="white"/>
<path fill-rule="evenodd" clip-rule="evenodd" d="M79.809 51.9917L69.2892 51.747C69.2892 51.747 69.6055 60.2172 58.3981 67.9588C58.2969 68.0287 59.3882 68.0812 59.3882 68.0812C59.3882 68.0812 73.4492 69.3966 79.809 51.9917Z" fill="white"/>
<path fill-rule="evenodd" clip-rule="evenodd" d="M13.2424 57.1388L20.8538 56.8941C20.8538 56.8941 25.0415 66.6056 35.5196 68.7012C35.6646 68.7302 35.8273 68.7277 35.8273 68.7277C35.5158 69.53 18.9382 74.3963 13.2424 57.1388Z" fill="white"/>
<path fill-rule="evenodd" clip-rule="evenodd" d="M86.6159 57.0082L79.0046 56.7635C79.0046 56.7635 74.8169 66.475 64.3387 68.5706C64.1937 68.5996 64.031 68.5971 64.031 68.5971C64.3425 69.3994 80.9202 74.2657 86.6159 57.0082Z" fill="white"/>
<path d="M8.16797 100.788L32.3016 100.452V101.247L8.16797 100.911V100.788Z" fill="white"/>
<path d="M91.5215 100.788L67.3878 100.452V101.247L91.5215 100.911V100.788Z" fill="white"/>
<path d="M21.2266 26.5506H21.9691V28.8141H21.2266V26.5506Z" fill="white"/>
<path d="M77.4746 26.6118H78.2172V28.8753H77.4746V26.6118Z" fill="white"/>
<path d="M7.00329 81.3988H8.88999C9.79141 81.3988 10.5199 81.5411 11.0754 81.8258C11.6414 82.1105 12.0607 82.5033 12.3332 83.0044C12.6162 83.494 12.7682 84.052 12.7892 84.6783C12.8101 85.259 12.721 85.7885 12.5219 86.2668C12.3227 86.7451 12.0502 87.1436 11.7043 87.4624C11.3584 87.7813 10.9601 88.0147 10.5094 88.1628C10.0692 88.2994 9.60798 88.3336 9.12582 88.2652C8.65415 88.1855 8.19296 87.9862 7.74224 87.6674V87.4966C7.74224 87.4966 7.80513 87.4966 7.93091 87.4966C8.06718 87.4966 8.23488 87.4738 8.43403 87.4283C8.64367 87.3827 8.85854 87.2973 9.07866 87.1721C9.30925 87.0468 9.52413 86.8532 9.72328 86.5913C9.92243 86.3294 10.0744 85.9821 10.1792 85.5494C10.2212 85.4014 10.2474 85.2363 10.2578 85.0541C10.2788 84.8605 10.284 84.684 10.2736 84.5246C10.2631 83.7958 10.0797 83.215 9.72328 82.7823C9.37738 82.3382 8.88475 82.1162 8.24536 82.1162H7.16051C7.16051 82.1162 7.14479 82.0592 7.11334 81.9454C7.09238 81.8201 7.06618 81.7005 7.03473 81.5867C7.01377 81.4614 7.00329 81.3988 7.00329 81.3988ZM7.20768 81.3988V93.3553H4.8493V81.3988H7.20768ZM4.89647 92.1084V93.3553H3.63867V93.1845C3.64915 93.1845 3.6806 93.1845 3.73301 93.1845C3.7959 93.1845 3.83258 93.1845 3.84306 93.1845C4.11559 93.1845 4.34618 93.082 4.53485 92.877C4.73401 92.6607 4.83882 92.4045 4.8493 92.1084H4.89647ZM4.89647 82.6457H4.8493C4.8493 82.3496 4.74973 82.0991 4.55058 81.8941C4.35143 81.6778 4.11559 81.5696 3.84306 81.5696C3.83258 81.5696 3.80114 81.5696 3.74873 81.5696C3.69632 81.5696 3.66488 81.5696 3.65439 81.5696L3.63867 81.3988H4.89647V82.6457ZM7.16051 92.1084H7.20768C7.21816 92.4045 7.31774 92.6607 7.50641 92.877C7.70556 93.082 7.9414 93.1845 8.21392 93.1845C8.2244 93.1845 8.25585 93.1845 8.30825 93.1845C8.37114 93.1845 8.40783 93.1845 8.41831 93.1845V93.3553H7.16051V92.1084Z" fill="white"/>
<path d="M16.9768 83.1069H18.6748C19.1045 83.1069 19.5238 83.1581 19.9326 83.2606C20.3414 83.3517 20.7082 83.5054 21.0332 83.7218C21.3581 83.9267 21.6149 84.2114 21.8036 84.5758C22.0027 84.9288 22.1023 85.3729 22.1023 85.9081C22.1023 86.3066 22.0237 86.7052 21.8665 87.1037C21.7197 87.4909 21.4839 87.8268 21.1589 88.1115C20.8445 88.3962 20.4305 88.5841 19.9169 88.6752C20.2208 88.7777 20.5091 88.9769 20.7816 89.273C21.0646 89.5691 21.2847 89.848 21.4419 90.11C21.4839 90.201 21.5572 90.3491 21.6621 90.5541C21.7669 90.7476 21.8979 90.9754 22.0551 91.2373C22.2228 91.4878 22.3958 91.7497 22.574 92.023C22.7836 92.3304 22.967 92.5696 23.1243 92.7404C23.2815 92.8998 23.4439 93.0137 23.6117 93.082C23.7794 93.1503 23.9733 93.1845 24.1934 93.1845V93.3553H22.8727C22.3067 93.3553 21.8245 93.3097 21.4262 93.2186C21.0384 93.1275 20.6977 92.9624 20.4043 92.7233C20.1213 92.4728 19.8592 92.1369 19.6181 91.7155C19.5238 91.5675 19.4242 91.391 19.3194 91.186C19.2146 90.9697 19.1098 90.7533 19.005 90.537C18.9001 90.3206 18.8058 90.11 18.722 89.905C18.6486 89.7 18.5962 89.5292 18.5647 89.3926C18.4285 89.0282 18.2712 88.7663 18.0931 88.6068C17.9253 88.436 17.7681 88.3506 17.6214 88.3506V88.1969C17.6214 88.1969 17.6581 88.1969 17.7314 88.1969C17.8048 88.1969 17.8991 88.1969 18.0144 88.1969C18.2346 88.1969 18.4494 88.1571 18.6591 88.0773C18.8792 87.9862 19.0783 87.8211 19.2565 87.582C19.4347 87.3315 19.5657 86.9671 19.6496 86.4888C19.6705 86.4205 19.6863 86.3237 19.6967 86.1985C19.7177 86.0732 19.723 85.9309 19.7125 85.7715C19.6915 85.3501 19.6181 85.0142 19.4924 84.7637C19.3771 84.5018 19.2303 84.3082 19.0521 84.1829C18.8739 84.0463 18.6905 83.9552 18.5018 83.9097C18.3237 83.8527 18.1664 83.8242 18.0302 83.8242C17.831 83.8129 17.6476 83.8129 17.4799 83.8242C17.3226 83.8242 17.2021 83.8186 17.1183 83.8072C17.1078 83.8072 17.0921 83.7502 17.0711 83.6364C17.0501 83.5111 17.0292 83.3915 17.0082 83.2777C16.9872 83.1638 16.9768 83.1069 16.9768 83.1069ZM17.134 83.1069V93.3553H14.8542V83.1069H17.134ZM14.9014 92.2792L14.9643 93.3553H13.8323V93.1845C13.8427 93.1845 13.8689 93.1845 13.9109 93.1845C13.9633 93.1845 14 93.1845 14.0209 93.1845C14.2515 93.1845 14.4454 93.0991 14.6027 92.9283C14.7704 92.7461 14.8595 92.5297 14.8699 92.2792H14.9014ZM14.9014 84.1659H14.8699C14.8595 83.904 14.7704 83.6933 14.6027 83.5339C14.4454 83.3631 14.2568 83.2777 14.0366 83.2777C14.0052 83.2777 13.9633 83.2777 13.9109 83.2777C13.8689 83.2777 13.8427 83.2777 13.8323 83.2777V83.1069H14.9643L14.9014 84.1659ZM17.1025 92.2792H17.134C17.134 92.5639 17.2231 92.7859 17.4013 92.9453C17.5899 93.1048 17.7891 93.1845 17.9987 93.1845C17.9987 93.1845 18.0197 93.1845 18.0616 93.1845C18.1035 93.1845 18.135 93.1845 18.1559 93.1845V93.3553H17.0239L17.1025 92.2792Z" fill="white"/>
<path d="M28.8434 82.6457L33.4973 93.2699H30.8402L27.9158 85.7715L28.8434 82.6457ZM25.8876 92.228C25.7723 92.5354 25.788 92.7745 25.9348 92.9453C26.0815 93.1048 26.244 93.1845 26.4222 93.1845H26.5479V93.3553H23.4035V93.1845C23.4035 93.1845 23.4244 93.1845 23.4663 93.1845C23.5083 93.1845 23.5292 93.1845 23.5292 93.1845C23.7389 93.1845 23.959 93.1162 24.1896 92.9795C24.4202 92.8315 24.6088 92.581 24.7556 92.228H25.8876ZM28.8434 82.6457L28.8749 84.6954L25.4631 93.304H24.2996L27.9787 84.7124C27.9997 84.6441 28.0468 84.5246 28.1202 84.3538C28.1936 84.1716 28.2722 83.9723 28.356 83.7559C28.4399 83.5282 28.5185 83.3175 28.5919 83.1239C28.6652 82.919 28.7072 82.7596 28.7177 82.6457H28.8434ZM30.2113 90.0075V90.6736H26.2021V90.0075H30.2113ZM30.4471 92.228H33.0413C33.1986 92.581 33.3925 92.8315 33.6231 92.9795C33.8537 93.1162 34.0738 93.1845 34.2834 93.1845C34.2834 93.1845 34.3044 93.1845 34.3463 93.1845C34.3882 93.1845 34.4092 93.1845 34.4092 93.1845V93.3553H29.7868V93.1845H29.9126C30.0908 93.1845 30.2532 93.1048 30.4 92.9453C30.5467 92.7745 30.5624 92.5354 30.4471 92.228Z" fill="white"/>
<path d="M45.0306 82.8848L45.1564 84.6441L40.927 91.9376C40.927 91.9376 40.8799 92.0344 40.7855 92.228C40.6912 92.4102 40.5969 92.6322 40.5025 92.8941C40.4187 93.156 40.3715 93.4179 40.361 93.6798H40.2195L39.6063 92.2792L45.0306 82.8848ZM35.3613 92.2621V93.3553H33.8205V93.1845C33.8205 93.1845 33.8572 93.1845 33.9305 93.1845C33.9934 93.1845 34.0249 93.1845 34.0249 93.1845C34.2869 93.1845 34.5123 93.1048 34.7009 92.9453C34.9001 92.7859 35.0206 92.5582 35.0625 92.2621H35.3613ZM36.0373 92.5013C36.0269 92.6265 36.0635 92.7745 36.1474 92.9453C36.2313 93.1048 36.378 93.1845 36.5876 93.1845H36.8077V93.3553H35.8644L35.9587 92.5013H36.0373ZM36.2889 82.8848H36.4147L36.9492 84.5246L35.9587 93.3553H34.9368L36.2889 82.8848ZM36.4147 82.8848L41.0685 90.4516L40.2195 93.6798L36.0373 86.7963L36.4147 82.8848ZM45.1721 82.8848L46.5557 93.3553H44.1502L43.3797 87.1208L45.0306 82.8848H45.1721ZM46.1155 92.2621H46.4142C46.4666 92.5582 46.5871 92.7859 46.7758 92.9453C46.975 93.1048 47.1951 93.1845 47.4361 93.1845C47.4361 93.1845 47.4728 93.1845 47.5462 93.1845C47.6196 93.1845 47.6563 93.1845 47.6563 93.1845V93.3553H46.1155V92.2621ZM44.0401 92.5013H44.1344L44.2288 93.3553H43.2854V93.1845H43.5055C43.7361 93.1845 43.8881 93.1048 43.9615 92.9453C44.0349 92.7745 44.0611 92.6265 44.0401 92.5013Z" fill="white"/>
<path d="M52.5347 82.6457L57.1885 93.2699H54.5314L51.607 85.7715L52.5347 82.6457ZM49.5788 92.228C49.4635 92.5354 49.4793 92.7745 49.626 92.9453C49.7727 93.1048 49.9352 93.1845 50.1134 93.1845H50.2392V93.3553H47.0947V93.1845C47.0947 93.1845 47.1156 93.1845 47.1576 93.1845C47.1995 93.1845 47.2205 93.1845 47.2205 93.1845C47.4301 93.1845 47.6502 93.1162 47.8808 92.9795C48.1114 92.8315 48.3001 92.581 48.4468 92.228H49.5788ZM52.5347 82.6457L52.5661 84.6954L49.1543 93.304H47.9909L51.6699 84.7124C51.6909 84.6441 51.7381 84.5246 51.8114 84.3538C51.8848 84.1716 51.9634 83.9723 52.0473 83.7559C52.1311 83.5282 52.2097 83.3175 52.2831 83.1239C52.3565 82.919 52.3984 82.7596 52.4089 82.6457H52.5347ZM53.9025 90.0075V90.6736H49.8933V90.0075H53.9025ZM54.1384 92.228H56.7326C56.8898 92.581 57.0837 92.8315 57.3143 92.9795C57.5449 93.1162 57.765 93.1845 57.9746 93.1845C57.9746 93.1845 57.9956 93.1845 58.0375 93.1845C58.0795 93.1845 58.1004 93.1845 58.1004 93.1845V93.3553H53.478V93.1845H53.6038C53.782 93.1845 53.9444 93.1048 54.0912 92.9453C54.2379 92.7745 54.2537 92.5354 54.1384 92.228Z" fill="white"/>
<path d="M59.0682 82.8677L68.2973 91.6814L68.4546 93.5773L59.2412 84.7637L59.0682 82.8677ZM59.1311 92.3134V93.3553H57.9676V93.1845C57.9676 93.1845 58.0096 93.1845 58.0934 93.1845C58.1773 93.1845 58.2192 93.1845 58.2192 93.1845C58.4603 93.1845 58.6647 93.1048 58.8324 92.9453C59.0001 92.7745 59.0839 92.5639 59.0839 92.3134H59.1311ZM61.2379 92.3134C61.2484 92.5639 61.3375 92.7745 61.5052 92.9453C61.6729 93.1048 61.8721 93.1845 62.1027 93.1845C62.1027 93.1845 62.1446 93.1845 62.2284 93.1845C62.3228 93.1845 62.3699 93.1845 62.3699 93.1845V93.3553H61.2065V92.3134H61.2379ZM59.0682 82.8677L61.2379 85.4298V93.3553H59.0839V84.8149C59.0839 84.2342 59.0577 83.7673 59.0053 83.4143C58.9529 83.0499 58.9267 82.8677 58.9267 82.8677H59.0682ZM68.4388 83.1069V91.5789C68.4388 91.9774 68.4493 92.3304 68.4703 92.6379C68.5017 92.934 68.5279 93.1674 68.5489 93.3382C68.5803 93.4976 68.5961 93.5773 68.5961 93.5773H68.4546L66.2848 90.8615V83.1069H68.4388ZM68.3917 84.1488V83.1069H69.5709V83.2777C69.5709 83.2777 69.5237 83.2777 69.4294 83.2777C69.3455 83.2777 69.3036 83.2777 69.3036 83.2777C69.073 83.2777 68.8686 83.3631 68.6904 83.5339C68.5227 83.6933 68.4388 83.8983 68.4388 84.1488H68.3917ZM66.2848 84.1488C66.2744 83.8983 66.1853 83.6933 66.0176 83.5339C65.8603 83.3631 65.6612 83.2777 65.4201 83.2777C65.4201 83.2777 65.3729 83.2777 65.2786 83.2777C65.1948 83.2777 65.1528 83.2777 65.1528 83.2777V83.1069H66.3163V84.1488H66.2848Z" fill="white"/>
<path d="M73.7891 83.1069V93.3553H71.5251V83.1069H73.7891ZM71.5723 92.2792V93.3553H70.4245V93.1845C70.4245 93.1845 70.456 93.1845 70.5189 93.1845C70.5818 93.1845 70.6184 93.1845 70.6289 93.1845C70.87 93.1845 71.0796 93.0991 71.2578 92.9283C71.436 92.7461 71.5251 92.5297 71.5251 92.2792H71.5723ZM73.7577 92.2792H73.7891C73.7996 92.5297 73.8887 92.7461 74.0564 92.9283C74.2346 93.0991 74.4495 93.1845 74.701 93.1845C74.701 93.1845 74.7273 93.1845 74.7797 93.1845C74.8426 93.1845 74.8792 93.1845 74.8897 93.1845V93.3553H73.7577V92.2792ZM73.7577 84.1829V83.1069H74.8897L74.874 83.2777C74.874 83.2777 74.8478 83.2777 74.7954 83.2777C74.743 83.2777 74.7115 83.2777 74.701 83.2777C74.4495 83.2777 74.2346 83.3631 74.0564 83.5339C73.8887 83.7047 73.7996 83.921 73.7891 84.1829H73.7577ZM71.5723 84.1829H71.5251C71.5251 83.921 71.436 83.7047 71.2578 83.5339C71.0796 83.3631 70.8648 83.2777 70.6132 83.2777C70.6132 83.2777 70.5818 83.2777 70.5189 83.2777C70.456 83.2777 70.4245 83.2777 70.4245 83.2777V83.1069H71.5723V84.1829Z" fill="white"/>
<path d="M81.3313 86.8988L84.8531 92.2109C85.0523 92.5297 85.2619 92.7745 85.482 92.9453C85.7021 93.1048 85.9589 93.1902 86.2524 93.2016V93.3553H85.0418C84.937 93.3553 84.764 93.3496 84.5229 93.3382C84.2819 93.3268 84.0041 93.287 83.6897 93.2186C83.3857 93.1389 83.0765 93.008 82.762 92.8258C82.4476 92.6436 82.1698 92.3817 81.9287 92.0401C81.8763 91.9604 81.7872 91.8237 81.6615 91.6301C81.5357 91.4366 81.3837 91.2088 81.2055 90.9469C81.0378 90.685 80.8596 90.4174 80.6709 90.1441C80.4927 89.8708 80.325 89.6146 80.1678 89.3755C80.0106 89.1364 79.8848 88.9428 79.7905 88.7947C79.6961 88.6467 79.649 88.5727 79.649 88.5727L81.3313 86.8988ZM84.6644 83.2093L80.5609 88.4702L79.649 88.5727L83.3752 83.2093H84.6644ZM85.6392 83.0898V83.2606H85.5764C85.2724 83.2606 84.9894 83.3232 84.7273 83.4485C84.4653 83.5737 84.2504 83.7445 84.0827 83.9609L82.8721 83.9267C82.9874 83.7673 83.0083 83.6193 82.935 83.4826C82.8616 83.3346 82.7358 83.2606 82.5576 83.2606H82.4318V83.0898H85.6392ZM79.193 83.0898V93.3553H76.929V83.0898H79.193ZM76.9604 92.2792V93.3553H75.8913V93.1845C75.8913 93.1845 75.9123 93.1845 75.9542 93.1845C76.0066 93.1845 76.038 93.1845 76.0485 93.1845C76.2896 93.1845 76.494 93.0991 76.6617 92.9283C76.8294 92.7461 76.9185 92.5297 76.929 92.2792H76.9604ZM79.1459 92.2792H79.193C79.193 92.5297 79.2769 92.7461 79.4446 92.9283C79.6123 93.0991 79.8167 93.1845 80.0578 93.1845C80.0682 93.1845 80.0997 93.1845 80.1521 93.1845C80.2045 93.1845 80.2307 93.1845 80.2307 93.1845V93.3553H79.1459V92.2792ZM79.1459 84.1829V83.0898H80.2307V83.2606C80.2202 83.2606 80.1888 83.2606 80.1364 83.2606C80.0944 83.2606 80.0682 83.2606 80.0578 83.2606C79.8167 83.2606 79.6123 83.3517 79.4446 83.5339C79.2769 83.7047 79.193 83.921 79.193 84.1829H79.1459ZM76.9604 84.1829H76.929C76.9185 83.921 76.8294 83.7047 76.6617 83.5339C76.494 83.3517 76.2896 83.2606 76.0485 83.2606C76.0485 83.2606 76.0223 83.2606 75.9699 83.2606C75.9175 83.2606 75.8861 83.2606 75.8756 83.2606V83.0898H76.9604V84.1829Z" fill="white"/>
<path d="M90.9197 82.6457L95.5735 93.2699H92.9164L89.992 85.7715L90.9197 82.6457ZM87.9638 92.228C87.8485 92.5354 87.8643 92.7745 88.011 92.9453C88.1578 93.1048 88.3202 93.1845 88.4984 93.1845H88.6242V93.3553H85.4797V93.1845C85.4797 93.1845 85.5006 93.1845 85.5426 93.1845C85.5845 93.1845 85.6055 93.1845 85.6055 93.1845C85.8151 93.1845 86.0352 93.1162 86.2658 92.9795C86.4964 92.8315 86.6851 92.581 86.8318 92.228H87.9638ZM90.9197 82.6457L90.9511 84.6954L87.5393 93.304H86.3759L90.0549 84.7124C90.0759 84.6441 90.1231 84.5246 90.1964 84.3538C90.2698 84.1716 90.3484 83.9723 90.4323 83.7559C90.5161 83.5282 90.5947 83.3175 90.6681 83.1239C90.7415 82.919 90.7834 82.7596 90.7939 82.6457H90.9197ZM92.2875 90.0075V90.6736H88.2783V90.0075H92.2875ZM92.5234 92.228H95.1176C95.2748 92.581 95.4687 92.8315 95.6993 92.9795C95.9299 93.1162 96.15 93.1845 96.3596 93.1845C96.3596 93.1845 96.3806 93.1845 96.4225 93.1845C96.4645 93.1845 96.4854 93.1845 96.4854 93.1845V93.3553H91.863V93.1845H91.9888C92.167 93.1845 92.3295 93.1048 92.4762 92.9453C92.6229 92.7745 92.6387 92.5354 92.5234 92.228Z" fill="white"/>
</svg>
