<svg width="56" height="49" viewBox="0 0 56 49" fill="none" xmlns="http://www.w3.org/2000/svg">
<path d="M26 24C26 24.5304 25.7893 25.0391 25.4142 25.4142C25.0391 25.7893 24.5304 26 24 26H12C11.4696 26 10.9609 25.7893 10.5858 25.4142C10.2107 25.0391 10 24.5304 10 24C10 23.4696 10.2107 22.9609 10.5858 22.5858C10.9609 22.2107 11.4696 22 12 22H24C24.5304 22 25.0391 22.2107 25.4142 22.5858C25.7893 22.9609 26 23.4696 26 24ZM24 14H12C11.4696 14 10.9609 14.2107 10.5858 14.5858C10.2107 14.9609 10 15.4696 10 16C10 16.5304 10.2107 17.0391 10.5858 17.4142C10.9609 17.7893 11.4696 18 12 18H24C24.5304 18 25.0391 17.7893 25.4142 17.4142C25.7893 17.0391 26 16.5304 26 16C26 15.4696 25.7893 14.9609 25.4142 14.5858C25.0391 14.2107 24.5304 14 24 14ZM52 30.3675V46C52.0032 46.3526 51.9131 46.6998 51.7388 47.0063C51.5646 47.3129 51.3124 47.5679 51.0078 47.7456C50.7033 47.9232 50.3571 48.0172 50.0045 48.018C49.6519 48.0188 49.3054 47.9263 49 47.75L43 44.315L37 47.75C36.6946 47.9263 36.3481 48.0188 35.9955 48.018C35.6429 48.0172 35.2967 47.9232 34.9922 47.7456C34.6876 47.5679 34.4354 47.3129 34.2612 47.0063C34.0869 46.6998 33.9968 46.3526 34 46V40H4C2.93913 40 1.92172 39.5786 1.17157 38.8284C0.421427 38.0783 0 37.0609 0 36V4C0 2.93913 0.421427 1.92172 1.17157 1.17157C1.92172 0.421427 2.93913 0 4 0H48C49.0609 0 50.0783 0.421427 50.8284 1.17157C51.5786 1.92172 52 2.93913 52 4V11.6325C53.2643 12.8432 54.2704 14.2973 54.9578 15.9072C55.6451 17.5171 55.9994 19.2495 55.9994 21C55.9994 22.7505 55.6451 24.4829 54.9578 26.0928C54.2704 27.7027 53.2643 29.1568 52 30.3675ZM34 36V30.3675C31.8205 28.2656 30.4431 25.4688 30.1055 22.4598C29.7678 19.4508 30.4911 16.4183 32.1505 13.8856C33.81 11.3529 36.3014 9.47889 39.195 8.58696C42.0885 7.69502 45.2027 7.8411 48 9V4H4V36H34ZM48 33C46.4161 33.6618 44.7166 34.0025 43 34.0025C41.2834 34.0025 39.5839 33.6618 38 33V42.555L42 40.265C42.3022 40.0922 42.6444 40.0014 42.9925 40.0014C43.3406 40.0014 43.6828 40.0922 43.985 40.265L47.985 42.555L48 33ZM52 21C52 19.22 51.4722 17.4799 50.4832 15.9999C49.4943 14.5198 48.0887 13.3663 46.4441 12.6851C44.7996 12.0039 42.99 11.8257 41.2442 12.1729C39.4984 12.5202 37.8947 13.3774 36.636 14.636C35.3774 15.8947 34.5202 17.4984 34.1729 19.2442C33.8257 20.99 34.0039 22.7996 34.6851 24.4441C35.3663 26.0887 36.5198 27.4943 37.9999 28.4832C39.4799 29.4722 41.22 30 43 30C44.1819 30 45.3522 29.7672 46.4441 29.3149C47.5361 28.8626 48.5282 28.1997 49.364 27.364C50.1997 26.5282 50.8626 25.5361 51.3149 24.4441C51.7672 23.3522 52 22.1819 52 21Z" fill="#FDEACB"/>
</svg>
