<svg width="48" height="42" viewBox="0 0 48 42" fill="none" xmlns="http://www.w3.org/2000/svg">
<path d="M46.6704 35.4573L27.5385 2.23576C27.1376 1.5549 26.5658 0.990503 25.8799 0.598382C25.1939 0.206261 24.4174 0 23.6273 0C22.8371 0 22.0607 0.206261 21.3747 0.598382C20.6887 0.990503 20.117 1.5549 19.716 2.23576L0.584148 35.4573C0.201613 36.1114 0 36.8554 0 37.6131C0 38.3708 0.201613 39.1148 0.584148 39.7689C0.97904 40.4548 1.54957 41.023 2.23702 41.4152C2.92447 41.8074 3.70401 42.0093 4.4954 42.0001H42.7592C43.5498 42.0085 44.3284 41.8062 45.015 41.4141C45.7017 41.022 46.2715 40.4541 46.666 39.7689C47.0492 39.1152 47.2516 38.3714 47.2524 37.6137C47.2531 36.856 47.0523 36.1117 46.6704 35.4573ZM45.1523 38.8939C44.9093 39.3117 44.5597 39.6574 44.1392 39.8957C43.7187 40.134 43.2424 40.2563 42.7592 40.2501H4.4954C4.01212 40.2563 3.53586 40.134 3.11537 39.8957C2.69488 39.6574 2.34525 39.3117 2.10227 38.8939C1.87131 38.5062 1.74939 38.0633 1.74939 37.612C1.74939 37.1607 1.87131 36.7178 2.10227 36.3301L21.232 3.10857C21.4797 2.69442 21.8307 2.35158 22.2505 2.11353C22.6703 1.87548 23.1447 1.75034 23.6273 1.75034C24.1099 1.75034 24.5843 1.87548 25.0041 2.11353C25.4239 2.35158 25.7748 2.69442 26.0226 3.10857L45.1523 36.3301C45.3832 36.7178 45.5052 37.1607 45.5052 37.612C45.5052 38.0633 45.3832 38.5062 45.1523 38.8939ZM22.7523 25.3751V16.6251C22.7523 16.3931 22.8445 16.1705 23.0086 16.0064C23.1726 15.8423 23.3952 15.7501 23.6273 15.7501C23.8593 15.7501 24.0819 15.8423 24.246 16.0064C24.4101 16.1705 24.5023 16.3931 24.5023 16.6251V25.3751C24.5023 25.6072 24.4101 25.8298 24.246 25.9939C24.0819 26.1579 23.8593 26.2501 23.6273 26.2501C23.3952 26.2501 23.1726 26.1579 23.0086 25.9939C22.8445 25.8298 22.7523 25.6072 22.7523 25.3751ZM25.3773 33.2501C25.3773 33.5963 25.2746 33.9346 25.0823 34.2224C24.8901 34.5102 24.6167 34.7345 24.297 34.8669C23.9772 34.9994 23.6253 35.034 23.2859 34.9665C22.9464 34.899 22.6346 34.7323 22.3898 34.4876C22.1451 34.2428 21.9784 33.931 21.9109 33.5915C21.8434 33.2521 21.878 32.9002 22.0105 32.5804C22.1429 32.2607 22.3672 31.9874 22.655 31.7951C22.9428 31.6028 23.2812 31.5001 23.6273 31.5001C24.0914 31.5001 24.5365 31.6845 24.8647 32.0127C25.1929 32.3409 25.3773 32.786 25.3773 33.2501Z" fill="#FAF1E1"/>
</svg>
