<svg width="591" height="45" viewBox="0 0 591 45" fill="none" xmlns="http://www.w3.org/2000/svg">
<rect width="3" height="45" fill="#2E31CA"/>
<rect x="7" width="5" height="45" fill="#2E31CA"/>
<rect width="575" height="45" transform="translate(16)" fill="#2E31CA"/>
<path d="M230.883 25.125C230.883 24.8594 230.841 24.625 230.758 24.4219C230.68 24.2135 230.539 24.026 230.336 23.8594C230.138 23.6927 229.862 23.5339 229.508 23.3828C229.159 23.2318 228.716 23.0781 228.18 22.9219C227.617 22.7552 227.109 22.5703 226.656 22.3672C226.203 22.1589 225.815 21.9219 225.492 21.6562C225.169 21.3906 224.922 21.0859 224.75 20.7422C224.578 20.3984 224.492 20.0052 224.492 19.5625C224.492 19.1198 224.583 18.7109 224.766 18.3359C224.948 17.9609 225.208 17.6354 225.547 17.3594C225.891 17.0781 226.299 16.8594 226.773 16.7031C227.247 16.5469 227.776 16.4688 228.359 16.4688C229.214 16.4688 229.938 16.6328 230.531 16.9609C231.13 17.2839 231.586 17.7083 231.898 18.2344C232.211 18.7552 232.367 19.3125 232.367 19.9062H230.867C230.867 19.4792 230.776 19.1016 230.594 18.7734C230.411 18.4401 230.135 18.1797 229.766 17.9922C229.396 17.7995 228.927 17.7031 228.359 17.7031C227.823 17.7031 227.38 17.7839 227.031 17.9453C226.682 18.1068 226.422 18.3255 226.25 18.6016C226.083 18.8776 226 19.1927 226 19.5469C226 19.7865 226.049 20.0052 226.148 20.2031C226.253 20.3958 226.411 20.5755 226.625 20.7422C226.844 20.9089 227.12 21.0625 227.453 21.2031C227.792 21.3438 228.195 21.4792 228.664 21.6094C229.31 21.7917 229.867 21.9948 230.336 22.2188C230.805 22.4427 231.19 22.6953 231.492 22.9766C231.799 23.2526 232.026 23.5677 232.172 23.9219C232.323 24.2708 232.398 24.6667 232.398 25.1094C232.398 25.5729 232.305 25.9922 232.117 26.3672C231.93 26.7422 231.661 27.0625 231.312 27.3281C230.964 27.5938 230.544 27.7995 230.055 27.9453C229.57 28.0859 229.029 28.1562 228.43 28.1562C227.904 28.1562 227.385 28.0833 226.875 27.9375C226.37 27.7917 225.909 27.5729 225.492 27.2812C225.081 26.9896 224.75 26.6302 224.5 26.2031C224.255 25.7708 224.133 25.2708 224.133 24.7031H225.633C225.633 25.0938 225.708 25.4297 225.859 25.7109C226.01 25.987 226.216 26.2161 226.477 26.3984C226.742 26.5807 227.042 26.7161 227.375 26.8047C227.714 26.888 228.065 26.9297 228.43 26.9297C228.956 26.9297 229.401 26.8568 229.766 26.7109C230.13 26.5651 230.406 26.3568 230.594 26.0859C230.786 25.8151 230.883 25.4948 230.883 25.125ZM237.484 26.9688C237.828 26.9688 238.146 26.8984 238.438 26.7578C238.729 26.6172 238.969 26.4245 239.156 26.1797C239.344 25.9297 239.451 25.6458 239.477 25.3281H240.852C240.826 25.8281 240.656 26.2943 240.344 26.7266C240.036 27.1536 239.633 27.5 239.133 27.7656C238.633 28.026 238.083 28.1562 237.484 28.1562C236.849 28.1562 236.294 28.0443 235.82 27.8203C235.352 27.5964 234.961 27.2891 234.648 26.8984C234.341 26.5078 234.109 26.0599 233.953 25.5547C233.802 25.0443 233.727 24.5052 233.727 23.9375V23.6094C233.727 23.0417 233.802 22.5052 233.953 22C234.109 21.4896 234.341 21.0391 234.648 20.6484C234.961 20.2578 235.352 19.9505 235.82 19.7266C236.294 19.5026 236.849 19.3906 237.484 19.3906C238.146 19.3906 238.724 19.526 239.219 19.7969C239.714 20.0625 240.102 20.4271 240.383 20.8906C240.669 21.349 240.826 21.8698 240.852 22.4531H239.477C239.451 22.1042 239.352 21.7891 239.18 21.5078C239.013 21.2266 238.784 21.0026 238.492 20.8359C238.206 20.6641 237.87 20.5781 237.484 20.5781C237.042 20.5781 236.669 20.6667 236.367 20.8438C236.07 21.0156 235.833 21.25 235.656 21.5469C235.484 21.8385 235.359 22.1641 235.281 22.5234C235.208 22.8776 235.172 23.2396 235.172 23.6094V23.9375C235.172 24.3073 235.208 24.6719 235.281 25.0312C235.354 25.3906 235.477 25.7161 235.648 26.0078C235.826 26.2995 236.062 26.5339 236.359 26.7109C236.661 26.8828 237.036 26.9688 237.484 26.9688ZM243.922 16V28H242.477V16H243.922ZM243.578 23.4531L242.977 23.4297C242.982 22.8516 243.068 22.3177 243.234 21.8281C243.401 21.3333 243.635 20.9036 243.938 20.5391C244.24 20.1745 244.599 19.8932 245.016 19.6953C245.438 19.4922 245.904 19.3906 246.414 19.3906C246.831 19.3906 247.206 19.4479 247.539 19.5625C247.872 19.6719 248.156 19.849 248.391 20.0938C248.63 20.3385 248.812 20.6562 248.938 21.0469C249.062 21.4323 249.125 21.9036 249.125 22.4609V28H247.672V22.4453C247.672 22.0026 247.607 21.6484 247.477 21.3828C247.346 21.112 247.156 20.9167 246.906 20.7969C246.656 20.6719 246.349 20.6094 245.984 20.6094C245.625 20.6094 245.297 20.6849 245 20.8359C244.708 20.987 244.456 21.1953 244.242 21.4609C244.034 21.7266 243.87 22.0312 243.75 22.375C243.635 22.7135 243.578 23.0729 243.578 23.4531ZM254.797 28.1562C254.208 28.1562 253.674 28.0573 253.195 27.8594C252.721 27.6562 252.312 27.3724 251.969 27.0078C251.63 26.6432 251.37 26.2109 251.188 25.7109C251.005 25.2109 250.914 24.6641 250.914 24.0703V23.7422C250.914 23.0547 251.016 22.4427 251.219 21.9062C251.422 21.3646 251.698 20.9062 252.047 20.5312C252.396 20.1562 252.792 19.8724 253.234 19.6797C253.677 19.487 254.135 19.3906 254.609 19.3906C255.214 19.3906 255.734 19.4948 256.172 19.7031C256.615 19.9115 256.977 20.2031 257.258 20.5781C257.539 20.9479 257.747 21.3854 257.883 21.8906C258.018 22.3906 258.086 22.9375 258.086 23.5312V24.1797H251.773V23H256.641V22.8906C256.62 22.5156 256.542 22.151 256.406 21.7969C256.276 21.4427 256.068 21.151 255.781 20.9219C255.495 20.6927 255.104 20.5781 254.609 20.5781C254.281 20.5781 253.979 20.6484 253.703 20.7891C253.427 20.9245 253.19 21.1276 252.992 21.3984C252.794 21.6693 252.641 22 252.531 22.3906C252.422 22.7812 252.367 23.2318 252.367 23.7422V24.0703C252.367 24.4714 252.422 24.849 252.531 25.2031C252.646 25.5521 252.81 25.8594 253.023 26.125C253.242 26.3906 253.505 26.599 253.812 26.75C254.125 26.901 254.479 26.9766 254.875 26.9766C255.385 26.9766 255.818 26.8724 256.172 26.6641C256.526 26.4557 256.836 26.1771 257.102 25.8281L257.977 26.5234C257.794 26.7995 257.562 27.0625 257.281 27.3125C257 27.5625 256.654 27.7656 256.242 27.9219C255.836 28.0781 255.354 28.1562 254.797 28.1562ZM265.102 26.3594V16H266.555V28H265.227L265.102 26.3594ZM259.414 23.8672V23.7031C259.414 23.0573 259.492 22.4714 259.648 21.9453C259.81 21.4141 260.036 20.9583 260.328 20.5781C260.625 20.1979 260.977 19.9062 261.383 19.7031C261.794 19.4948 262.253 19.3906 262.758 19.3906C263.289 19.3906 263.753 19.4844 264.148 19.6719C264.549 19.8542 264.888 20.1224 265.164 20.4766C265.445 20.8255 265.667 21.2474 265.828 21.7422C265.99 22.237 266.102 22.7969 266.164 23.4219V24.1406C266.107 24.7604 265.995 25.3177 265.828 25.8125C265.667 26.3073 265.445 26.7292 265.164 27.0781C264.888 27.4271 264.549 27.6953 264.148 27.8828C263.747 28.0651 263.279 28.1562 262.742 28.1562C262.247 28.1562 261.794 28.0495 261.383 27.8359C260.977 27.6224 260.625 27.3229 260.328 26.9375C260.036 26.5521 259.81 26.099 259.648 25.5781C259.492 25.0521 259.414 24.4818 259.414 23.8672ZM260.867 23.7031V23.8672C260.867 24.2891 260.909 24.6849 260.992 25.0547C261.081 25.4245 261.216 25.75 261.398 26.0312C261.581 26.3125 261.812 26.5339 262.094 26.6953C262.375 26.8516 262.711 26.9297 263.102 26.9297C263.581 26.9297 263.974 26.8281 264.281 26.625C264.594 26.4219 264.844 26.1536 265.031 25.8203C265.219 25.487 265.365 25.125 265.469 24.7344V22.8516C265.406 22.5651 265.315 22.2891 265.195 22.0234C265.081 21.7526 264.93 21.513 264.742 21.3047C264.56 21.0911 264.333 20.9219 264.062 20.7969C263.797 20.6719 263.482 20.6094 263.117 20.6094C262.721 20.6094 262.38 20.6927 262.094 20.8594C261.812 21.0208 261.581 21.2448 261.398 21.5312C261.216 21.8125 261.081 22.1406 260.992 22.5156C260.909 22.8854 260.867 23.2812 260.867 23.7031ZM273.977 26.0469V19.5469H275.43V28H274.047L273.977 26.0469ZM274.25 24.2656L274.852 24.25C274.852 24.8125 274.792 25.3333 274.672 25.8125C274.557 26.2865 274.37 26.6979 274.109 27.0469C273.849 27.3958 273.508 27.6693 273.086 27.8672C272.664 28.0599 272.151 28.1562 271.547 28.1562C271.135 28.1562 270.758 28.0964 270.414 27.9766C270.076 27.8568 269.784 27.6719 269.539 27.4219C269.294 27.1719 269.104 26.8464 268.969 26.4453C268.839 26.0443 268.773 25.5625 268.773 25V19.5469H270.219V25.0156C270.219 25.3958 270.26 25.7109 270.344 25.9609C270.432 26.2057 270.549 26.401 270.695 26.5469C270.846 26.6875 271.013 26.7865 271.195 26.8438C271.383 26.901 271.576 26.9297 271.773 26.9297C272.388 26.9297 272.875 26.8125 273.234 26.5781C273.594 26.3385 273.852 26.0182 274.008 25.6172C274.169 25.2109 274.25 24.7604 274.25 24.2656ZM279.203 16V28H277.75V16H279.203ZM285.031 28.1562C284.443 28.1562 283.909 28.0573 283.43 27.8594C282.956 27.6562 282.547 27.3724 282.203 27.0078C281.865 26.6432 281.604 26.2109 281.422 25.7109C281.24 25.2109 281.148 24.6641 281.148 24.0703V23.7422C281.148 23.0547 281.25 22.4427 281.453 21.9062C281.656 21.3646 281.932 20.9062 282.281 20.5312C282.63 20.1562 283.026 19.8724 283.469 19.6797C283.911 19.487 284.37 19.3906 284.844 19.3906C285.448 19.3906 285.969 19.4948 286.406 19.7031C286.849 19.9115 287.211 20.2031 287.492 20.5781C287.773 20.9479 287.982 21.3854 288.117 21.8906C288.253 22.3906 288.32 22.9375 288.32 23.5312V24.1797H282.008V23H286.875V22.8906C286.854 22.5156 286.776 22.151 286.641 21.7969C286.51 21.4427 286.302 21.151 286.016 20.9219C285.729 20.6927 285.339 20.5781 284.844 20.5781C284.516 20.5781 284.214 20.6484 283.938 20.7891C283.661 20.9245 283.424 21.1276 283.227 21.3984C283.029 21.6693 282.875 22 282.766 22.3906C282.656 22.7812 282.602 23.2318 282.602 23.7422V24.0703C282.602 24.4714 282.656 24.849 282.766 25.2031C282.88 25.5521 283.044 25.8594 283.258 26.125C283.477 26.3906 283.74 26.599 284.047 26.75C284.359 26.901 284.714 26.9766 285.109 26.9766C285.62 26.9766 286.052 26.8724 286.406 26.6641C286.76 26.4557 287.07 26.1771 287.336 25.8281L288.211 26.5234C288.029 26.7995 287.797 27.0625 287.516 27.3125C287.234 27.5625 286.888 27.7656 286.477 27.9219C286.07 28.0781 285.589 28.1562 285.031 28.1562ZM298.961 26.5547V22.2031C298.961 21.8698 298.893 21.5807 298.758 21.3359C298.628 21.0859 298.43 20.8932 298.164 20.7578C297.898 20.6224 297.57 20.5547 297.18 20.5547C296.815 20.5547 296.495 20.6172 296.219 20.7422C295.948 20.8672 295.734 21.0312 295.578 21.2344C295.427 21.4375 295.352 21.6562 295.352 21.8906H293.906C293.906 21.5885 293.984 21.2891 294.141 20.9922C294.297 20.6953 294.521 20.4271 294.812 20.1875C295.109 19.9427 295.464 19.75 295.875 19.6094C296.292 19.4635 296.755 19.3906 297.266 19.3906C297.88 19.3906 298.422 19.4948 298.891 19.7031C299.365 19.9115 299.734 20.2266 300 20.6484C300.271 21.0651 300.406 21.5885 300.406 22.2188V26.1562C300.406 26.4375 300.43 26.737 300.477 27.0547C300.529 27.3724 300.604 27.6458 300.703 27.875V28H299.195C299.122 27.8333 299.065 27.612 299.023 27.3359C298.982 27.0547 298.961 26.7943 298.961 26.5547ZM299.211 22.875L299.227 23.8906H297.766C297.354 23.8906 296.987 23.9245 296.664 23.9922C296.341 24.0547 296.07 24.151 295.852 24.2812C295.633 24.4115 295.466 24.5755 295.352 24.7734C295.237 24.9661 295.18 25.1927 295.18 25.4531C295.18 25.7188 295.24 25.9609 295.359 26.1797C295.479 26.3984 295.659 26.5729 295.898 26.7031C296.143 26.8281 296.443 26.8906 296.797 26.8906C297.24 26.8906 297.63 26.7969 297.969 26.6094C298.307 26.4219 298.576 26.1927 298.773 25.9219C298.977 25.651 299.086 25.388 299.102 25.1328L299.719 25.8281C299.682 26.0469 299.583 26.2891 299.422 26.5547C299.26 26.8203 299.044 27.0755 298.773 27.3203C298.508 27.5599 298.19 27.7604 297.82 27.9219C297.456 28.0781 297.044 28.1562 296.586 28.1562C296.013 28.1562 295.51 28.0443 295.078 27.8203C294.651 27.5964 294.318 27.2969 294.078 26.9219C293.844 26.5417 293.727 26.1172 293.727 25.6484C293.727 25.1953 293.815 24.7969 293.992 24.4531C294.169 24.1042 294.424 23.8151 294.758 23.5859C295.091 23.3516 295.492 23.1745 295.961 23.0547C296.43 22.9349 296.953 22.875 297.531 22.875H299.211ZM307.344 16.625H308.805L312.531 25.8984L316.25 16.625H317.719L313.094 28H311.953L307.344 16.625ZM306.867 16.625H308.156L308.367 23.5625V28H306.867V16.625ZM316.898 16.625H318.188V28H316.688V23.5625L316.898 16.625ZM324.125 28.1562C323.536 28.1562 323.003 28.0573 322.523 27.8594C322.049 27.6562 321.641 27.3724 321.297 27.0078C320.958 26.6432 320.698 26.2109 320.516 25.7109C320.333 25.2109 320.242 24.6641 320.242 24.0703V23.7422C320.242 23.0547 320.344 22.4427 320.547 21.9062C320.75 21.3646 321.026 20.9062 321.375 20.5312C321.724 20.1562 322.12 19.8724 322.562 19.6797C323.005 19.487 323.464 19.3906 323.938 19.3906C324.542 19.3906 325.062 19.4948 325.5 19.7031C325.943 19.9115 326.305 20.2031 326.586 20.5781C326.867 20.9479 327.076 21.3854 327.211 21.8906C327.346 22.3906 327.414 22.9375 327.414 23.5312V24.1797H321.102V23H325.969V22.8906C325.948 22.5156 325.87 22.151 325.734 21.7969C325.604 21.4427 325.396 21.151 325.109 20.9219C324.823 20.6927 324.432 20.5781 323.938 20.5781C323.609 20.5781 323.307 20.6484 323.031 20.7891C322.755 20.9245 322.518 21.1276 322.32 21.3984C322.122 21.6693 321.969 22 321.859 22.3906C321.75 22.7812 321.695 23.2318 321.695 23.7422V24.0703C321.695 24.4714 321.75 24.849 321.859 25.2031C321.974 25.5521 322.138 25.8594 322.352 26.125C322.57 26.3906 322.833 26.599 323.141 26.75C323.453 26.901 323.807 26.9766 324.203 26.9766C324.714 26.9766 325.146 26.8724 325.5 26.6641C325.854 26.4557 326.164 26.1771 326.43 25.8281L327.305 26.5234C327.122 26.7995 326.891 27.0625 326.609 27.3125C326.328 27.5625 325.982 27.7656 325.57 27.9219C325.164 28.0781 324.682 28.1562 324.125 28.1562ZM332.609 28.1562C332.021 28.1562 331.487 28.0573 331.008 27.8594C330.534 27.6562 330.125 27.3724 329.781 27.0078C329.443 26.6432 329.182 26.2109 329 25.7109C328.818 25.2109 328.727 24.6641 328.727 24.0703V23.7422C328.727 23.0547 328.828 22.4427 329.031 21.9062C329.234 21.3646 329.51 20.9062 329.859 20.5312C330.208 20.1562 330.604 19.8724 331.047 19.6797C331.49 19.487 331.948 19.3906 332.422 19.3906C333.026 19.3906 333.547 19.4948 333.984 19.7031C334.427 19.9115 334.789 20.2031 335.07 20.5781C335.352 20.9479 335.56 21.3854 335.695 21.8906C335.831 22.3906 335.898 22.9375 335.898 23.5312V24.1797H329.586V23H334.453V22.8906C334.432 22.5156 334.354 22.151 334.219 21.7969C334.089 21.4427 333.88 21.151 333.594 20.9219C333.307 20.6927 332.917 20.5781 332.422 20.5781C332.094 20.5781 331.792 20.6484 331.516 20.7891C331.24 20.9245 331.003 21.1276 330.805 21.3984C330.607 21.6693 330.453 22 330.344 22.3906C330.234 22.7812 330.18 23.2318 330.18 23.7422V24.0703C330.18 24.4714 330.234 24.849 330.344 25.2031C330.458 25.5521 330.622 25.8594 330.836 26.125C331.055 26.3906 331.318 26.599 331.625 26.75C331.938 26.901 332.292 26.9766 332.688 26.9766C333.198 26.9766 333.63 26.8724 333.984 26.6641C334.339 26.4557 334.648 26.1771 334.914 25.8281L335.789 26.5234C335.607 26.7995 335.375 27.0625 335.094 27.3125C334.812 27.5625 334.466 27.7656 334.055 27.9219C333.648 28.0781 333.167 28.1562 332.609 28.1562ZM341.125 19.5469V20.6562H336.555V19.5469H341.125ZM338.102 17.4922H339.547V25.9062C339.547 26.1927 339.591 26.4089 339.68 26.5547C339.768 26.7005 339.883 26.7969 340.023 26.8438C340.164 26.8906 340.315 26.9141 340.477 26.9141C340.596 26.9141 340.721 26.9036 340.852 26.8828C340.987 26.8568 341.089 26.8359 341.156 26.8203L341.164 28C341.049 28.0365 340.898 28.0703 340.711 28.1016C340.529 28.138 340.307 28.1562 340.047 28.1562C339.693 28.1562 339.367 28.0859 339.07 27.9453C338.773 27.8047 338.536 27.5703 338.359 27.2422C338.188 26.9089 338.102 26.4609 338.102 25.8984V17.4922ZM344.391 19.5469V28H342.938V19.5469H344.391ZM342.828 17.3047C342.828 17.0703 342.898 16.8724 343.039 16.7109C343.185 16.5495 343.398 16.4688 343.68 16.4688C343.956 16.4688 344.167 16.5495 344.312 16.7109C344.464 16.8724 344.539 17.0703 344.539 17.3047C344.539 17.5286 344.464 17.7214 344.312 17.8828C344.167 18.0391 343.956 18.1172 343.68 18.1172C343.398 18.1172 343.185 18.0391 343.039 17.8828C342.898 17.7214 342.828 17.5286 342.828 17.3047ZM348.156 21.3516V28H346.711V19.5469H348.078L348.156 21.3516ZM347.812 23.4531L347.211 23.4297C347.216 22.8516 347.302 22.3177 347.469 21.8281C347.635 21.3333 347.87 20.9036 348.172 20.5391C348.474 20.1745 348.833 19.8932 349.25 19.6953C349.672 19.4922 350.138 19.3906 350.648 19.3906C351.065 19.3906 351.44 19.4479 351.773 19.5625C352.107 19.6719 352.391 19.849 352.625 20.0938C352.865 20.3385 353.047 20.6562 353.172 21.0469C353.297 21.4323 353.359 21.9036 353.359 22.4609V28H351.906V22.4453C351.906 22.0026 351.841 21.6484 351.711 21.3828C351.581 21.112 351.391 20.9167 351.141 20.7969C350.891 20.6719 350.583 20.6094 350.219 20.6094C349.859 20.6094 349.531 20.6849 349.234 20.8359C348.943 20.987 348.69 21.1953 348.477 21.4609C348.268 21.7266 348.104 22.0312 347.984 22.375C347.87 22.7135 347.812 23.0729 347.812 23.4531ZM361.031 19.5469H362.344V27.8203C362.344 28.5651 362.193 29.2005 361.891 29.7266C361.589 30.2526 361.167 30.651 360.625 30.9219C360.089 31.1979 359.469 31.3359 358.766 31.3359C358.474 31.3359 358.13 31.2891 357.734 31.1953C357.344 31.1068 356.958 30.9531 356.578 30.7344C356.203 30.5208 355.888 30.2318 355.633 29.8672L356.391 29.0078C356.745 29.4349 357.115 29.7318 357.5 29.8984C357.891 30.0651 358.276 30.1484 358.656 30.1484C359.115 30.1484 359.51 30.0625 359.844 29.8906C360.177 29.7188 360.435 29.4635 360.617 29.125C360.805 28.7917 360.898 28.3802 360.898 27.8906V21.4062L361.031 19.5469ZM355.211 23.8672V23.7031C355.211 23.0573 355.286 22.4714 355.438 21.9453C355.594 21.4141 355.815 20.9583 356.102 20.5781C356.393 20.1979 356.745 19.9062 357.156 19.7031C357.568 19.4948 358.031 19.3906 358.547 19.3906C359.078 19.3906 359.542 19.4844 359.938 19.6719C360.339 19.8542 360.677 20.1224 360.953 20.4766C361.234 20.8255 361.456 21.2474 361.617 21.7422C361.779 22.237 361.891 22.7969 361.953 23.4219V24.1406C361.896 24.7604 361.784 25.3177 361.617 25.8125C361.456 26.3073 361.234 26.7292 360.953 27.0781C360.677 27.4271 360.339 27.6953 359.938 27.8828C359.536 28.0651 359.068 28.1562 358.531 28.1562C358.026 28.1562 357.568 28.0495 357.156 27.8359C356.75 27.6224 356.401 27.3229 356.109 26.9375C355.818 26.5521 355.594 26.099 355.438 25.5781C355.286 25.0521 355.211 24.4818 355.211 23.8672ZM356.656 23.7031V23.8672C356.656 24.2891 356.698 24.6849 356.781 25.0547C356.87 25.4245 357.003 25.75 357.18 26.0312C357.362 26.3125 357.594 26.5339 357.875 26.6953C358.156 26.8516 358.492 26.9297 358.883 26.9297C359.362 26.9297 359.758 26.8281 360.07 26.625C360.383 26.4219 360.63 26.1536 360.812 25.8203C361 25.487 361.146 25.125 361.25 24.7344V22.8516C361.193 22.5651 361.104 22.2891 360.984 22.0234C360.87 21.7526 360.719 21.513 360.531 21.3047C360.349 21.0911 360.122 20.9219 359.852 20.7969C359.581 20.6719 359.263 20.6094 358.898 20.6094C358.503 20.6094 358.161 20.6927 357.875 20.8594C357.594 21.0208 357.362 21.2448 357.18 21.5312C357.003 21.8125 356.87 22.1406 356.781 22.5156C356.698 22.8854 356.656 23.2812 356.656 23.7031Z" fill="white"/>
<path d="M380 20.1428V26.6428C380 26.7754 379.948 26.9026 379.854 26.9964C379.76 27.0901 379.633 27.1428 379.5 27.1428C379.368 27.1428 379.24 27.0901 379.147 26.9964C379.053 26.9026 379 26.7754 379 26.6428V21.3497L371.854 28.4966C371.76 28.5904 371.633 28.6431 371.5 28.6431C371.368 28.6431 371.24 28.5904 371.147 28.4966C371.053 28.4028 371 28.2755 371 28.1428C371 28.0101 371.053 27.8829 371.147 27.7891L378.293 20.6428H373C372.868 20.6428 372.74 20.5901 372.647 20.4964C372.553 20.4026 372.5 20.2754 372.5 20.1428C372.5 20.0102 372.553 19.883 372.647 19.7893C372.74 19.6955 372.868 19.6428 373 19.6428H379.5C379.633 19.6428 379.76 19.6955 379.854 19.7893C379.948 19.883 380 20.0102 380 20.1428Z" fill="white"/>
</svg>
