<svg width="175" height="45" viewBox="0 0 175 45" fill="none" xmlns="http://www.w3.org/2000/svg">
<rect width="3" height="45" fill="#2E31CA"/>
<rect x="7" width="5" height="45" fill="#2E31CA"/>
<rect width="159" height="45" transform="translate(16)" fill="#2E31CA"/>
<path d="M39.3828 25.125C39.3828 24.8594 39.3411 24.625 39.2578 24.4219C39.1797 24.2135 39.0391 24.026 38.8359 23.8594C38.638 23.6927 38.362 23.5339 38.0078 23.3828C37.6589 23.2318 37.2161 23.0781 36.6797 22.9219C36.1172 22.7552 35.6094 22.5703 35.1562 22.3672C34.7031 22.1589 34.3151 21.9219 33.9922 21.6562C33.6693 21.3906 33.4219 21.0859 33.25 20.7422C33.0781 20.3984 32.9922 20.0052 32.9922 19.5625C32.9922 19.1198 33.0833 18.7109 33.2656 18.3359C33.4479 17.9609 33.7083 17.6354 34.0469 17.3594C34.3906 17.0781 34.7995 16.8594 35.2734 16.7031C35.7474 16.5469 36.276 16.4688 36.8594 16.4688C37.7135 16.4688 38.4375 16.6328 39.0312 16.9609C39.6302 17.2839 40.0859 17.7083 40.3984 18.2344C40.7109 18.7552 40.8672 19.3125 40.8672 19.9062H39.3672C39.3672 19.4792 39.276 19.1016 39.0938 18.7734C38.9115 18.4401 38.6354 18.1797 38.2656 17.9922C37.8958 17.7995 37.4271 17.7031 36.8594 17.7031C36.3229 17.7031 35.8802 17.7839 35.5312 17.9453C35.1823 18.1068 34.9219 18.3255 34.75 18.6016C34.5833 18.8776 34.5 19.1927 34.5 19.5469C34.5 19.7865 34.5495 20.0052 34.6484 20.2031C34.7526 20.3958 34.9115 20.5755 35.125 20.7422C35.3438 20.9089 35.6198 21.0625 35.9531 21.2031C36.2917 21.3438 36.6953 21.4792 37.1641 21.6094C37.8099 21.7917 38.3672 21.9948 38.8359 22.2188C39.3047 22.4427 39.6901 22.6953 39.9922 22.9766C40.2995 23.2526 40.526 23.5677 40.6719 23.9219C40.8229 24.2708 40.8984 24.6667 40.8984 25.1094C40.8984 25.5729 40.8047 25.9922 40.6172 26.3672C40.4297 26.7422 40.1615 27.0625 39.8125 27.3281C39.4635 27.5938 39.0443 27.7995 38.5547 27.9453C38.0703 28.0859 37.5286 28.1562 36.9297 28.1562C36.4036 28.1562 35.8854 28.0833 35.375 27.9375C34.8698 27.7917 34.4089 27.5729 33.9922 27.2812C33.5807 26.9896 33.25 26.6302 33 26.2031C32.7552 25.7708 32.6328 25.2708 32.6328 24.7031H34.1328C34.1328 25.0938 34.2083 25.4297 34.3594 25.7109C34.5104 25.987 34.7161 26.2161 34.9766 26.3984C35.2422 26.5807 35.5417 26.7161 35.875 26.8047C36.2135 26.888 36.5651 26.9297 36.9297 26.9297C37.4557 26.9297 37.901 26.8568 38.2656 26.7109C38.6302 26.5651 38.9062 26.3568 39.0938 26.0859C39.2865 25.8151 39.3828 25.4948 39.3828 25.125ZM45.9844 26.9688C46.3281 26.9688 46.6458 26.8984 46.9375 26.7578C47.2292 26.6172 47.4688 26.4245 47.6562 26.1797C47.8438 25.9297 47.9505 25.6458 47.9766 25.3281H49.3516C49.3255 25.8281 49.1562 26.2943 48.8438 26.7266C48.5365 27.1536 48.1328 27.5 47.6328 27.7656C47.1328 28.026 46.5833 28.1562 45.9844 28.1562C45.349 28.1562 44.7943 28.0443 44.3203 27.8203C43.8516 27.5964 43.4609 27.2891 43.1484 26.8984C42.8411 26.5078 42.6094 26.0599 42.4531 25.5547C42.3021 25.0443 42.2266 24.5052 42.2266 23.9375V23.6094C42.2266 23.0417 42.3021 22.5052 42.4531 22C42.6094 21.4896 42.8411 21.0391 43.1484 20.6484C43.4609 20.2578 43.8516 19.9505 44.3203 19.7266C44.7943 19.5026 45.349 19.3906 45.9844 19.3906C46.6458 19.3906 47.224 19.526 47.7188 19.7969C48.2135 20.0625 48.6016 20.4271 48.8828 20.8906C49.1693 21.349 49.3255 21.8698 49.3516 22.4531H47.9766C47.9505 22.1042 47.8516 21.7891 47.6797 21.5078C47.513 21.2266 47.2839 21.0026 46.9922 20.8359C46.7057 20.6641 46.3698 20.5781 45.9844 20.5781C45.5417 20.5781 45.1693 20.6667 44.8672 20.8438C44.5703 21.0156 44.3333 21.25 44.1562 21.5469C43.9844 21.8385 43.8594 22.1641 43.7812 22.5234C43.7083 22.8776 43.6719 23.2396 43.6719 23.6094V23.9375C43.6719 24.3073 43.7083 24.6719 43.7812 25.0312C43.8542 25.3906 43.9766 25.7161 44.1484 26.0078C44.3255 26.2995 44.5625 26.5339 44.8594 26.7109C45.1615 26.8828 45.5365 26.9688 45.9844 26.9688ZM52.4219 16V28H50.9766V16H52.4219ZM52.0781 23.4531L51.4766 23.4297C51.4818 22.8516 51.5677 22.3177 51.7344 21.8281C51.901 21.3333 52.1354 20.9036 52.4375 20.5391C52.7396 20.1745 53.099 19.8932 53.5156 19.6953C53.9375 19.4922 54.4036 19.3906 54.9141 19.3906C55.3307 19.3906 55.7057 19.4479 56.0391 19.5625C56.3724 19.6719 56.6562 19.849 56.8906 20.0938C57.1302 20.3385 57.3125 20.6562 57.4375 21.0469C57.5625 21.4323 57.625 21.9036 57.625 22.4609V28H56.1719V22.4453C56.1719 22.0026 56.1068 21.6484 55.9766 21.3828C55.8464 21.112 55.6562 20.9167 55.4062 20.7969C55.1562 20.6719 54.849 20.6094 54.4844 20.6094C54.125 20.6094 53.7969 20.6849 53.5 20.8359C53.2083 20.987 52.9557 21.1953 52.7422 21.4609C52.5339 21.7266 52.3698 22.0312 52.25 22.375C52.1354 22.7135 52.0781 23.0729 52.0781 23.4531ZM63.2969 28.1562C62.7083 28.1562 62.1745 28.0573 61.6953 27.8594C61.2214 27.6562 60.8125 27.3724 60.4688 27.0078C60.1302 26.6432 59.8698 26.2109 59.6875 25.7109C59.5052 25.2109 59.4141 24.6641 59.4141 24.0703V23.7422C59.4141 23.0547 59.5156 22.4427 59.7188 21.9062C59.9219 21.3646 60.1979 20.9062 60.5469 20.5312C60.8958 20.1562 61.2917 19.8724 61.7344 19.6797C62.1771 19.487 62.6354 19.3906 63.1094 19.3906C63.7135 19.3906 64.2344 19.4948 64.6719 19.7031C65.1146 19.9115 65.4766 20.2031 65.7578 20.5781C66.0391 20.9479 66.2474 21.3854 66.3828 21.8906C66.5182 22.3906 66.5859 22.9375 66.5859 23.5312V24.1797H60.2734V23H65.1406V22.8906C65.1198 22.5156 65.0417 22.151 64.9062 21.7969C64.776 21.4427 64.5677 21.151 64.2812 20.9219C63.9948 20.6927 63.6042 20.5781 63.1094 20.5781C62.7812 20.5781 62.4792 20.6484 62.2031 20.7891C61.9271 20.9245 61.6901 21.1276 61.4922 21.3984C61.2943 21.6693 61.1406 22 61.0312 22.3906C60.9219 22.7812 60.8672 23.2318 60.8672 23.7422V24.0703C60.8672 24.4714 60.9219 24.849 61.0312 25.2031C61.1458 25.5521 61.3099 25.8594 61.5234 26.125C61.7422 26.3906 62.0052 26.599 62.3125 26.75C62.625 26.901 62.9792 26.9766 63.375 26.9766C63.8854 26.9766 64.3177 26.8724 64.6719 26.6641C65.026 26.4557 65.3359 26.1771 65.6016 25.8281L66.4766 26.5234C66.2943 26.7995 66.0625 27.0625 65.7812 27.3125C65.5 27.5625 65.1536 27.7656 64.7422 27.9219C64.3359 28.0781 63.8542 28.1562 63.2969 28.1562ZM73.6016 26.3594V16H75.0547V28H73.7266L73.6016 26.3594ZM67.9141 23.8672V23.7031C67.9141 23.0573 67.9922 22.4714 68.1484 21.9453C68.3099 21.4141 68.5365 20.9583 68.8281 20.5781C69.125 20.1979 69.4766 19.9062 69.8828 19.7031C70.2943 19.4948 70.7526 19.3906 71.2578 19.3906C71.7891 19.3906 72.2526 19.4844 72.6484 19.6719C73.0495 19.8542 73.388 20.1224 73.6641 20.4766C73.9453 20.8255 74.1667 21.2474 74.3281 21.7422C74.4896 22.237 74.6016 22.7969 74.6641 23.4219V24.1406C74.6068 24.7604 74.4948 25.3177 74.3281 25.8125C74.1667 26.3073 73.9453 26.7292 73.6641 27.0781C73.388 27.4271 73.0495 27.6953 72.6484 27.8828C72.2474 28.0651 71.7786 28.1562 71.2422 28.1562C70.7474 28.1562 70.2943 28.0495 69.8828 27.8359C69.4766 27.6224 69.125 27.3229 68.8281 26.9375C68.5365 26.5521 68.3099 26.099 68.1484 25.5781C67.9922 25.0521 67.9141 24.4818 67.9141 23.8672ZM69.3672 23.7031V23.8672C69.3672 24.2891 69.4089 24.6849 69.4922 25.0547C69.5807 25.4245 69.7161 25.75 69.8984 26.0312C70.0807 26.3125 70.3125 26.5339 70.5938 26.6953C70.875 26.8516 71.2109 26.9297 71.6016 26.9297C72.0807 26.9297 72.474 26.8281 72.7812 26.625C73.0938 26.4219 73.3438 26.1536 73.5312 25.8203C73.7188 25.487 73.8646 25.125 73.9688 24.7344V22.8516C73.9062 22.5651 73.8151 22.2891 73.6953 22.0234C73.5807 21.7526 73.4297 21.513 73.2422 21.3047C73.0599 21.0911 72.8333 20.9219 72.5625 20.7969C72.2969 20.6719 71.9818 20.6094 71.6172 20.6094C71.2214 20.6094 70.8802 20.6927 70.5938 20.8594C70.3125 21.0208 70.0807 21.2448 69.8984 21.5312C69.7161 21.8125 69.5807 22.1406 69.4922 22.5156C69.4089 22.8854 69.3672 23.2812 69.3672 23.7031ZM82.4766 26.0469V19.5469H83.9297V28H82.5469L82.4766 26.0469ZM82.75 24.2656L83.3516 24.25C83.3516 24.8125 83.2917 25.3333 83.1719 25.8125C83.0573 26.2865 82.8698 26.6979 82.6094 27.0469C82.349 27.3958 82.0078 27.6693 81.5859 27.8672C81.1641 28.0599 80.651 28.1562 80.0469 28.1562C79.6354 28.1562 79.2578 28.0964 78.9141 27.9766C78.5755 27.8568 78.2839 27.6719 78.0391 27.4219C77.7943 27.1719 77.6042 26.8464 77.4688 26.4453C77.3385 26.0443 77.2734 25.5625 77.2734 25V19.5469H78.7188V25.0156C78.7188 25.3958 78.7604 25.7109 78.8438 25.9609C78.9323 26.2057 79.0495 26.401 79.1953 26.5469C79.3464 26.6875 79.513 26.7865 79.6953 26.8438C79.8828 26.901 80.0755 26.9297 80.2734 26.9297C80.888 26.9297 81.375 26.8125 81.7344 26.5781C82.0938 26.3385 82.3516 26.0182 82.5078 25.6172C82.6693 25.2109 82.75 24.7604 82.75 24.2656ZM87.7031 16V28H86.25V16H87.7031ZM93.5312 28.1562C92.9427 28.1562 92.4089 28.0573 91.9297 27.8594C91.4557 27.6562 91.0469 27.3724 90.7031 27.0078C90.3646 26.6432 90.1042 26.2109 89.9219 25.7109C89.7396 25.2109 89.6484 24.6641 89.6484 24.0703V23.7422C89.6484 23.0547 89.75 22.4427 89.9531 21.9062C90.1562 21.3646 90.4323 20.9062 90.7812 20.5312C91.1302 20.1562 91.526 19.8724 91.9688 19.6797C92.4115 19.487 92.8698 19.3906 93.3438 19.3906C93.9479 19.3906 94.4688 19.4948 94.9062 19.7031C95.349 19.9115 95.7109 20.2031 95.9922 20.5781C96.2734 20.9479 96.4818 21.3854 96.6172 21.8906C96.7526 22.3906 96.8203 22.9375 96.8203 23.5312V24.1797H90.5078V23H95.375V22.8906C95.3542 22.5156 95.276 22.151 95.1406 21.7969C95.0104 21.4427 94.8021 21.151 94.5156 20.9219C94.2292 20.6927 93.8385 20.5781 93.3438 20.5781C93.0156 20.5781 92.7135 20.6484 92.4375 20.7891C92.1615 20.9245 91.9245 21.1276 91.7266 21.3984C91.5286 21.6693 91.375 22 91.2656 22.3906C91.1562 22.7812 91.1016 23.2318 91.1016 23.7422V24.0703C91.1016 24.4714 91.1562 24.849 91.2656 25.2031C91.3802 25.5521 91.5443 25.8594 91.7578 26.125C91.9766 26.3906 92.2396 26.599 92.5469 26.75C92.8594 26.901 93.2135 26.9766 93.6094 26.9766C94.1198 26.9766 94.5521 26.8724 94.9062 26.6641C95.2604 26.4557 95.5703 26.1771 95.8359 25.8281L96.7109 26.5234C96.5286 26.7995 96.2969 27.0625 96.0156 27.3125C95.7344 27.5625 95.388 27.7656 94.9766 27.9219C94.5703 28.0781 94.0885 28.1562 93.5312 28.1562ZM107.461 26.5547V22.2031C107.461 21.8698 107.393 21.5807 107.258 21.3359C107.128 21.0859 106.93 20.8932 106.664 20.7578C106.398 20.6224 106.07 20.5547 105.68 20.5547C105.315 20.5547 104.995 20.6172 104.719 20.7422C104.448 20.8672 104.234 21.0312 104.078 21.2344C103.927 21.4375 103.852 21.6562 103.852 21.8906H102.406C102.406 21.5885 102.484 21.2891 102.641 20.9922C102.797 20.6953 103.021 20.4271 103.312 20.1875C103.609 19.9427 103.964 19.75 104.375 19.6094C104.792 19.4635 105.255 19.3906 105.766 19.3906C106.38 19.3906 106.922 19.4948 107.391 19.7031C107.865 19.9115 108.234 20.2266 108.5 20.6484C108.771 21.0651 108.906 21.5885 108.906 22.2188V26.1562C108.906 26.4375 108.93 26.737 108.977 27.0547C109.029 27.3724 109.104 27.6458 109.203 27.875V28H107.695C107.622 27.8333 107.565 27.612 107.523 27.3359C107.482 27.0547 107.461 26.7943 107.461 26.5547ZM107.711 22.875L107.727 23.8906H106.266C105.854 23.8906 105.487 23.9245 105.164 23.9922C104.841 24.0547 104.57 24.151 104.352 24.2812C104.133 24.4115 103.966 24.5755 103.852 24.7734C103.737 24.9661 103.68 25.1927 103.68 25.4531C103.68 25.7188 103.74 25.9609 103.859 26.1797C103.979 26.3984 104.159 26.5729 104.398 26.7031C104.643 26.8281 104.943 26.8906 105.297 26.8906C105.74 26.8906 106.13 26.7969 106.469 26.6094C106.807 26.4219 107.076 26.1927 107.273 25.9219C107.477 25.651 107.586 25.388 107.602 25.1328L108.219 25.8281C108.182 26.0469 108.083 26.2891 107.922 26.5547C107.76 26.8203 107.544 27.0755 107.273 27.3203C107.008 27.5599 106.69 27.7604 106.32 27.9219C105.956 28.0781 105.544 28.1562 105.086 28.1562C104.513 28.1562 104.01 28.0443 103.578 27.8203C103.151 27.5964 102.818 27.2969 102.578 26.9219C102.344 26.5417 102.227 26.1172 102.227 25.6484C102.227 25.1953 102.315 24.7969 102.492 24.4531C102.669 24.1042 102.924 23.8151 103.258 23.5859C103.591 23.3516 103.992 23.1745 104.461 23.0547C104.93 22.9349 105.453 22.875 106.031 22.875H107.711ZM118.531 26.9688C118.875 26.9688 119.193 26.8984 119.484 26.7578C119.776 26.6172 120.016 26.4245 120.203 26.1797C120.391 25.9297 120.497 25.6458 120.523 25.3281H121.898C121.872 25.8281 121.703 26.2943 121.391 26.7266C121.083 27.1536 120.68 27.5 120.18 27.7656C119.68 28.026 119.13 28.1562 118.531 28.1562C117.896 28.1562 117.341 28.0443 116.867 27.8203C116.398 27.5964 116.008 27.2891 115.695 26.8984C115.388 26.5078 115.156 26.0599 115 25.5547C114.849 25.0443 114.773 24.5052 114.773 23.9375V23.6094C114.773 23.0417 114.849 22.5052 115 22C115.156 21.4896 115.388 21.0391 115.695 20.6484C116.008 20.2578 116.398 19.9505 116.867 19.7266C117.341 19.5026 117.896 19.3906 118.531 19.3906C119.193 19.3906 119.771 19.526 120.266 19.7969C120.76 20.0625 121.148 20.4271 121.43 20.8906C121.716 21.349 121.872 21.8698 121.898 22.4531H120.523C120.497 22.1042 120.398 21.7891 120.227 21.5078C120.06 21.2266 119.831 21.0026 119.539 20.8359C119.253 20.6641 118.917 20.5781 118.531 20.5781C118.089 20.5781 117.716 20.6667 117.414 20.8438C117.117 21.0156 116.88 21.25 116.703 21.5469C116.531 21.8385 116.406 22.1641 116.328 22.5234C116.255 22.8776 116.219 23.2396 116.219 23.6094V23.9375C116.219 24.3073 116.255 24.6719 116.328 25.0312C116.401 25.3906 116.523 25.7161 116.695 26.0078C116.872 26.2995 117.109 26.5339 117.406 26.7109C117.708 26.8828 118.083 26.9688 118.531 26.9688ZM128.508 26.5547V22.2031C128.508 21.8698 128.44 21.5807 128.305 21.3359C128.174 21.0859 127.977 20.8932 127.711 20.7578C127.445 20.6224 127.117 20.5547 126.727 20.5547C126.362 20.5547 126.042 20.6172 125.766 20.7422C125.495 20.8672 125.281 21.0312 125.125 21.2344C124.974 21.4375 124.898 21.6562 124.898 21.8906H123.453C123.453 21.5885 123.531 21.2891 123.688 20.9922C123.844 20.6953 124.068 20.4271 124.359 20.1875C124.656 19.9427 125.01 19.75 125.422 19.6094C125.839 19.4635 126.302 19.3906 126.812 19.3906C127.427 19.3906 127.969 19.4948 128.438 19.7031C128.911 19.9115 129.281 20.2266 129.547 20.6484C129.818 21.0651 129.953 21.5885 129.953 22.2188V26.1562C129.953 26.4375 129.977 26.737 130.023 27.0547C130.076 27.3724 130.151 27.6458 130.25 27.875V28H128.742C128.669 27.8333 128.612 27.612 128.57 27.3359C128.529 27.0547 128.508 26.7943 128.508 26.5547ZM128.758 22.875L128.773 23.8906H127.312C126.901 23.8906 126.534 23.9245 126.211 23.9922C125.888 24.0547 125.617 24.151 125.398 24.2812C125.18 24.4115 125.013 24.5755 124.898 24.7734C124.784 24.9661 124.727 25.1927 124.727 25.4531C124.727 25.7188 124.786 25.9609 124.906 26.1797C125.026 26.3984 125.206 26.5729 125.445 26.7031C125.69 26.8281 125.99 26.8906 126.344 26.8906C126.786 26.8906 127.177 26.7969 127.516 26.6094C127.854 26.4219 128.122 26.1927 128.32 25.9219C128.523 25.651 128.633 25.388 128.648 25.1328L129.266 25.8281C129.229 26.0469 129.13 26.2891 128.969 26.5547C128.807 26.8203 128.591 27.0755 128.32 27.3203C128.055 27.5599 127.737 27.7604 127.367 27.9219C127.003 28.0781 126.591 28.1562 126.133 28.1562C125.56 28.1562 125.057 28.0443 124.625 27.8203C124.198 27.5964 123.865 27.2969 123.625 26.9219C123.391 26.5417 123.273 26.1172 123.273 25.6484C123.273 25.1953 123.362 24.7969 123.539 24.4531C123.716 24.1042 123.971 23.8151 124.305 23.5859C124.638 23.3516 125.039 23.1745 125.508 23.0547C125.977 22.9349 126.5 22.875 127.078 22.875H128.758ZM133.797 16V28H132.344V16H133.797ZM137.688 16V28H136.234V16H137.688Z" fill="white"/>
<path d="M155.5 20.1429V26.6429C155.5 26.7755 155.448 26.9026 155.354 26.9964C155.26 27.0902 155.133 27.1429 155 27.1429C154.868 27.1429 154.74 27.0902 154.647 26.9964C154.553 26.9026 154.5 26.7755 154.5 26.6429V21.3497L147.354 28.4966C147.26 28.5904 147.133 28.6431 147 28.6431C146.868 28.6431 146.74 28.5904 146.647 28.4966C146.553 28.4028 146.5 28.2755 146.5 28.1429C146.5 28.0102 146.553 27.8829 146.647 27.7891L153.793 20.6429H148.5C148.368 20.6429 148.24 20.5902 148.147 20.4964C148.053 20.4026 148 20.2755 148 20.1429C148 20.0102 148.053 19.8831 148.147 19.7893C148.24 19.6955 148.368 19.6429 148.5 19.6429H155C155.133 19.6429 155.26 19.6955 155.354 19.7893C155.448 19.8831 155.5 20.0102 155.5 20.1429Z" fill="white"/>
</svg>
