<svg width="55" height="37" viewBox="0 0 55 37" fill="none" xmlns="http://www.w3.org/2000/svg">
<path d="M53.9714 12.6189L48.3867 1.46263C48.2326 1.15423 48.0193 0.879205 47.7589 0.653262C47.4985 0.427318 47.1961 0.254881 46.8691 0.145798C46.542 0.0367161 46.1967 -0.00687493 45.8528 0.0175144C45.5089 0.0419037 45.1732 0.133796 44.8648 0.287943L39.1292 3.14482L27.3429 0.0298178C27.1996 -0.00801042 27.0488 -0.00801042 26.9054 0.0298178L15.1192 3.14482L9.38357 0.277005C9.07519 0.122858 8.73947 0.0309664 8.39558 0.00657707C8.05169 -0.0178123 7.70636 0.0257787 7.37932 0.134861C7.05227 0.243943 6.74992 0.41638 6.48952 0.642323C6.22913 0.868267 6.01579 1.14329 5.86169 1.45169L0.277006 12.6189C0.122859 12.9273 0.0309664 13.263 0.00657705 13.6069C-0.0178123 13.9508 0.0257789 14.2961 0.134861 14.6231C0.243944 14.9502 0.41638 15.2525 0.642324 15.5129C0.868268 15.7733 1.14329 15.9867 1.45169 16.1408L7.42138 19.1267L19.6167 27.8373C19.7054 27.9012 19.8057 27.9472 19.912 27.9729L33.912 31.4729C34.0577 31.5111 34.2107 31.511 34.3563 31.4727C34.502 31.4344 34.6352 31.3591 34.7433 31.2542L46.8926 19.1048L52.7989 16.1517C53.1073 15.9976 53.3823 15.7843 53.6082 15.5239C53.8342 15.2635 54.0066 14.9611 54.1157 14.6341C54.2248 14.307 54.2684 13.9617 54.244 13.6178C54.2196 13.2739 54.1277 12.9382 53.9736 12.6298L53.9714 12.6189ZM42.8151 20.7017L34.6776 14.1829C34.5092 14.0478 34.2966 13.9797 34.081 13.9918C33.8653 14.0039 33.6618 14.0954 33.5095 14.2486C29.2461 18.5448 24.4664 17.9914 21.4148 16.0423C21.3025 15.9703 21.2078 15.8739 21.1378 15.7603C21.0677 15.6467 21.0241 15.5188 21.0101 15.3861C20.9952 15.2583 21.0093 15.1288 21.0513 15.0072C21.0933 14.8857 21.1623 14.7751 21.2529 14.6839L30.9786 5.24919H38.8339L45.3089 18.2014L42.8151 20.7017ZM1.79513 14.0692C1.72518 13.8525 1.74244 13.6171 1.84326 13.4129L7.43669 2.23482C7.50846 2.09036 7.61877 1.96855 7.75543 1.88285C7.89208 1.79715 8.04977 1.7509 8.21107 1.74919C8.34639 1.75002 8.47967 1.78221 8.60044 1.84326L13.8504 4.46826L7.48263 17.2017L2.23263 14.5767C2.12994 14.525 2.03845 14.4536 1.96338 14.3665C1.88831 14.2794 1.83114 14.1784 1.79513 14.0692ZM33.8551 29.6551L20.4983 26.3148L8.99201 18.0964L15.6289 4.81169L27.1242 1.77982L33.6254 3.49919H30.6242C30.3963 3.49898 30.1774 3.58766 30.0139 3.74638L20.017 13.4436C19.7388 13.7218 19.5267 14.059 19.3964 14.4302C19.266 14.8015 19.2208 15.1973 19.2641 15.5884C19.3074 15.9794 19.438 16.3558 19.6463 16.6896C19.8546 17.0233 20.1353 17.306 20.4676 17.5167C24.8164 20.297 30.1211 19.7042 34.1745 16.027L41.5617 21.9464L33.8551 29.6551ZM52.4489 14.0692C52.4129 14.1784 52.3557 14.2794 52.2806 14.3665C52.2056 14.4536 52.1141 14.525 52.0114 14.5767L46.7614 17.2017L40.3979 4.46826L45.6479 1.84326C45.8545 1.74269 46.0923 1.72738 46.31 1.80064C46.5278 1.8739 46.7079 2.02985 46.8117 2.23482L52.3964 13.402C52.503 13.6081 52.5235 13.8481 52.4533 14.0692H52.4489ZM27.1111 36.0929C27.0625 36.281 26.9527 36.4476 26.7991 36.5664C26.6454 36.6852 26.4566 36.7495 26.2623 36.7492C26.1886 36.7495 26.1151 36.7407 26.0436 36.7229L16.9261 34.4414C16.8193 34.4153 16.7183 34.3693 16.6286 34.3058L10.8667 30.1867C10.6778 30.0518 10.5503 29.8474 10.5122 29.6185C10.474 29.3896 10.5284 29.1549 10.6633 28.9661C10.7981 28.7772 11.0025 28.6497 11.2314 28.6115C11.4603 28.5734 11.695 28.6277 11.8839 28.7626L17.5101 32.7811L26.4789 35.0233C26.5909 35.0516 26.6962 35.1017 26.7887 35.1709C26.8812 35.2401 26.959 35.327 27.0178 35.4264C27.0766 35.5258 27.1151 35.6359 27.1311 35.7503C27.1471 35.8647 27.1403 35.9812 27.1111 36.0929Z" fill="#FAF1E1"/>
</svg>
