<svg width="23" height="23" viewBox="0 0 23 23" fill="none" xmlns="http://www.w3.org/2000/svg">
<path d="M14.0634 13.2549L16.5791 14.5105C16.4598 15.1063 16.1375 15.6423 15.6672 16.0271C15.1969 16.4118 14.6077 16.6215 14 16.6203C11.9121 16.618 9.91044 15.7876 8.43409 14.3112C6.95775 12.8349 6.12732 10.8332 6.125 8.74533C6.12483 8.13843 6.33496 7.55022 6.71963 7.0808C7.1043 6.61138 7.63975 6.28975 8.23484 6.17065L9.49047 8.68627L8.42188 10.2766C8.34202 10.3964 8.29296 10.534 8.27903 10.6773C8.2651 10.8206 8.28674 10.9651 8.34203 11.098C8.96808 12.5859 10.1518 13.7696 11.6397 14.3956C11.773 14.4534 11.9186 14.477 12.0634 14.4644C12.2081 14.4518 12.3474 14.4034 12.4688 14.3235L14.0634 13.2549ZM22.75 11.3703C22.7504 13.3342 22.2424 15.2647 21.2754 16.974C20.3083 18.6833 18.9153 20.1131 17.2317 21.1242C15.5482 22.1353 13.6315 22.6934 11.6683 22.744C9.70507 22.7947 7.76219 22.3362 6.02875 21.4131L2.30453 22.6545C1.99619 22.7574 1.6653 22.7723 1.34895 22.6976C1.0326 22.623 0.743298 22.4617 0.513462 22.2319C0.283626 22.002 0.122341 21.7127 0.0476848 21.3964C-0.0269714 21.08 -0.0120484 20.7491 0.0907809 20.4408L1.33219 16.7166C0.520787 15.1911 0.0675905 13.5007 0.00699709 11.7739C-0.0535964 10.0471 0.280006 8.32913 0.982482 6.75048C1.68496 5.17183 2.73784 3.77396 4.06122 2.66298C5.3846 1.552 6.94369 0.757106 8.62014 0.338635C10.2966 -0.0798356 12.0463 -0.110884 13.7366 0.247847C15.4268 0.606577 17.0131 1.34566 18.3751 2.40899C19.7371 3.47232 20.8389 4.83195 21.5969 6.38469C22.3549 7.93742 22.7493 9.64244 22.75 11.3703ZM18.375 13.9953C18.3751 13.8328 18.3299 13.6734 18.2446 13.5351C18.1592 13.3968 18.0369 13.285 17.8916 13.2122L14.3916 11.4622C14.2538 11.3936 14.1003 11.3625 13.9467 11.3721C13.7931 11.3817 13.6447 11.4316 13.5166 11.5169L11.9098 12.5888C11.1723 12.1833 10.5653 11.5763 10.1598 10.8388L11.2317 9.23205C11.317 9.1039 11.367 8.95552 11.3766 8.8019C11.3862 8.64827 11.3551 8.49482 11.2864 8.35705L9.53641 4.85705C9.46387 4.71057 9.35175 4.58733 9.21276 4.5013C9.07377 4.41528 8.91346 4.36991 8.75 4.37033C7.58968 4.37033 6.47688 4.83127 5.65641 5.65174C4.83594 6.47221 4.375 7.58501 4.375 8.74533C4.37789 11.2972 5.39288 13.7436 7.19729 15.548C9.00171 17.3524 11.4482 18.3674 14 18.3703C14.5745 18.3703 15.1434 18.2572 15.6742 18.0373C16.205 17.8174 16.6873 17.4952 17.0936 17.0889C17.4998 16.6827 17.8221 16.2004 18.042 15.6696C18.2618 15.1388 18.375 14.5699 18.375 13.9953Z" fill="#A17755"/>
</svg>
