<svg width="64" height="44" viewBox="0 0 64 44" fill="none" xmlns="http://www.w3.org/2000/svg">
<path d="M63.5729 14.9756L57.1929 2.21059C56.9579 1.74076 56.6326 1.32182 56.2357 0.977713C55.8387 0.633602 55.3779 0.371056 54.8794 0.205068C54.381 0.0390791 53.8548 -0.0271006 53.3307 0.0103082C52.8067 0.047717 52.2952 0.187982 51.8254 0.423092L45.6079 3.53059L32.5104 0.0655918C32.1744 -0.0218639 31.8215 -0.0218639 31.4854 0.0655918L18.3879 3.53059L12.1704 0.423092C11.7006 0.187982 11.1891 0.047717 10.6651 0.0103082C10.1411 -0.0271006 9.61487 0.0390791 9.11644 0.205068C8.61801 0.371056 8.15716 0.633602 7.76021 0.977713C7.36325 1.32182 7.03797 1.74076 6.80294 2.21059L0.422937 14.9731C0.187828 15.4429 0.0475632 15.9544 0.0101544 16.4784C-0.0272544 17.0024 0.0389252 17.5287 0.204914 18.0271C0.370902 18.5255 0.633448 18.9864 0.977559 19.3833C1.32167 19.7803 1.7406 20.1056 2.21044 20.3406L8.96044 23.7181L22.8329 33.6256C23.0373 33.771 23.2671 33.877 23.5104 33.9381L39.5104 37.9381C39.8455 38.0221 40.1966 38.0179 40.5296 37.9259C40.8626 37.8339 41.166 37.6572 41.4104 37.4131L55.1779 23.6431L61.7829 20.3406C62.7312 19.8659 63.4521 19.0341 63.7873 18.0281C64.1225 17.0221 64.0445 15.9241 63.5704 14.9756H63.5729ZM49.8504 23.3181L41.2479 16.4281C40.8626 16.1195 40.3766 15.9643 39.8837 15.9924C39.3908 16.0206 38.9257 16.2301 38.5779 16.5806C34.1254 21.0656 29.1629 20.4981 25.9979 18.4981L36.8079 7.99809H44.7604L51.5629 21.6006L49.8504 23.3181ZM10.3804 3.99809L15.4979 6.55309L9.10544 19.3156L3.99794 16.7631L10.3804 3.99809ZM39.3804 33.7806L24.8529 30.1506L12.5529 21.3656L19.5529 7.36559L31.9979 4.06809L34.4479 4.71559L23.1979 15.6356L23.1779 15.6581C22.7545 16.0816 22.4315 16.5947 22.2328 17.1597C22.0342 17.7247 21.9649 18.3271 22.0302 18.9224C22.0954 19.5178 22.2936 20.0909 22.6099 20.5994C22.9263 21.1079 23.3528 21.5389 23.8579 21.8606C28.9979 25.1431 35.2004 24.6106 40.0854 20.6106L46.9979 26.1631L39.3804 33.7806ZM54.8804 19.3131L48.5004 6.56309L53.6154 3.99809L59.9979 16.7631L54.8804 19.3131ZM32.9429 42.4806C32.8349 42.9129 32.5856 43.2967 32.2346 43.5711C31.8836 43.8456 31.451 43.995 31.0054 43.9956C30.8411 43.9954 30.6774 43.9752 30.5179 43.9356L20.1004 41.3306C19.8568 41.2705 19.6268 41.1644 19.4229 41.0181L12.8354 36.3131C12.4304 35.9951 12.1636 35.5331 12.0907 35.0233C12.0178 34.5135 12.1443 33.9952 12.4439 33.5764C12.7435 33.1575 13.1932 32.8704 13.6992 32.7748C14.2052 32.6792 14.7286 32.7825 15.1604 33.0631L21.4379 37.5481L31.4979 40.0581C32.0124 40.1868 32.4547 40.5146 32.7276 40.9693C33.0004 41.4241 33.0815 41.9686 32.9529 42.4831L32.9429 42.4806Z" fill="#FDEACB"/>
</svg>
