<svg width="52" height="44" viewBox="0 0 52 44" fill="none" xmlns="http://www.w3.org/2000/svg">
<path d="M52 42C52 42.5304 51.7893 43.0391 51.4142 43.4142C51.0391 43.7893 50.5304 44 50 44H2C1.46957 44 0.960859 43.7893 0.585786 43.4142C0.210714 43.0391 0 42.5304 0 42V2C0 1.46957 0.210714 0.96086 0.585786 0.585787C0.960859 0.210714 1.46957 0 2 0C2.53043 0 3.03914 0.210714 3.41421 0.585787C3.78929 0.96086 4 1.46957 4 2V29.1725L16.585 16.585C16.7707 16.399 16.9913 16.2515 17.2341 16.1509C17.4769 16.0502 17.7372 15.9984 18 15.9984C18.2628 15.9984 18.5231 16.0502 18.7659 16.1509C19.0087 16.2515 19.2293 16.399 19.415 16.585L26 23.1725L39.1725 10H34C33.4696 10 32.9609 9.78929 32.5858 9.41421C32.2107 9.03914 32 8.53043 32 8C32 7.46957 32.2107 6.96086 32.5858 6.58579C32.9609 6.21071 33.4696 6 34 6H44C44.5304 6 45.0391 6.21071 45.4142 6.58579C45.7893 6.96086 46 7.46957 46 8V18C46 18.5304 45.7893 19.0391 45.4142 19.4142C45.0391 19.7893 44.5304 20 44 20C43.4696 20 42.9609 19.7893 42.5858 19.4142C42.2107 19.0391 42 18.5304 42 18V12.8275L27.415 27.415C27.2293 27.601 27.0087 27.7485 26.7659 27.8491C26.5231 27.9498 26.2628 28.0016 26 28.0016C25.7372 28.0016 25.4769 27.9498 25.2341 27.8491C24.9913 27.7485 24.7707 27.601 24.585 27.415L18 20.8275L4 34.8275V40H50C50.5304 40 51.0391 40.2107 51.4142 40.5858C51.7893 40.9609 52 41.4696 52 42Z" fill="#FDEACB"/>
</svg>
