<svg width="60" height="48" viewBox="0 0 60 48" fill="none" xmlns="http://www.w3.org/2000/svg">
<path d="M58 44H54V16C54.5304 16 55.0391 15.7893 55.4142 15.4142C55.7893 15.0391 56 14.5304 56 14C56 13.4696 55.7893 12.9609 55.4142 12.5858C55.0391 12.2107 54.5304 12 54 12H42V4C42.5304 4 43.0391 3.78929 43.4142 3.41421C43.7893 3.03914 44 2.53043 44 2C44 1.46957 43.7893 0.96086 43.4142 0.585787C43.0391 0.210714 42.5304 0 42 0H6C5.46957 0 4.96086 0.210714 4.58579 0.585787C4.21071 0.96086 4 1.46957 4 2C4 2.53043 4.21071 3.03914 4.58579 3.41421C4.96086 3.78929 5.46957 4 6 4V44H2C1.46957 44 0.960859 44.2107 0.585786 44.5858C0.210714 44.9609 0 45.4696 0 46C0 46.5304 0.210714 47.0391 0.585786 47.4142C0.960859 47.7893 1.46957 48 2 48H58C58.5304 48 59.0391 47.7893 59.4142 47.4142C59.7893 47.0391 60 46.5304 60 46C60 45.4696 59.7893 44.9609 59.4142 44.5858C59.0391 44.2107 58.5304 44 58 44ZM50 16V44H42V16H50ZM10 4H38V44H32V32C32 31.4696 31.7893 30.9609 31.4142 30.5858C31.0391 30.2107 30.5304 30 30 30H18C17.4696 30 16.9609 30.2107 16.5858 30.5858C16.2107 30.9609 16 31.4696 16 32V44H10V4ZM28 44H20V34H28V44ZM14 12C14 11.4696 14.2107 10.9609 14.5858 10.5858C14.9609 10.2107 15.4696 10 16 10H20C20.5304 10 21.0391 10.2107 21.4142 10.5858C21.7893 10.9609 22 11.4696 22 12C22 12.5304 21.7893 13.0391 21.4142 13.4142C21.0391 13.7893 20.5304 14 20 14H16C15.4696 14 14.9609 13.7893 14.5858 13.4142C14.2107 13.0391 14 12.5304 14 12ZM26 12C26 11.4696 26.2107 10.9609 26.5858 10.5858C26.9609 10.2107 27.4696 10 28 10H32C32.5304 10 33.0391 10.2107 33.4142 10.5858C33.7893 10.9609 34 11.4696 34 12C34 12.5304 33.7893 13.0391 33.4142 13.4142C33.0391 13.7893 32.5304 14 32 14H28C27.4696 14 26.9609 13.7893 26.5858 13.4142C26.2107 13.0391 26 12.5304 26 12ZM14 22C14 21.4696 14.2107 20.9609 14.5858 20.5858C14.9609 20.2107 15.4696 20 16 20H20C20.5304 20 21.0391 20.2107 21.4142 20.5858C21.7893 20.9609 22 21.4696 22 22C22 22.5304 21.7893 23.0391 21.4142 23.4142C21.0391 23.7893 20.5304 24 20 24H16C15.4696 24 14.9609 23.7893 14.5858 23.4142C14.2107 23.0391 14 22.5304 14 22ZM26 22C26 21.4696 26.2107 20.9609 26.5858 20.5858C26.9609 20.2107 27.4696 20 28 20H32C32.5304 20 33.0391 20.2107 33.4142 20.5858C33.7893 20.9609 34 21.4696 34 22C34 22.5304 33.7893 23.0391 33.4142 23.4142C33.0391 23.7893 32.5304 24 32 24H28C27.4696 24 26.9609 23.7893 26.5858 23.4142C26.2107 23.0391 26 22.5304 26 22Z" fill="#FDEACB"/>
</svg>
