<svg width="51" height="52" viewBox="0 0 51 52" fill="none" xmlns="http://www.w3.org/2000/svg">
<path d="M17.195 3.25221C17.0651 2.74009 17.1431 2.19735 17.4119 1.74252C17.6808 1.28769 18.1187 0.957735 18.63 0.824707C22.8936 -0.274902 27.3665 -0.274902 31.63 0.824707C32.1023 0.945617 32.5141 1.23484 32.7881 1.63802C33.0621 2.04119 33.1795 2.53056 33.118 3.01416C33.0566 3.49775 32.8207 3.94226 32.4546 4.26416C32.0886 4.58606 31.6175 4.76317 31.13 4.76221C30.9613 4.76133 30.7934 4.73949 30.63 4.69721C27.0225 3.76575 23.2376 3.76575 19.63 4.69721C19.3753 4.76251 19.1101 4.77691 18.8498 4.7396C18.5894 4.7023 18.339 4.614 18.1128 4.47978C17.8866 4.34556 17.6891 4.16805 17.5317 3.9574C17.3742 3.74676 17.2598 3.50712 17.195 3.25221ZM1.46754 21.5022C1.72066 21.5725 1.98516 21.5923 2.24592 21.5603C2.50668 21.5284 2.75859 21.4454 2.98726 21.3161C3.21594 21.1868 3.4169 21.0137 3.57866 20.8067C3.74043 20.5997 3.85983 20.3629 3.93004 20.1097C4.9265 16.5206 6.81912 13.2438 9.43004 10.5872C9.77187 10.2038 9.95307 9.70355 9.93609 9.19016C9.91911 8.67677 9.70525 8.18959 9.33883 7.8296C8.97241 7.46961 8.48152 7.26441 7.96792 7.25651C7.45431 7.24862 6.95735 7.43864 6.58004 7.78721C3.49551 10.9262 1.2589 14.7972 0.0800406 19.0372C0.00926743 19.2902 -0.0109829 19.5546 0.0204455 19.8154C0.051874 20.0762 0.134366 20.3282 0.26321 20.5571C0.392055 20.786 0.564728 20.9873 0.771369 21.1494C0.978009 21.3116 1.21457 21.4315 1.46754 21.5022ZM30.63 47.3072C27.0225 48.2387 23.2376 48.2387 19.63 47.3072C19.1196 47.1837 18.5811 47.2659 18.1308 47.536C17.6805 47.8062 17.3545 48.2426 17.2232 48.751C17.0919 49.2595 17.1658 49.7992 17.4291 50.2536C17.6923 50.708 18.1237 51.0406 18.63 51.1797C22.8936 52.2793 27.3665 52.2793 31.63 51.1797C32.1364 51.0406 32.5678 50.708 32.831 50.2536C33.0942 49.7992 33.1682 49.2595 33.0369 48.751C32.9056 48.2426 32.5796 47.8062 32.1293 47.536C31.6789 47.2659 31.1404 47.1837 30.63 47.3072ZM46.33 20.1147C46.4719 20.6259 46.8111 21.0598 47.2729 21.321C47.7347 21.5821 48.2813 21.6491 48.7925 21.5072C49.3037 21.3653 49.7376 21.0262 49.9988 20.5644C50.2599 20.1025 50.3269 19.5559 50.185 19.0447C49.0054 14.805 46.7689 10.9342 43.685 7.79471C43.5028 7.60003 43.2834 7.44378 43.0398 7.33514C42.7963 7.2265 42.5335 7.16767 42.2668 7.16211C42.0002 7.15655 41.7351 7.20437 41.4873 7.30276C41.2394 7.40114 41.0137 7.54811 40.8235 7.73502C40.6332 7.92192 40.4823 8.14498 40.3795 8.39108C40.2768 8.63717 40.2243 8.90134 40.2251 9.16802C40.226 9.43471 40.2801 9.69854 40.3845 9.94398C40.4888 10.1894 40.6411 10.4115 40.8325 10.5972C43.4386 13.2547 45.3291 16.529 46.3275 20.1147H46.33ZM50.19 32.9622C48.8669 37.7326 46.2053 42.0242 42.52 45.3297C42.2921 45.5354 42.0198 45.6859 41.7244 45.7695C41.4289 45.8531 41.1182 45.8675 40.8162 45.8117C40.5143 45.7559 40.2293 45.6312 39.9833 45.4475C39.7372 45.2638 39.5368 45.0259 39.3975 44.7522C38.0601 42.1172 36.0191 39.904 33.5007 38.358C30.9824 36.812 28.0851 35.9936 25.13 35.9936C22.175 35.9936 19.2777 36.812 16.7593 38.358C14.241 39.904 12.2 42.1172 10.8625 44.7522C10.7234 45.0256 10.5233 45.2634 10.2775 45.4471C10.0318 45.6308 9.74717 45.7555 9.44556 45.8115C9.14394 45.8676 8.83347 45.8535 8.53817 45.7704C8.24286 45.6873 7.97063 45.5374 7.74254 45.3322C4.05714 42.0248 1.39562 37.7315 0.0725409 32.9597C-0.0690183 32.4485 -0.00170457 31.902 0.259674 31.4404C0.521053 30.9789 0.955086 30.64 1.46629 30.4985C1.9775 30.3569 2.524 30.4242 2.98557 30.6856C3.44714 30.947 3.78598 31.381 3.92754 31.8922C4.82217 35.1243 6.44729 38.1077 8.67754 40.6122C10.9091 37.3756 14.0496 34.8727 17.7025 33.4197C15.7424 31.8767 14.3118 29.7611 13.6099 27.3673C12.9079 24.9734 12.9695 22.4203 13.786 20.0631C14.6025 17.7059 16.1333 15.6617 18.1655 14.2149C20.1978 12.7681 22.6304 11.9907 25.125 11.9907C27.6197 11.9907 30.0523 12.7681 32.0845 14.2149C34.1168 15.6617 35.6476 17.7059 36.4641 20.0631C37.2806 22.4203 37.3421 24.9734 36.6402 27.3673C35.9382 29.7611 34.5077 31.8767 32.5475 33.4197C36.2005 34.8727 39.341 37.3756 41.5725 40.6122C43.8028 38.1077 45.4279 35.1243 46.3225 31.8922C46.3928 31.6391 46.5122 31.4023 46.674 31.1953C46.8358 30.9883 47.0367 30.8153 47.2654 30.686C47.4941 30.5567 47.7459 30.4737 48.0067 30.4417C48.2674 30.4097 48.5319 30.4295 48.785 30.4997C49.0382 30.57 49.275 30.6894 49.4819 30.8512C49.6889 31.0129 49.862 31.2139 49.9913 31.4426C50.1206 31.6712 50.2036 31.9231 50.2356 32.1839C50.2675 32.4446 50.2478 32.7091 50.1775 32.9622H50.19ZM25.13 32.0022C26.7123 32.0022 28.259 31.533 29.5746 30.654C30.8902 29.7749 31.9156 28.5255 32.5211 27.0637C33.1266 25.6019 33.285 23.9933 32.9763 22.4415C32.6676 20.8896 31.9057 19.4642 30.7869 18.3454C29.6681 17.2265 28.2426 16.4646 26.6908 16.1559C25.1389 15.8472 23.5304 16.0057 22.0686 16.6112C20.6068 17.2167 19.3573 18.2421 18.4783 19.5576C17.5992 20.8732 17.13 22.42 17.13 24.0022C17.13 26.1239 17.9729 28.1588 19.4732 29.6591C20.9735 31.1594 23.0083 32.0022 25.13 32.0022Z" fill="#FDEACB"/>
</svg>
