<svg width="52" height="44" viewBox="0 0 52 44" fill="none" xmlns="http://www.w3.org/2000/svg">
<path d="M48 8.00002H26.8275L20 1.17252C19.6299 0.799469 19.1894 0.503704 18.704 0.302418C18.2186 0.101132 17.698 -0.0016586 17.1725 2.02374e-05H4C2.93913 2.02374e-05 1.92172 0.421447 1.17157 1.17159C0.421427 1.92174 0 2.93915 0 4.00002V40.155C0.00132298 41.1744 0.406845 42.1516 1.12764 42.8724C1.84843 43.5932 2.82565 43.9987 3.845 44H48.2225C49.2239 43.9987 50.184 43.6003 50.8921 42.8922C51.6003 42.184 51.9987 41.224 52 40.2225V12C52 10.9392 51.5786 9.92174 50.8284 9.17159C50.0783 8.42145 49.0609 8.00002 48 8.00002ZM17.1725 4.00002L21.1725 8.00002H4V4.00002H17.1725ZM48 40H4V12H48V40ZM26 18C26.5304 18 27.0391 18.2107 27.4142 18.5858C27.7893 18.9609 28 19.4696 28 20V24H32C32.5304 24 33.0391 24.2107 33.4142 24.5858C33.7893 24.9609 34 25.4696 34 26C34 26.5305 33.7893 27.0392 33.4142 27.4142C33.0391 27.7893 32.5304 28 32 28H28V32C28 32.5305 27.7893 33.0392 27.4142 33.4142C27.0391 33.7893 26.5304 34 26 34C25.4696 34 24.9609 33.7893 24.5858 33.4142C24.2107 33.0392 24 32.5305 24 32V28H20C19.4696 28 18.9609 27.7893 18.5858 27.4142C18.2107 27.0392 18 26.5305 18 26C18 25.4696 18.2107 24.9609 18.5858 24.5858C18.9609 24.2107 19.4696 24 20 24H24V20C24 19.4696 24.2107 18.9609 24.5858 18.5858C24.9609 18.2107 25.4696 18 26 18Z" fill="#FDEACB"/>
</svg>
